ISO-10303-21;
HEADER;
FILE_DESCRIPTION (( 'STEP AP214' ),
    '1' );
FILE_NAME ('Curvy.STEP',
    '2026-04-10T06:00:40',
    ( '' ),
    ( '' ),
    'SwSTEP 2.0',
    'SolidWorks 2025',
    '' );
FILE_SCHEMA (( 'AUTOMOTIVE_DESIGN' ));
ENDSEC;

DATA;
#1 = ORIENTED_EDGE ( 'NONE', *, *, #49, .F. ) ;
#2 = CARTESIAN_POINT ( 'NONE',  ( 7.399999999999998579, 15.00000000000000000, 0.000000000000000000 ) ) ;
#3 = ORIENTED_EDGE ( 'NONE', *, *, #245, .T. ) ;
#4 = ADVANCED_FACE ( 'NONE', ( #445 ), #354, .F. ) ;
#5 = CARTESIAN_POINT ( 'NONE',  ( 0.000000000000000000, 30.00000000000000000, 0.000000000000000000 ) ) ;
#6 = VECTOR ( 'NONE', #425, 1000.000000000000000 ) ;
#7 = ORIENTED_EDGE ( 'NONE', *, *, #81, .T. ) ;
#8 = PRODUCT ( 'Curvy', 'Curvy', '', ( #138 ) ) ;
#9 =( NAMED_UNIT ( * ) SI_UNIT ( $, .STERADIAN. ) SOLID_ANGLE_UNIT ( ) );
#10 = DIRECTION ( 'NONE',  ( 1.927470528863120035E-16, 1.000000000000000000, 0.000000000000000000 ) ) ;
#11 = EDGE_CURVE ( 'NONE', #492, #137, #209, .T. ) ;
#12 = EDGE_LOOP ( 'NONE', ( #503, #166, #22, #457 ) ) ;
#13 = CARTESIAN_POINT ( 'NONE',  ( 0.000000000000000000, 0.000000000000000000, 0.000000000000000000 ) ) ;
#14 = ORIENTED_EDGE ( 'NONE', *, *, #517, .F. ) ;
#15 = PLANE ( 'NONE',  #462 ) ;
#16 = ORIENTED_EDGE ( 'NONE', *, *, #414, .F. ) ;
#17 = AXIS2_PLACEMENT_3D ( 'NONE', #502, #463, #262 ) ;
#18 = ADVANCED_FACE ( 'NONE', ( #443 ), #77, .T. ) ;
#19 = FACE_OUTER_BOUND ( 'NONE', #512, .T. ) ;
#20 = VERTEX_POINT ( 'NONE', #70 ) ;
#21 = CARTESIAN_POINT ( 'NONE',  ( 1.299999999999996048, 28.70000000000000284, 31.24199999999999733 ) ) ;
#22 = ORIENTED_EDGE ( 'NONE', *, *, #523, .T. ) ;
#23 = DIRECTION ( 'NONE',  ( -1.000000000000000000, -0.000000000000000000, 0.000000000000000000 ) ) ;
#24 = ORIENTED_EDGE ( 'NONE', *, *, #221, .F. ) ;
#25 = VECTOR ( 'NONE', #412, 1000.000000000000000 ) ;
#26 = DIRECTION ( 'NONE',  ( 1.927470528863120035E-16, 1.000000000000000000, 0.000000000000000000 ) ) ;
#27 = ORIENTED_EDGE ( 'NONE', *, *, #178, .F. ) ;
#28 = EDGE_CURVE ( 'NONE', #332, #58, #38, .T. ) ;
#29 = PRESENTATION_LAYER_ASSIGNMENT (  '', '', ( #53 ) ) ;
#30 = DIRECTION ( 'NONE',  ( 0.000000000000000000, 1.000000000000000000, 0.000000000000000000 ) ) ;
#31 = FILL_AREA_STYLE_COLOUR ( '', #371 ) ;
#32 = EDGE_CURVE ( 'NONE', #379, #107, #73, .T. ) ;
#33 = CARTESIAN_POINT ( 'NONE',  ( 0.000000000000000000, 0.000000000000000000, 31.24199999999999733 ) ) ;
#34 = CARTESIAN_POINT ( 'NONE',  ( 3.699999999999999734, 15.00000000000000000, 31.24199999999999733 ) ) ;
#35 = ADVANCED_FACE ( 'NONE', ( #161 ), #479, .F. ) ;
#36 = AXIS2_PLACEMENT_3D ( 'NONE', #21, #349, #298 ) ;
#37 = DIRECTION ( 'NONE',  ( 1.000000000000000000, 0.000000000000000000, 0.000000000000000000 ) ) ;
#38 = LINE ( 'NONE', #314, #516 ) ;
#39 = FACE_BOUND ( 'NONE', #296, .T. ) ;
#40 = DIRECTION ( 'NONE',  ( 0.000000000000000000, 1.000000000000000000, 0.000000000000000000 ) ) ;
#41 = CARTESIAN_POINT ( 'NONE',  ( 1.299999999999996492, 33.70000000000000284, 0.000000000000000000 ) ) ;
#42 = AXIS2_PLACEMENT_3D ( 'NONE', #62, #23, #346 ) ;
#43 = CARTESIAN_POINT ( 'NONE',  ( 3.699999999999999289, 22.72499999999999787, 2.920999999999999819 ) ) ;
#44 = ORIENTED_EDGE ( 'NONE', *, *, #183, .T. ) ;
#45 = LINE ( 'NONE', #211, #494 ) ;
#46 = ORIENTED_EDGE ( 'NONE', *, *, #341, .T. ) ;
#47 = LINE ( 'NONE', #5, #277 ) ;
#48 = ORIENTED_EDGE ( 'NONE', *, *, #49, .T. ) ;
#49 = EDGE_CURVE ( 'NONE', #229, #379, #239, .T. ) ;
#50 = DIRECTION ( 'NONE',  ( 0.000000000000000000, 0.000000000000000000, 1.000000000000000000 ) ) ;
#51 = AXIS2_PLACEMENT_3D ( 'NONE', #238, #398, #235 ) ;
#52 = ORIENTED_EDGE ( 'NONE', *, *, #335, .F. ) ;
#53 = STYLED_ITEM ( 'NONE', ( #195 ), #75 ) ;
#54 = LINE ( 'NONE', #64, #180 ) ;
#55 = EDGE_CURVE ( 'NONE', #20, #222, #536, .T. ) ;
#56 = ORIENTED_EDGE ( 'NONE', *, *, #367, .T. ) ;
#57 = DIRECTION ( 'NONE',  ( 1.000000000000000000, 0.000000000000000000, -0.000000000000000000 ) ) ;
#58 = VERTEX_POINT ( 'NONE', #204 ) ;
#59 = CARTESIAN_POINT ( 'NONE',  ( 0.000000000000000000, 0.000000000000000000, 31.24199999999999733 ) ) ;
#60 = ORIENTED_EDGE ( 'NONE', *, *, #162, .T. ) ;
#61 = VECTOR ( 'NONE', #293, 1000.000000000000000 ) ;
#62 = CARTESIAN_POINT ( 'NONE',  ( 3.699999999999999289, 20.47500000000000142, 2.920999999999999819 ) ) ;
#63 = EDGE_LOOP ( 'NONE', ( #46, #212, #374, #287 ) ) ;
#64 = CARTESIAN_POINT ( 'NONE',  ( -3.700000000000003286, 28.70000000000000284, 31.24199999999999733 ) ) ;
#65 = VERTEX_POINT ( 'NONE', #285 ) ;
#66 = CARTESIAN_POINT ( 'NONE',  ( -3.701000000000005397, 20.47500000000000142, 28.32099999999999795 ) ) ;
#67 = ORIENTED_EDGE ( 'NONE', *, *, #162, .F. ) ;
#68 = CIRCLE ( 'NONE', #393, 5.000000000000000888 ) ;
#69 = FACE_OUTER_BOUND ( 'NONE', #125, .T. ) ;
#70 = CARTESIAN_POINT ( 'NONE',  ( 7.399999999999999467, 22.72499999999999787, 2.920999999999999819 ) ) ;
#71 = EDGE_CURVE ( 'NONE', #251, #222, #237, .T. ) ;
#72 = CARTESIAN_POINT ( 'NONE',  ( 7.400000000000000355, 28.70000000000000284, 31.24199999999999733 ) ) ;
#73 = LINE ( 'NONE', #112, #465 ) ;
#74 = EDGE_CURVE ( 'NONE', #154, #330, #364, .T. ) ;
#75 = MANIFOLD_SOLID_BREP ( 'Cut-Extrude1', #441 ) ;
#76 = PLANE ( 'NONE',  #171 ) ;
#77 = CYLINDRICAL_SURFACE ( 'NONE', #122, 5.000000000000000000 ) ;
#78 = VECTOR ( 'NONE', #484, 1000.000000000000000 ) ;
#79 = CARTESIAN_POINT ( 'NONE',  ( 2.400000000000002132, 33.70000000000000284, 31.24199999999999733 ) ) ;
#80 =( NAMED_UNIT ( * ) PLANE_ANGLE_UNIT ( ) SI_UNIT ( $, .RADIAN. ) );
#81 = EDGE_CURVE ( 'NONE', #416, #389, #482, .T. ) ;
#82 = DIRECTION ( 'NONE',  ( 1.391489419232732793E-16, 1.000000000000000000, 0.000000000000000000 ) ) ;
#83 = ORIENTED_EDGE ( 'NONE', *, *, #203, .T. ) ;
#84 = CIRCLE ( 'NONE', #104, 2.249999999999998668 ) ;
#85 = DIRECTION ( 'NONE',  ( 1.000000000000000000, -1.266221515311537804E-16, -0.000000000000000000 ) ) ;
#86 = AXIS2_PLACEMENT_3D ( 'NONE', #182, #369, #260 ) ;
#87 = EDGE_LOOP ( 'NONE', ( #345, #132, #347, #90 ) ) ;
#88 = ADVANCED_FACE ( 'NONE', ( #397 ), #118, .F. ) ;
#89 = CARTESIAN_POINT ( 'NONE',  ( 7.400000000000000355, 28.70000000000000284, 0.000000000000000000 ) ) ;
#90 = ORIENTED_EDGE ( 'NONE', *, *, #318, .F. ) ;
#91 = EDGE_CURVE ( 'NONE', #229, #218, #334, .T. ) ;
#92 = LINE ( 'NONE', #451, #360 ) ;
#93 = ORIENTED_EDGE ( 'NONE', *, *, #367, .F. ) ;
#94 = LINE ( 'NONE', #172, #249 ) ;
#95 = VECTOR ( 'NONE', #186, 1000.000000000000000 ) ;
#96 = ORIENTED_EDGE ( 'NONE', *, *, #210, .T. ) ;
#97 = FACE_OUTER_BOUND ( 'NONE', #145, .T. ) ;
#98 = ORIENTED_EDGE ( 'NONE', *, *, #221, .T. ) ;
#99 = LINE ( 'NONE', #184, #268 ) ;
#100 = ORIENTED_EDGE ( 'NONE', *, *, #414, .T. ) ;
#101 = CARTESIAN_POINT ( 'NONE',  ( -3.700000000000000178, 0.000000000000000000, 31.24199999999999733 ) ) ;
#102 = EDGE_LOOP ( 'NONE', ( #289, #392 ) ) ;
#103 = CIRCLE ( 'NONE', #401, 5.000000000000000000 ) ;
#104 = AXIS2_PLACEMENT_3D ( 'NONE', #117, #444, #119 ) ;
#105 = EDGE_CURVE ( 'NONE', #330, #65, #68, .T. ) ;
#106 = LINE ( 'NONE', #475, #324 ) ;
#107 = VERTEX_POINT ( 'NONE', #250 ) ;
#108 = EDGE_CURVE ( 'NONE', #389, #154, #94, .T. ) ;
#109 = DIRECTION ( 'NONE',  ( 0.000000000000000000, -0.000000000000000000, 1.000000000000000000 ) ) ;
#110 = ORIENTED_EDGE ( 'NONE', *, *, #470, .F. ) ;
#111 = DIRECTION ( 'NONE',  ( -1.029509481291873756E-16, 1.000000000000000000, 0.000000000000000000 ) ) ;
#112 = CARTESIAN_POINT ( 'NONE',  ( 3.699999999999999734, 30.00000000000000000, 31.24199999999999733 ) ) ;
#113 = CIRCLE ( 'NONE', #42, 2.249999999999997335 ) ;
#114 = LINE ( 'NONE', #279, #447 ) ;
#115 = EDGE_CURVE ( 'NONE', #389, #134, #333, .T. ) ;
#116 = CARTESIAN_POINT ( 'NONE',  ( 3.699999999999999289, 20.47500000000000142, 28.32099999999999795 ) ) ;
#117 = CARTESIAN_POINT ( 'NONE',  ( 3.699999999999999289, 20.47500000000000142, 28.32099999999999795 ) ) ;
#118 = CYLINDRICAL_SURFACE ( 'NONE', #199, 2.249999999999998668 ) ;
#119 = DIRECTION ( 'NONE',  ( 0.000000000000000000, 0.000000000000000000, -1.000000000000000000 ) ) ;
#120 = VECTOR ( 'NONE', #315, 1000.000000000000000 ) ;
#121 = CARTESIAN_POINT ( 'NONE',  ( -3.701000000000005841, 18.22500000000000142, 2.921000000000000263 ) ) ;
#122 = AXIS2_PLACEMENT_3D ( 'NONE', #242, #526, #356 ) ;
#123 = EDGE_CURVE ( 'NONE', #137, #196, #217, .T. ) ;
#124 = DIRECTION ( 'NONE',  ( 1.000000000000000000, -1.266221515311537804E-16, -0.000000000000000000 ) ) ;
#125 = EDGE_LOOP ( 'NONE', ( #83, #259, #27, #248 ) ) ;
#126 = DIRECTION ( 'NONE',  ( -0.000000000000000000, -0.000000000000000000, -1.000000000000000000 ) ) ;
#127 = ORIENTED_EDGE ( 'NONE', *, *, #499, .F. ) ;
#128 = AXIS2_PLACEMENT_3D ( 'NONE', #430, #514, #339 ) ;
#129 = DIRECTION ( 'NONE',  ( 1.000000000000000000, -1.280345732881970757E-16, -2.465190328815661892E-32 ) ) ;
#130 = ORIENTED_EDGE ( 'NONE', *, *, #91, .T. ) ;
#131 = CARTESIAN_POINT ( 'NONE',  ( 3.699999999999999734, 30.00000000000000000, 0.000000000000000000 ) ) ;
#132 = ORIENTED_EDGE ( 'NONE', *, *, #74, .F. ) ;
#133 = PLANE ( 'NONE',  #284 ) ;
#134 = VERTEX_POINT ( 'NONE', #89 ) ;
#135 = FACE_OUTER_BOUND ( 'NONE', #340, .T. ) ;
#136 = CIRCLE ( 'NONE', #256, 5.000000000000000888 ) ;
#137 = VERTEX_POINT ( 'NONE', #337 ) ;
#138 = PRODUCT_CONTEXT ( 'NONE', #449, 'mechanical' ) ;
#139 = DIRECTION ( 'NONE',  ( 0.000000000000000000, 0.000000000000000000, 1.000000000000000000 ) ) ;
#140 = ORIENTED_EDGE ( 'NONE', *, *, #245, .F. ) ;
#141 = CARTESIAN_POINT ( 'NONE',  ( 0.000000000000000000, 30.00000000000000000, 31.24199999999999733 ) ) ;
#142 = ADVANCED_FACE ( 'NONE', ( #491 ), #458, .F. ) ;
#143 = ORIENTED_EDGE ( 'NONE', *, *, #382, .T. ) ;
#144 = CARTESIAN_POINT ( 'NONE',  ( 3.699999999999999734, 30.00000000000000000, 31.24199999999999733 ) ) ;
#145 = EDGE_LOOP ( 'NONE', ( #436, #459, #56, #507, #60, #372, #422, #48, #185, #452 ) ) ;
#146 = VECTOR ( 'NONE', #534, 1000.000000000000000 ) ;
#147 = EDGE_CURVE ( 'NONE', #431, #224, #174, .T. ) ;
#148 = PRODUCT_DEFINITION_SHAPE ( 'NONE', 'NONE',  #439 ) ;
#149 = LINE ( 'NONE', #267, #480 ) ;
#150 = EDGE_LOOP ( 'NONE', ( #100, #299, #44, #308 ) ) ;
#151 = DIRECTION ( 'NONE',  ( 1.000000000000000000, 1.029509481291873756E-16, -0.000000000000000000 ) ) ;
#152 =( NAMED_UNIT ( * ) SI_UNIT ( $, .STERADIAN. ) SOLID_ANGLE_UNIT ( ) );
#153 = DIRECTION ( 'NONE',  ( 0.000000000000000000, 1.000000000000000000, 0.000000000000000000 ) ) ;
#154 = VERTEX_POINT ( 'NONE', #41 ) ;
#155 = AXIS2_PLACEMENT_3D ( 'NONE', #483, #283, #153 ) ;
#156 = CARTESIAN_POINT ( 'NONE',  ( 0.000000000000000000, 0.000000000000000000, 31.24199999999999733 ) ) ;
#157 = SURFACE_SIDE_STYLE ('',( #486 ) ) ;
#158 = FACE_OUTER_BOUND ( 'NONE', #150, .T. ) ;
#159 = DIRECTION ( 'NONE',  ( 0.000000000000000000, -1.000000000000000000, 0.000000000000000000 ) ) ;
#160 = CARTESIAN_POINT ( 'NONE',  ( 3.699999999999999734, 30.00000000000000000, 0.000000000000000000 ) ) ;
#161 = FACE_OUTER_BOUND ( 'NONE', #63, .T. ) ;
#162 = EDGE_CURVE ( 'NONE', #65, #332, #45, .T. ) ;
#163 = VECTOR ( 'NONE', #165, 1000.000000000000000 ) ;
#164 = DIRECTION ( 'NONE',  ( 1.000000000000000000, 0.000000000000000000, -0.000000000000000000 ) ) ;
#165 = DIRECTION ( 'NONE',  ( -0.000000000000000000, -0.000000000000000000, -1.000000000000000000 ) ) ;
#166 = ORIENTED_EDGE ( 'NONE', *, *, #216, .T. ) ;
#167 = ADVANCED_FACE ( 'NONE', ( #460 ), #133, .F. ) ;
#168 = DIRECTION ( 'NONE',  ( 0.000000000000000000, 1.000000000000000000, 0.000000000000000000 ) ) ;
#169 = ORIENTED_EDGE ( 'NONE', *, *, #318, .T. ) ;
#170 = UNCERTAINTY_MEASURE_WITH_UNIT (LENGTH_MEASURE( 1.000000000000000082E-05 ), #448, 'distance_accuracy_value', 'NONE');
#171 = AXIS2_PLACEMENT_3D ( 'NONE', #435, #361, #527 ) ;
#172 = CARTESIAN_POINT ( 'NONE',  ( 7.400000000000001243, 33.70000000000000284, 0.000000000000000000 ) ) ;
#173 = ORIENTED_EDGE ( 'NONE', *, *, #11, .T. ) ;
#174 = LINE ( 'NONE', #453, #25 ) ;
#175 = VERTEX_POINT ( 'NONE', #2 ) ;
#176 = CARTESIAN_POINT ( 'NONE',  ( 3.699999999999999289, 18.22500000000000142, 2.921000000000000263 ) ) ;
#177 = ORIENTED_EDGE ( 'NONE', *, *, #115, .F. ) ;
#178 = EDGE_CURVE ( 'NONE', #387, #490, #92, .T. ) ;
#179 = PLANE ( 'NONE',  #128 ) ;
#180 = VECTOR ( 'NONE', #473, 1000.000000000000000 ) ;
#181 = ORIENTED_EDGE ( 'NONE', *, *, #247, .T. ) ;
#182 = CARTESIAN_POINT ( 'NONE',  ( 0.000000000000000000, 0.000000000000000000, 0.000000000000000000 ) ) ;
#183 = EDGE_CURVE ( 'NONE', #294, #196, #429, .T. ) ;
#184 = CARTESIAN_POINT ( 'NONE',  ( 3.699999999999999734, 30.00000000000000000, 31.24199999999999733 ) ) ;
#185 = ORIENTED_EDGE ( 'NONE', *, *, #32, .T. ) ;
#186 = DIRECTION ( 'NONE',  ( 1.000000000000000000, -1.266221515311537804E-16, -0.000000000000000000 ) ) ;
#187 = ORIENTED_EDGE ( 'NONE', *, *, #508, .F. ) ;
#188 = DIRECTION ( 'NONE',  ( -1.000000000000000000, 0.000000000000000000, 0.000000000000000000 ) ) ;
#189 = ORIENTED_EDGE ( 'NONE', *, *, #382, .F. ) ;
#190 = AXIS2_PLACEMENT_3D ( 'NONE', #288, #124, #10 ) ;
#191 = FACE_OUTER_BOUND ( 'NONE', #278, .T. ) ;
#192 = VECTOR ( 'NONE', #399, 1000.000000000000000 ) ;
#193 = DIRECTION ( 'NONE',  ( -0.000000000000000000, -0.000000000000000000, -1.000000000000000000 ) ) ;
#194 = DIRECTION ( 'NONE',  ( -0.000000000000000000, -0.000000000000000000, 1.000000000000000000 ) ) ;
#195 = PRESENTATION_STYLE_ASSIGNMENT (( #323 ) ) ;
#196 = VERTEX_POINT ( 'NONE', #331 ) ;
#197 = CARTESIAN_POINT ( 'NONE',  ( 2.400000000000002132, 33.70000000000000284, 0.000000000000000000 ) ) ;
#198 = CARTESIAN_POINT ( 'NONE',  ( 1.299999999999996492, 33.70000000000000284, 31.24199999999999733 ) ) ;
#199 = AXIS2_PLACEMENT_3D ( 'NONE', #244, #406, #378 ) ;
#200 = DIRECTION ( 'NONE',  ( 1.000000000000000000, -1.266221515311537804E-16, -0.000000000000000000 ) ) ;
#201 = DIRECTION ( 'NONE',  ( 1.000000000000000000, 0.000000000000000000, 0.000000000000000000 ) ) ;
#202 = LINE ( 'NONE', #524, #348 ) ;
#203 = EDGE_CURVE ( 'NONE', #175, #134, #415, .T. ) ;
#204 = CARTESIAN_POINT ( 'NONE',  ( -3.700000000000000178, 0.000000000000000000, 0.000000000000000000 ) ) ;
#205 = DIRECTION ( 'NONE',  ( 1.000000000000000000, 0.000000000000000000, 0.000000000000000000 ) ) ;
#206 =( GEOMETRIC_REPRESENTATION_CONTEXT ( 3 ) GLOBAL_UNCERTAINTY_ASSIGNED_CONTEXT ( ( #170 ) ) GLOBAL_UNIT_ASSIGNED_CONTEXT ( ( #448, #80, #152 ) ) REPRESENTATION_CONTEXT ( 'NONE', 'WORKASPACE' ) );
#207 = LINE ( 'NONE', #537, #163 ) ;
#208 = VERTEX_POINT ( 'NONE', #43 ) ;
#209 = CIRCLE ( 'NONE', #488, 2.249999999999998668 ) ;
#210 = EDGE_CURVE ( 'NONE', #218, #467, #47, .T. ) ;
#211 = CARTESIAN_POINT ( 'NONE',  ( -3.700000000000003730, 33.70000000000000284, 31.24199999999999733 ) ) ;
#212 = ORIENTED_EDGE ( 'NONE', *, *, #71, .T. ) ;
#213 = DIRECTION ( 'NONE',  ( 1.000000000000000000, 0.000000000000000000, 0.000000000000000000 ) ) ;
#214 = EDGE_LOOP ( 'NONE', ( #98, #426, #302, #181 ) ) ;
#215 = VECTOR ( 'NONE', #358, 1000.000000000000000 ) ;
#216 = EDGE_CURVE ( 'NONE', #251, #208, #504, .T. ) ;
#217 = LINE ( 'NONE', #370, #533 ) ;
#218 = VERTEX_POINT ( 'NONE', #295 ) ;
#219 =( NAMED_UNIT ( * ) PLANE_ANGLE_UNIT ( ) SI_UNIT ( $, .RADIAN. ) );
#220 = DIRECTION ( 'NONE',  ( -1.000000000000000000, 0.000000000000000000, 0.000000000000000000 ) ) ;
#221 = EDGE_CURVE ( 'NONE', #467, #336, #329, .T. ) ;
#222 = VERTEX_POINT ( 'NONE', #254 ) ;
#223 = CARTESIAN_POINT ( 'NONE',  ( -3.700000000000003286, 28.70000000000000284, 0.000000000000000000 ) ) ;
#224 = VERTEX_POINT ( 'NONE', #246 ) ;
#225 = DIRECTION ( 'NONE',  ( 0.000000000000000000, 0.000000000000000000, 1.000000000000000000 ) ) ;
#226 = ORIENTED_EDGE ( 'NONE', *, *, #55, .F. ) ;
#227 = PRODUCT_RELATED_PRODUCT_CATEGORY ( 'part', '', ( #8 ) ) ;
#228 = FACE_OUTER_BOUND ( 'NONE', #263, .T. ) ;
#229 = VERTEX_POINT ( 'NONE', #409 ) ;
#230 = FACE_BOUND ( 'NONE', #343, .T. ) ;
#231 = ORIENTED_EDGE ( 'NONE', *, *, #420, .T. ) ;
#232 = DIRECTION ( 'NONE',  ( 1.000000000000000000, 0.000000000000000000, 0.000000000000000000 ) ) ;
#233 = ORIENTED_EDGE ( 'NONE', *, *, #81, .F. ) ;
#234 = VECTOR ( 'NONE', #320, 1000.000000000000000 ) ;
#235 = DIRECTION ( 'NONE',  ( -1.391489419232732793E-16, -1.000000000000000000, 0.000000000000000000 ) ) ;
#236 = VECTOR ( 'NONE', #201, 1000.000000000000000 ) ;
#237 = LINE ( 'NONE', #121, #192 ) ;
#238 = CARTESIAN_POINT ( 'NONE',  ( 7.399999999999998579, 15.00000000000000000, 31.24199999999999733 ) ) ;
#239 = LINE ( 'NONE', #282, #236 ) ;
#240 = EDGE_CURVE ( 'NONE', #387, #175, #207, .T. ) ;
#241 = CARTESIAN_POINT ( 'NONE',  ( 1.299999999999996048, 28.70000000000000284, 0.000000000000000000 ) ) ;
#242 = CARTESIAN_POINT ( 'NONE',  ( 2.400000000000002132, 28.70000000000000284, 31.24199999999999733 ) ) ;
#243 = LINE ( 'NONE', #313, #305 ) ;
#244 = CARTESIAN_POINT ( 'NONE',  ( -3.701000000000005397, 20.47500000000000142, 28.32099999999999795 ) ) ;
#245 = EDGE_CURVE ( 'NONE', #224, #218, #342, .T. ) ;
#246 = CARTESIAN_POINT ( 'NONE',  ( 0.000000000000000000, 0.000000000000000000, 0.000000000000000000 ) ) ;
#247 = EDGE_CURVE ( 'NONE', #379, #467, #99, .T. ) ;
#248 = ORIENTED_EDGE ( 'NONE', *, *, #240, .T. ) ;
#249 = VECTOR ( 'NONE', #258, 1000.000000000000000 ) ;
#250 = CARTESIAN_POINT ( 'NONE',  ( 3.699999999999999734, 15.00000000000000000, 31.24199999999999733 ) ) ;
#251 = VERTEX_POINT ( 'NONE', #176 ) ;
#252 = CARTESIAN_POINT ( 'NONE',  ( 7.399999999999998579, 15.00000000000000000, 0.000000000000000000 ) ) ;
#253 = ORIENTED_EDGE ( 'NONE', *, *, #520, .F. ) ;
#254 = CARTESIAN_POINT ( 'NONE',  ( 7.399999999999999467, 18.22500000000000142, 2.921000000000000263 ) ) ;
#255 = ORIENTED_EDGE ( 'NONE', *, *, #477, .F. ) ;
#256 = AXIS2_PLACEMENT_3D ( 'NONE', #241, #317, #478 ) ;
#257 = ADVANCED_FACE ( 'NONE', ( #97 ), #509, .T. ) ;
#258 = DIRECTION ( 'NONE',  ( -1.000000000000000000, 0.000000000000000000, 0.000000000000000000 ) ) ;
#259 = ORIENTED_EDGE ( 'NONE', *, *, #477, .T. ) ;
#260 = DIRECTION ( 'NONE',  ( 1.000000000000000000, 0.000000000000000000, 0.000000000000000000 ) ) ;
#261 = AXIS2_PLACEMENT_3D ( 'NONE', #362, #276, #359 ) ;
#262 = DIRECTION ( 'NONE',  ( 0.000000000000000000, -0.000000000000000000, 1.000000000000000000 ) ) ;
#263 = EDGE_LOOP ( 'NONE', ( #411, #357, #127, #515 ) ) ;
#264 = FACE_BOUND ( 'NONE', #102, .T. ) ;
#265 = ORIENTED_EDGE ( 'NONE', *, *, #420, .F. ) ;
#266 = ADVANCED_FACE ( 'NONE', ( #19 ), #433, .F. ) ;
#267 = CARTESIAN_POINT ( 'NONE',  ( -3.700000000000000178, 0.000000000000000000, 0.000000000000000000 ) ) ;
#268 = VECTOR ( 'NONE', #344, 1000.000000000000000 ) ;
#269 = ORIENTED_EDGE ( 'NONE', *, *, #210, .F. ) ;
#270 = UNCERTAINTY_MEASURE_WITH_UNIT (LENGTH_MEASURE( 1.000000000000000082E-05 ), #408, 'distance_accuracy_value', 'NONE');
#271 = DIRECTION ( 'NONE',  ( 1.000000000000000000, 0.000000000000000000, 0.000000000000000000 ) ) ;
#272 = VERTEX_POINT ( 'NONE', #223 ) ;
#273 = DIRECTION ( 'NONE',  ( 1.000000000000000000, 0.000000000000000000, 0.000000000000000000 ) ) ;
#274 = ORIENTED_EDGE ( 'NONE', *, *, #28, .F. ) ;
#275 = FACE_BOUND ( 'NONE', #434, .T. ) ;
#276 = DIRECTION ( 'NONE',  ( 1.000000000000000000, -1.280345732881970757E-16, -2.465190328815661892E-32 ) ) ;
#277 = VECTOR ( 'NONE', #213, 1000.000000000000000 ) ;
#278 = EDGE_LOOP ( 'NONE', ( #67, #169, #350, #274 ) ) ;
#279 = CARTESIAN_POINT ( 'NONE',  ( -3.701000000000004952, 22.72499999999999787, 2.920999999999999819 ) ) ;
#280 = DIRECTION ( 'NONE',  ( 0.000000000000000000, 0.000000000000000000, -1.000000000000000000 ) ) ;
#281 = FACE_OUTER_BOUND ( 'NONE', #418, .T. ) ;
#282 = CARTESIAN_POINT ( 'NONE',  ( 0.000000000000000000, 30.00000000000000000, 31.24199999999999733 ) ) ;
#283 = DIRECTION ( 'NONE',  ( 1.000000000000000000, -1.280345732881970757E-16, -2.465190328815661892E-32 ) ) ;
#284 = AXIS2_PLACEMENT_3D ( 'NONE', #365, #489, #164 ) ;
#285 = CARTESIAN_POINT ( 'NONE',  ( -3.700000000000003286, 28.70000000000000284, 31.24199999999999733 ) ) ;
#286 = CARTESIAN_POINT ( 'NONE',  ( 2.400000000000002132, 28.70000000000000284, 0.000000000000000000 ) ) ;
#287 = ORIENTED_EDGE ( 'NONE', *, *, #523, .F. ) ;
#288 = CARTESIAN_POINT ( 'NONE',  ( -3.701000000000005397, 20.47500000000000142, 2.920999999999999819 ) ) ;
#289 = ORIENTED_EDGE ( 'NONE', *, *, #341, .F. ) ;
#290 = AXIS2_PLACEMENT_3D ( 'NONE', #373, #129, #168 ) ;
#291 = CARTESIAN_POINT ( 'NONE',  ( 1.299999999999996048, 28.70000000000000284, 31.24199999999999733 ) ) ;
#292 = ORIENTED_EDGE ( 'NONE', *, *, #240, .F. ) ;
#293 = DIRECTION ( 'NONE',  ( 0.000000000000000000, -1.000000000000000000, 0.000000000000000000 ) ) ;
#294 = VERTEX_POINT ( 'NONE', #383 ) ;
#295 = CARTESIAN_POINT ( 'NONE',  ( 0.000000000000000000, 30.00000000000000000, 0.000000000000000000 ) ) ;
#296 = EDGE_LOOP ( 'NONE', ( #265, #428 ) ) ;
#297 = SHAPE_DEFINITION_REPRESENTATION ( #148, #368 ) ;
#298 = DIRECTION ( 'NONE',  ( -1.000000000000000000, 0.000000000000000000, 0.000000000000000000 ) ) ;
#299 = ORIENTED_EDGE ( 'NONE', *, *, #312, .T. ) ;
#300 = VECTOR ( 'NONE', #529, 1000.000000000000000 ) ;
#301 = CARTESIAN_POINT ( 'NONE',  ( -3.701000000000005841, 18.22500000000000142, 28.32099999999999795 ) ) ;
#302 = ORIENTED_EDGE ( 'NONE', *, *, #32, .F. ) ;
#303 = DIRECTION ( 'NONE',  ( 0.000000000000000000, 1.000000000000000000, 0.000000000000000000 ) ) ;
#304 = ORIENTED_EDGE ( 'NONE', *, *, #390, .T. ) ;
#305 = VECTOR ( 'NONE', #232, 1000.000000000000000 ) ;
#306 = LINE ( 'NONE', #301, #95 ) ;
#307 =( GEOMETRIC_REPRESENTATION_CONTEXT ( 3 ) GLOBAL_UNCERTAINTY_ASSIGNED_CONTEXT ( ( #270 ) ) GLOBAL_UNIT_ASSIGNED_CONTEXT ( ( #408, #219, #9 ) ) REPRESENTATION_CONTEXT ( 'NONE', 'WORKASPACE' ) );
#308 = ORIENTED_EDGE ( 'NONE', *, *, #123, .F. ) ;
#309 = ADVANCED_FACE ( 'NONE', ( #135 ), #15, .F. ) ;
#310 = LINE ( 'NONE', #511, #377 ) ;
#311 = EDGE_LOOP ( 'NONE', ( #143, #292, #384, #495 ) ) ;
#312 = EDGE_CURVE ( 'NONE', #492, #294, #306, .T. ) ;
#313 = CARTESIAN_POINT ( 'NONE',  ( 3.699999999999999734, 15.00000000000000000, 31.24199999999999733 ) ) ;
#314 = CARTESIAN_POINT ( 'NONE',  ( -3.700000000000000178, 0.000000000000000000, 31.24199999999999733 ) ) ;
#315 = DIRECTION ( 'NONE',  ( 0.000000000000000000, 1.000000000000000000, 0.000000000000000000 ) ) ;
#316 = AXIS2_PLACEMENT_3D ( 'NONE', #59, #225, #57 ) ;
#317 = DIRECTION ( 'NONE',  ( -0.000000000000000000, -0.000000000000000000, -1.000000000000000000 ) ) ;
#318 = EDGE_CURVE ( 'NONE', #65, #272, #54, .T. ) ;
#319 = CARTESIAN_POINT ( 'NONE',  ( 2.400000000000002132, 33.70000000000000284, 31.24199999999999733 ) ) ;
#320 = DIRECTION ( 'NONE',  ( 1.029509481291873510E-16, -1.000000000000000000, 0.000000000000000000 ) ) ;
#321 = FILL_AREA_STYLE ('',( #31 ) ) ;
#322 = DIRECTION ( 'NONE',  ( 1.000000000000000000, -1.280345732881970757E-16, -2.465190328815661892E-32 ) ) ;
#323 = SURFACE_STYLE_USAGE ( .BOTH. , #157 ) ;
#324 = VECTOR ( 'NONE', #421, 1000.000000000000000 ) ;
#325 = ADVANCED_FACE ( 'NONE', ( #466 ), #386, .T. ) ;
#326 = CARTESIAN_POINT ( 'NONE',  ( 0.000000000000000000, 30.00000000000000000, 31.24199999999999733 ) ) ;
#327 = MECHANICAL_DESIGN_GEOMETRIC_PRESENTATION_REPRESENTATION (  '', ( #53 ), #206 ) ;
#328 = ADVANCED_FACE ( 'NONE', ( #230, #264, #391 ), #179, .F. ) ;
#329 = LINE ( 'NONE', #131, #61 ) ;
#330 = VERTEX_POINT ( 'NONE', #468 ) ;
#331 = CARTESIAN_POINT ( 'NONE',  ( 7.399999999999999467, 22.72499999999999787, 28.32099999999999795 ) ) ;
#332 = VERTEX_POINT ( 'NONE', #101 ) ;
#333 = CIRCLE ( 'NONE', #403, 5.000000000000000000 ) ;
#334 = LINE ( 'NONE', #326, #146 ) ;
#335 = EDGE_CURVE ( 'NONE', #58, #224, #149, .T. ) ;
#336 = VERTEX_POINT ( 'NONE', #427 ) ;
#337 = CARTESIAN_POINT ( 'NONE',  ( 3.699999999999999289, 22.72499999999999787, 28.32099999999999795 ) ) ;
#338 = ORIENTED_EDGE ( 'NONE', *, *, #108, .F. ) ;
#339 = DIRECTION ( 'NONE',  ( -0.000000000000000000, 0.000000000000000000, -1.000000000000000000 ) ) ;
#340 = EDGE_LOOP ( 'NONE', ( #3, #464, #253, #455 ) ) ;
#341 = EDGE_CURVE ( 'NONE', #208, #251, #113, .T. ) ;
#342 = LINE ( 'NONE', #13, #6 ) ;
#343 = EDGE_LOOP ( 'NONE', ( #16, #501 ) ) ;
#344 = DIRECTION ( 'NONE',  ( -0.000000000000000000, -0.000000000000000000, -1.000000000000000000 ) ) ;
#345 = ORIENTED_EDGE ( 'NONE', *, *, #105, .F. ) ;
#346 = DIRECTION ( 'NONE',  ( 0.000000000000000000, 0.000000000000000000, -1.000000000000000000 ) ) ;
#347 = ORIENTED_EDGE ( 'NONE', *, *, #390, .F. ) ;
#348 = VECTOR ( 'NONE', #194, 1000.000000000000000 ) ;
#349 = DIRECTION ( 'NONE',  ( 0.000000000000000000, 0.000000000000000000, -1.000000000000000000 ) ) ;
#350 = ORIENTED_EDGE ( 'NONE', *, *, #470, .T. ) ;
#351 = ADVANCED_FACE ( 'NONE', ( #228 ), #388, .F. ) ;
#352 = AXIS2_PLACEMENT_3D ( 'NONE', #34, #40, #402 ) ;
#353 = PLANE ( 'NONE',  #471 ) ;
#354 = PLANE ( 'NONE',  #352 ) ;
#355 = DIRECTION ( 'NONE',  ( 0.000000000000000000, 0.000000000000000000, 1.000000000000000000 ) ) ;
#356 = DIRECTION ( 'NONE',  ( -1.000000000000000000, 0.000000000000000000, 0.000000000000000000 ) ) ;
#357 = ORIENTED_EDGE ( 'NONE', *, *, #147, .F. ) ;
#358 = DIRECTION ( 'NONE',  ( -0.000000000000000000, -0.000000000000000000, -1.000000000000000000 ) ) ;
#359 = DIRECTION ( 'NONE',  ( 0.000000000000000000, 1.000000000000000000, 0.000000000000000000 ) ) ;
#360 = VECTOR ( 'NONE', #82, 1000.000000000000000 ) ;
#361 = DIRECTION ( 'NONE',  ( 0.000000000000000000, -1.000000000000000000, 0.000000000000000000 ) ) ;
#362 = CARTESIAN_POINT ( 'NONE',  ( 7.399999999999999467, 20.47500000000000142, 2.920999999999999819 ) ) ;
#363 = CARTESIAN_POINT ( 'NONE',  ( -3.700000000000000178, 0.000000000000000000, 31.24199999999999733 ) ) ;
#364 = LINE ( 'NONE', #198, #300 ) ;
#365 = CARTESIAN_POINT ( 'NONE',  ( 0.000000000000000000, 0.000000000000000000, 0.000000000000000000 ) ) ;
#366 = VECTOR ( 'NONE', #37, 1000.000000000000000 ) ;
#367 = EDGE_CURVE ( 'NONE', #416, #330, #310, .T. ) ;
#368 = ADVANCED_BREP_SHAPE_REPRESENTATION ( 'Curvy', ( #75, #86 ), #307 ) ;
#369 = DIRECTION ( 'NONE',  ( 0.000000000000000000, 0.000000000000000000, 1.000000000000000000 ) ) ;
#370 = CARTESIAN_POINT ( 'NONE',  ( -3.701000000000004952, 22.72499999999999787, 28.32099999999999795 ) ) ;
#371 = COLOUR_RGB ( '',0.7921568627450980005, 0.8196078431372548767, 0.9333333333333333481 ) ;
#372 = ORIENTED_EDGE ( 'NONE', *, *, #499, .T. ) ;
#373 = CARTESIAN_POINT ( 'NONE',  ( 7.399999999999999467, 20.47500000000000142, 28.32099999999999795 ) ) ;
#374 = ORIENTED_EDGE ( 'NONE', *, *, #508, .T. ) ;
#375 = CARTESIAN_POINT ( 'NONE',  ( 3.699999999999999289, 20.47500000000000142, 2.920999999999999819 ) ) ;
#376 = ORIENTED_EDGE ( 'NONE', *, *, #203, .F. ) ;
#377 = VECTOR ( 'NONE', #220, 1000.000000000000000 ) ;
#378 = DIRECTION ( 'NONE',  ( 1.927470528863120035E-16, 1.000000000000000000, 0.000000000000000000 ) ) ;
#379 = VERTEX_POINT ( 'NONE', #144 ) ;
#380 = CARTESIAN_POINT ( 'NONE',  ( 7.399999999999998579, 15.00000000000000000, 31.24199999999999733 ) ) ;
#381 = ORIENTED_EDGE ( 'NONE', *, *, #247, .F. ) ;
#382 = EDGE_CURVE ( 'NONE', #336, #175, #106, .T. ) ;
#383 = CARTESIAN_POINT ( 'NONE',  ( 7.399999999999999467, 18.22500000000000142, 28.32099999999999795 ) ) ;
#384 = ORIENTED_EDGE ( 'NONE', *, *, #505, .F. ) ;
#385 = CIRCLE ( 'NONE', #155, 2.249999999999998668 ) ;
#386 = CYLINDRICAL_SURFACE ( 'NONE', #36, 5.000000000000000000 ) ;
#387 = VERTEX_POINT ( 'NONE', #380 ) ;
#388 = PLANE ( 'NONE',  #17 ) ;
#389 = VERTEX_POINT ( 'NONE', #197 ) ;
#390 = EDGE_CURVE ( 'NONE', #272, #154, #136, .T. ) ;
#391 = FACE_OUTER_BOUND ( 'NONE', #214, .T. ) ;
#392 = ORIENTED_EDGE ( 'NONE', *, *, #216, .F. ) ;
#393 = AXIS2_PLACEMENT_3D ( 'NONE', #291, #50, #205 ) ;
#394 = DIRECTION ( 'NONE',  ( 1.000000000000000000, -1.266221515311537804E-16, -0.000000000000000000 ) ) ;
#395 = EDGE_LOOP ( 'NONE', ( #338, #476, #376, #189, #24, #269, #140, #52, #110, #304 ) ) ;
#396 = LINE ( 'NONE', #530, #234 ) ;
#397 = FACE_OUTER_BOUND ( 'NONE', #469, .T. ) ;
#398 = DIRECTION ( 'NONE',  ( -1.000000000000000000, 1.391489419232732793E-16, 0.000000000000000000 ) ) ;
#399 = DIRECTION ( 'NONE',  ( 1.000000000000000000, -1.266221515311537804E-16, -0.000000000000000000 ) ) ;
#400 = LINE ( 'NONE', #363, #366 ) ;
#401 = AXIS2_PLACEMENT_3D ( 'NONE', #442, #355, #273 ) ;
#402 = DIRECTION ( 'NONE',  ( 0.000000000000000000, -0.000000000000000000, 1.000000000000000000 ) ) ;
#403 = AXIS2_PLACEMENT_3D ( 'NONE', #286, #126, #456 ) ;
#404 = ADVANCED_FACE ( 'NONE', ( #39, #275, #69 ), #438, .F. ) ;
#405 = LINE ( 'NONE', #446, #215 ) ;
#406 = DIRECTION ( 'NONE',  ( 1.000000000000000000, -1.266221515311537804E-16, -0.000000000000000000 ) ) ;
#407 = CARTESIAN_POINT ( 'NONE',  ( -3.701000000000005397, 20.47500000000000142, 2.920999999999999819 ) ) ;
#408 =( LENGTH_UNIT ( ) NAMED_UNIT ( * ) SI_UNIT ( .MILLI., .METRE. ) );
#409 = CARTESIAN_POINT ( 'NONE',  ( 0.000000000000000000, 30.00000000000000000, 31.24199999999999733 ) ) ;
#410 = VECTOR ( 'NONE', #493, 1000.000000000000000 ) ;
#411 = ORIENTED_EDGE ( 'NONE', *, *, #335, .T. ) ;
#412 = DIRECTION ( 'NONE',  ( -0.000000000000000000, -0.000000000000000000, -1.000000000000000000 ) ) ;
#413 = ORIENTED_EDGE ( 'NONE', *, *, #312, .F. ) ;
#414 = EDGE_CURVE ( 'NONE', #137, #492, #84, .T. ) ;
#415 = LINE ( 'NONE', #252, #410 ) ;
#416 = VERTEX_POINT ( 'NONE', #79 ) ;
#417 = DIRECTION ( 'NONE',  ( 0.000000000000000000, 0.000000000000000000, -1.000000000000000000 ) ) ;
#418 = EDGE_LOOP ( 'NONE', ( #93, #7, #461, #498 ) ) ;
#419 = APPLICATION_CONTEXT ( 'automotive_design' ) ;
#420 = EDGE_CURVE ( 'NONE', #196, #294, #385, .T. ) ;
#421 = DIRECTION ( 'NONE',  ( 1.000000000000000000, 0.000000000000000000, 0.000000000000000000 ) ) ;
#422 = ORIENTED_EDGE ( 'NONE', *, *, #520, .T. ) ;
#423 = AXIS2_PLACEMENT_3D ( 'NONE', #407, #519, #531 ) ;
#424 = APPLICATION_PROTOCOL_DEFINITION ( 'draft international standard', 'automotive_design', 1998, #419 ) ;
#425 = DIRECTION ( 'NONE',  ( 0.000000000000000000, 1.000000000000000000, 0.000000000000000000 ) ) ;
#426 = ORIENTED_EDGE ( 'NONE', *, *, #432, .F. ) ;
#427 = CARTESIAN_POINT ( 'NONE',  ( 3.699999999999999734, 15.00000000000000000, 0.000000000000000000 ) ) ;
#428 = ORIENTED_EDGE ( 'NONE', *, *, #183, .F. ) ;
#429 = CIRCLE ( 'NONE', #290, 2.249999999999998668 ) ;
#430 = CARTESIAN_POINT ( 'NONE',  ( 3.699999999999999734, 30.00000000000000000, 31.24199999999999733 ) ) ;
#431 = VERTEX_POINT ( 'NONE', #33 ) ;
#432 = EDGE_CURVE ( 'NONE', #107, #336, #405, .T. ) ;
#433 = PLANE ( 'NONE',  #513 ) ;
#434 = EDGE_LOOP ( 'NONE', ( #226, #187 ) ) ;
#435 = CARTESIAN_POINT ( 'NONE',  ( 7.400000000000001243, 33.70000000000000284, 31.24199999999999733 ) ) ;
#436 = ORIENTED_EDGE ( 'NONE', *, *, #178, .T. ) ;
#437 = CIRCLE ( 'NONE', #454, 2.249999999999998668 ) ;
#438 = PLANE ( 'NONE',  #51 ) ;
#439 = PRODUCT_DEFINITION ( 'UNKNOWN', '', #472, #496 ) ;
#440 = DIRECTION ( 'NONE',  ( -1.000000000000000000, -0.000000000000000000, 0.000000000000000000 ) ) ;
#441 = CLOSED_SHELL ( 'NONE', ( #532, #35, #351, #309, #266, #328, #4, #404, #528, #535, #257, #167, #18, #325, #142, #88 ) ) ;
#442 = CARTESIAN_POINT ( 'NONE',  ( 2.400000000000002132, 28.70000000000000284, 31.24199999999999733 ) ) ;
#443 = FACE_OUTER_BOUND ( 'NONE', #510, .T. ) ;
#444 = DIRECTION ( 'NONE',  ( -1.000000000000000000, -0.000000000000000000, 0.000000000000000000 ) ) ;
#445 = FACE_OUTER_BOUND ( 'NONE', #311, .T. ) ;
#446 = CARTESIAN_POINT ( 'NONE',  ( 3.699999999999999734, 15.00000000000000000, 31.24199999999999733 ) ) ;
#447 = VECTOR ( 'NONE', #200, 1000.000000000000000 ) ;
#448 =( LENGTH_UNIT ( ) NAMED_UNIT ( * ) SI_UNIT ( .MILLI., .METRE. ) );
#449 = APPLICATION_CONTEXT ( 'automotive_design' ) ;
#450 = APPLICATION_PROTOCOL_DEFINITION ( 'draft international standard', 'automotive_design', 1998, #449 ) ;
#451 = CARTESIAN_POINT ( 'NONE',  ( 7.399999999999998579, 15.00000000000000000, 31.24199999999999733 ) ) ;
#452 = ORIENTED_EDGE ( 'NONE', *, *, #505, .T. ) ;
#453 = CARTESIAN_POINT ( 'NONE',  ( 0.000000000000000000, 0.000000000000000000, 31.24199999999999733 ) ) ;
#454 = AXIS2_PLACEMENT_3D ( 'NONE', #487, #322, #30 ) ;
#455 = ORIENTED_EDGE ( 'NONE', *, *, #147, .T. ) ;
#456 = DIRECTION ( 'NONE',  ( 1.000000000000000000, 0.000000000000000000, 0.000000000000000000 ) ) ;
#457 = ORIENTED_EDGE ( 'NONE', *, *, #55, .T. ) ;
#458 = CYLINDRICAL_SURFACE ( 'NONE', #190, 2.249999999999998668 ) ;
#459 = ORIENTED_EDGE ( 'NONE', *, *, #517, .T. ) ;
#460 = FACE_OUTER_BOUND ( 'NONE', #395, .T. ) ;
#461 = ORIENTED_EDGE ( 'NONE', *, *, #108, .T. ) ;
#462 = AXIS2_PLACEMENT_3D ( 'NONE', #506, #188, #139 ) ;
#463 = DIRECTION ( 'NONE',  ( 0.000000000000000000, 1.000000000000000000, 0.000000000000000000 ) ) ;
#464 = ORIENTED_EDGE ( 'NONE', *, *, #91, .F. ) ;
#465 = VECTOR ( 'NONE', #159, 1000.000000000000000 ) ;
#466 = FACE_OUTER_BOUND ( 'NONE', #87, .T. ) ;
#467 = VERTEX_POINT ( 'NONE', #160 ) ;
#468 = CARTESIAN_POINT ( 'NONE',  ( 1.299999999999996492, 33.70000000000000284, 31.24199999999999733 ) ) ;
#469 = EDGE_LOOP ( 'NONE', ( #413, #173, #474, #231 ) ) ;
#470 = EDGE_CURVE ( 'NONE', #272, #58, #396, .T. ) ;
#471 = AXIS2_PLACEMENT_3D ( 'NONE', #518, #151, #111 ) ;
#472 = PRODUCT_DEFINITION_FORMATION_WITH_SPECIFIED_SOURCE ( 'ANY', '', #8, .NOT_KNOWN. ) ;
#473 = DIRECTION ( 'NONE',  ( 0.000000000000000000, 0.000000000000000000, -1.000000000000000000 ) ) ;
#474 = ORIENTED_EDGE ( 'NONE', *, *, #123, .T. ) ;
#475 = CARTESIAN_POINT ( 'NONE',  ( 3.699999999999999734, 15.00000000000000000, 0.000000000000000000 ) ) ;
#476 = ORIENTED_EDGE ( 'NONE', *, *, #115, .T. ) ;
#477 = EDGE_CURVE ( 'NONE', #134, #490, #202, .T. ) ;
#478 = DIRECTION ( 'NONE',  ( 1.000000000000000000, 0.000000000000000000, 0.000000000000000000 ) ) ;
#479 = CYLINDRICAL_SURFACE ( 'NONE', #423, 2.249999999999998668 ) ;
#480 = VECTOR ( 'NONE', #271, 1000.000000000000000 ) ;
#481 = CARTESIAN_POINT ( 'NONE',  ( 3.699999999999999289, 18.22500000000000142, 28.32099999999999795 ) ) ;
#482 = LINE ( 'NONE', #319, #78 ) ;
#483 = CARTESIAN_POINT ( 'NONE',  ( 7.399999999999999467, 20.47500000000000142, 28.32099999999999795 ) ) ;
#484 = DIRECTION ( 'NONE',  ( 0.000000000000000000, 0.000000000000000000, -1.000000000000000000 ) ) ;
#485 = CYLINDRICAL_SURFACE ( 'NONE', #525, 2.249999999999998668 ) ;
#486 = SURFACE_STYLE_FILL_AREA ( #321 ) ;
#487 = CARTESIAN_POINT ( 'NONE',  ( 7.399999999999999467, 20.47500000000000142, 2.920999999999999819 ) ) ;
#488 = AXIS2_PLACEMENT_3D ( 'NONE', #116, #440, #280 ) ;
#489 = DIRECTION ( 'NONE',  ( 0.000000000000000000, 0.000000000000000000, 1.000000000000000000 ) ) ;
#490 = VERTEX_POINT ( 'NONE', #72 ) ;
#491 = FACE_OUTER_BOUND ( 'NONE', #12, .T. ) ;
#492 = VERTEX_POINT ( 'NONE', #481 ) ;
#493 = DIRECTION ( 'NONE',  ( 1.391489419232732793E-16, 1.000000000000000000, 0.000000000000000000 ) ) ;
#494 = VECTOR ( 'NONE', #500, 1000.000000000000000 ) ;
#495 = ORIENTED_EDGE ( 'NONE', *, *, #432, .T. ) ;
#496 = PRODUCT_DEFINITION_CONTEXT ( 'detailed design', #419, 'design' ) ;
#497 = DIRECTION ( 'NONE',  ( -1.000000000000000000, -0.000000000000000000, 0.000000000000000000 ) ) ;
#498 = ORIENTED_EDGE ( 'NONE', *, *, #74, .T. ) ;
#499 = EDGE_CURVE ( 'NONE', #332, #431, #400, .T. ) ;
#500 = DIRECTION ( 'NONE',  ( 1.029509481291873510E-16, -1.000000000000000000, 0.000000000000000000 ) ) ;
#501 = ORIENTED_EDGE ( 'NONE', *, *, #11, .F. ) ;
#502 = CARTESIAN_POINT ( 'NONE',  ( -3.700000000000000178, 0.000000000000000000, 31.24199999999999733 ) ) ;
#503 = ORIENTED_EDGE ( 'NONE', *, *, #71, .F. ) ;
#504 = CIRCLE ( 'NONE', #522, 2.249999999999997335 ) ;
#505 = EDGE_CURVE ( 'NONE', #107, #387, #243, .T. ) ;
#506 = CARTESIAN_POINT ( 'NONE',  ( 0.000000000000000000, 0.000000000000000000, 31.24199999999999733 ) ) ;
#507 = ORIENTED_EDGE ( 'NONE', *, *, #105, .T. ) ;
#508 = EDGE_CURVE ( 'NONE', #222, #20, #437, .T. ) ;
#509 = PLANE ( 'NONE',  #316 ) ;
#510 = EDGE_LOOP ( 'NONE', ( #14, #255, #177, #233 ) ) ;
#511 = CARTESIAN_POINT ( 'NONE',  ( 7.400000000000001243, 33.70000000000000284, 31.24199999999999733 ) ) ;
#512 = EDGE_LOOP ( 'NONE', ( #96, #381, #1, #130 ) ) ;
#513 = AXIS2_PLACEMENT_3D ( 'NONE', #141, #303, #109 ) ;
#514 = DIRECTION ( 'NONE',  ( 1.000000000000000000, 0.000000000000000000, -0.000000000000000000 ) ) ;
#515 = ORIENTED_EDGE ( 'NONE', *, *, #28, .T. ) ;
#516 = VECTOR ( 'NONE', #193, 1000.000000000000000 ) ;
#517 = EDGE_CURVE ( 'NONE', #490, #416, #103, .T. ) ;
#518 = CARTESIAN_POINT ( 'NONE',  ( -3.700000000000003730, 33.70000000000000284, 31.24199999999999733 ) ) ;
#519 = DIRECTION ( 'NONE',  ( 1.000000000000000000, -1.266221515311537804E-16, -0.000000000000000000 ) ) ;
#520 = EDGE_CURVE ( 'NONE', #431, #229, #521, .T. ) ;
#521 = LINE ( 'NONE', #156, #120 ) ;
#522 = AXIS2_PLACEMENT_3D ( 'NONE', #375, #497, #417 ) ;
#523 = EDGE_CURVE ( 'NONE', #208, #20, #114, .T. ) ;
#524 = CARTESIAN_POINT ( 'NONE',  ( 7.400000000000000355, 28.70000000000000284, 31.24199999999999733 ) ) ;
#525 = AXIS2_PLACEMENT_3D ( 'NONE', #66, #394, #26 ) ;
#526 = DIRECTION ( 'NONE',  ( 0.000000000000000000, 0.000000000000000000, -1.000000000000000000 ) ) ;
#527 = DIRECTION ( 'NONE',  ( 0.000000000000000000, -0.000000000000000000, -1.000000000000000000 ) ) ;
#528 = ADVANCED_FACE ( 'NONE', ( #281 ), #76, .F. ) ;
#529 = DIRECTION ( 'NONE',  ( -0.000000000000000000, -0.000000000000000000, 1.000000000000000000 ) ) ;
#530 = CARTESIAN_POINT ( 'NONE',  ( -3.700000000000003730, 33.70000000000000284, 0.000000000000000000 ) ) ;
#531 = DIRECTION ( 'NONE',  ( 1.927470528863120035E-16, 1.000000000000000000, 0.000000000000000000 ) ) ;
#532 = ADVANCED_FACE ( 'NONE', ( #158 ), #485, .F. ) ;
#533 = VECTOR ( 'NONE', #85, 1000.000000000000000 ) ;
#534 = DIRECTION ( 'NONE',  ( -0.000000000000000000, -0.000000000000000000, -1.000000000000000000 ) ) ;
#535 = ADVANCED_FACE ( 'NONE', ( #191 ), #353, .F. ) ;
#536 = CIRCLE ( 'NONE', #261, 2.249999999999998668 ) ;
#537 = CARTESIAN_POINT ( 'NONE',  ( 7.399999999999998579, 15.00000000000000000, 31.24199999999999733 ) ) ;
ENDSEC;
END-ISO-10303-21;
