ISO-10303-21;
HEADER;
FILE_DESCRIPTION (( 'STEP AP214' ),
    '1' );
FILE_NAME ('X Limit Switch Mount 2.STEP',
    '2026-04-11T02:41:17',
    ( '' ),
    ( '' ),
    'SwSTEP 2.0',
    'SolidWorks 2025',
    '' );
FILE_SCHEMA (( 'AUTOMOTIVE_DESIGN' ));
ENDSEC;

DATA;
#1 = CARTESIAN_POINT ( 'NONE',  ( 35.99999999999999289, 31.99999999999999289, 22.35000000000000142 ) ) ;
#2 = PRODUCT_RELATED_PRODUCT_CATEGORY ( 'part', '', ( #569 ) ) ;
#3 = ORIENTED_EDGE ( 'NONE', *, *, #218, .F. ) ;
#4 = CARTESIAN_POINT ( 'NONE',  ( 35.35000000000000142, -0.001000000000001000089, 22.34999999999999787 ) ) ;
#5 = VECTOR ( 'NONE', #104, 1000.000000000000000 ) ;
#6 = VECTOR ( 'NONE', #866, 1000.000000000000000 ) ;
#7 = FACE_BOUND ( 'NONE', #276, .T. ) ;
#8 = VERTEX_POINT ( 'NONE', #798 ) ;
#9 =( LENGTH_UNIT ( ) NAMED_UNIT ( * ) SI_UNIT ( .MILLI., .METRE. ) );
#10 = EDGE_CURVE ( 'NONE', #291, #322, #733, .T. ) ;
#11 = DIRECTION ( 'NONE',  ( -0.000000000000000000, -0.000000000000000000, -1.000000000000000000 ) ) ;
#12 = ORIENTED_EDGE ( 'NONE', *, *, #35, .T. ) ;
#13 = CARTESIAN_POINT ( 'NONE',  ( 41.00000000000000000, 28.00000000000000000, 41.00000000000000711 ) ) ;
#14 = EDGE_LOOP ( 'NONE', ( #75, #662, #160, #334 ) ) ;
#15 = EDGE_CURVE ( 'NONE', #666, #654, #803, .T. ) ;
#16 = LINE ( 'NONE', #774, #790 ) ;
#17 = VECTOR ( 'NONE', #135, 1000.000000000000000 ) ;
#18 = VERTEX_POINT ( 'NONE', #805 ) ;
#19 = DIRECTION ( 'NONE',  ( -0.000000000000000000, -0.000000000000000000, -1.000000000000000000 ) ) ;
#20 = VECTOR ( 'NONE', #233, 1000.000000000000000 ) ;
#21 = VERTEX_POINT ( 'NONE', #403 ) ;
#22 = FACE_OUTER_BOUND ( 'NONE', #37, .T. ) ;
#23 = LINE ( 'NONE', #159, #505 ) ;
#24 = EDGE_CURVE ( 'NONE', #561, #213, #71, .T. ) ;
#25 = ORIENTED_EDGE ( 'NONE', *, *, #743, .F. ) ;
#26 = CARTESIAN_POINT ( 'NONE',  ( 35.35000000000000142, -0.001000000000001000089, 37.34999999999998721 ) ) ;
#27 = ORIENTED_EDGE ( 'NONE', *, *, #152, .T. ) ;
#28 = VECTOR ( 'NONE', #219, 1000.000000000000000 ) ;
#29 = CIRCLE ( 'NONE', #533, 0.6500000000000047962 ) ;
#30 = CARTESIAN_POINT ( 'NONE',  ( 7.500000000000000000, 6.000000000000000000, 4.000000000000000000 ) ) ;
#31 = FACE_OUTER_BOUND ( 'NONE', #404, .T. ) ;
#32 = ORIENTED_EDGE ( 'NONE', *, *, #176, .F. ) ;
#33 = AXIS2_PLACEMENT_3D ( 'NONE', #80, #763, #147 ) ;
#34 = LINE ( 'NONE', #664, #663 ) ;
#35 = EDGE_CURVE ( 'NONE', #676, #839, #139, .T. ) ;
#36 = CARTESIAN_POINT ( 'NONE',  ( 25.64999999999999858, -0.001000000000001000089, 22.34999999999999787 ) ) ;
#37 = EDGE_LOOP ( 'NONE', ( #93, #844, #167, #822 ) ) ;
#38 = CARTESIAN_POINT ( 'NONE',  ( 25.64999999999999858, -0.001000000000000945011, 38.00000000000000000 ) ) ;
#39 = LINE ( 'NONE', #718, #721 ) ;
#40 = EDGE_CURVE ( 'NONE', #221, #352, #29, .T. ) ;
#41 = VERTEX_POINT ( 'NONE', #321 ) ;
#42 = ORIENTED_EDGE ( 'NONE', *, *, #678, .T. ) ;
#43 = PLANE ( 'NONE',  #595 ) ;
#44 = CARTESIAN_POINT ( 'NONE',  ( 56.75000000000000000, 6.000000000000005329, 0.000000000000000000 ) ) ;
#45 = ORIENTED_EDGE ( 'NONE', *, *, #336, .F. ) ;
#46 =( GEOMETRIC_REPRESENTATION_CONTEXT ( 3 ) GLOBAL_UNCERTAINTY_ASSIGNED_CONTEXT ( ( #79 ) ) GLOBAL_UNIT_ASSIGNED_CONTEXT ( ( #546, #555, #485 ) ) REPRESENTATION_CONTEXT ( 'NONE', 'WORKASPACE' ) );
#47 = ORIENTED_EDGE ( 'NONE', *, *, #518, .F. ) ;
#48 = CARTESIAN_POINT ( 'NONE',  ( 25.64999999999999858, 28.00000000000000000, 38.00000000000000000 ) ) ;
#49 = CARTESIAN_POINT ( 'NONE',  ( 41.00000000000000000, 28.00000000000000000, 4.000000000000000000 ) ) ;
#50 = EDGE_LOOP ( 'NONE', ( #165, #439 ) ) ;
#51 = EDGE_CURVE ( 'NONE', #291, #8, #257, .T. ) ;
#52 = ORIENTED_EDGE ( 'NONE', *, *, #51, .T. ) ;
#53 = EDGE_CURVE ( 'NONE', #121, #564, #337, .T. ) ;
#54 = PLANE ( 'NONE',  #531 ) ;
#55 = FACE_OUTER_BOUND ( 'NONE', #519, .T. ) ;
#56 = CARTESIAN_POINT ( 'NONE',  ( 41.00000000000000000, 28.00000000000000000, 41.00000000000000711 ) ) ;
#57 = ORIENTED_EDGE ( 'NONE', *, *, #480, .F. ) ;
#58 = FACE_OUTER_BOUND ( 'NONE', #350, .T. ) ;
#59 = EDGE_CURVE ( 'NONE', #288, #772, #471, .T. ) ;
#60 = VECTOR ( 'NONE', #388, 1000.000000000000000 ) ;
#61 = CARTESIAN_POINT ( 'NONE',  ( 7.500000000000000000, 6.000000000000000000, 0.000000000000000000 ) ) ;
#62 = LINE ( 'NONE', #483, #298 ) ;
#63 = ORIENTED_EDGE ( 'NONE', *, *, #89, .T. ) ;
#64 = CARTESIAN_POINT ( 'NONE',  ( 35.35000000000000142, 28.00000000000000000, 37.34999999999998721 ) ) ;
#65 = VECTOR ( 'NONE', #11, 1000.000000000000000 ) ;
#66 = DIRECTION ( 'NONE',  ( 1.000000000000000000, 0.000000000000000000, 0.000000000000000000 ) ) ;
#67 = EDGE_CURVE ( 'NONE', #776, #300, #189, .T. ) ;
#68 = DIRECTION ( 'NONE',  ( -0.000000000000000000, 1.000000000000000000, -8.462065736472232314E-17 ) ) ;
#69 = ORIENTED_EDGE ( 'NONE', *, *, #576, .T. ) ;
#70 = DIRECTION ( 'NONE',  ( 1.000000000000000000, 1.224646799147353454E-16, 0.000000000000000000 ) ) ;
#71 = LINE ( 'NONE', #193, #226 ) ;
#72 = ORIENTED_EDGE ( 'NONE', *, *, #528, .F. ) ;
#73 = VECTOR ( 'NONE', #349, 1000.000000000000000 ) ;
#74 = DIRECTION ( 'NONE',  ( 0.000000000000000000, 0.000000000000000000, -1.000000000000000000 ) ) ;
#75 = ORIENTED_EDGE ( 'NONE', *, *, #492, .T. ) ;
#76 = AXIS2_PLACEMENT_3D ( 'NONE', #570, #700, #491 ) ;
#77 = PLANE ( 'NONE',  #229 ) ;
#78 = EDGE_LOOP ( 'NONE', ( #111, #593, #380, #793, #858, #241, #809, #52 ) ) ;
#79 = UNCERTAINTY_MEASURE_WITH_UNIT (LENGTH_MEASURE( 1.000000000000000082E-05 ), #546, 'distance_accuracy_value', 'NONE');
#80 = CARTESIAN_POINT ( 'NONE',  ( 34.70000000000000995, -0.001000000000001000089, 22.35000000000000497 ) ) ;
#81 = ORIENTED_EDGE ( 'NONE', *, *, #640, .T. ) ;
#82 = DIRECTION ( 'NONE',  ( 0.000000000000000000, 0.000000000000000000, -1.000000000000000000 ) ) ;
#83 = CIRCLE ( 'NONE', #128, 3.250000000000002665 ) ;
#84 = VERTEX_POINT ( 'NONE', #1 ) ;
#85 = LINE ( 'NONE', #214, #28 ) ;
#86 = EDGE_CURVE ( 'NONE', #772, #121, #490, .T. ) ;
#87 = VECTOR ( 'NONE', #196, 1000.000000000000000 ) ;
#88 = DIRECTION ( 'NONE',  ( -1.000000000000000000, 0.000000000000000000, 0.000000000000000000 ) ) ;
#89 = EDGE_CURVE ( 'NONE', #208, #789, #199, .T. ) ;
#90 = ORIENTED_EDGE ( 'NONE', *, *, #51, .F. ) ;
#91 = CARTESIAN_POINT ( 'NONE',  ( 24.99999999999999289, -0.001000000000001000089, 37.34999999999998721 ) ) ;
#92 = EDGE_CURVE ( 'NONE', #862, #221, #477, .T. ) ;
#93 = ORIENTED_EDGE ( 'NONE', *, *, #559, .T. ) ;
#94 = CARTESIAN_POINT ( 'NONE',  ( 35.99999999999999289, 31.99999999999999289, 37.34999999999998721 ) ) ;
#95 = VERTEX_POINT ( 'NONE', #876 ) ;
#96 = AXIS2_PLACEMENT_3D ( 'NONE', #4, #806, #621 ) ;
#97 = ORIENTED_EDGE ( 'NONE', *, *, #274, .F. ) ;
#98 = EDGE_CURVE ( 'NONE', #882, #457, #393, .T. ) ;
#99 = DIRECTION ( 'NONE',  ( -0.000000000000000000, 1.000000000000000000, -8.462065736472232314E-17 ) ) ;
#100 = FACE_OUTER_BOUND ( 'NONE', #756, .T. ) ;
#101 = ORIENTED_EDGE ( 'NONE', *, *, #261, .F. ) ;
#102 = AXIS2_PLACEMENT_3D ( 'NONE', #842, #299, #792 ) ;
#103 = ADVANCED_FACE ( 'NONE', ( #751 ), #690, .T. ) ;
#104 = DIRECTION ( 'NONE',  ( -0.000000000000000000, 1.000000000000000000, -8.462065736472232314E-17 ) ) ;
#105 = ADVANCED_FACE ( 'NONE', ( #408 ), #741, .F. ) ;
#106 = CARTESIAN_POINT ( 'NONE',  ( 34.70000000000000995, 28.00000000000000000, 22.35000000000000497 ) ) ;
#107 = ORIENTED_EDGE ( 'NONE', *, *, #152, .F. ) ;
#108 = LINE ( 'NONE', #38, #5 ) ;
#109 = DIRECTION ( 'NONE',  ( -0.000000000000000000, 1.000000000000000000, -8.462065736472232314E-17 ) ) ;
#110 = EDGE_LOOP ( 'NONE', ( #227, #765, #375, #534 ) ) ;
#111 = ORIENTED_EDGE ( 'NONE', *, *, #377, .T. ) ;
#112 = CARTESIAN_POINT ( 'NONE',  ( 0.000000000000000000, 0.000000000000000000, 4.000000000000000000 ) ) ;
#113 = CARTESIAN_POINT ( 'NONE',  ( 35.99999999999999289, -0.001000000000001000089, 22.35000000000000497 ) ) ;
#114 = ADVANCED_FACE ( 'NONE', ( #540, #675, #269 ), #341, .T. ) ;
#115 = CARTESIAN_POINT ( 'NONE',  ( 20.00000000000000000, 12.00000000000000000, 4.000000000000000000 ) ) ;
#116 = AXIS2_PLACEMENT_3D ( 'NONE', #249, #529, #182 ) ;
#117 = AXIS2_PLACEMENT_3D ( 'NONE', #425, #88, #361 ) ;
#118 = FACE_BOUND ( 'NONE', #50, .T. ) ;
#119 = DIRECTION ( 'NONE',  ( -0.000000000000000000, 1.000000000000000000, -8.462065736472232314E-17 ) ) ;
#120 = DIRECTION ( 'NONE',  ( 0.000000000000000000, 1.000000000000000000, -8.462065736472231082E-17 ) ) ;
#121 = VERTEX_POINT ( 'NONE', #202 ) ;
#122 = LINE ( 'NONE', #468, #225 ) ;
#123 = CARTESIAN_POINT ( 'NONE',  ( 53.50000000000000000, 6.000000000000005329, 0.000000000000000000 ) ) ;
#124 = DIRECTION ( 'NONE',  ( 0.000000000000000000, 1.000000000000000000, 0.000000000000000000 ) ) ;
#125 = ORIENTED_EDGE ( 'NONE', *, *, #15, .T. ) ;
#126 = EDGE_CURVE ( 'NONE', #21, #41, #62, .T. ) ;
#127 = FACE_OUTER_BOUND ( 'NONE', #186, .T. ) ;
#128 = AXIS2_PLACEMENT_3D ( 'NONE', #123, #673, #470 ) ;
#129 = DIRECTION ( 'NONE',  ( -0.000000000000000000, -1.000000000000000000, -0.000000000000000000 ) ) ;
#130 = CARTESIAN_POINT ( 'NONE',  ( 34.70000000000000995, -0.001000000000001000089, 22.35000000000000497 ) ) ;
#131 = ORIENTED_EDGE ( 'NONE', *, *, #516, .T. ) ;
#132 = ADVANCED_FACE ( 'NONE', ( #612 ), #262, .F. ) ;
#133 = DIRECTION ( 'NONE',  ( 0.000000000000000000, 1.000000000000000000, -8.462065736472231082E-17 ) ) ;
#134 = AXIS2_PLACEMENT_3D ( 'NONE', #36, #302, #587 ) ;
#135 = DIRECTION ( 'NONE',  ( 0.000000000000000000, 1.000000000000000000, -1.734723475976807094E-15 ) ) ;
#136 = DIRECTION ( 'NONE',  ( 0.000000000000000000, -1.000000000000000000, 1.734723475976807292E-15 ) ) ;
#137 = ORIENTED_EDGE ( 'NONE', *, *, #367, .F. ) ;
#138 = DIRECTION ( 'NONE',  ( 1.000000000000000000, 0.000000000000000000, 0.000000000000000000 ) ) ;
#139 = LINE ( 'NONE', #184, #416 ) ;
#140 = ORIENTED_EDGE ( 'NONE', *, *, #703, .F. ) ;
#141 = DIRECTION ( 'NONE',  ( -0.000000000000000000, 1.000000000000000000, -0.000000000000000000 ) ) ;
#142 = AXIS2_PLACEMENT_3D ( 'NONE', #481, #273, #151 ) ;
#143 = CARTESIAN_POINT ( 'NONE',  ( 26.30000000000000426, -0.001000000000001000089, 22.35000000000000497 ) ) ;
#144 = ORIENTED_EDGE ( 'NONE', *, *, #582, .F. ) ;
#145 = DIRECTION ( 'NONE',  ( -0.000000000000000000, -0.000000000000000000, -1.000000000000000000 ) ) ;
#146 = AXIS2_PLACEMENT_3D ( 'NONE', #456, #356, #421 ) ;
#147 = DIRECTION ( 'NONE',  ( 0.000000000000000000, 0.000000000000000000, 1.000000000000000000 ) ) ;
#148 = ORIENTED_EDGE ( 'NONE', *, *, #10, .T. ) ;
#149 = DIRECTION ( 'NONE',  ( 1.000000000000000000, 1.224646799147353454E-16, 0.000000000000000000 ) ) ;
#150 = ORIENTED_EDGE ( 'NONE', *, *, #424, .T. ) ;
#151 = DIRECTION ( 'NONE',  ( 0.000000000000000000, -0.000000000000000000, -1.000000000000000000 ) ) ;
#152 = EDGE_CURVE ( 'NONE', #882, #625, #650, .T. ) ;
#153 = EDGE_CURVE ( 'NONE', #676, #561, #207, .T. ) ;
#154 = FACE_OUTER_BOUND ( 'NONE', #14, .T. ) ;
#155 = ORIENTED_EDGE ( 'NONE', *, *, #698, .F. ) ;
#156 = CYLINDRICAL_SURFACE ( 'NONE', #181, 0.6499999999999908074 ) ;
#157 = ADVANCED_FACE ( 'NONE', ( #433 ), #573, .F. ) ;
#158 = UNCERTAINTY_MEASURE_WITH_UNIT (LENGTH_MEASURE( 1.000000000000000082E-05 ), #9, 'distance_accuracy_value', 'NONE');
#159 = CARTESIAN_POINT ( 'NONE',  ( 0.000000000000000000, 12.00000000000000000, 0.000000000000000000 ) ) ;
#160 = ORIENTED_EDGE ( 'NONE', *, *, #92, .F. ) ;
#161 = DIRECTION ( 'NONE',  ( 0.000000000000000000, 1.000000000000000000, -8.462065736472231082E-17 ) ) ;
#162 = ORIENTED_EDGE ( 'NONE', *, *, #770, .T. ) ;
#163 = DIRECTION ( 'NONE',  ( 0.000000000000000000, 0.000000000000000000, 1.000000000000000000 ) ) ;
#164 = DIRECTION ( 'NONE',  ( 0.000000000000000000, 0.000000000000000000, 1.000000000000000000 ) ) ;
#165 = ORIENTED_EDGE ( 'NONE', *, *, #195, .F. ) ;
#166 = AXIS2_PLACEMENT_3D ( 'NONE', #402, #680, #66 ) ;
#167 = ORIENTED_EDGE ( 'NONE', *, *, #536, .F. ) ;
#168 = DIRECTION ( 'NONE',  ( 0.000000000000000000, 0.000000000000000000, 1.000000000000000000 ) ) ;
#169 = CARTESIAN_POINT ( 'NONE',  ( 61.00000000000000000, 7.470345474798855081E-15, 0.000000000000000000 ) ) ;
#170 = ORIENTED_EDGE ( 'NONE', *, *, #691, .F. ) ;
#171 = AXIS2_PLACEMENT_3D ( 'NONE', #644, #648, #293 ) ;
#172 = DIRECTION ( 'NONE',  ( -1.000000000000000000, 0.000000000000000000, 0.000000000000000000 ) ) ;
#173 = PLANE ( 'NONE',  #446 ) ;
#174 = ORIENTED_EDGE ( 'NONE', *, *, #59, .T. ) ;
#175 = ORIENTED_EDGE ( 'NONE', *, *, #770, .F. ) ;
#176 = EDGE_CURVE ( 'NONE', #862, #208, #185, .T. ) ;
#177 = CARTESIAN_POINT ( 'NONE',  ( 24.99999999999999289, 31.99999999999999289, 22.35000000000000142 ) ) ;
#178 = ADVANCED_FACE ( 'NONE', ( #351 ), #220, .F. ) ;
#179 = DIRECTION ( 'NONE',  ( 0.000000000000000000, 0.000000000000000000, -1.000000000000000000 ) ) ;
#180 = EDGE_LOOP ( 'NONE', ( #385, #705, #713, #162 ) ) ;
#181 = AXIS2_PLACEMENT_3D ( 'NONE', #562, #829, #496 ) ;
#182 = DIRECTION ( 'NONE',  ( 0.000000000000000000, 0.000000000000000000, -1.000000000000000000 ) ) ;
#183 = CARTESIAN_POINT ( 'NONE',  ( 7.500000000000000000, 6.000000000000000000, 4.000000000000000000 ) ) ;
#184 = CARTESIAN_POINT ( 'NONE',  ( 0.000000000000000000, 0.000000000000000000, 4.000000000000000000 ) ) ;
#185 = CIRCLE ( 'NONE', #460, 0.6500000000000047962 ) ;
#186 = EDGE_LOOP ( 'NONE', ( #448, #784, #467, #557 ) ) ;
#187 = FACE_OUTER_BOUND ( 'NONE', #110, .T. ) ;
#188 = DIRECTION ( 'NONE',  ( 0.000000000000000000, 0.000000000000000000, 1.000000000000000000 ) ) ;
#189 = LINE ( 'NONE', #811, #871 ) ;
#190 = VERTEX_POINT ( 'NONE', #287 ) ;
#191 = DIRECTION ( 'NONE',  ( -0.000000000000000000, -0.000000000000000000, -1.000000000000000000 ) ) ;
#192 = DIRECTION ( 'NONE',  ( -0.000000000000000000, -0.000000000000000000, -1.000000000000000000 ) ) ;
#193 = CARTESIAN_POINT ( 'NONE',  ( 61.00000000000000000, 7.470345474798855081E-15, 4.000000000000000000 ) ) ;
#194 = EDGE_LOOP ( 'NONE', ( #371, #338, #259, #727 ) ) ;
#195 = EDGE_CURVE ( 'NONE', #654, #666, #539, .T. ) ;
#196 = DIRECTION ( 'NONE',  ( -1.000000000000000000, -1.137523590804463822E-16, -0.000000000000000000 ) ) ;
#197 = CIRCLE ( 'NONE', #815, 3.249999999999999556 ) ;
#198 = LINE ( 'NONE', #49, #591 ) ;
#199 = LINE ( 'NONE', #737, #696 ) ;
#200 = VERTEX_POINT ( 'NONE', #497 ) ;
#201 = DIRECTION ( 'NONE',  ( -1.000000000000000000, 0.000000000000000000, 0.000000000000000000 ) ) ;
#202 = CARTESIAN_POINT ( 'NONE',  ( 34.70000000000000995, 28.00000000000000000, 22.35000000000000142 ) ) ;
#203 = APPLICATION_CONTEXT ( 'automotive_design' ) ;
#204 = EDGE_LOOP ( 'NONE', ( #72, #787 ) ) ;
#205 = DIRECTION ( 'NONE',  ( 0.000000000000000000, 0.000000000000000000, 1.000000000000000000 ) ) ;
#206 = EDGE_CURVE ( 'NONE', #200, #440, #23, .T. ) ;
#207 = LINE ( 'NONE', #708, #777 ) ;
#208 = VERTEX_POINT ( 'NONE', #290 ) ;
#209 =( NAMED_UNIT ( * ) PLANE_ANGLE_UNIT ( ) SI_UNIT ( $, .RADIAN. ) );
#210 = CIRCLE ( 'NONE', #760, 3.249999999999999556 ) ;
#211 = ADVANCED_FACE ( 'NONE', ( #216 ), #502, .T. ) ;
#212 = CARTESIAN_POINT ( 'NONE',  ( 20.00000000000000000, 12.00000000000000000, 4.000000000000000000 ) ) ;
#213 = VERTEX_POINT ( 'NONE', #560 ) ;
#214 = CARTESIAN_POINT ( 'NONE',  ( 34.70000000000000995, 31.99999999999999289, 22.35000000000000142 ) ) ;
#215 = AXIS2_PLACEMENT_3D ( 'NONE', #451, #797, #179 ) ;
#216 = FACE_OUTER_BOUND ( 'NONE', #684, .T. ) ;
#217 = EDGE_LOOP ( 'NONE', ( #671, #812, #462, #25 ) ) ;
#218 = EDGE_CURVE ( 'NONE', #366, #330, #272, .T. ) ;
#219 = DIRECTION ( 'NONE',  ( 0.000000000000000000, 0.000000000000000000, 1.000000000000000000 ) ) ;
#220 = PLANE ( 'NONE',  #33 ) ;
#221 = VERTEX_POINT ( 'NONE', #635 ) ;
#222 = FACE_OUTER_BOUND ( 'NONE', #357, .T. ) ;
#223 = ADVANCED_FACE ( 'NONE', ( #7, #771, #767 ), #77, .T. ) ;
#224 = DIRECTION ( 'NONE',  ( 0.000000000000000000, 1.692413147294446216E-16, 1.000000000000000000 ) ) ;
#225 = VECTOR ( 'NONE', #201, 1000.000000000000000 ) ;
#226 = VECTOR ( 'NONE', #124, 1000.000000000000000 ) ;
#227 = ORIENTED_EDGE ( 'NONE', *, *, #615, .F. ) ;
#228 = EDGE_CURVE ( 'NONE', #413, #84, #16, .T. ) ;
#229 = AXIS2_PLACEMENT_3D ( 'NONE', #631, #556, #224 ) ;
#230 = CARTESIAN_POINT ( 'NONE',  ( 0.000000000000000000, 12.00000000000000000, 4.000000000000000000 ) ) ;
#231 = CARTESIAN_POINT ( 'NONE',  ( 53.50000000000000000, 6.000000000000005329, 4.000000000000000000 ) ) ;
#232 = SURFACE_SIDE_STYLE ('',( #846 ) ) ;
#233 = DIRECTION ( 'NONE',  ( 0.000000000000000000, -1.000000000000000000, -3.851859888774472801E-32 ) ) ;
#234 = EDGE_CURVE ( 'NONE', #200, #291, #627, .T. ) ;
#235 = EDGE_LOOP ( 'NONE', ( #619, #692, #430, #613 ) ) ;
#236 = ORIENTED_EDGE ( 'NONE', *, *, #218, .T. ) ;
#237 = DIRECTION ( 'NONE',  ( 0.000000000000000000, 0.000000000000000000, -1.000000000000000000 ) ) ;
#238 = CYLINDRICAL_SURFACE ( 'NONE', #360, 0.6499999999999908074 ) ;
#239 = EDGE_LOOP ( 'NONE', ( #856, #97, #599, #12 ) ) ;
#240 = AXIS2_PLACEMENT_3D ( 'NONE', #251, #530, #725 ) ;
#241 = ORIENTED_EDGE ( 'NONE', *, *, #436, .T. ) ;
#242 = CARTESIAN_POINT ( 'NONE',  ( 34.70000000000000995, 32.00000000000000000, 22.35000000000000142 ) ) ;
#243 = CARTESIAN_POINT ( 'NONE',  ( 20.00000000000000000, 32.00000000000000000, 41.00000000000000000 ) ) ;
#244 = ORIENTED_EDGE ( 'NONE', *, *, #550, .F. ) ;
#245 = CIRCLE ( 'NONE', #832, 0.6500000000000047962 ) ;
#246 = CARTESIAN_POINT ( 'NONE',  ( 41.00000000000000000, 32.00000000000000000, 41.00000000000000000 ) ) ;
#247 = PLANE ( 'NONE',  #102 ) ;
#248 = ORIENTED_EDGE ( 'NONE', *, *, #630, .F. ) ;
#249 = CARTESIAN_POINT ( 'NONE',  ( 25.64999999999999858, 28.00000000000000000, 37.34999999999999432 ) ) ;
#250 = ADVANCED_FACE ( 'NONE', ( #154 ), #712, .F. ) ;
#251 = CARTESIAN_POINT ( 'NONE',  ( 0.000000000000000000, 0.000000000000000000, 4.000000000000000000 ) ) ;
#252 = DIRECTION ( 'NONE',  ( 0.000000000000000000, 0.000000000000000000, 1.000000000000000000 ) ) ;
#253 = AXIS2_PLACEMENT_3D ( 'NONE', #769, #762, #637 ) ;
#254 = CYLINDRICAL_SURFACE ( 'NONE', #96, 0.6499999999999908074 ) ;
#255 = VECTOR ( 'NONE', #68, 1000.000000000000000 ) ;
#256 = CARTESIAN_POINT ( 'NONE',  ( 0.000000000000000000, 12.00000000000000000, 4.000000000000000000 ) ) ;
#257 = LINE ( 'NONE', #461, #647 ) ;
#258 = AXIS2_PLACEMENT_3D ( 'NONE', #56, #398, #136 ) ;
#259 = ORIENTED_EDGE ( 'NONE', *, *, #703, .T. ) ;
#260 = DIRECTION ( 'NONE',  ( -1.000000000000000000, 0.000000000000000000, 0.000000000000000000 ) ) ;
#261 = EDGE_CURVE ( 'NONE', #789, #95, #429, .T. ) ;
#262 = CYLINDRICAL_SURFACE ( 'NONE', #580, 3.250000000000002665 ) ;
#263 = VERTEX_POINT ( 'NONE', #275 ) ;
#264 = LINE ( 'NONE', #672, #87 ) ;
#265 = CARTESIAN_POINT ( 'NONE',  ( 10.75000000000000000, 6.000000000000000000, 4.000000000000000000 ) ) ;
#266 = DIRECTION ( 'NONE',  ( -0.000000000000000000, -0.000000000000000000, -1.000000000000000000 ) ) ;
#267 = EDGE_LOOP ( 'NONE', ( #390, #584 ) ) ;
#268 = CARTESIAN_POINT ( 'NONE',  ( 41.00000000000000000, 12.00000000000000000, 0.000000000000000000 ) ) ;
#269 = FACE_BOUND ( 'NONE', #503, .T. ) ;
#270 = ORIENTED_EDGE ( 'NONE', *, *, #89, .F. ) ;
#271 = COLOUR_RGB ( '',0.7921568627450980005, 0.8196078431372548767, 0.9333333333333333481 ) ;
#272 = CIRCLE ( 'NONE', #624, 3.250000000000002665 ) ;
#273 = DIRECTION ( 'NONE',  ( 0.000000000000000000, -1.000000000000000000, 0.000000000000000000 ) ) ;
#274 = EDGE_CURVE ( 'NONE', #561, #310, #759, .T. ) ;
#275 = CARTESIAN_POINT ( 'NONE',  ( 41.00000000000000000, 32.00000000000000000, 41.00000000000000000 ) ) ;
#276 = EDGE_LOOP ( 'NONE', ( #384, #780, #248, #435, #517 ) ) ;
#277 = DIRECTION ( 'NONE',  ( -0.000000000000000000, -0.000000000000000000, -1.000000000000000000 ) ) ;
#278 = CARTESIAN_POINT ( 'NONE',  ( 35.99999999999999289, 28.00000000000000000, 37.34999999999998721 ) ) ;
#279 = EDGE_LOOP ( 'NONE', ( #47, #308, #761, #589, #545, #155, #527, #170 ) ) ;
#280 = CARTESIAN_POINT ( 'NONE',  ( 56.75000000000000000, 6.000000000000005329, 4.000000000000000000 ) ) ;
#281 = ORIENTED_EDGE ( 'NONE', *, *, #383, .T. ) ;
#282 = VECTOR ( 'NONE', #508, 1000.000000000000000 ) ;
#283 = DIRECTION ( 'NONE',  ( 0.000000000000000000, 0.000000000000000000, -1.000000000000000000 ) ) ;
#284 = EDGE_LOOP ( 'NONE', ( #649, #107, #512, #641 ) ) ;
#285 = DIRECTION ( 'NONE',  ( -0.000000000000000000, 1.000000000000000000, -8.462065736472232314E-17 ) ) ;
#286 = VECTOR ( 'NONE', #583, 1000.000000000000000 ) ;
#287 = CARTESIAN_POINT ( 'NONE',  ( 26.30000000000000426, 28.00000000000000000, 37.34999999999998721 ) ) ;
#288 = VERTEX_POINT ( 'NONE', #278 ) ;
#289 = CARTESIAN_POINT ( 'NONE',  ( 10.75000000000000000, 6.000000000000000000, 4.000000000000000000 ) ) ;
#290 = CARTESIAN_POINT ( 'NONE',  ( 24.99999999999999289, 28.00000000000000000, 22.35000000000000142 ) ) ;
#291 = VERTEX_POINT ( 'NONE', #212 ) ;
#292 = LINE ( 'NONE', #13, #340 ) ;
#293 = DIRECTION ( 'NONE',  ( 0.000000000000000000, 0.000000000000000000, 1.000000000000000000 ) ) ;
#294 = CIRCLE ( 'NONE', #489, 0.6499999999999908074 ) ;
#295 = CLOSED_SHELL ( 'NONE', ( #326, #157, #132, #482, #473, #600, #114, #427, #538, #105, #411, #660, #830, #223, #103, #779, #395, #211, #344, #250, #758, #754, #766, #796, #881, #178 ) ) ;
#296 = ORIENTED_EDGE ( 'NONE', *, *, #576, .F. ) ;
#297 = FILL_AREA_STYLE ('',( #734 ) ) ;
#298 = VECTOR ( 'NONE', #329, 1000.000000000000000 ) ;
#299 = DIRECTION ( 'NONE',  ( -1.000000000000000000, 0.000000000000000000, 0.000000000000000000 ) ) ;
#300 = VERTEX_POINT ( 'NONE', #373 ) ;
#301 = CARTESIAN_POINT ( 'NONE',  ( 41.00000000000000000, 28.00000000000000000, 4.000000000000000000 ) ) ;
#302 = DIRECTION ( 'NONE',  ( -0.000000000000000000, 1.000000000000000000, -8.462065736472232314E-17 ) ) ;
#303 = ORIENTED_EDGE ( 'NONE', *, *, #819, .F. ) ;
#304 = CARTESIAN_POINT ( 'NONE',  ( 50.24999999999999289, 6.000000000000005329, 4.000000000000000000 ) ) ;
#305 = EDGE_CURVE ( 'NONE', #213, #300, #726, .T. ) ;
#306 = LINE ( 'NONE', #443, #20 ) ;
#307 = EDGE_CURVE ( 'NONE', #121, #882, #652, .T. ) ;
#308 = ORIENTED_EDGE ( 'NONE', *, *, #206, .F. ) ;
#309 = CIRCLE ( 'NONE', #166, 3.249999999999999556 ) ;
#310 = VERTEX_POINT ( 'NONE', #169 ) ;
#311 = APPLICATION_CONTEXT ( 'automotive_design' ) ;
#312 = CARTESIAN_POINT ( 'NONE',  ( 35.35000000000000142, 31.99999999999999289, 37.34999999999998721 ) ) ;
#313 = VECTOR ( 'NONE', #729, 1000.000000000000000 ) ;
#314 = CARTESIAN_POINT ( 'NONE',  ( 0.000000000000000000, 12.00000000000000000, 4.000000000000000000 ) ) ;
#315 = ORIENTED_EDGE ( 'NONE', *, *, #234, .F. ) ;
#316 = EDGE_CURVE ( 'NONE', #213, #738, #510, .T. ) ;
#317 = CARTESIAN_POINT ( 'NONE',  ( 24.99999999999999289, -0.001000000000001000089, 22.35000000000000497 ) ) ;
#318 = PLANE ( 'NONE',  #240 ) ;
#319 = ORIENTED_EDGE ( 'NONE', *, *, #667, .T. ) ;
#320 = PLANE ( 'NONE',  #634 ) ;
#321 = CARTESIAN_POINT ( 'NONE',  ( 20.00000000000000000, 31.99999999999999289, 7.703719777548943412E-31 ) ) ;
#322 = VERTEX_POINT ( 'NONE', #526 ) ;
#323 = VECTOR ( 'NONE', #172, 1000.000000000000000 ) ;
#324 = EDGE_CURVE ( 'NONE', #41, #200, #306, .T. ) ;
#325 = DIRECTION ( 'NONE',  ( 0.000000000000000000, 0.000000000000000000, 1.000000000000000000 ) ) ;
#326 = ADVANCED_FACE ( 'NONE', ( #100 ), #238, .F. ) ;
#327 = CARTESIAN_POINT ( 'NONE',  ( 0.000000000000000000, 0.000000000000000000, 0.000000000000000000 ) ) ;
#328 = SHAPE_DEFINITION_REPRESENTATION ( #638, #642 ) ;
#329 = DIRECTION ( 'NONE',  ( -1.000000000000000000, 0.000000000000000000, 0.000000000000000000 ) ) ;
#330 = VERTEX_POINT ( 'NONE', #44 ) ;
#331 = VECTOR ( 'NONE', #623, 1000.000000000000000 ) ;
#332 = LINE ( 'NONE', #547, #474 ) ;
#333 = CARTESIAN_POINT ( 'NONE',  ( 26.30000000000000426, -0.001000000000001000089, 22.35000000000000497 ) ) ;
#334 = ORIENTED_EDGE ( 'NONE', *, *, #610, .F. ) ;
#335 = DIRECTION ( 'NONE',  ( 0.000000000000000000, 0.000000000000000000, 1.000000000000000000 ) ) ;
#336 = EDGE_CURVE ( 'NONE', #300, #588, #39, .T. ) ;
#337 = LINE ( 'NONE', #130, #255 ) ;
#338 = ORIENTED_EDGE ( 'NONE', *, *, #615, .T. ) ;
#339 = CARTESIAN_POINT ( 'NONE',  ( 35.35000000000000142, 31.99999999999999289, 22.34999999999999432 ) ) ;
#340 = VECTOR ( 'NONE', #837, 1000.000000000000000 ) ;
#341 = PLANE ( 'NONE',  #419 ) ;
#342 = ORIENTED_EDGE ( 'NONE', *, *, #788, .F. ) ;
#343 = VECTOR ( 'NONE', #70, 1000.000000000000000 ) ;
#344 = ADVANCED_FACE ( 'NONE', ( #378 ), #782, .F. ) ;
#345 = AXIS2_PLACEMENT_3D ( 'NONE', #639, #831, #283 ) ;
#346 = DIRECTION ( 'NONE',  ( 0.000000000000000000, 0.000000000000000000, 1.000000000000000000 ) ) ;
#347 = DIRECTION ( 'NONE',  ( 1.000000000000000000, 0.000000000000000000, -0.000000000000000000 ) ) ;
#348 = ORIENTED_EDGE ( 'NONE', *, *, #689, .F. ) ;
#349 = DIRECTION ( 'NONE',  ( -0.000000000000000000, -0.000000000000000000, -1.000000000000000000 ) ) ;
#350 = EDGE_LOOP ( 'NONE', ( #394, #319, #101, #270 ) ) ;
#351 = FACE_OUTER_BOUND ( 'NONE', #478, .T. ) ;
#352 = VERTEX_POINT ( 'NONE', #364 ) ;
#353 = PLANE ( 'NONE',  #253 ) ;
#354 = VECTOR ( 'NONE', #605, 1000.000000000000000 ) ;
#355 = EDGE_CURVE ( 'NONE', #457, #409, #521, .T. ) ;
#356 = DIRECTION ( 'NONE',  ( 0.000000000000000000, 0.000000000000000000, 1.000000000000000000 ) ) ;
#357 = EDGE_LOOP ( 'NONE', ( #342, #125, #422, #716 ) ) ;
#358 = CARTESIAN_POINT ( 'NONE',  ( 24.99999999999999289, 28.00000000000000000, 37.34999999999999432 ) ) ;
#359 = VECTOR ( 'NONE', #191, 1000.000000000000000 ) ;
#360 = AXIS2_PLACEMENT_3D ( 'NONE', #26, #109, #847 ) ;
#361 = DIRECTION ( 'NONE',  ( 0.000000000000000000, 0.000000000000000000, 1.000000000000000000 ) ) ;
#362 = EDGE_LOOP ( 'NONE', ( #617, #867, #296, #303, #137, #45 ) ) ;
#363 =( NAMED_UNIT ( * ) SI_UNIT ( $, .STERADIAN. ) SOLID_ANGLE_UNIT ( ) );
#364 = CARTESIAN_POINT ( 'NONE',  ( 24.99999999999999289, 32.00000000000000000, 22.35000000000000142 ) ) ;
#365 = EDGE_CURVE ( 'NONE', #95, #661, #245, .T. ) ;
#366 = VERTEX_POINT ( 'NONE', #850 ) ;
#367 = EDGE_CURVE ( 'NONE', #588, #852, #592, .T. ) ;
#368 = DIRECTION ( 'NONE',  ( 0.000000000000000000, 0.000000000000000000, 1.000000000000000000 ) ) ;
#369 = VECTOR ( 'NONE', #880, 1000.000000000000000 ) ;
#370 = ORIENTED_EDGE ( 'NONE', *, *, #86, .T. ) ;
#371 = ORIENTED_EDGE ( 'NONE', *, *, #678, .F. ) ;
#372 = CARTESIAN_POINT ( 'NONE',  ( 35.35000000000000142, 28.00000000000000000, 37.99999999999997868 ) ) ;
#373 = CARTESIAN_POINT ( 'NONE',  ( 40.99999999999998579, 12.00000000000000533, 4.000000000000000000 ) ) ;
#374 = ORIENTED_EDGE ( 'NONE', *, *, #24, .F. ) ;
#375 = ORIENTED_EDGE ( 'NONE', *, *, #261, .T. ) ;
#376 = FACE_OUTER_BOUND ( 'NONE', #78, .T. ) ;
#377 = EDGE_CURVE ( 'NONE', #8, #676, #598, .T. ) ;
#378 = FACE_OUTER_BOUND ( 'NONE', #523, .T. ) ;
#379 = ORIENTED_EDGE ( 'NONE', *, *, #206, .T. ) ;
#380 = ORIENTED_EDGE ( 'NONE', *, *, #24, .T. ) ;
#381 = DIRECTION ( 'NONE',  ( -1.000000000000000000, 0.000000000000000000, -0.000000000000000000 ) ) ;
#382 = CARTESIAN_POINT ( 'NONE',  ( 41.00000000000000000, 28.00000000000000000, 4.000000000000000000 ) ) ;
#383 = EDGE_CURVE ( 'NONE', #18, #41, #515, .T. ) ;
#384 = ORIENTED_EDGE ( 'NONE', *, *, #707, .F. ) ;
#385 = ORIENTED_EDGE ( 'NONE', *, *, #640, .F. ) ;
#386 = LINE ( 'NONE', #596, #504 ) ;
#387 = MECHANICAL_DESIGN_GEOMETRIC_PRESENTATION_REPRESENTATION (  '', ( #775 ), #46 ) ;
#388 = DIRECTION ( 'NONE',  ( -0.000000000000000000, 1.000000000000000000, -8.462065736472232314E-17 ) ) ;
#389 = VECTOR ( 'NONE', #808, 1000.000000000000000 ) ;
#390 = ORIENTED_EDGE ( 'NONE', *, *, #509, .T. ) ;
#391 = CARTESIAN_POINT ( 'NONE',  ( 56.75000000000000000, 6.000000000000005329, 4.000000000000000000 ) ) ;
#392 = DIRECTION ( 'NONE',  ( 1.000000000000000000, 0.000000000000000000, 0.000000000000000000 ) ) ;
#393 = LINE ( 'NONE', #821, #6 ) ;
#394 = ORIENTED_EDGE ( 'NONE', *, *, #582, .T. ) ;
#395 = ADVANCED_FACE ( 'NONE', ( #577 ), #247, .F. ) ;
#396 = CARTESIAN_POINT ( 'NONE',  ( 35.99999999999999289, 28.00000000000000000, 22.35000000000000142 ) ) ;
#397 = LINE ( 'NONE', #327, #827 ) ;
#398 = DIRECTION ( 'NONE',  ( 0.000000000000000000, 1.734723475976807292E-15, 1.000000000000000000 ) ) ;
#399 = EDGE_LOOP ( 'NONE', ( #370, #608, #27, #444, #174 ) ) ;
#400 = CIRCLE ( 'NONE', #514, 3.249999999999999556 ) ;
#401 = FACE_BOUND ( 'NONE', #484, .T. ) ;
#402 = CARTESIAN_POINT ( 'NONE',  ( 7.500000000000000000, 6.000000000000000000, 4.000000000000000000 ) ) ;
#403 = CARTESIAN_POINT ( 'NONE',  ( 41.00000000000000000, 31.99999999999999289, 7.703719777548943412E-31 ) ) ;
#404 = EDGE_LOOP ( 'NONE', ( #566, #710, #752, #653 ) ) ;
#405 = VECTOR ( 'NONE', #494, 1000.000000000000000 ) ;
#406 = CARTESIAN_POINT ( 'NONE',  ( 4.249999999999999112, 6.000000000000000000, 4.000000000000000000 ) ) ;
#407 = DIRECTION ( 'NONE',  ( 0.000000000000000000, 1.000000000000000000, 0.000000000000000000 ) ) ;
#408 = FACE_OUTER_BOUND ( 'NONE', #783, .T. ) ;
#409 = VERTEX_POINT ( 'NONE', #714 ) ;
#410 = FACE_BOUND ( 'NONE', #399, .T. ) ;
#411 = ADVANCED_FACE ( 'NONE', ( #31 ), #173, .F. ) ;
#412 = CARTESIAN_POINT ( 'NONE',  ( 35.99999999999999289, 28.00000000000000000, 22.35000000000000497 ) ) ;
#413 = VERTEX_POINT ( 'NONE', #94 ) ;
#414 = DIRECTION ( 'NONE',  ( -1.000000000000000000, 0.000000000000000000, 0.000000000000000000 ) ) ;
#415 = AXIS2_PLACEMENT_3D ( 'NONE', #711, #277, #414 ) ;
#416 = VECTOR ( 'NONE', #266, 1000.000000000000000 ) ;
#417 = CARTESIAN_POINT ( 'NONE',  ( 61.00000000000000000, 7.470345474798855081E-15, 4.000000000000000000 ) ) ;
#418 = ORIENTED_EDGE ( 'NONE', *, *, #307, .F. ) ;
#419 = AXIS2_PLACEMENT_3D ( 'NONE', #544, #686, #553 ) ;
#420 = CARTESIAN_POINT ( 'NONE',  ( 10.75000000000000000, 6.000000000000000000, 0.000000000000000000 ) ) ;
#421 = DIRECTION ( 'NONE',  ( 1.000000000000000000, 0.000000000000000000, 0.000000000000000000 ) ) ;
#422 = ORIENTED_EDGE ( 'NONE', *, *, #480, .T. ) ;
#423 = LINE ( 'NONE', #280, #73 ) ;
#424 = EDGE_CURVE ( 'NONE', #789, #549, #611, .T. ) ;
#425 = CARTESIAN_POINT ( 'NONE',  ( 20.00000000000000000, 0.000000000000000000, 0.000000000000000000 ) ) ;
#426 = ORIENTED_EDGE ( 'NONE', *, *, #804, .F. ) ;
#427 = ADVANCED_FACE ( 'NONE', ( #454 ), #731, .F. ) ;
#428 = LINE ( 'NONE', #702, #730 ) ;
#429 = LINE ( 'NONE', #91, #331 ) ;
#430 = ORIENTED_EDGE ( 'NONE', *, *, #377, .F. ) ;
#431 = CARTESIAN_POINT ( 'NONE',  ( 26.30000000000000426, 31.99999999999999289, 22.35000000000000142 ) ) ;
#432 = PRESENTATION_LAYER_ASSIGNMENT (  '', '', ( #775 ) ) ;
#433 = FACE_OUTER_BOUND ( 'NONE', #194, .T. ) ;
#434 = ORIENTED_EDGE ( 'NONE', *, *, #509, .F. ) ;
#435 = ORIENTED_EDGE ( 'NONE', *, *, #355, .F. ) ;
#436 = EDGE_CURVE ( 'NONE', #588, #322, #198, .T. ) ;
#437 = DIRECTION ( 'NONE',  ( 0.000000000000000000, 0.000000000000000000, 1.000000000000000000 ) ) ;
#438 =( GEOMETRIC_REPRESENTATION_CONTEXT ( 3 ) GLOBAL_UNCERTAINTY_ASSIGNED_CONTEXT ( ( #158 ) ) GLOBAL_UNIT_ASSIGNED_CONTEXT ( ( #9, #209, #363 ) ) REPRESENTATION_CONTEXT ( 'NONE', 'WORKASPACE' ) );
#439 = ORIENTED_EDGE ( 'NONE', *, *, #15, .F. ) ;
#440 = VERTEX_POINT ( 'NONE', #749 ) ;
#441 = LINE ( 'NONE', #406, #359 ) ;
#442 = VECTOR ( 'NONE', #99, 1000.000000000000000 ) ;
#443 = CARTESIAN_POINT ( 'NONE',  ( 20.00000000000000000, 31.99999999999999289, 7.703719777548943412E-31 ) ) ;
#444 = ORIENTED_EDGE ( 'NONE', *, *, #732, .T. ) ;
#445 = CARTESIAN_POINT ( 'NONE',  ( 4.249999999999999112, 6.000000000000000000, 4.000000000000000000 ) ) ;
#446 = AXIS2_PLACEMENT_3D ( 'NONE', #230, #659, #506 ) ;
#447 = CARTESIAN_POINT ( 'NONE',  ( 61.00000000000000000, 12.00000000000000711, 4.000000000000000000 ) ) ;
#448 = ORIENTED_EDGE ( 'NONE', *, *, #536, .T. ) ;
#449 = CARTESIAN_POINT ( 'NONE',  ( 41.00000000000000000, 32.00000000000000000, 41.00000000000000000 ) ) ;
#450 = EDGE_CURVE ( 'NONE', #873, #18, #875, .T. ) ;
#451 = CARTESIAN_POINT ( 'NONE',  ( 25.64999999999999858, 28.00000000000000000, 37.34999999999999432 ) ) ;
#452 = ORIENTED_EDGE ( 'NONE', *, *, #559, .F. ) ;
#453 = FACE_BOUND ( 'NONE', #204, .T. ) ;
#454 = FACE_OUTER_BOUND ( 'NONE', #235, .T. ) ;
#455 = VECTOR ( 'NONE', #285, 1000.000000000000000 ) ;
#456 = CARTESIAN_POINT ( 'NONE',  ( 53.50000000000000000, 6.000000000000005329, 4.000000000000000000 ) ) ;
#457 = VERTEX_POINT ( 'NONE', #669 ) ;
#458 = LINE ( 'NONE', #449, #674 ) ;
#459 = DIRECTION ( 'NONE',  ( -1.000000000000000000, 0.000000000000000000, 0.000000000000000000 ) ) ;
#460 = AXIS2_PLACEMENT_3D ( 'NONE', #835, #565, #82 ) ;
#461 = CARTESIAN_POINT ( 'NONE',  ( 0.000000000000000000, 12.00000000000000000, 4.000000000000000000 ) ) ;
#462 = ORIENTED_EDGE ( 'NONE', *, *, #689, .T. ) ;
#463 = CARTESIAN_POINT ( 'NONE',  ( 25.64999999999999858, 31.99999999999999289, 37.34999999999999432 ) ) ;
#464 = CARTESIAN_POINT ( 'NONE',  ( 50.24999999999999289, 6.000000000000005329, 4.000000000000000000 ) ) ;
#465 = DIRECTION ( 'NONE',  ( -1.000000000000000000, 0.000000000000000000, 0.000000000000000000 ) ) ;
#466 = EDGE_CURVE ( 'NONE', #799, #833, #802, .T. ) ;
#467 = ORIENTED_EDGE ( 'NONE', *, *, #53, .F. ) ;
#468 = CARTESIAN_POINT ( 'NONE',  ( 41.00000000000000000, 28.00000000000000000, 41.00000000000000711 ) ) ;
#469 = AXIS2_PLACEMENT_3D ( 'NONE', #694, #346, #633 ) ;
#470 = DIRECTION ( 'NONE',  ( 1.000000000000000000, 0.000000000000000000, 0.000000000000000000 ) ) ;
#471 = LINE ( 'NONE', #412, #369 ) ;
#472 = ORIENTED_EDGE ( 'NONE', *, *, #630, .T. ) ;
#473 = ADVANCED_FACE ( 'NONE', ( #55 ), #320, .F. ) ;
#474 = VECTOR ( 'NONE', #407, 1000.000000000000000 ) ;
#475 = DIRECTION ( 'NONE',  ( 0.000000000000000000, 0.000000000000000000, -1.000000000000000000 ) ) ;
#476 = AXIS2_PLACEMENT_3D ( 'NONE', #463, #688, #335 ) ;
#477 = LINE ( 'NONE', #333, #389 ) ;
#478 = EDGE_LOOP ( 'NONE', ( #877, #487, #668, #418 ) ) ;
#479 = VECTOR ( 'NONE', #522, 1000.000000000000000 ) ;
#480 = EDGE_CURVE ( 'NONE', #654, #366, #543, .T. ) ;
#481 = CARTESIAN_POINT ( 'NONE',  ( 41.00000000000000000, 28.00000000000000000, 4.000000000000000000 ) ) ;
#482 = ADVANCED_FACE ( 'NONE', ( #603 ), #810, .F. ) ;
#483 = CARTESIAN_POINT ( 'NONE',  ( 41.00000000000000000, 31.99999999999999289, 7.703719777548943412E-31 ) ) ;
#484 = EDGE_LOOP ( 'NONE', ( #601, #63, #150, #42, #724 ) ) ;
#485 =( NAMED_UNIT ( * ) SI_UNIT ( $, .STERADIAN. ) SOLID_ANGLE_UNIT ( ) );
#486 = DIRECTION ( 'NONE',  ( 1.000000000000000000, 0.000000000000000000, 0.000000000000000000 ) ) ;
#487 = ORIENTED_EDGE ( 'NONE', *, *, #869, .T. ) ;
#488 = APPLICATION_PROTOCOL_DEFINITION ( 'draft international standard', 'automotive_design', 1998, #311 ) ;
#489 = AXIS2_PLACEMENT_3D ( 'NONE', #339, #133, #205 ) ;
#490 = CIRCLE ( 'NONE', #735, 0.6499999999999908074 ) ;
#491 = DIRECTION ( 'NONE',  ( 0.000000000000000000, 8.470329472542940528E-17, 1.000000000000000000 ) ) ;
#492 = EDGE_CURVE ( 'NONE', #190, #863, #807, .T. ) ;
#493 = ORIENTED_EDGE ( 'NONE', *, *, #550, .T. ) ;
#494 = DIRECTION ( 'NONE',  ( 0.000000000000000000, 0.000000000000000000, 1.000000000000000000 ) ) ;
#495 = ORIENTED_EDGE ( 'NONE', *, *, #195, .T. ) ;
#496 = DIRECTION ( 'NONE',  ( 0.000000000000000000, 8.470329472543122952E-17, 1.000000000000000000 ) ) ;
#497 = CARTESIAN_POINT ( 'NONE',  ( 20.00000000000000000, 12.00000000000000000, 0.000000000000000000 ) ) ;
#498 = ORIENTED_EDGE ( 'NONE', *, *, #788, .T. ) ;
#499 = CARTESIAN_POINT ( 'NONE',  ( 41.00000000000000000, 28.00000000000000000, 41.00000000000000711 ) ) ;
#500 = EDGE_CURVE ( 'NONE', #310, #738, #332, .T. ) ;
#501 = EDGE_CURVE ( 'NONE', #799, #657, #400, .T. ) ;
#502 = PLANE ( 'NONE',  #117 ) ;
#503 = EDGE_LOOP ( 'NONE', ( #236, #131 ) ) ;
#504 = VECTOR ( 'NONE', #168, 1000.000000000000000 ) ;
#505 = VECTOR ( 'NONE', #695, 1000.000000000000000 ) ;
#506 = DIRECTION ( 'NONE',  ( 1.000000000000000000, 1.137523590804463822E-16, 0.000000000000000000 ) ) ;
#507 = DIRECTION ( 'NONE',  ( 1.000000000000000000, 0.000000000000000000, 0.000000000000000000 ) ) ;
#508 = DIRECTION ( 'NONE',  ( -0.000000000000000000, 1.000000000000000000, -8.462065736472232314E-17 ) ) ;
#509 = EDGE_CURVE ( 'NONE', #728, #833, #197, .T. ) ;
#510 = LINE ( 'NONE', #447, #286 ) ;
#511 = PRODUCT_DEFINITION_FORMATION_WITH_SPECIFIED_SOURCE ( 'ANY', '', #569, .NOT_KNOWN. ) ;
#512 = ORIENTED_EDGE ( 'NONE', *, *, #98, .T. ) ;
#513 = FACE_OUTER_BOUND ( 'NONE', #217, .T. ) ;
#514 = AXIS2_PLACEMENT_3D ( 'NONE', #736, #188, #392 ) ;
#515 = LINE ( 'NONE', #243, #479 ) ;
#516 = EDGE_CURVE ( 'NONE', #330, #366, #83, .T. ) ;
#517 = ORIENTED_EDGE ( 'NONE', *, *, #869, .F. ) ;
#518 = EDGE_CURVE ( 'NONE', #440, #839, #397, .T. ) ;
#519 = EDGE_LOOP ( 'NONE', ( #315, #379, #426, #90 ) ) ;
#520 = CYLINDRICAL_SURFACE ( 'NONE', #857, 3.250000000000000444 ) ;
#521 = CIRCLE ( 'NONE', #171, 0.6499999999999908074 ) ;
#522 = DIRECTION ( 'NONE',  ( 0.000000000000000000, -1.692413147294445970E-16, -1.000000000000000000 ) ) ;
#523 = EDGE_LOOP ( 'NONE', ( #574, #715, #144, #32 ) ) ;
#524 = ORIENTED_EDGE ( 'NONE', *, *, #851, .T. ) ;
#525 = DIRECTION ( 'NONE',  ( 0.000000000000000000, 0.000000000000000000, -1.000000000000000000 ) ) ;
#526 = CARTESIAN_POINT ( 'NONE',  ( 20.00000000000000000, 28.00000000000000000, 4.000000000000000000 ) ) ;
#527 = ORIENTED_EDGE ( 'NONE', *, *, #500, .F. ) ;
#528 = EDGE_CURVE ( 'NONE', #657, #799, #309, .T. ) ;
#529 = DIRECTION ( 'NONE',  ( -0.000000000000000000, 1.000000000000000000, -0.000000000000000000 ) ) ;
#530 = DIRECTION ( 'NONE',  ( -1.224646799147353454E-16, 1.000000000000000000, 0.000000000000000000 ) ) ;
#531 = AXIS2_PLACEMENT_3D ( 'NONE', #535, #685, #883 ) ;
#532 = CARTESIAN_POINT ( 'NONE',  ( 53.50000000000000000, 6.000000000000005329, 4.000000000000000000 ) ) ;
#533 = AXIS2_PLACEMENT_3D ( 'NONE', #747, #120, #616 ) ;
#534 = ORIENTED_EDGE ( 'NONE', *, *, #365, .T. ) ;
#535 = CARTESIAN_POINT ( 'NONE',  ( 24.99999999999999289, -0.001000000000001000089, 22.35000000000000497 ) ) ;
#536 = EDGE_CURVE ( 'NONE', #772, #84, #879, .T. ) ;
#537 = DIRECTION ( 'NONE',  ( 1.000000000000000000, 1.137523590804463822E-16, 0.000000000000000000 ) ) ;
#538 = ADVANCED_FACE ( 'NONE', ( #665 ), #318, .F. ) ;
#539 = CIRCLE ( 'NONE', #146, 3.250000000000002665 ) ;
#540 = FACE_BOUND ( 'NONE', #267, .T. ) ;
#541 = EDGE_LOOP ( 'NONE', ( #719, #628, #434, #348 ) ) ;
#542 = DIRECTION ( 'NONE',  ( 0.000000000000000000, 8.470329472542940528E-17, 1.000000000000000000 ) ) ;
#543 = LINE ( 'NONE', #464, #746 ) ;
#544 = CARTESIAN_POINT ( 'NONE',  ( 0.000000000000000000, 0.000000000000000000, 0.000000000000000000 ) ) ;
#545 = ORIENTED_EDGE ( 'NONE', *, *, #658, .T. ) ;
#546 =( LENGTH_UNIT ( ) NAMED_UNIT ( * ) SI_UNIT ( .MILLI., .METRE. ) );
#547 = CARTESIAN_POINT ( 'NONE',  ( 61.00000000000000000, 7.470345474798855081E-15, 0.000000000000000000 ) ) ;
#548 = DIRECTION ( 'NONE',  ( -0.000000000000000000, 1.000000000000000000, -0.000000000000000000 ) ) ;
#549 = VERTEX_POINT ( 'NONE', #48 ) ;
#550 = EDGE_CURVE ( 'NONE', #263, #18, #655, .T. ) ;
#551 = FACE_OUTER_BOUND ( 'NONE', #180, .T. ) ;
#552 = VECTOR ( 'NONE', #237, 1000.000000000000000 ) ;
#553 = DIRECTION ( 'NONE',  ( -1.000000000000000000, 0.000000000000000000, -0.000000000000000000 ) ) ;
#554 = ORIENTED_EDGE ( 'NONE', *, *, #450, .T. ) ;
#555 =( NAMED_UNIT ( * ) PLANE_ANGLE_UNIT ( ) SI_UNIT ( $, .RADIAN. ) );
#556 = DIRECTION ( 'NONE',  ( 0.000000000000000000, 1.000000000000000000, -1.692413147294446216E-16 ) ) ;
#557 = ORIENTED_EDGE ( 'NONE', *, *, #86, .F. ) ;
#558 = LINE ( 'NONE', #431, #840 ) ;
#559 = EDGE_CURVE ( 'NONE', #288, #413, #722, .T. ) ;
#560 = CARTESIAN_POINT ( 'NONE',  ( 61.00000000000000000, 12.00000000000000711, 4.000000000000000000 ) ) ;
#561 = VERTEX_POINT ( 'NONE', #581 ) ;
#562 = CARTESIAN_POINT ( 'NONE',  ( 35.35000000000000142, -0.001000000000001000089, 37.34999999999998721 ) ) ;
#563 = VECTOR ( 'NONE', #119, 1000.000000000000000 ) ;
#564 = VERTEX_POINT ( 'NONE', #242 ) ;
#565 = DIRECTION ( 'NONE',  ( -0.000000000000000000, 1.000000000000000000, -0.000000000000000000 ) ) ;
#566 = ORIENTED_EDGE ( 'NONE', *, *, #698, .T. ) ;
#567 = CARTESIAN_POINT ( 'NONE',  ( 26.30000000000000426, 28.00000000000000000, 22.35000000000000142 ) ) ;
#568 = VECTOR ( 'NONE', #723, 1000.000000000000000 ) ;
#569 = PRODUCT ( 'X Limit Switch Mount 2', 'X Limit Switch Mount 2', '', ( #579 ) ) ;
#570 = CARTESIAN_POINT ( 'NONE',  ( 25.64999999999999858, -0.001000000000001000089, 37.34999999999999432 ) ) ;
#571 = EDGE_LOOP ( 'NONE', ( #594, #836, #140, #636, #701 ) ) ;
#572 = LINE ( 'NONE', #699, #455 ) ;
#573 = CYLINDRICAL_SURFACE ( 'NONE', #76, 0.6500000000000047962 ) ;
#574 = ORIENTED_EDGE ( 'NONE', *, *, #92, .T. ) ;
#575 = PRODUCT_DEFINITION ( 'UNKNOWN', '', #511, #677 ) ;
#576 = EDGE_CURVE ( 'NONE', #263, #21, #458, .T. ) ;
#577 = FACE_OUTER_BOUND ( 'NONE', #362, .T. ) ;
#578 = ORIENTED_EDGE ( 'NONE', *, *, #126, .T. ) ;
#579 = PRODUCT_CONTEXT ( 'NONE', #311, 'mechanical' ) ;
#580 = AXIS2_PLACEMENT_3D ( 'NONE', #532, #755, #670 ) ;
#581 = CARTESIAN_POINT ( 'NONE',  ( 61.00000000000000000, 7.470345474798855081E-15, 4.000000000000000000 ) ) ;
#582 = EDGE_CURVE ( 'NONE', #208, #352, #849, .T. ) ;
#583 = DIRECTION ( 'NONE',  ( -0.000000000000000000, -0.000000000000000000, -1.000000000000000000 ) ) ;
#584 = ORIENTED_EDGE ( 'NONE', *, *, #743, .T. ) ;
#585 = EDGE_LOOP ( 'NONE', ( #645, #175, #697, #493 ) ) ;
#586 = CARTESIAN_POINT ( 'NONE',  ( 35.99999999999999289, -0.001000000000001000089, 37.34999999999998721 ) ) ;
#587 = DIRECTION ( 'NONE',  ( 0.000000000000000000, 8.470329472542940528E-17, 1.000000000000000000 ) ) ;
#588 = VERTEX_POINT ( 'NONE', #301 ) ;
#589 = ORIENTED_EDGE ( 'NONE', *, *, #126, .F. ) ;
#590 = DIRECTION ( 'NONE',  ( 0.000000000000000000, -1.000000000000000000, -3.851859888774472801E-32 ) ) ;
#591 = VECTOR ( 'NONE', #260, 1000.000000000000000 ) ;
#592 = LINE ( 'NONE', #382, #597 ) ;
#593 = ORIENTED_EDGE ( 'NONE', *, *, #153, .T. ) ;
#594 = ORIENTED_EDGE ( 'NONE', *, *, #40, .F. ) ;
#595 = AXIS2_PLACEMENT_3D ( 'NONE', #853, #525, #381 ) ;
#596 = CARTESIAN_POINT ( 'NONE',  ( 20.00000000000000000, 28.00000000000000000, 4.000000000000000000 ) ) ;
#597 = VECTOR ( 'NONE', #437, 1000.000000000000000 ) ;
#598 = LINE ( 'NONE', #855, #750 ) ;
#599 = ORIENTED_EDGE ( 'NONE', *, *, #153, .F. ) ;
#600 = ADVANCED_FACE ( 'NONE', ( #376, #453, #118 ), #43, .F. ) ;
#601 = ORIENTED_EDGE ( 'NONE', *, *, #176, .T. ) ;
#602 = LINE ( 'NONE', #785, #552 ) ;
#603 = FACE_OUTER_BOUND ( 'NONE', #541, .T. ) ;
#604 = DIRECTION ( 'NONE',  ( 0.000000000000000000, 1.000000000000000000, 0.000000000000000000 ) ) ;
#605 = DIRECTION ( 'NONE',  ( -0.000000000000000000, -0.000000000000000000, -1.000000000000000000 ) ) ;
#606 = AXIS2_PLACEMENT_3D ( 'NONE', #868, #739, #542 ) ;
#607 = CARTESIAN_POINT ( 'NONE',  ( 61.00000000000000000, 7.470345474798855081E-15, 4.000000000000000000 ) ) ;
#608 = ORIENTED_EDGE ( 'NONE', *, *, #307, .T. ) ;
#609 = DIRECTION ( 'NONE',  ( 1.137523590804463822E-16, -1.000000000000000000, 0.000000000000000000 ) ) ;
#610 = EDGE_CURVE ( 'NONE', #190, #862, #602, .T. ) ;
#611 = CIRCLE ( 'NONE', #215, 0.6500000000000047962 ) ;
#612 = FACE_OUTER_BOUND ( 'NONE', #632, .T. ) ;
#613 = ORIENTED_EDGE ( 'NONE', *, *, #804, .T. ) ;
#614 = DIRECTION ( 'NONE',  ( 1.000000000000000000, 0.000000000000000000, 0.000000000000000000 ) ) ;
#615 = EDGE_CURVE ( 'NONE', #549, #661, #108, .T. ) ;
#616 = DIRECTION ( 'NONE',  ( 0.000000000000000000, 0.000000000000000000, 1.000000000000000000 ) ) ;
#617 = ORIENTED_EDGE ( 'NONE', *, *, #67, .F. ) ;
#618 = DIRECTION ( 'NONE',  ( -1.000000000000000000, -1.137523590804463822E-16, -0.000000000000000000 ) ) ;
#619 = ORIENTED_EDGE ( 'NONE', *, *, #518, .T. ) ;
#620 = AXIS2_PLACEMENT_3D ( 'NONE', #231, #848, #507 ) ;
#621 = DIRECTION ( 'NONE',  ( 0.000000000000000000, 8.470329472543122952E-17, 1.000000000000000000 ) ) ;
#622 = AXIS2_PLACEMENT_3D ( 'NONE', #312, #781, #163 ) ;
#623 = DIRECTION ( 'NONE',  ( -0.000000000000000000, 1.000000000000000000, -8.462065736472232314E-17 ) ) ;
#624 = AXIS2_PLACEMENT_3D ( 'NONE', #838, #824, #486 ) ;
#625 = VERTEX_POINT ( 'NONE', #372 ) ;
#626 = CYLINDRICAL_SURFACE ( 'NONE', #415, 3.250000000000002665 ) ;
#627 = LINE ( 'NONE', #826, #405 ) ;
#628 = ORIENTED_EDGE ( 'NONE', *, *, #466, .T. ) ;
#629 = CARTESIAN_POINT ( 'NONE',  ( 26.30000000000000426, 31.99999999999999289, 37.34999999999998721 ) ) ;
#630 = EDGE_CURVE ( 'NONE', #409, #413, #709, .T. ) ;
#631 = CARTESIAN_POINT ( 'NONE',  ( 41.00000000000000000, 32.00000000000000000, 41.00000000000000000 ) ) ;
#632 = EDGE_LOOP ( 'NONE', ( #495, #498, #3, #57 ) ) ;
#633 = DIRECTION ( 'NONE',  ( 1.000000000000000000, 0.000000000000000000, 0.000000000000000000 ) ) ;
#634 = AXIS2_PLACEMENT_3D ( 'NONE', #256, #609, #537 ) ;
#635 = CARTESIAN_POINT ( 'NONE',  ( 26.30000000000000426, 31.99999999999999289, 22.35000000000000142 ) ) ;
#636 = ORIENTED_EDGE ( 'NONE', *, *, #365, .F. ) ;
#637 = DIRECTION ( 'NONE',  ( -0.000000000000000000, 0.000000000000000000, -1.000000000000000000 ) ) ;
#638 = PRODUCT_DEFINITION_SHAPE ( 'NONE', 'NONE',  #575 ) ;
#639 = CARTESIAN_POINT ( 'NONE',  ( 35.35000000000000142, 28.00000000000000000, 37.34999999999998721 ) ) ;
#640 = EDGE_CURVE ( 'NONE', #322, #873, #386, .T. ) ;
#641 = ORIENTED_EDGE ( 'NONE', *, *, #355, .T. ) ;
#642 = ADVANCED_BREP_SHAPE_REPRESENTATION ( 'X Limit Switch Mount 2', ( #683, #469 ), #438 ) ;
#643 = FACE_OUTER_BOUND ( 'NONE', #284, .T. ) ;
#644 = CARTESIAN_POINT ( 'NONE',  ( 35.35000000000000142, 31.99999999999999289, 37.34999999999998721 ) ) ;
#645 = ORIENTED_EDGE ( 'NONE', *, *, #450, .F. ) ;
#646 = AXIS2_PLACEMENT_3D ( 'NONE', #64, #141, #874 ) ;
#647 = VECTOR ( 'NONE', #618, 1000.000000000000000 ) ;
#648 = DIRECTION ( 'NONE',  ( 0.000000000000000000, 1.000000000000000000, -8.462065736472231082E-17 ) ) ;
#649 = ORIENTED_EDGE ( 'NONE', *, *, #851, .F. ) ;
#650 = CIRCLE ( 'NONE', #345, 0.6499999999999908074 ) ;
#651 = PRESENTATION_STYLE_ASSIGNMENT (( #717 ) ) ;
#652 = LINE ( 'NONE', #106, #681 ) ;
#653 = ORIENTED_EDGE ( 'NONE', *, *, #316, .T. ) ;
#654 = VERTEX_POINT ( 'NONE', #304 ) ;
#655 = LINE ( 'NONE', #246, #323 ) ;
#656 = CARTESIAN_POINT ( 'NONE',  ( 25.64999999999999858, 31.99999999999999289, 37.34999999999999432 ) ) ;
#657 = VERTEX_POINT ( 'NONE', #445 ) ;
#658 = EDGE_CURVE ( 'NONE', #21, #776, #34, .T. ) ;
#659 = DIRECTION ( 'NONE',  ( 1.137523590804463822E-16, -1.000000000000000000, 0.000000000000000000 ) ) ;
#660 = ADVANCED_FACE ( 'NONE', ( #513 ), #520, .F. ) ;
#661 = VERTEX_POINT ( 'NONE', #860 ) ;
#662 = ORIENTED_EDGE ( 'NONE', *, *, #823, .T. ) ;
#663 = VECTOR ( 'NONE', #590, 1000.000000000000000 ) ;
#664 = CARTESIAN_POINT ( 'NONE',  ( 41.00000000000000000, 31.99999999999999289, 7.703719777548943412E-31 ) ) ;
#665 = FACE_OUTER_BOUND ( 'NONE', #239, .T. ) ;
#666 = VERTEX_POINT ( 'NONE', #391 ) ;
#667 = EDGE_CURVE ( 'NONE', #352, #95, #795, .T. ) ;
#668 = ORIENTED_EDGE ( 'NONE', *, *, #98, .F. ) ;
#669 = CARTESIAN_POINT ( 'NONE',  ( 34.70000000000000995, 31.99999999999999289, 37.34999999999998721 ) ) ;
#670 = DIRECTION ( 'NONE',  ( -1.000000000000000000, 0.000000000000000000, 0.000000000000000000 ) ) ;
#671 = ORIENTED_EDGE ( 'NONE', *, *, #466, .F. ) ;
#672 = CARTESIAN_POINT ( 'NONE',  ( 0.000000000000000000, 12.00000000000000000, 0.000000000000000000 ) ) ;
#673 = DIRECTION ( 'NONE',  ( 0.000000000000000000, 0.000000000000000000, 1.000000000000000000 ) ) ;
#674 = VECTOR ( 'NONE', #800, 1000.000000000000000 ) ;
#675 = FACE_OUTER_BOUND ( 'NONE', #279, .T. ) ;
#676 = VERTEX_POINT ( 'NONE', #112 ) ;
#677 = PRODUCT_DEFINITION_CONTEXT ( 'detailed design', #203, 'design' ) ;
#678 = EDGE_CURVE ( 'NONE', #549, #190, #820, .T. ) ;
#679 = LINE ( 'NONE', #878, #343 ) ;
#680 = DIRECTION ( 'NONE',  ( 0.000000000000000000, 0.000000000000000000, 1.000000000000000000 ) ) ;
#681 = VECTOR ( 'NONE', #164, 1000.000000000000000 ) ;
#682 = CARTESIAN_POINT ( 'NONE',  ( 35.35000000000000142, 28.00000000000000000, 22.34999999999999432 ) ) ;
#683 = MANIFOLD_SOLID_BREP ( 'Cut-Extrude1', #295 ) ;
#684 = EDGE_LOOP ( 'NONE', ( #794, #148, #81, #554, #281, #687 ) ) ;
#685 = DIRECTION ( 'NONE',  ( -1.000000000000000000, 0.000000000000000000, 0.000000000000000000 ) ) ;
#686 = DIRECTION ( 'NONE',  ( 0.000000000000000000, 0.000000000000000000, -1.000000000000000000 ) ) ;
#687 = ORIENTED_EDGE ( 'NONE', *, *, #324, .T. ) ;
#688 = DIRECTION ( 'NONE',  ( 0.000000000000000000, 1.000000000000000000, -8.462065736472231082E-17 ) ) ;
#689 = EDGE_CURVE ( 'NONE', #657, #728, #441, .T. ) ;
#690 = PLANE ( 'NONE',  #258 ) ;
#691 = EDGE_CURVE ( 'NONE', #839, #310, #679, .T. ) ;
#692 = ORIENTED_EDGE ( 'NONE', *, *, #35, .F. ) ;
#693 = VECTOR ( 'NONE', #604, 1000.000000000000000 ) ;
#694 = CARTESIAN_POINT ( 'NONE',  ( 0.000000000000000000, 0.000000000000000000, 0.000000000000000000 ) ) ;
#695 = DIRECTION ( 'NONE',  ( -1.000000000000000000, -1.137523590804463822E-16, -0.000000000000000000 ) ) ;
#696 = VECTOR ( 'NONE', #872, 1000.000000000000000 ) ;
#697 = ORIENTED_EDGE ( 'NONE', *, *, #819, .T. ) ;
#698 = EDGE_CURVE ( 'NONE', #738, #776, #264, .T. ) ;
#699 = CARTESIAN_POINT ( 'NONE',  ( 35.35000000000000142, -0.001000000000000945011, 37.99999999999997868 ) ) ;
#700 = DIRECTION ( 'NONE',  ( -0.000000000000000000, 1.000000000000000000, -8.462065736472232314E-17 ) ) ;
#701 = ORIENTED_EDGE ( 'NONE', *, *, #667, .F. ) ;
#702 = CARTESIAN_POINT ( 'NONE',  ( 0.000000000000000000, 12.00000000000000000, 4.000000000000000000 ) ) ;
#703 = EDGE_CURVE ( 'NONE', #661, #863, #843, .T. ) ;
#704 = DIRECTION ( 'NONE',  ( -0.000000000000000000, 0.000000000000000000, -1.000000000000000000 ) ) ;
#705 = ORIENTED_EDGE ( 'NONE', *, *, #436, .F. ) ;
#706 = AXIS2_PLACEMENT_3D ( 'NONE', #778, #614, #475 ) ;
#707 = EDGE_CURVE ( 'NONE', #84, #564, #294, .T. ) ;
#708 = CARTESIAN_POINT ( 'NONE',  ( 0.000000000000000000, 0.000000000000000000, 4.000000000000000000 ) ) ;
#709 = CIRCLE ( 'NONE', #622, 0.6499999999999908074 ) ;
#710 = ORIENTED_EDGE ( 'NONE', *, *, #67, .T. ) ;
#711 = CARTESIAN_POINT ( 'NONE',  ( 53.50000000000000000, 6.000000000000005329, 4.000000000000000000 ) ) ;
#712 = PLANE ( 'NONE',  #859 ) ;
#713 = ORIENTED_EDGE ( 'NONE', *, *, #367, .T. ) ;
#714 = CARTESIAN_POINT ( 'NONE',  ( 35.35000000000000142, 31.99999999999999289, 37.99999999999997868 ) ) ;
#715 = ORIENTED_EDGE ( 'NONE', *, *, #40, .T. ) ;
#716 = ORIENTED_EDGE ( 'NONE', *, *, #516, .F. ) ;
#717 = SURFACE_STYLE_USAGE ( .BOTH. , #232 ) ;
#718 = CARTESIAN_POINT ( 'NONE',  ( 41.00000000000000000, 12.00000000000000000, 4.000000000000000000 ) ) ;
#719 = ORIENTED_EDGE ( 'NONE', *, *, #528, .T. ) ;
#720 = ORIENTED_EDGE ( 'NONE', *, *, #732, .F. ) ;
#721 = VECTOR ( 'NONE', #786, 1000.000000000000000 ) ;
#722 = LINE ( 'NONE', #586, #442 ) ;
#723 = DIRECTION ( 'NONE',  ( -1.000000000000000000, -1.137523590804463822E-16, -0.000000000000000000 ) ) ;
#724 = ORIENTED_EDGE ( 'NONE', *, *, #610, .T. ) ;
#725 = DIRECTION ( 'NONE',  ( -1.000000000000000000, -1.224646799147353454E-16, 0.000000000000000000 ) ) ;
#726 = LINE ( 'NONE', #314, #568 ) ;
#727 = ORIENTED_EDGE ( 'NONE', *, *, #492, .F. ) ;
#728 = VERTEX_POINT ( 'NONE', #757 ) ;
#729 = DIRECTION ( 'NONE',  ( 0.000000000000000000, 0.000000000000000000, 1.000000000000000000 ) ) ;
#730 = VECTOR ( 'NONE', #145, 1000.000000000000000 ) ;
#731 = PLANE ( 'NONE',  #706 ) ;
#732 = EDGE_CURVE ( 'NONE', #625, #288, #801, .T. ) ;
#733 = LINE ( 'NONE', #115, #693 ) ;
#734 = FILL_AREA_STYLE_COLOUR ( '', #271 ) ;
#735 = AXIS2_PLACEMENT_3D ( 'NONE', #682, #548, #74 ) ;
#736 = CARTESIAN_POINT ( 'NONE',  ( 7.500000000000000000, 6.000000000000000000, 4.000000000000000000 ) ) ;
#737 = CARTESIAN_POINT ( 'NONE',  ( 24.99999999999999289, 28.00000000000000000, 22.35000000000000497 ) ) ;
#738 = VERTEX_POINT ( 'NONE', #744 ) ;
#739 = DIRECTION ( 'NONE',  ( -0.000000000000000000, 1.000000000000000000, -8.462065736472232314E-17 ) ) ;
#740 = DIRECTION ( 'NONE',  ( 0.000000000000000000, 0.000000000000000000, 1.000000000000000000 ) ) ;
#741 = PLANE ( 'NONE',  #764 ) ;
#742 = ORIENTED_EDGE ( 'NONE', *, *, #274, .T. ) ;
#743 = EDGE_CURVE ( 'NONE', #833, #728, #210, .T. ) ;
#744 = CARTESIAN_POINT ( 'NONE',  ( 61.00000000000000000, 12.00000000000000711, 0.000000000000000000 ) ) ;
#745 = CARTESIAN_POINT ( 'NONE',  ( 20.00000000000000000, 28.00000000000000000, 41.00000000000000711 ) ) ;
#746 = VECTOR ( 'NONE', #865, 1000.000000000000000 ) ;
#747 = CARTESIAN_POINT ( 'NONE',  ( 25.64999999999999858, 31.99999999999999289, 22.34999999999999432 ) ) ;
#748 = EDGE_LOOP ( 'NONE', ( #817, #244, #69, #578 ) ) ;
#749 = CARTESIAN_POINT ( 'NONE',  ( 0.000000000000000000, 12.00000000000000000, 0.000000000000000000 ) ) ;
#750 = VECTOR ( 'NONE', #861, 1000.000000000000000 ) ;
#751 = FACE_OUTER_BOUND ( 'NONE', #585, .T. ) ;
#752 = ORIENTED_EDGE ( 'NONE', *, *, #305, .F. ) ;
#753 = CYLINDRICAL_SURFACE ( 'NONE', #606, 0.6500000000000047962 ) ;
#754 = ADVANCED_FACE ( 'NONE', ( #58 ), #54, .F. ) ;
#755 = DIRECTION ( 'NONE',  ( -0.000000000000000000, -0.000000000000000000, -1.000000000000000000 ) ) ;
#756 = EDGE_LOOP ( 'NONE', ( #720, #524, #472, #452 ) ) ;
#757 = CARTESIAN_POINT ( 'NONE',  ( 4.249999999999999112, 6.000000000000000000, 0.000000000000000000 ) ) ;
#758 = ADVANCED_FACE ( 'NONE', ( #187 ), #753, .F. ) ;
#759 = LINE ( 'NONE', #417, #65 ) ;
#760 = AXIS2_PLACEMENT_3D ( 'NONE', #813, #325, #138 ) ;
#761 = ORIENTED_EDGE ( 'NONE', *, *, #324, .F. ) ;
#762 = DIRECTION ( 'NONE',  ( 1.000000000000000000, 0.000000000000000000, -0.000000000000000000 ) ) ;
#763 = DIRECTION ( 'NONE',  ( -1.000000000000000000, 0.000000000000000000, 0.000000000000000000 ) ) ;
#764 = AXIS2_PLACEMENT_3D ( 'NONE', #607, #465, #252 ) ;
#765 = ORIENTED_EDGE ( 'NONE', *, *, #424, .F. ) ;
#766 = ADVANCED_FACE ( 'NONE', ( #127 ), #254, .F. ) ;
#767 = FACE_OUTER_BOUND ( 'NONE', #748, .T. ) ;
#768 = ORIENTED_EDGE ( 'NONE', *, *, #500, .T. ) ;
#769 = CARTESIAN_POINT ( 'NONE',  ( 35.99999999999999289, -0.001000000000001000089, 22.35000000000000497 ) ) ;
#770 = EDGE_CURVE ( 'NONE', #852, #873, #122, .T. ) ;
#771 = FACE_BOUND ( 'NONE', #571, .T. ) ;
#772 = VERTEX_POINT ( 'NONE', #396 ) ;
#773 = CARTESIAN_POINT ( 'NONE',  ( 20.00000000000000000, 28.00000000000000000, 41.00000000000000711 ) ) ;
#774 = CARTESIAN_POINT ( 'NONE',  ( 35.99999999999999289, 31.99999999999999289, 22.35000000000000142 ) ) ;
#775 = STYLED_ITEM ( 'NONE', ( #651 ), #683 ) ;
#776 = VERTEX_POINT ( 'NONE', #268 ) ;
#777 = VECTOR ( 'NONE', #149, 1000.000000000000000 ) ;
#778 = CARTESIAN_POINT ( 'NONE',  ( 0.000000000000000000, 0.000000000000000000, 4.000000000000000000 ) ) ;
#779 = ADVANCED_FACE ( 'NONE', ( #410, #401, #551 ), #818, .T. ) ;
#780 = ORIENTED_EDGE ( 'NONE', *, *, #228, .F. ) ;
#781 = DIRECTION ( 'NONE',  ( 0.000000000000000000, 1.000000000000000000, -8.462065736472231082E-17 ) ) ;
#782 = CYLINDRICAL_SURFACE ( 'NONE', #134, 0.6500000000000047962 ) ;
#783 = EDGE_LOOP ( 'NONE', ( #768, #828, #374, #742 ) ) ;
#784 = ORIENTED_EDGE ( 'NONE', *, *, #707, .T. ) ;
#785 = CARTESIAN_POINT ( 'NONE',  ( 26.30000000000000426, 28.00000000000000000, 22.35000000000000497 ) ) ;
#786 = DIRECTION ( 'NONE',  ( 0.000000000000000000, 1.000000000000000000, 0.000000000000000000 ) ) ;
#787 = ORIENTED_EDGE ( 'NONE', *, *, #501, .F. ) ;
#788 = EDGE_CURVE ( 'NONE', #666, #330, #423, .T. ) ;
#789 = VERTEX_POINT ( 'NONE', #358 ) ;
#790 = VECTOR ( 'NONE', #19, 1000.000000000000000 ) ;
#791 = DIRECTION ( 'NONE',  ( -1.000000000000000000, 0.000000000000000000, 0.000000000000000000 ) ) ;
#792 = DIRECTION ( 'NONE',  ( 0.000000000000000000, 0.000000000000000000, 1.000000000000000000 ) ) ;
#793 = ORIENTED_EDGE ( 'NONE', *, *, #305, .T. ) ;
#794 = ORIENTED_EDGE ( 'NONE', *, *, #234, .T. ) ;
#795 = LINE ( 'NONE', #177, #313 ) ;
#796 = ADVANCED_FACE ( 'NONE', ( #22 ), #353, .F. ) ;
#797 = DIRECTION ( 'NONE',  ( -0.000000000000000000, 1.000000000000000000, -0.000000000000000000 ) ) ;
#798 = CARTESIAN_POINT ( 'NONE',  ( 0.000000000000000000, 12.00000000000000000, 4.000000000000000000 ) ) ;
#799 = VERTEX_POINT ( 'NONE', #289 ) ;
#800 = DIRECTION ( 'NONE',  ( 0.000000000000000000, -1.692413147294445970E-16, -1.000000000000000000 ) ) ;
#801 = CIRCLE ( 'NONE', #646, 0.6499999999999908074 ) ;
#802 = LINE ( 'NONE', #265, #354 ) ;
#803 = CIRCLE ( 'NONE', #620, 3.250000000000002665 ) ;
#804 = EDGE_CURVE ( 'NONE', #8, #440, #428, .T. ) ;
#805 = CARTESIAN_POINT ( 'NONE',  ( 20.00000000000000000, 32.00000000000000000, 41.00000000000000000 ) ) ;
#806 = DIRECTION ( 'NONE',  ( -0.000000000000000000, 1.000000000000000000, -8.462065736472232314E-17 ) ) ;
#807 = LINE ( 'NONE', #870, #563 ) ;
#808 = DIRECTION ( 'NONE',  ( -0.000000000000000000, 1.000000000000000000, -8.462065736472232314E-17 ) ) ;
#809 = ORIENTED_EDGE ( 'NONE', *, *, #10, .F. ) ;
#810 = CYLINDRICAL_SURFACE ( 'NONE', #854, 3.250000000000000444 ) ;
#811 = CARTESIAN_POINT ( 'NONE',  ( 41.00000000000000000, 12.00000000000000000, 0.000000000000000000 ) ) ;
#812 = ORIENTED_EDGE ( 'NONE', *, *, #501, .T. ) ;
#813 = CARTESIAN_POINT ( 'NONE',  ( 7.500000000000000000, 6.000000000000000000, 0.000000000000000000 ) ) ;
#814 = DIRECTION ( 'NONE',  ( 1.000000000000000000, 0.000000000000000000, 0.000000000000000000 ) ) ;
#815 = AXIS2_PLACEMENT_3D ( 'NONE', #61, #740, #814 ) ;
#816 = DIRECTION ( 'NONE',  ( 0.000000000000000000, 0.000000000000000000, 1.000000000000000000 ) ) ;
#817 = ORIENTED_EDGE ( 'NONE', *, *, #383, .F. ) ;
#818 = PLANE ( 'NONE',  #142 ) ;
#819 = EDGE_CURVE ( 'NONE', #852, #263, #292, .T. ) ;
#820 = CIRCLE ( 'NONE', #116, 0.6500000000000047962 ) ;
#821 = CARTESIAN_POINT ( 'NONE',  ( 34.70000000000000995, -0.001000000000001000089, 37.34999999999998721 ) ) ;
#822 = ORIENTED_EDGE ( 'NONE', *, *, #59, .F. ) ;
#823 = EDGE_CURVE ( 'NONE', #863, #221, #558, .T. ) ;
#824 = DIRECTION ( 'NONE',  ( 0.000000000000000000, 0.000000000000000000, 1.000000000000000000 ) ) ;
#825 = DIRECTION ( 'NONE',  ( -0.000000000000000000, -0.000000000000000000, -1.000000000000000000 ) ) ;
#826 = CARTESIAN_POINT ( 'NONE',  ( 20.00000000000000000, 12.00000000000000000, 0.000000000000000000 ) ) ;
#827 = VECTOR ( 'NONE', #129, 1000.000000000000000 ) ;
#828 = ORIENTED_EDGE ( 'NONE', *, *, #316, .F. ) ;
#829 = DIRECTION ( 'NONE',  ( -0.000000000000000000, 1.000000000000000000, -8.462065736472232314E-17 ) ) ;
#830 = ADVANCED_FACE ( 'NONE', ( #222 ), #626, .F. ) ;
#831 = DIRECTION ( 'NONE',  ( -0.000000000000000000, 1.000000000000000000, -0.000000000000000000 ) ) ;
#832 = AXIS2_PLACEMENT_3D ( 'NONE', #656, #161, #368 ) ;
#833 = VERTEX_POINT ( 'NONE', #420 ) ;
#834 = CARTESIAN_POINT ( 'NONE',  ( 0.000000000000000000, 0.000000000000000000, 0.000000000000000000 ) ) ;
#835 = CARTESIAN_POINT ( 'NONE',  ( 25.64999999999999858, 28.00000000000000000, 22.34999999999999432 ) ) ;
#836 = ORIENTED_EDGE ( 'NONE', *, *, #823, .F. ) ;
#837 = DIRECTION ( 'NONE',  ( 0.000000000000000000, 1.000000000000000000, -1.734723475976807094E-15 ) ) ;
#838 = CARTESIAN_POINT ( 'NONE',  ( 53.50000000000000000, 6.000000000000005329, 0.000000000000000000 ) ) ;
#839 = VERTEX_POINT ( 'NONE', #834 ) ;
#840 = VECTOR ( 'NONE', #825, 1000.000000000000000 ) ;
#841 = CARTESIAN_POINT ( 'NONE',  ( 34.70000000000000995, 28.00000000000000000, 37.34999999999999432 ) ) ;
#842 = CARTESIAN_POINT ( 'NONE',  ( 41.00000000000000000, 0.000000000000000000, 0.000000000000000000 ) ) ;
#843 = CIRCLE ( 'NONE', #476, 0.6500000000000047962 ) ;
#844 = ORIENTED_EDGE ( 'NONE', *, *, #228, .T. ) ;
#845 = APPLICATION_PROTOCOL_DEFINITION ( 'draft international standard', 'automotive_design', 1998, #203 ) ;
#846 = SURFACE_STYLE_FILL_AREA ( #297 ) ;
#847 = DIRECTION ( 'NONE',  ( 0.000000000000000000, 8.470329472543122952E-17, 1.000000000000000000 ) ) ;
#848 = DIRECTION ( 'NONE',  ( 0.000000000000000000, 0.000000000000000000, 1.000000000000000000 ) ) ;
#849 = LINE ( 'NONE', #317, #282 ) ;
#850 = CARTESIAN_POINT ( 'NONE',  ( 50.24999999999999289, 6.000000000000005329, 0.000000000000000000 ) ) ;
#851 = EDGE_CURVE ( 'NONE', #625, #409, #572, .T. ) ;
#852 = VERTEX_POINT ( 'NONE', #499 ) ;
#853 = CARTESIAN_POINT ( 'NONE',  ( 0.000000000000000000, 0.000000000000000000, 4.000000000000000000 ) ) ;
#854 = AXIS2_PLACEMENT_3D ( 'NONE', #183, #192, #459 ) ;
#855 = CARTESIAN_POINT ( 'NONE',  ( 0.000000000000000000, 0.000000000000000000, 4.000000000000000000 ) ) ;
#856 = ORIENTED_EDGE ( 'NONE', *, *, #691, .T. ) ;
#857 = AXIS2_PLACEMENT_3D ( 'NONE', #30, #864, #791 ) ;
#858 = ORIENTED_EDGE ( 'NONE', *, *, #336, .T. ) ;
#859 = AXIS2_PLACEMENT_3D ( 'NONE', #143, #347, #704 ) ;
#860 = CARTESIAN_POINT ( 'NONE',  ( 25.64999999999999858, 31.99999999999999289, 38.00000000000000000 ) ) ;
#861 = DIRECTION ( 'NONE',  ( -0.000000000000000000, -1.000000000000000000, -0.000000000000000000 ) ) ;
#862 = VERTEX_POINT ( 'NONE', #567 ) ;
#863 = VERTEX_POINT ( 'NONE', #629 ) ;
#864 = DIRECTION ( 'NONE',  ( -0.000000000000000000, -0.000000000000000000, -1.000000000000000000 ) ) ;
#865 = DIRECTION ( 'NONE',  ( -0.000000000000000000, -0.000000000000000000, -1.000000000000000000 ) ) ;
#866 = DIRECTION ( 'NONE',  ( -0.000000000000000000, 1.000000000000000000, -8.462065736472232314E-17 ) ) ;
#867 = ORIENTED_EDGE ( 'NONE', *, *, #658, .F. ) ;
#868 = CARTESIAN_POINT ( 'NONE',  ( 25.64999999999999858, -0.001000000000001000089, 37.34999999999999432 ) ) ;
#869 = EDGE_CURVE ( 'NONE', #564, #457, #85, .T. ) ;
#870 = CARTESIAN_POINT ( 'NONE',  ( 26.30000000000000426, -0.001000000000001000089, 37.34999999999998721 ) ) ;
#871 = VECTOR ( 'NONE', #816, 1000.000000000000000 ) ;
#872 = DIRECTION ( 'NONE',  ( 0.000000000000000000, 0.000000000000000000, 1.000000000000000000 ) ) ;
#873 = VERTEX_POINT ( 'NONE', #773 ) ;
#874 = DIRECTION ( 'NONE',  ( 0.000000000000000000, 0.000000000000000000, -1.000000000000000000 ) ) ;
#875 = LINE ( 'NONE', #745, #17 ) ;
#876 = CARTESIAN_POINT ( 'NONE',  ( 24.99999999999999289, 31.99999999999999289, 37.34999999999998721 ) ) ;
#877 = ORIENTED_EDGE ( 'NONE', *, *, #53, .T. ) ;
#878 = CARTESIAN_POINT ( 'NONE',  ( 0.000000000000000000, 0.000000000000000000, 0.000000000000000000 ) ) ;
#879 = LINE ( 'NONE', #113, #60 ) ;
#880 = DIRECTION ( 'NONE',  ( 0.000000000000000000, 0.000000000000000000, -1.000000000000000000 ) ) ;
#881 = ADVANCED_FACE ( 'NONE', ( #643 ), #156, .F. ) ;
#882 = VERTEX_POINT ( 'NONE', #841 ) ;
#883 = DIRECTION ( 'NONE',  ( 0.000000000000000000, 0.000000000000000000, 1.000000000000000000 ) ) ;
ENDSEC;
END-ISO-10303-21;
