ISO-10303-21;
HEADER;
FILE_DESCRIPTION (( 'STEP AP214' ),
    '1' );
FILE_NAME ('X Limit Switch Mount.STEP',
    '2026-04-03T23:49:32',
    ( '' ),
    ( '' ),
    'SwSTEP 2.0',
    'SolidWorks 2025',
    '' );
FILE_SCHEMA (( 'AUTOMOTIVE_DESIGN' ));
ENDSEC;

DATA;
#1 = CARTESIAN_POINT ( 'NONE',  ( 14.99999999999999822, 0.000000000000000000, 32.50000000000000000 ) ) ;
#2 = ADVANCED_FACE ( 'NONE', ( #364 ), #292, .F. ) ;
#3 = LINE ( 'NONE', #823, #1019 ) ;
#4 = CARTESIAN_POINT ( 'NONE',  ( 16.99999999999999645, 8.850000000000001421, 52.94999999999999574 ) ) ;
#5 = VECTOR ( 'NONE', #472, 1000.000000000000000 ) ;
#6 = DIRECTION ( 'NONE',  ( 0.000000000000000000, -1.000000000000000000, 0.000000000000000000 ) ) ;
#7 = ORIENTED_EDGE ( 'NONE', *, *, #711, .F. ) ;
#8 = AXIS2_PLACEMENT_3D ( 'NONE', #721, #892, #637 ) ;
#9 = DIRECTION ( 'NONE',  ( -1.000000000000000000, 0.000000000000000000, 0.000000000000000000 ) ) ;
#10 = VECTOR ( 'NONE', #575, 1000.000000000000000 ) ;
#11 = CARTESIAN_POINT ( 'NONE',  ( 14.99999999999999467, 23.00000000000000355, 57.50000000000000000 ) ) ;
#12 = LINE ( 'NONE', #589, #204 ) ;
#13 = CIRCLE ( 'NONE', #983, 2.749999999999999112 ) ;
#14 = CARTESIAN_POINT ( 'NONE',  ( -0.001000000000004469536, 19.65000000000000568, 52.94999999999999574 ) ) ;
#15 = EDGE_LOOP ( 'NONE', ( #586, #661, #971, #198 ) ) ;
#16 = DIRECTION ( 'NONE',  ( 0.000000000000000000, 1.000000000000000000, 0.000000000000000000 ) ) ;
#17 = DIRECTION ( 'NONE',  ( -0.000000000000000000, -0.000000000000000000, -1.000000000000000000 ) ) ;
#18 = DIRECTION ( 'NONE',  ( 1.000000000000000000, 1.387778780781445922E-16, -0.000000000000000000 ) ) ;
#19 = EDGE_CURVE ( 'NONE', #50, #421, #691, .T. ) ;
#20 = VERTEX_POINT ( 'NONE', #853 ) ;
#21 = CARTESIAN_POINT ( 'NONE',  ( 14.99999999999999822, 2.081668171172168908E-15, 0.000000000000000000 ) ) ;
#22 = DIRECTION ( 'NONE',  ( 1.000000000000000000, 1.387778780781445922E-16, -0.000000000000000000 ) ) ;
#23 = ORIENTED_EDGE ( 'NONE', *, *, #658, .T. ) ;
#24 = CIRCLE ( 'NONE', #1016, 0.8500000000000035305 ) ;
#25 = CARTESIAN_POINT ( 'NONE',  ( 7.000000000000000000, -1.999999999999996669, 7.000000000000000888 ) ) ;
#26 = EDGE_LOOP ( 'NONE', ( #410, #784, #969, #498 ) ) ;
#27 = DIRECTION ( 'NONE',  ( -1.000000000000000000, -1.387778780781445922E-16, 0.000000000000000000 ) ) ;
#28 = ORIENTED_EDGE ( 'NONE', *, *, #186, .F. ) ;
#29 = DIRECTION ( 'NONE',  ( -1.000000000000000000, 0.000000000000000000, -0.000000000000000000 ) ) ;
#30 = EDGE_CURVE ( 'NONE', #889, #436, #374, .T. ) ;
#31 = ORIENTED_EDGE ( 'NONE', *, *, #551, .T. ) ;
#32 = CARTESIAN_POINT ( 'NONE',  ( 9.000000000000003553, 0.000000000000000000, 24.99999999999999645 ) ) ;
#33 = CARTESIAN_POINT ( 'NONE',  ( 14.99999999999999822, 20.50000000000001066, 42.40000000000000568 ) ) ;
#34 = EDGE_LOOP ( 'NONE', ( #560, #350, #741, #797, #727 ) ) ;
#35 = EDGE_LOOP ( 'NONE', ( #155, #282, #900, #105 ) ) ;
#36 = DIRECTION ( 'NONE',  ( -0.000000000000000000, -1.000000000000000000, -0.000000000000000000 ) ) ;
#37 = ADVANCED_FACE ( 'NONE', ( #869, #239, #300 ), #787, .F. ) ;
#38 = CARTESIAN_POINT ( 'NONE',  ( 16.99999999999999289, 19.65000000000000924, 52.94999999999999574 ) ) ;
#39 = EDGE_LOOP ( 'NONE', ( #23, #718, #333, #310 ) ) ;
#40 = VERTEX_POINT ( 'NONE', #792 ) ;
#41 = CARTESIAN_POINT ( 'NONE',  ( 16.99999999999999289, 19.65000000000000924, 52.10000000000000142 ) ) ;
#42 = CARTESIAN_POINT ( 'NONE',  ( 6.999999999999999112, 0.000000000000000000, 9.750000000000000000 ) ) ;
#43 = VECTOR ( 'NONE', #49, 1000.000000000000000 ) ;
#44 = ORIENTED_EDGE ( 'NONE', *, *, #979, .F. ) ;
#45 = AXIS2_PLACEMENT_3D ( 'NONE', #879, #1041, #9 ) ;
#46 = VERTEX_POINT ( 'NONE', #68 ) ;
#47 = AXIS2_PLACEMENT_3D ( 'NONE', #845, #285, #618 ) ;
#48 = LINE ( 'NONE', #768, #605 ) ;
#49 = DIRECTION ( 'NONE',  ( -3.212450881438529775E-16, 1.000000000000000000, 0.000000000000000000 ) ) ;
#50 = VERTEX_POINT ( 'NONE', #708 ) ;
#51 = ADVANCED_FACE ( 'NONE', ( #866 ), #390, .F. ) ;
#52 = EDGE_LOOP ( 'NONE', ( #203, #452, #491, #510 ) ) ;
#53 = CARTESIAN_POINT ( 'NONE',  ( 14.99999999999999822, 8.850000000000001421, 52.94999999999999574 ) ) ;
#54 = CARTESIAN_POINT ( 'NONE',  ( 14.99999999999999467, 23.00000000000000355, 22.50000000000000000 ) ) ;
#55 = ORIENTED_EDGE ( 'NONE', *, *, #922, .T. ) ;
#56 = ADVANCED_FACE ( 'NONE', ( #153 ), #549, .F. ) ;
#57 = AXIS2_PLACEMENT_3D ( 'NONE', #99, #422, #739 ) ;
#58 = EDGE_LOOP ( 'NONE', ( #576, #481, #116, #611, #763 ) ) ;
#59 = DIRECTION ( 'NONE',  ( 1.000000000000000000, 1.387778780781445922E-16, 0.000000000000000000 ) ) ;
#60 = EDGE_CURVE ( 'NONE', #838, #183, #61, .T. ) ;
#61 = LINE ( 'NONE', #1035, #877 ) ;
#62 = DIRECTION ( 'NONE',  ( -0.000000000000000000, 1.000000000000000000, -0.000000000000000000 ) ) ;
#63 = ADVANCED_FACE ( 'NONE', ( #623 ), #144, .T. ) ;
#64 = DIRECTION ( 'NONE',  ( 1.000000000000000000, 0.000000000000000000, 0.000000000000000000 ) ) ;
#65 = DIRECTION ( 'NONE',  ( 0.000000000000000000, -2.040851148207999715E-15, -1.000000000000000000 ) ) ;
#66 = ORIENTED_EDGE ( 'NONE', *, *, #563, .F. ) ;
#67 = AXIS2_PLACEMENT_3D ( 'NONE', #830, #265, #243 ) ;
#68 = CARTESIAN_POINT ( 'NONE',  ( 0.000000000000000000, -1.999999999999997335, 0.000000000000000000 ) ) ;
#69 = CARTESIAN_POINT ( 'NONE',  ( 16.99999999999999645, -1.999999999999994893, 32.50000000000000000 ) ) ;
#70 = EDGE_CURVE ( 'NONE', #209, #188, #860, .T. ) ;
#71 = ORIENTED_EDGE ( 'NONE', *, *, #679, .T. ) ;
#72 = CIRCLE ( 'NONE', #344, 0.8500000000000035305 ) ;
#73 = LINE ( 'NONE', #230, #762 ) ;
#74 = DIRECTION ( 'NONE',  ( -1.000000000000000000, 0.000000000000000000, -0.000000000000000000 ) ) ;
#75 = CARTESIAN_POINT ( 'NONE',  ( 14.99999999999999822, 8.849999999999999645, 41.55000000000000426 ) ) ;
#76 = EDGE_LOOP ( 'NONE', ( #822, #169, #456, #439, #683, #216, #636 ) ) ;
#77 = EDGE_CURVE ( 'NONE', #50, #264, #778, .T. ) ;
#78 = CARTESIAN_POINT ( 'NONE',  ( 16.99999999999999645, -1.999999999999994893, 0.000000000000000000 ) ) ;
#79 = VERTEX_POINT ( 'NONE', #564 ) ;
#80 = CARTESIAN_POINT ( 'NONE',  ( 9.000000000000000000, 9.300537618869135770, 7.000000000000000888 ) ) ;
#81 = CARTESIAN_POINT ( 'NONE',  ( 7.000000000000000888, -1.999999999999996669, 9.750000000000000000 ) ) ;
#82 = FACE_OUTER_BOUND ( 'NONE', #76, .T. ) ;
#83 = CIRCLE ( 'NONE', #642, 2.749999999999998224 ) ;
#84 = FACE_OUTER_BOUND ( 'NONE', #829, .T. ) ;
#85 = EDGE_LOOP ( 'NONE', ( #277, #816, #1043, #976 ) ) ;
#86 = CARTESIAN_POINT ( 'NONE',  ( 7.000000000000002665, -1.999999999999996669, 22.25000000000000000 ) ) ;
#87 = DIRECTION ( 'NONE',  ( 1.078295100530052735E-16, -0.7148340255851473035, -0.6992941554637310819 ) ) ;
#88 = AXIS2_PLACEMENT_3D ( 'NONE', #148, #386, #64 ) ;
#89 = DIRECTION ( 'NONE',  ( 1.387778780781445922E-16, -1.000000000000000000, 0.000000000000000000 ) ) ;
#90 = CIRCLE ( 'NONE', #408, 0.8500000000000035305 ) ;
#91 = EDGE_CURVE ( 'NONE', #264, #707, #1025, .T. ) ;
#92 = CARTESIAN_POINT ( 'NONE',  ( 16.99999999999999645, 5.000000000000001776, 57.50000000000000000 ) ) ;
#93 = ORIENTED_EDGE ( 'NONE', *, *, #760, .T. ) ;
#94 = AXIS2_PLACEMENT_3D ( 'NONE', #552, #1027, #316 ) ;
#95 = VERTEX_POINT ( 'NONE', #303 ) ;
#96 = DIRECTION ( 'NONE',  ( 1.000000000000000000, 1.387778780781445922E-16, -0.000000000000000000 ) ) ;
#97 = LINE ( 'NONE', #419, #466 ) ;
#98 = ORIENTED_EDGE ( 'NONE', *, *, #238, .T. ) ;
#99 = CARTESIAN_POINT ( 'NONE',  ( -0.001000000000001000089, 8.849999999999999645, 41.55000000000000426 ) ) ;
#100 = ORIENTED_EDGE ( 'NONE', *, *, #238, .F. ) ;
#101 = LINE ( 'NONE', #173, #10 ) ;
#102 = CARTESIAN_POINT ( 'NONE',  ( 14.99999999999999822, 2.081668171172168908E-15, 0.000000000000000000 ) ) ;
#103 = ORIENTED_EDGE ( 'NONE', *, *, #798, .F. ) ;
#104 = LINE ( 'NONE', #967, #945 ) ;
#105 = ORIENTED_EDGE ( 'NONE', *, *, #898, .T. ) ;
#106 =( LENGTH_UNIT ( ) NAMED_UNIT ( * ) SI_UNIT ( .MILLI., .METRE. ) );
#107 = DIRECTION ( 'NONE',  ( 1.530638361156006492E-16, -1.000000000000000000, 0.000000000000000000 ) ) ;
#108 = VERTEX_POINT ( 'NONE', #874 ) ;
#109 = VECTOR ( 'NONE', #206, 1000.000000000000000 ) ;
#110 = LINE ( 'NONE', #348, #997 ) ;
#111 = ADVANCED_FACE ( 'NONE', ( #319 ), #471, .F. ) ;
#112 = VERTEX_POINT ( 'NONE', #714 ) ;
#113 = EDGE_CURVE ( 'NONE', #46, #512, #631, .T. ) ;
#114 = CARTESIAN_POINT ( 'NONE',  ( 16.99999999999999645, -1.999999999999994893, 32.50000000000000000 ) ) ;
#115 = LINE ( 'NONE', #769, #629 ) ;
#116 = ORIENTED_EDGE ( 'NONE', *, *, #457, .F. ) ;
#117 = ORIENTED_EDGE ( 'NONE', *, *, #904, .T. ) ;
#118 = DIRECTION ( 'NONE',  ( -0.000000000000000000, 1.000000000000000000, -0.000000000000000000 ) ) ;
#119 = DIRECTION ( 'NONE',  ( 9.704655904770477570E-17, -0.6992941554637311929, 0.7148340255851474145 ) ) ;
#120 = ORIENTED_EDGE ( 'NONE', *, *, #473, .T. ) ;
#121 = VECTOR ( 'NONE', #480, 1000.000000000000000 ) ;
#122 = VERTEX_POINT ( 'NONE', #379 ) ;
#123 = CARTESIAN_POINT ( 'NONE',  ( 7.000000000000000000, 9.300537618869135770, 4.250000000000001776 ) ) ;
#124 = CARTESIAN_POINT ( 'NONE',  ( 9.000000000000000000, 9.300537618869135770, 9.750000000000000000 ) ) ;
#125 = EDGE_CURVE ( 'NONE', #264, #20, #222, .T. ) ;
#126 = AXIS2_PLACEMENT_3D ( 'NONE', #213, #107, #603 ) ;
#127 = VERTEX_POINT ( 'NONE', #1021 ) ;
#128 = EDGE_LOOP ( 'NONE', ( #320, #55, #848, #66 ) ) ;
#129 = CARTESIAN_POINT ( 'NONE',  ( -0.001000000000001000089, 8.849999999999999645, 52.94999999999999574 ) ) ;
#130 = CARTESIAN_POINT ( 'NONE',  ( 16.99999999999999645, 8.850000000000001421, 51.25000000000000711 ) ) ;
#131 = ORIENTED_EDGE ( 'NONE', *, *, #995, .F. ) ;
#132 = ORIENTED_EDGE ( 'NONE', *, *, #557, .F. ) ;
#133 = PLANE ( 'NONE',  #597 ) ;
#134 = ORIENTED_EDGE ( 'NONE', *, *, #979, .T. ) ;
#135 = DIRECTION ( 'NONE',  ( -1.387639269472491756E-16, 1.000000000000000000, 0.000000000000000000 ) ) ;
#136 = ADVANCED_FACE ( 'NONE', ( #554 ), #474, .F. ) ;
#137 = PRODUCT_CONTEXT ( 'NONE', #773, 'mechanical' ) ;
#138 = DIRECTION ( 'NONE',  ( 1.000000000000000000, 2.168404344971013552E-16, 0.000000000000000000 ) ) ;
#139 = AXIS2_PLACEMENT_3D ( 'NONE', #613, #503, #655 ) ;
#140 = PLANE ( 'NONE',  #694 ) ;
#141 = AXIS2_PLACEMENT_3D ( 'NONE', #80, #315, #968 ) ;
#142 = EDGE_CURVE ( 'NONE', #127, #20, #543, .T. ) ;
#143 = FILL_AREA_STYLE ('',( #991 ) ) ;
#144 = PLANE ( 'NONE',  #276 ) ;
#145 = CARTESIAN_POINT ( 'NONE',  ( -0.001000000000004469536, 19.65000000000000568, 52.10000000000000142 ) ) ;
#146 = APPLICATION_PROTOCOL_DEFINITION ( 'draft international standard', 'automotive_design', 1998, #176 ) ;
#147 = EDGE_CURVE ( 'NONE', #337, #388, #833, .T. ) ;
#148 = CARTESIAN_POINT ( 'NONE',  ( 9.000000000000001776, 9.300537618869135770, 24.99999999999999645 ) ) ;
#149 = DIRECTION ( 'NONE',  ( 1.000000000000000000, 1.577021341797097807E-16, 0.000000000000000000 ) ) ;
#150 = VERTEX_POINT ( 'NONE', #267 ) ;
#151 = AXIS2_PLACEMENT_3D ( 'NONE', #275, #766, #686 ) ;
#152 = EDGE_CURVE ( 'NONE', #150, #50, #258, .T. ) ;
#153 = FACE_OUTER_BOUND ( 'NONE', #192, .T. ) ;
#154 = DIRECTION ( 'NONE',  ( 1.000000000000000000, 0.000000000000000000, -0.000000000000000000 ) ) ;
#155 = ORIENTED_EDGE ( 'NONE', *, *, #904, .F. ) ;
#156 = VECTOR ( 'NONE', #368, 1000.000000000000000 ) ;
#157 = FACE_OUTER_BOUND ( 'NONE', #713, .T. ) ;
#158 = DIRECTION ( 'NONE',  ( 1.000000000000000000, 0.000000000000000000, 0.000000000000000000 ) ) ;
#159 = ORIENTED_EDGE ( 'NONE', *, *, #147, .T. ) ;
#160 = AXIS2_PLACEMENT_3D ( 'NONE', #32, #118, #747 ) ;
#161 = DIRECTION ( 'NONE',  ( 0.000000000000000000, -0.000000000000000000, 1.000000000000000000 ) ) ;
#162 = CARTESIAN_POINT ( 'NONE',  ( 16.99999999999999289, 19.65000000000000924, 51.25000000000000711 ) ) ;
#163 = DIRECTION ( 'NONE',  ( 0.000000000000000000, 0.000000000000000000, -1.000000000000000000 ) ) ;
#164 = ORIENTED_EDGE ( 'NONE', *, *, #958, .F. ) ;
#165 = LINE ( 'NONE', #86, #859 ) ;
#166 = PLANE ( 'NONE',  #45 ) ;
#167 = COLOUR_RGB ( '',0.7921568627450980005, 0.8196078431372548767, 0.9333333333333333481 ) ;
#168 = DIRECTION ( 'NONE',  ( 0.000000000000000000, -0.000000000000000000, -1.000000000000000000 ) ) ;
#169 = ORIENTED_EDGE ( 'NONE', *, *, #180, .F. ) ;
#170 = FACE_OUTER_BOUND ( 'NONE', #676, .T. ) ;
#171 = EDGE_CURVE ( 'NONE', #633, #251, #984, .T. ) ;
#172 = AXIS2_PLACEMENT_3D ( 'NONE', #994, #837, #530 ) ;
#173 = CARTESIAN_POINT ( 'NONE',  ( -0.001000000000001000089, 8.849999999999999645, 41.55000000000000426 ) ) ;
#174 = DIRECTION ( 'NONE',  ( 0.000000000000000000, 0.000000000000000000, -1.000000000000000000 ) ) ;
#175 = ORIENTED_EDGE ( 'NONE', *, *, #610, .F. ) ;
#176 = APPLICATION_CONTEXT ( 'automotive_design' ) ;
#177 = VECTOR ( 'NONE', #914, 1000.000000000000000 ) ;
#178 = FACE_OUTER_BOUND ( 'NONE', #52, .T. ) ;
#179 = CARTESIAN_POINT ( 'NONE',  ( 16.99999999999999289, 23.00000000000000355, 22.50000000000000000 ) ) ;
#180 = EDGE_CURVE ( 'NONE', #257, #664, #490, .T. ) ;
#181 = ORIENTED_EDGE ( 'NONE', *, *, #171, .F. ) ;
#182 = DIRECTION ( 'NONE',  ( 0.000000000000000000, -0.000000000000000000, 1.000000000000000000 ) ) ;
#183 = VERTEX_POINT ( 'NONE', #179 ) ;
#184 = FACE_OUTER_BOUND ( 'NONE', #270, .T. ) ;
#185 = PRESENTATION_LAYER_ASSIGNMENT (  '', '', ( #758 ) ) ;
#186 = EDGE_CURVE ( 'NONE', #755, #1037, #256, .T. ) ;
#187 = EDGE_LOOP ( 'NONE', ( #646, #1002, #606, #336 ) ) ;
#188 = VERTEX_POINT ( 'NONE', #425 ) ;
#189 = DIRECTION ( 'NONE',  ( -1.000000000000000000, -2.168404344971005910E-16, -0.000000000000000000 ) ) ;
#190 = VECTOR ( 'NONE', #640, 1000.000000000000000 ) ;
#191 = PLANE ( 'NONE',  #725 ) ;
#192 = EDGE_LOOP ( 'NONE', ( #487, #996, #934, #7 ) ) ;
#193 = VECTOR ( 'NONE', #999, 1000.000000000000000 ) ;
#194 = ORIENTED_EDGE ( 'NONE', *, *, #225, .T. ) ;
#195 = CIRCLE ( 'NONE', #731, 0.8499999999999965361 ) ;
#196 = FACE_BOUND ( 'NONE', #927, .T. ) ;
#197 = DIRECTION ( 'NONE',  ( -1.000000000000000000, 0.000000000000000000, -0.000000000000000000 ) ) ;
#198 = ORIENTED_EDGE ( 'NONE', *, *, #399, .F. ) ;
#199 = ADVANCED_FACE ( 'NONE', ( #184 ), #651, .F. ) ;
#200 = ORIENTED_EDGE ( 'NONE', *, *, #922, .F. ) ;
#201 = CARTESIAN_POINT ( 'NONE',  ( 0.000000000000000000, -1.999999999999997335, 32.50000000000000000 ) ) ;
#202 = DIRECTION ( 'NONE',  ( 1.000000000000000000, 1.387778780781445922E-16, -0.000000000000000000 ) ) ;
#203 = ORIENTED_EDGE ( 'NONE', *, *, #435, .T. ) ;
#204 = VECTOR ( 'NONE', #22, 1000.000000000000000 ) ;
#205 = ORIENTED_EDGE ( 'NONE', *, *, #1008, .F. ) ;
#206 = DIRECTION ( 'NONE',  ( 1.530638361156006492E-16, -1.000000000000000000, -0.000000000000000000 ) ) ;
#207 = CARTESIAN_POINT ( 'NONE',  ( 16.99999999999999645, 8.850000000000001421, 41.55000000000000426 ) ) ;
#208 = VECTOR ( 'NONE', #6, 1000.000000000000000 ) ;
#209 = VERTEX_POINT ( 'NONE', #514 ) ;
#210 = VERTEX_POINT ( 'NONE', #401 ) ;
#211 = CARTESIAN_POINT ( 'NONE',  ( 0.000000000000000000, -1.999999999999997335, 32.50000000000000000 ) ) ;
#212 = LINE ( 'NONE', #201, #453 ) ;
#213 = CARTESIAN_POINT ( 'NONE',  ( 9.000000000000003553, -1.999999999999996225, 24.99999999999999645 ) ) ;
#214 = CIRCLE ( 'NONE', #570, 0.8499999999999965361 ) ;
#215 = ADVANCED_FACE ( 'NONE', ( #340, #895, #84 ), #326, .F. ) ;
#216 = ORIENTED_EDGE ( 'NONE', *, *, #470, .F. ) ;
#217 = LINE ( 'NONE', #947, #280 ) ;
#218 = CARTESIAN_POINT ( 'NONE',  ( -0.001000000000004469536, 19.65000000000000568, 42.40000000000000568 ) ) ;
#219 = EDGE_CURVE ( 'NONE', #436, #46, #244, .T. ) ;
#220 = DIRECTION ( 'NONE',  ( 1.000000000000000000, 1.387778780781445922E-16, 0.000000000000000000 ) ) ;
#221 = AXIS2_PLACEMENT_3D ( 'NONE', #906, #182, #511 ) ;
#222 = LINE ( 'NONE', #699, #565 ) ;
#223 = LINE ( 'NONE', #397, #865 ) ;
#224 = VECTOR ( 'NONE', #330, 1000.000000000000000 ) ;
#225 = EDGE_CURVE ( 'NONE', #707, #289, #791, .T. ) ;
#226 = DIRECTION ( 'NONE',  ( -1.000000000000000000, 0.000000000000000000, 0.000000000000000000 ) ) ;
#227 = AXIS2_PLACEMENT_3D ( 'NONE', #302, #384, #1034 ) ;
#228 = DIRECTION ( 'NONE',  ( 0.000000000000000000, 2.081668171172168513E-16, -1.000000000000000000 ) ) ;
#229 = VERTEX_POINT ( 'NONE', #818 ) ;
#230 = CARTESIAN_POINT ( 'NONE',  ( 14.99999999999999822, 8.849999999999999645, 41.55000000000000426 ) ) ;
#231 = EDGE_CURVE ( 'NONE', #905, #767, #97, .T. ) ;
#232 = DIRECTION ( 'NONE',  ( -1.000000000000000000, -0.000000000000000000, -0.000000000000000000 ) ) ;
#233 = DIRECTION ( 'NONE',  ( -1.000000000000000000, -0.000000000000000000, -0.000000000000000000 ) ) ;
#234 = ORIENTED_EDGE ( 'NONE', *, *, #325, .T. ) ;
#235 = DIRECTION ( 'NONE',  ( 1.530638361156006492E-16, -1.000000000000000000, 0.000000000000000000 ) ) ;
#236 = AXIS2_PLACEMENT_3D ( 'NONE', #500, #901, #29 ) ;
#237 = LINE ( 'NONE', #81, #863 ) ;
#238 = EDGE_CURVE ( 'NONE', #262, #615, #261, .T. ) ;
#239 = FACE_BOUND ( 'NONE', #406, .T. ) ;
#240 = EDGE_LOOP ( 'NONE', ( #440, #620, #402, #175, #883 ) ) ;
#241 = FACE_OUTER_BOUND ( 'NONE', #923, .T. ) ;
#242 = EDGE_LOOP ( 'NONE', ( #458, #692, #921, #840, #416, #820 ) ) ;
#243 = DIRECTION ( 'NONE',  ( 0.000000000000000000, 0.000000000000000000, -1.000000000000000000 ) ) ;
#244 = LINE ( 'NONE', #497, #697 ) ;
#245 = ADVANCED_FACE ( 'NONE', ( #690 ), #831, .F. ) ;
#246 = ORIENTED_EDGE ( 'NONE', *, *, #522, .T. ) ;
#247 = LINE ( 'NONE', #821, #594 ) ;
#248 = LINE ( 'NONE', #884, #548 ) ;
#249 = EDGE_LOOP ( 'NONE', ( #71, #609, #907, #566 ) ) ;
#250 = DIRECTION ( 'NONE',  ( -1.000000000000000000, 0.000000000000000000, -0.000000000000000000 ) ) ;
#251 = VERTEX_POINT ( 'NONE', #38 ) ;
#252 = EDGE_CURVE ( 'NONE', #615, #538, #356, .T. ) ;
#253 = CARTESIAN_POINT ( 'NONE',  ( 7.000000000000000000, 0.000000000000000000, 4.250000000000001776 ) ) ;
#254 = ORIENTED_EDGE ( 'NONE', *, *, #113, .F. ) ;
#255 = VECTOR ( 'NONE', #834, 1000.000000000000000 ) ;
#256 = LINE ( 'NONE', #332, #208 ) ;
#257 = VERTEX_POINT ( 'NONE', #373 ) ;
#258 = CIRCLE ( 'NONE', #296, 2.749999999999999112 ) ;
#259 = LINE ( 'NONE', #649, #682 ) ;
#260 = LINE ( 'NONE', #4, #929 ) ;
#261 = LINE ( 'NONE', #678, #517 ) ;
#262 = VERTEX_POINT ( 'NONE', #1017 ) ;
#263 = DIRECTION ( 'NONE',  ( 1.000000000000000000, 1.577021341797098300E-16, 0.000000000000000000 ) ) ;
#264 = VERTEX_POINT ( 'NONE', #674 ) ;
#265 = DIRECTION ( 'NONE',  ( -1.000000000000000000, -0.000000000000000000, -0.000000000000000000 ) ) ;
#266 = EDGE_CURVE ( 'NONE', #112, #761, #1000, .T. ) ;
#267 = CARTESIAN_POINT ( 'NONE',  ( 9.000000000000001776, 0.000000000000000000, 9.750000000000000000 ) ) ;
#268 = EDGE_LOOP ( 'NONE', ( #688, #571, #953, #200 ) ) ;
#269 = DIRECTION ( 'NONE',  ( 1.000000000000000000, 0.000000000000000000, 0.000000000000000000 ) ) ;
#270 = EDGE_LOOP ( 'NONE', ( #966, #447, #770, #667 ) ) ;
#271 = DIRECTION ( 'NONE',  ( -0.000000000000000000, -0.000000000000000000, -1.000000000000000000 ) ) ;
#272 = DIRECTION ( 'NONE',  ( -3.212450881438529775E-16, 1.000000000000000000, 0.000000000000000000 ) ) ;
#273 = CIRCLE ( 'NONE', #828, 0.8500000000000035305 ) ;
#274 = ADVANCED_FACE ( 'NONE', ( #931 ), #619, .F. ) ;
#275 = CARTESIAN_POINT ( 'NONE',  ( -0.001000000000001000089, 4.999999999999999112, 57.50000000000000000 ) ) ;
#276 = AXIS2_PLACEMENT_3D ( 'NONE', #779, #943, #74 ) ;
#277 = ORIENTED_EDGE ( 'NONE', *, *, #470, .T. ) ;
#278 = FACE_OUTER_BOUND ( 'NONE', #347, .T. ) ;
#279 = VECTOR ( 'NONE', #735, 1000.000000000000000 ) ;
#280 = VECTOR ( 'NONE', #233, 1000.000000000000000 ) ;
#281 = DIRECTION ( 'NONE',  ( 0.000000000000000000, -1.000000000000000000, 0.000000000000000000 ) ) ;
#282 = ORIENTED_EDGE ( 'NONE', *, *, #610, .T. ) ;
#283 = EDGE_CURVE ( 'NONE', #974, #122, #13, .T. ) ;
#284 = ORIENTED_EDGE ( 'NONE', *, *, #252, .T. ) ;
#285 = DIRECTION ( 'NONE',  ( 1.530638361156006492E-16, -1.000000000000000000, 0.000000000000000000 ) ) ;
#286 = DIRECTION ( 'NONE',  ( 0.000000000000000000, 1.000000000000000000, 0.000000000000000000 ) ) ;
#287 = EDGE_LOOP ( 'NONE', ( #710, #117, #234, #813 ) ) ;
#288 = EDGE_CURVE ( 'NONE', #395, #878, #595, .T. ) ;
#289 = VERTEX_POINT ( 'NONE', #42 ) ;
#290 = LINE ( 'NONE', #454, #817 ) ;
#291 = CYLINDRICAL_SURFACE ( 'NONE', #139, 0.8500000000000035305 ) ;
#292 = PLANE ( 'NONE',  #151 ) ;
#293 = VERTEX_POINT ( 'NONE', #443 ) ;
#294 = DIRECTION ( 'NONE',  ( 0.000000000000000000, -1.000000000000000000, 0.000000000000000000 ) ) ;
#295 = DIRECTION ( 'NONE',  ( 1.000000000000000000, 0.000000000000000000, -0.000000000000000000 ) ) ;
#296 = AXIS2_PLACEMENT_3D ( 'NONE', #412, #988, #975 ) ;
#297 = EDGE_LOOP ( 'NONE', ( #756, #1007, #746, #752 ) ) ;
#298 = LINE ( 'NONE', #867, #805 ) ;
#299 = EDGE_CURVE ( 'NONE', #998, #633, #115, .T. ) ;
#300 = FACE_OUTER_BOUND ( 'NONE', #604, .T. ) ;
#301 = DIRECTION ( 'NONE',  ( 1.530638361156006492E-16, -1.000000000000000000, -0.000000000000000000 ) ) ;
#302 = CARTESIAN_POINT ( 'NONE',  ( 0.000000000000000000, 0.000000000000000000, 0.000000000000000000 ) ) ;
#303 = CARTESIAN_POINT ( 'NONE',  ( 16.99999999999999645, 1.040834085586084257E-14, 0.000000000000000000 ) ) ;
#304 = CARTESIAN_POINT ( 'NONE',  ( 9.000000000000001776, -1.999999999999996225, 7.000000000000000888 ) ) ;
#305 = EDGE_CURVE ( 'NONE', #150, #79, #765, .T. ) ;
#306 = MECHANICAL_DESIGN_GEOMETRIC_PRESENTATION_REPRESENTATION (  '', ( #758 ), #389 ) ;
#307 = CARTESIAN_POINT ( 'NONE',  ( 7.000000000000000000, 0.000000000000000000, 4.250000000000001776 ) ) ;
#308 = VECTOR ( 'NONE', #909, 1000.000000000000000 ) ;
#309 = CARTESIAN_POINT ( 'NONE',  ( 0.000000000000000000, -1.999999999999997335, 32.50000000000000000 ) ) ;
#310 = ORIENTED_EDGE ( 'NONE', *, *, #771, .F. ) ;
#311 = EDGE_CURVE ( 'NONE', #767, #251, #535, .T. ) ;
#312 = DIRECTION ( 'NONE',  ( -0.000000000000000000, 1.000000000000000000, -0.000000000000000000 ) ) ;
#313 = CARTESIAN_POINT ( 'NONE',  ( 16.99999999999999289, 19.65000000000000924, 42.40000000000000568 ) ) ;
#314 = ORIENTED_EDGE ( 'NONE', *, *, #91, .F. ) ;
#315 = DIRECTION ( 'NONE',  ( 1.530638361156006492E-16, -1.000000000000000000, -0.000000000000000000 ) ) ;
#316 = DIRECTION ( 'NONE',  ( 0.000000000000000000, 0.000000000000000000, -1.000000000000000000 ) ) ;
#317 = ORIENTED_EDGE ( 'NONE', *, *, #225, .F. ) ;
#318 = PRODUCT_DEFINITION_SHAPE ( 'NONE', 'NONE',  #381 ) ;
#319 = FACE_OUTER_BOUND ( 'NONE', #35, .T. ) ;
#320 = ORIENTED_EDGE ( 'NONE', *, *, #495, .T. ) ;
#321 = CARTESIAN_POINT ( 'NONE',  ( 16.99999999999999289, 19.65000000000000924, 43.25000000000001421 ) ) ;
#322 = VECTOR ( 'NONE', #96, 1000.000000000000000 ) ;
#323 = ORIENTED_EDGE ( 'NONE', *, *, #464, .T. ) ;
#324 = PLANE ( 'NONE',  #977 ) ;
#325 = EDGE_CURVE ( 'NONE', #843, #539, #582, .T. ) ;
#326 = PLANE ( 'NONE',  #391 ) ;
#327 = VECTOR ( 'NONE', #87, 1000.000000000000114 ) ;
#328 = ORIENTED_EDGE ( 'NONE', *, *, #930, .F. ) ;
#329 = CARTESIAN_POINT ( 'NONE',  ( 16.99999999999999289, 20.50000000000001066, 42.40000000000000568 ) ) ;
#330 = DIRECTION ( 'NONE',  ( 3.212450881438529775E-16, -1.000000000000000000, -0.000000000000000000 ) ) ;
#331 = EDGE_CURVE ( 'NONE', #761, #716, #72, .T. ) ;
#332 = CARTESIAN_POINT ( 'NONE',  ( 14.99999999999999822, 5.000000000000004441, 32.50000000000000000 ) ) ;
#333 = ORIENTED_EDGE ( 'NONE', *, *, #180, .T. ) ;
#334 = LINE ( 'NONE', #573, #224 ) ;
#335 = DIRECTION ( 'NONE',  ( -0.000000000000000000, -0.000000000000000000, -1.000000000000000000 ) ) ;
#336 = ORIENTED_EDGE ( 'NONE', *, *, #516, .F. ) ;
#337 = VERTEX_POINT ( 'NONE', #33 ) ;
#338 = CARTESIAN_POINT ( 'NONE',  ( 7.000000000000000000, 9.300537618869135770, 27.74999999999999645 ) ) ;
#339 = AXIS2_PLACEMENT_3D ( 'NONE', #338, #908, #662 ) ;
#340 = FACE_BOUND ( 'NONE', #240, .T. ) ;
#341 = ORIENTED_EDGE ( 'NONE', *, *, #488, .F. ) ;
#342 = DIRECTION ( 'NONE',  ( 1.530638361156006492E-16, -1.000000000000000000, -0.000000000000000000 ) ) ;
#343 = ADVANCED_FACE ( 'NONE', ( #1006 ), #191, .F. ) ;
#344 = AXIS2_PLACEMENT_3D ( 'NONE', #432, #748, #286 ) ;
#345 = VERTEX_POINT ( 'NONE', #525 ) ;
#346 = CARTESIAN_POINT ( 'NONE',  ( 14.99999999999999467, 23.00000000000000355, 22.50000000000000000 ) ) ;
#347 = EDGE_LOOP ( 'NONE', ( #98, #284, #430, #526 ) ) ;
#348 = CARTESIAN_POINT ( 'NONE',  ( 14.99999999999999467, 23.00000000000000355, 57.50000000000000000 ) ) ;
#349 = VECTOR ( 'NONE', #693, 1000.000000000000000 ) ;
#350 = ORIENTED_EDGE ( 'NONE', *, *, #283, .F. ) ;
#351 = CARTESIAN_POINT ( 'NONE',  ( 14.99999999999999822, 19.65000000000000924, 52.10000000000000142 ) ) ;
#352 = CARTESIAN_POINT ( 'NONE',  ( 7.000000000000002665, -1.999999999999996669, 24.99999999999999645 ) ) ;
#353 = ORIENTED_EDGE ( 'NONE', *, *, #958, .T. ) ;
#354 = ORIENTED_EDGE ( 'NONE', *, *, #77, .F. ) ;
#355 = FACE_OUTER_BOUND ( 'NONE', #794, .T. ) ;
#356 = LINE ( 'NONE', #920, #499 ) ;
#357 = EDGE_CURVE ( 'NONE', #293, #209, #847, .T. ) ;
#358 = AXIS2_PLACEMENT_3D ( 'NONE', #858, #542, #135 ) ;
#359 = ORIENTED_EDGE ( 'NONE', *, *, #405, .F. ) ;
#360 = VERTEX_POINT ( 'NONE', #363 ) ;
#361 = CARTESIAN_POINT ( 'NONE',  ( 0.000000000000000000, -1.999999999999997335, 32.50000000000000000 ) ) ;
#362 = VECTOR ( 'NONE', #17, 1000.000000000000000 ) ;
#363 = CARTESIAN_POINT ( 'NONE',  ( 16.99999999999999645, -1.999999999999995337, 32.50000000000000000 ) ) ;
#364 = FACE_OUTER_BOUND ( 'NONE', #39, .T. ) ;
#365 = ORIENTED_EDGE ( 'NONE', *, *, #464, .F. ) ;
#366 = VECTOR ( 'NONE', #941, 1000.000000000000000 ) ;
#367 = DIRECTION ( 'NONE',  ( 1.000000000000000000, 1.387778780781445922E-16, 0.000000000000000000 ) ) ;
#368 = DIRECTION ( 'NONE',  ( 1.000000000000000000, 1.387778780781445922E-16, -0.000000000000000000 ) ) ;
#369 = ORIENTED_EDGE ( 'NONE', *, *, #852, .T. ) ;
#370 = EDGE_CURVE ( 'NONE', #388, #761, #450, .T. ) ;
#371 = ORIENTED_EDGE ( 'NONE', *, *, #622, .T. ) ;
#372 = CARTESIAN_POINT ( 'NONE',  ( 7.000000000000000000, 9.300537618869135770, 27.74999999999999645 ) ) ;
#373 = CARTESIAN_POINT ( 'NONE',  ( 16.99999999999999645, 5.000000000000007105, 32.50000000000000000 ) ) ;
#374 = LINE ( 'NONE', #917, #376 ) ;
#375 = CIRCLE ( 'NONE', #912, 0.8500000000000035305 ) ;
#376 = VECTOR ( 'NONE', #232, 1000.000000000000000 ) ;
#377 = ADVANCED_FACE ( 'NONE', ( #1011 ), #291, .F. ) ;
#378 = AXIS2_PLACEMENT_3D ( 'NONE', #825, #970, #250 ) ;
#379 = CARTESIAN_POINT ( 'NONE',  ( 7.000000000000002665, -1.999999999999996669, 22.25000000000000000 ) ) ;
#380 = CARTESIAN_POINT ( 'NONE',  ( 9.000000000000003553, 0.000000000000000000, 24.99999999999999645 ) ) ;
#381 = PRODUCT_DEFINITION ( 'UNKNOWN', '', #885, #446 ) ;
#382 = CARTESIAN_POINT ( 'NONE',  ( 6.999999999999998224, 9.300537618869135770, 7.000000000000000888 ) ) ;
#383 = DIRECTION ( 'NONE',  ( -1.000000000000000000, -0.000000000000000000, -0.000000000000000000 ) ) ;
#384 = DIRECTION ( 'NONE',  ( 0.000000000000000000, 0.000000000000000000, 1.000000000000000000 ) ) ;
#385 = EDGE_CURVE ( 'NONE', #414, #398, #3, .T. ) ;
#386 = DIRECTION ( 'NONE',  ( 1.530638361156006492E-16, -1.000000000000000000, -0.000000000000000000 ) ) ;
#387 = DIRECTION ( 'NONE',  ( 0.000000000000000000, 1.000000000000000000, 0.000000000000000000 ) ) ;
#388 = VERTEX_POINT ( 'NONE', #801 ) ;
#389 =( GEOMETRIC_REPRESENTATION_CONTEXT ( 3 ) GLOBAL_UNCERTAINTY_ASSIGNED_CONTEXT ( ( #990 ) ) GLOBAL_UNIT_ASSIGNED_CONTEXT ( ( #106, #496, #802 ) ) REPRESENTATION_CONTEXT ( 'NONE', 'WORKASPACE' ) );
#390 = CYLINDRICAL_SURFACE ( 'NONE', #960, 2.750000000000000000 ) ;
#391 = AXIS2_PLACEMENT_3D ( 'NONE', #965, #803, #168 ) ;
#392 = DIRECTION ( 'NONE',  ( -1.387639269472491756E-16, 1.000000000000000000, 0.000000000000000000 ) ) ;
#393 = EDGE_LOOP ( 'NONE', ( #353, #804, #743, #181 ) ) ;
#394 = CARTESIAN_POINT ( 'NONE',  ( 14.99999999999999822, 8.849999999999999645, 51.25000000000000711 ) ) ;
#395 = VERTEX_POINT ( 'NONE', #981 ) ;
#396 = CARTESIAN_POINT ( 'NONE',  ( 7.000000000000002665, 0.000000000000000000, 24.99999999999999645 ) ) ;
#397 = CARTESIAN_POINT ( 'NONE',  ( -0.001000000000001000089, 8.849999999999999645, 51.25000000000000711 ) ) ;
#398 = VERTEX_POINT ( 'NONE', #483 ) ;
#399 = EDGE_CURVE ( 'NONE', #680, #112, #101, .T. ) ;
#400 = LINE ( 'NONE', #957, #630 ) ;
#401 = CARTESIAN_POINT ( 'NONE',  ( 7.000000000000000888, -1.999999999999996669, 9.750000000000000000 ) ) ;
#402 = ORIENTED_EDGE ( 'NONE', *, *, #357, .F. ) ;
#403 = LINE ( 'NONE', #729, #327 ) ;
#404 = VECTOR ( 'NONE', #978, 1000.000000000000000 ) ;
#405 = EDGE_CURVE ( 'NONE', #289, #210, #417, .T. ) ;
#406 = EDGE_LOOP ( 'NONE', ( #1004, #103, #926, #365, #568 ) ) ;
#407 = CARTESIAN_POINT ( 'NONE',  ( 16.99999999999999645, 8.850000000000001421, 52.10000000000000142 ) ) ;
#408 = AXIS2_PLACEMENT_3D ( 'NONE', #793, #59, #876 ) ;
#409 = LINE ( 'NONE', #1, #362 ) ;
#410 = ORIENTED_EDGE ( 'NONE', *, *, #948, .T. ) ;
#411 = CARTESIAN_POINT ( 'NONE',  ( 14.99999999999999822, 23.00000000000000355, 32.50000000000000000 ) ) ;
#412 = CARTESIAN_POINT ( 'NONE',  ( 9.000000000000001776, 0.000000000000000000, 7.000000000000000888 ) ) ;
#413 = EDGE_CURVE ( 'NONE', #79, #210, #237, .T. ) ;
#414 = VERTEX_POINT ( 'NONE', #11 ) ;
#415 = LINE ( 'NONE', #21, #255 ) ;
#416 = ORIENTED_EDGE ( 'NONE', *, *, #557, .T. ) ;
#417 = LINE ( 'NONE', #893, #279 ) ;
#418 = DIRECTION ( 'NONE',  ( 1.000000000000000000, 1.387778780781445922E-16, -0.000000000000000000 ) ) ;
#419 = CARTESIAN_POINT ( 'NONE',  ( -0.001000000000004587497, 20.50000000000000000, 52.10000000000000142 ) ) ;
#420 = EDGE_CURVE ( 'NONE', #671, #664, #259, .T. ) ;
#421 = VERTEX_POINT ( 'NONE', #508 ) ;
#422 = DIRECTION ( 'NONE',  ( 0.000000000000000000, 0.000000000000000000, -1.000000000000000000 ) ) ;
#423 = ORIENTED_EDGE ( 'NONE', *, *, #745, .T. ) ;
#424 = AXIS2_PLACEMENT_3D ( 'NONE', #689, #431, #850 ) ;
#425 = CARTESIAN_POINT ( 'NONE',  ( 7.000000000000000000, 0.000000000000000000, 27.74999999999999645 ) ) ;
#426 = AXIS2_PLACEMENT_3D ( 'NONE', #1029, #954, #485 ) ;
#427 = ORIENTED_EDGE ( 'NONE', *, *, #673, .F. ) ;
#428 = FACE_OUTER_BOUND ( 'NONE', #695, .T. ) ;
#429 = VECTOR ( 'NONE', #754, 1000.000000000000000 ) ;
#430 = ORIENTED_EDGE ( 'NONE', *, *, #457, .T. ) ;
#431 = DIRECTION ( 'NONE',  ( 1.000000000000000000, 1.387778780781445922E-16, -0.000000000000000000 ) ) ;
#432 = CARTESIAN_POINT ( 'NONE',  ( 16.99999999999999289, 19.65000000000000924, 42.40000000000000568 ) ) ;
#433 = ORIENTED_EDGE ( 'NONE', *, *, #299, .F. ) ;
#434 = CARTESIAN_POINT ( 'NONE',  ( 9.000000000000000000, 9.300537618869135770, 7.000000000000000888 ) ) ;
#435 = EDGE_CURVE ( 'NONE', #388, #680, #73, .T. ) ;
#436 = VERTEX_POINT ( 'NONE', #617 ) ;
#437 = DIRECTION ( 'NONE',  ( 1.000000000000000000, 1.530638361156006492E-16, -0.000000000000000000 ) ) ;
#438 = DIRECTION ( 'NONE',  ( 0.000000000000000000, 1.000000000000000000, 0.000000000000000000 ) ) ;
#439 = ORIENTED_EDGE ( 'NONE', *, *, #673, .T. ) ;
#440 = ORIENTED_EDGE ( 'NONE', *, *, #679, .F. ) ;
#441 = LINE ( 'NONE', #114, #749 ) ;
#442 = ADVANCED_FACE ( 'NONE', ( #935 ), #133, .F. ) ;
#443 = CARTESIAN_POINT ( 'NONE',  ( 9.000000000000000000, 0.000000000000000000, 22.25000000000000000 ) ) ;
#444 = CIRCLE ( 'NONE', #1028, 2.749999999999999112 ) ;
#445 = ORIENTED_EDGE ( 'NONE', *, *, #231, .F. ) ;
#446 = PRODUCT_DEFINITION_CONTEXT ( 'detailed design', #176, 'design' ) ;
#447 = ORIENTED_EDGE ( 'NONE', *, *, #930, .T. ) ;
#448 = DIRECTION ( 'NONE',  ( -1.000000000000000000, -0.000000000000000000, -0.000000000000000000 ) ) ;
#449 = VECTOR ( 'NONE', #272, 1000.000000000000000 ) ;
#450 = LINE ( 'NONE', #608, #156 ) ;
#451 = ORIENTED_EDGE ( 'NONE', *, *, #882, .F. ) ;
#452 = ORIENTED_EDGE ( 'NONE', *, *, #399, .T. ) ;
#453 = VECTOR ( 'NONE', #672, 1000.000000000000000 ) ;
#454 = CARTESIAN_POINT ( 'NONE',  ( 16.99999999999999289, 23.00000000000000355, 32.50000000000000000 ) ) ;
#455 = DIRECTION ( 'NONE',  ( 1.530638361156006492E-16, -1.000000000000000000, 0.000000000000000000 ) ) ;
#456 = ORIENTED_EDGE ( 'NONE', *, *, #590, .F. ) ;
#457 = EDGE_CURVE ( 'NONE', #538, #854, #334, .T. ) ;
#458 = ORIENTED_EDGE ( 'NONE', *, *, #1013, .T. ) ;
#459 = SHAPE_DEFINITION_REPRESENTATION ( #318, #527 ) ;
#460 = ORIENTED_EDGE ( 'NONE', *, *, #77, .T. ) ;
#461 = AXIS2_PLACEMENT_3D ( 'NONE', #862, #301, #624 ) ;
#462 = LINE ( 'NONE', #944, #626 ) ;
#463 = AXIS2_PLACEMENT_3D ( 'NONE', #304, #776, #149 ) ;
#464 = EDGE_CURVE ( 'NONE', #421, #79, #812, .T. ) ;
#465 =( NAMED_UNIT ( * ) PLANE_ANGLE_UNIT ( ) SI_UNIT ( $, .RADIAN. ) );
#466 = VECTOR ( 'NONE', #663, 1000.000000000000000 ) ;
#467 = CARTESIAN_POINT ( 'NONE',  ( 14.99999999999999822, 19.65000000000000924, 42.40000000000000568 ) ) ;
#468 = CARTESIAN_POINT ( 'NONE',  ( 16.99999999999999645, 5.000000000000006217, 57.50000000000000000 ) ) ;
#469 = LINE ( 'NONE', #562, #366 ) ;
#470 = EDGE_CURVE ( 'NONE', #183, #95, #403, .T. ) ;
#471 = CYLINDRICAL_SURFACE ( 'NONE', #88, 2.749999999999999112 ) ;
#472 = DIRECTION ( 'NONE',  ( -0.000000000000000000, -0.000000000000000000, -1.000000000000000000 ) ) ;
#473 = EDGE_CURVE ( 'NONE', #1037, #889, #409, .T. ) ;
#474 = CYLINDRICAL_SURFACE ( 'NONE', #810, 0.8500000000000035305 ) ;
#475 = LINE ( 'NONE', #789, #121 ) ;
#476 = ORIENTED_EDGE ( 'NONE', *, *, #698, .T. ) ;
#477 = APPLICATION_PROTOCOL_DEFINITION ( 'draft international standard', 'automotive_design', 1998, #773 ) ;
#478 = DIRECTION ( 'NONE',  ( 1.000000000000000000, 1.387778780781445922E-16, -0.000000000000000000 ) ) ;
#479 = VECTOR ( 'NONE', #759, 1000.000000000000000 ) ;
#480 = DIRECTION ( 'NONE',  ( 1.000000000000000000, 0.000000000000000000, 0.000000000000000000 ) ) ;
#481 = ORIENTED_EDGE ( 'NONE', *, *, #578, .F. ) ;
#482 = CARTESIAN_POINT ( 'NONE',  ( 6.999999999999999112, 9.300537618869135770, 9.750000000000000000 ) ) ;
#483 = CARTESIAN_POINT ( 'NONE',  ( 14.99999999999999467, 5.000000000000000888, 57.50000000000000000 ) ) ;
#484 = SURFACE_STYLE_USAGE ( .BOTH. , #1023 ) ;
#485 = DIRECTION ( 'NONE',  ( 1.000000000000000000, 0.000000000000000000, 0.000000000000000000 ) ) ;
#486 = CIRCLE ( 'NONE', #160, 2.749999999999999112 ) ;
#487 = ORIENTED_EDGE ( 'NONE', *, *, #70, .T. ) ;
#488 = EDGE_CURVE ( 'NONE', #648, #844, #717, .T. ) ;
#489 = DIRECTION ( 'NONE',  ( 1.000000000000000000, 0.000000000000000000, -0.000000000000000000 ) ) ;
#490 = LINE ( 'NONE', #92, #308 ) ;
#491 = ORIENTED_EDGE ( 'NONE', *, *, #266, .T. ) ;
#492 = CARTESIAN_POINT ( 'NONE',  ( 16.99999999999999289, 19.65000000000000924, 41.55000000000000426 ) ) ;
#493 = PLANE ( 'NONE',  #915 ) ;
#494 = CIRCLE ( 'NONE', #544, 0.8499999999999965361 ) ;
#495 = EDGE_CURVE ( 'NONE', #844, #998, #950, .T. ) ;
#496 =( NAMED_UNIT ( * ) PLANE_ANGLE_UNIT ( ) SI_UNIT ( $, .RADIAN. ) );
#497 = CARTESIAN_POINT ( 'NONE',  ( 0.000000000000000000, -1.999999999999997335, 0.000000000000000000 ) ) ;
#498 = ORIENTED_EDGE ( 'NONE', *, *, #724, .T. ) ;
#499 = VECTOR ( 'NONE', #202, 1000.000000000000000 ) ;
#500 = CARTESIAN_POINT ( 'NONE',  ( 7.000000000000000888, 9.300537618869135770, 22.25000000000000000 ) ) ;
#501 = AXIS2_PLACEMENT_3D ( 'NONE', #712, #235, #795 ) ;
#502 = ORIENTED_EDGE ( 'NONE', *, *, #1008, .T. ) ;
#503 = DIRECTION ( 'NONE',  ( 1.000000000000000000, 1.387778780781445922E-16, -0.000000000000000000 ) ) ;
#504 = ADVANCED_FACE ( 'NONE', ( #643 ), #166, .F. ) ;
#505 = ORIENTED_EDGE ( 'NONE', *, *, #857, .T. ) ;
#506 = PLANE ( 'NONE',  #57 ) ;
#507 = ORIENTED_EDGE ( 'NONE', *, *, #113, .T. ) ;
#508 = CARTESIAN_POINT ( 'NONE',  ( 11.75000000000000000, -1.999999999999995781, 7.000000000000000888 ) ) ;
#509 = CARTESIAN_POINT ( 'NONE',  ( 16.99999999999999645, 8.850000000000001421, 43.25000000000001421 ) ) ;
#510 = ORIENTED_EDGE ( 'NONE', *, *, #370, .F. ) ;
#511 = DIRECTION ( 'NONE',  ( 1.000000000000000000, 0.000000000000000000, -0.000000000000000000 ) ) ;
#512 = VERTEX_POINT ( 'NONE', #78 ) ;
#513 = CARTESIAN_POINT ( 'NONE',  ( 16.99999999999999289, 23.00000000000000355, 32.50000000000000000 ) ) ;
#514 = CARTESIAN_POINT ( 'NONE',  ( 7.000000000000000888, 0.000000000000000000, 22.25000000000000000 ) ) ;
#515 = ORIENTED_EDGE ( 'NONE', *, *, #745, .F. ) ;
#516 = EDGE_CURVE ( 'NONE', #648, #878, #400, .T. ) ;
#517 = VECTOR ( 'NONE', #916, 1000.000000000000000 ) ;
#518 = ORIENTED_EDGE ( 'NONE', *, *, #413, .T. ) ;
#519 = DIRECTION ( 'NONE',  ( 1.000000000000000000, 1.387778780781445922E-16, -0.000000000000000000 ) ) ;
#520 = DIRECTION ( 'NONE',  ( 0.000000000000000000, 0.000000000000000000, -1.000000000000000000 ) ) ;
#521 = ORIENTED_EDGE ( 'NONE', *, *, #219, .T. ) ;
#522 = EDGE_CURVE ( 'NONE', #289, #150, #248, .T. ) ;
#523 = ORIENTED_EDGE ( 'NONE', *, *, #19, .T. ) ;
#524 = FACE_OUTER_BOUND ( 'NONE', #790, .T. ) ;
#525 = CARTESIAN_POINT ( 'NONE',  ( 9.000000000000005329, 0.000000000000000000, 27.74999999999999645 ) ) ;
#526 = ORIENTED_EDGE ( 'NONE', *, *, #819, .F. ) ;
#527 = ADVANCED_BREP_SHAPE_REPRESENTATION ( 'X Limit Switch Mount', ( #814, #227 ), #650 ) ;
#528 = EDGE_LOOP ( 'NONE', ( #433, #992, #341, #541, #164 ) ) ;
#529 = CARTESIAN_POINT ( 'NONE',  ( -0.001000000000001000089, 8.849999999999999645, 43.25000000000001421 ) ) ;
#530 = DIRECTION ( 'NONE',  ( 0.000000000000000000, 1.000000000000000000, 0.000000000000000000 ) ) ;
#531 = VECTOR ( 'NONE', #418, 1000.000000000000000 ) ;
#532 = ORIENTED_EDGE ( 'NONE', *, *, #473, .F. ) ;
#533 = ORIENTED_EDGE ( 'NONE', *, *, #852, .F. ) ;
#534 = LINE ( 'NONE', #593, #553 ) ;
#535 = CIRCLE ( 'NONE', #172, 0.8499999999999965361 ) ;
#536 = DIRECTION ( 'NONE',  ( 1.000000000000000000, 1.577021341797097807E-16, 0.000000000000000000 ) ) ;
#537 = ADVANCED_FACE ( 'NONE', ( #241 ), #647, .F. ) ;
#538 = VERTEX_POINT ( 'NONE', #321 ) ;
#539 = VERTEX_POINT ( 'NONE', #561 ) ;
#540 = DIRECTION ( 'NONE',  ( -0.000000000000000000, -0.000000000000000000, -1.000000000000000000 ) ) ;
#541 = ORIENTED_EDGE ( 'NONE', *, *, #846, .F. ) ;
#542 = DIRECTION ( 'NONE',  ( 1.000000000000000000, 1.387778780781445922E-16, -0.000000000000000000 ) ) ;
#543 = LINE ( 'NONE', #861, #1033 ) ;
#544 = AXIS2_PLACEMENT_3D ( 'NONE', #407, #728, #16 ) ;
#545 = FACE_OUTER_BOUND ( 'NONE', #932, .T. ) ;
#546 = AXIS2_PLACEMENT_3D ( 'NONE', #396, #702, #704 ) ;
#547 = ADVANCED_FACE ( 'NONE', ( #157 ), #493, .F. ) ;
#548 = VECTOR ( 'NONE', #807, 1000.000000000000000 ) ;
#549 = CYLINDRICAL_SURFACE ( 'NONE', #426, 2.749999999999999112 ) ;
#550 = CARTESIAN_POINT ( 'NONE',  ( 14.99999999999999822, 8.850000000000001421, 42.40000000000000568 ) ) ;
#551 = EDGE_CURVE ( 'NONE', #20, #421, #726, .T. ) ;
#552 = CARTESIAN_POINT ( 'NONE',  ( 14.99999999999999822, 0.000000000000000000, 32.50000000000000000 ) ) ;
#553 = VECTOR ( 'NONE', #189, 1000.000000000000000 ) ;
#554 = FACE_OUTER_BOUND ( 'NONE', #616, .T. ) ;
#555 = LINE ( 'NONE', #69, #5 ) ;
#556 = ORIENTED_EDGE ( 'NONE', *, *, #305, .F. ) ;
#557 = EDGE_CURVE ( 'NONE', #1037, #108, #217, .T. ) ;
#558 = DIRECTION ( 'NONE',  ( -1.530638361156006492E-16, 1.000000000000000000, 0.000000000000000000 ) ) ;
#559 = CARTESIAN_POINT ( 'NONE',  ( 16.99999999999999289, 23.00000000000000355, 57.50000000000000000 ) ) ;
#560 = ORIENTED_EDGE ( 'NONE', *, *, #760, .F. ) ;
#561 = CARTESIAN_POINT ( 'NONE',  ( 9.000000000000005329, -1.999999999999996225, 27.74999999999999645 ) ) ;
#562 = CARTESIAN_POINT ( 'NONE',  ( 16.99999999999999289, 23.00000000000000355, 0.000000000000000000 ) ) ;
#563 = EDGE_CURVE ( 'NONE', #844, #395, #223, .T. ) ;
#564 = CARTESIAN_POINT ( 'NONE',  ( 9.000000000000001776, -1.999999999999996225, 9.750000000000000000 ) ) ;
#565 = VECTOR ( 'NONE', #959, 1000.000000000000000 ) ;
#566 = ORIENTED_EDGE ( 'NONE', *, *, #1001, .F. ) ;
#567 = DIRECTION ( 'NONE',  ( 1.000000000000000000, 1.387778780781445922E-16, -0.000000000000000000 ) ) ;
#568 = ORIENTED_EDGE ( 'NONE', *, *, #551, .F. ) ;
#569 = CARTESIAN_POINT ( 'NONE',  ( 11.75000000000000178, -1.999999999999995781, 24.99999999999999645 ) ) ;
#570 = AXIS2_PLACEMENT_3D ( 'NONE', #351, #448, #924 ) ;
#571 = ORIENTED_EDGE ( 'NONE', *, *, #171, .T. ) ;
#572 = CARTESIAN_POINT ( 'NONE',  ( 14.99999999999999822, 5.000000000000006217, 32.50000000000000000 ) ) ;
#573 = CARTESIAN_POINT ( 'NONE',  ( 16.99999999999999645, 8.850000000000001421, 43.25000000000001421 ) ) ;
#574 = ORIENTED_EDGE ( 'NONE', *, *, #152, .T. ) ;
#575 = DIRECTION ( 'NONE',  ( 1.000000000000000000, 1.387778780781445922E-16, -0.000000000000000000 ) ) ;
#576 = ORIENTED_EDGE ( 'NONE', *, *, #266, .F. ) ;
#577 = DIRECTION ( 'NONE',  ( 1.000000000000000000, 2.168404344971010594E-16, 0.000000000000000000 ) ) ;
#578 = EDGE_CURVE ( 'NONE', #854, #112, #90, .T. ) ;
#579 = DIRECTION ( 'NONE',  ( 1.387778780781445922E-16, -1.000000000000000000, -0.000000000000000000 ) ) ;
#580 = CARTESIAN_POINT ( 'NONE',  ( 7.000000000000000000, 0.000000000000000000, 7.000000000000000888 ) ) ;
#581 = ORIENTED_EDGE ( 'NONE', *, *, #385, .F. ) ;
#582 = CIRCLE ( 'NONE', #126, 2.749999999999999112 ) ;
#583 = DIRECTION ( 'NONE',  ( -1.000000000000000000, -0.000000000000000000, -0.000000000000000000 ) ) ;
#584 = CARTESIAN_POINT ( 'NONE',  ( -0.001000000000001000089, 8.849999999999999645, 43.25000000000001421 ) ) ;
#585 = AXIS2_PLACEMENT_3D ( 'NONE', #529, #607, #295 ) ;
#586 = ORIENTED_EDGE ( 'NONE', *, *, #596, .T. ) ;
#587 = PLANE ( 'NONE',  #221 ) ;
#588 = VERTEX_POINT ( 'NONE', #1036 ) ;
#589 = CARTESIAN_POINT ( 'NONE',  ( -0.001000000000004587497, 20.50000000000000711, 42.40000000000000568 ) ) ;
#590 = EDGE_CURVE ( 'NONE', #360, #257, #715, .T. ) ;
#591 = ORIENTED_EDGE ( 'NONE', *, *, #288, .F. ) ;
#592 = ORIENTED_EDGE ( 'NONE', *, *, #1030, .F. ) ;
#593 = CARTESIAN_POINT ( 'NONE',  ( 7.000000000000001776, -1.999999999999996669, 27.74999999999999645 ) ) ;
#594 = VECTOR ( 'NONE', #342, 1000.000000000000000 ) ;
#595 = LINE ( 'NONE', #130, #43 ) ;
#596 = EDGE_CURVE ( 'NONE', #680, #262, #273, .T. ) ;
#597 = AXIS2_PLACEMENT_3D ( 'NONE', #211, #772, #962 ) ;
#598 = CARTESIAN_POINT ( 'NONE',  ( 11.74999999999999822, 9.300537618869135770, 7.000000000000000888 ) ) ;
#599 = VECTOR ( 'NONE', #226, 1000.000000000000000 ) ;
#600 = VECTOR ( 'NONE', #799, 1000.000000000000000 ) ;
#601 = ORIENTED_EDGE ( 'NONE', *, *, #152, .F. ) ;
#602 = CARTESIAN_POINT ( 'NONE',  ( 14.99999999999999822, 0.000000000000000000, 32.50000000000000000 ) ) ;
#603 = DIRECTION ( 'NONE',  ( 1.000000000000000000, 1.577021341797097807E-16, 0.000000000000000000 ) ) ;
#604 = EDGE_LOOP ( 'NONE', ( #427, #775, #653, #507 ) ) ;
#605 = VECTOR ( 'NONE', #540, 1000.000000000000000 ) ;
#606 = ORIENTED_EDGE ( 'NONE', *, *, #288, .T. ) ;
#607 = DIRECTION ( 'NONE',  ( 0.000000000000000000, 0.000000000000000000, 1.000000000000000000 ) ) ;
#608 = CARTESIAN_POINT ( 'NONE',  ( -0.001000000000004469536, 19.65000000000000568, 41.55000000000000426 ) ) ;
#609 = ORIENTED_EDGE ( 'NONE', *, *, #868, .T. ) ;
#610 = EDGE_CURVE ( 'NONE', #588, #293, #444, .T. ) ;
#611 = ORIENTED_EDGE ( 'NONE', *, *, #622, .F. ) ;
#612 = DIRECTION ( 'NONE',  ( 0.000000000000000000, 1.000000000000000000, 0.000000000000000000 ) ) ;
#613 = CARTESIAN_POINT ( 'NONE',  ( -0.001000000000001000089, 8.849999999999999645, 42.40000000000000568 ) ) ;
#614 = VECTOR ( 'NONE', #824, 1000.000000000000000 ) ;
#615 = VERTEX_POINT ( 'NONE', #700 ) ;
#616 = EDGE_LOOP ( 'NONE', ( #533, #159, #827, #1009 ) ) ;
#617 = CARTESIAN_POINT ( 'NONE',  ( 0.000000000000000000, 0.000000000000000000, 0.000000000000000000 ) ) ;
#618 = DIRECTION ( 'NONE',  ( 1.000000000000000000, 1.577021341797097807E-16, 0.000000000000000000 ) ) ;
#619 = PLANE ( 'NONE',  #933 ) ;
#620 = ORIENTED_EDGE ( 'NONE', *, *, #70, .F. ) ;
#621 = FACE_OUTER_BOUND ( 'NONE', #393, .T. ) ;
#622 = EDGE_CURVE ( 'NONE', #716, #538, #375, .T. ) ;
#623 = FACE_OUTER_BOUND ( 'NONE', #871, .T. ) ;
#624 = DIRECTION ( 'NONE',  ( 1.000000000000000000, 0.000000000000000000, 0.000000000000000000 ) ) ;
#625 = DIRECTION ( 'NONE',  ( 1.000000000000000000, 1.387778780781445922E-16, -0.000000000000000000 ) ) ;
#626 = VECTOR ( 'NONE', #1026, 1000.000000000000114 ) ;
#627 = ADVANCED_FACE ( 'NONE', ( #1022 ), #140, .F. ) ;
#628 = DIRECTION ( 'NONE',  ( 1.000000000000000000, 1.387778780781445922E-16, -0.000000000000000000 ) ) ;
#629 = VECTOR ( 'NONE', #438, 1000.000000000000000 ) ;
#630 = VECTOR ( 'NONE', #567, 1000.000000000000000 ) ;
#631 = LINE ( 'NONE', #1042, #190 ) ;
#632 = CYLINDRICAL_SURFACE ( 'NONE', #705, 0.8499999999999965361 ) ;
#633 = VERTEX_POINT ( 'NONE', #703 ) ;
#634 = CARTESIAN_POINT ( 'NONE',  ( 16.99999999999999645, -1.999999999999994893, 32.50000000000000000 ) ) ;
#635 = CYLINDRICAL_SURFACE ( 'NONE', #461, 2.749999999999999112 ) ;
#636 = ORIENTED_EDGE ( 'NONE', *, *, #948, .F. ) ;
#637 = DIRECTION ( 'NONE',  ( 0.000000000000000000, -2.040851148208016676E-15, -1.000000000000000000 ) ) ;
#638 =( NAMED_UNIT ( * ) SI_UNIT ( $, .STERADIAN. ) SOLID_ANGLE_UNIT ( ) );
#639 = ADVANCED_FACE ( 'NONE', ( #1031 ), #635, .F. ) ;
#640 = DIRECTION ( 'NONE',  ( 1.000000000000000000, 1.530638361156006492E-16, -0.000000000000000000 ) ) ;
#641 = VERTEX_POINT ( 'NONE', #309 ) ;
#642 = AXIS2_PLACEMENT_3D ( 'NONE', #25, #666, #263 ) ;
#643 = FACE_OUTER_BOUND ( 'NONE', #187, .T. ) ;
#644 = LINE ( 'NONE', #982, #614 ) ;
#645 = AXIS2_PLACEMENT_3D ( 'NONE', #54, #119, #925 ) ;
#646 = ORIENTED_EDGE ( 'NONE', *, *, #488, .T. ) ;
#647 = CYLINDRICAL_SURFACE ( 'NONE', #141, 2.749999999999999112 ) ;
#648 = VERTEX_POINT ( 'NONE', #955 ) ;
#649 = CARTESIAN_POINT ( 'NONE',  ( 16.99999999999999645, -1.999999999999994893, 57.50000000000000000 ) ) ;
#650 =( GEOMETRIC_REPRESENTATION_CONTEXT ( 3 ) GLOBAL_UNCERTAINTY_ASSIGNED_CONTEXT ( ( #734 ) ) GLOBAL_UNIT_ASSIGNED_CONTEXT ( ( #873, #465, #638 ) ) REPRESENTATION_CONTEXT ( 'NONE', 'WORKASPACE' ) );
#651 = PLANE ( 'NONE',  #378 ) ;
#652 = ADVANCED_FACE ( 'NONE', ( #545 ), #632, .F. ) ;
#653 = ORIENTED_EDGE ( 'NONE', *, *, #995, .T. ) ;
#654 = DIRECTION ( 'NONE',  ( 1.530638361156006492E-16, -1.000000000000000000, -0.000000000000000000 ) ) ;
#655 = DIRECTION ( 'NONE',  ( -1.387639269472480416E-16, 1.000000000000000000, 0.000000000000000000 ) ) ;
#656 = FACE_OUTER_BOUND ( 'NONE', #249, .T. ) ;
#657 = ORIENTED_EDGE ( 'NONE', *, *, #711, .T. ) ;
#658 = EDGE_CURVE ( 'NONE', #398, #755, #298, .T. ) ;
#659 = CARTESIAN_POINT ( 'NONE',  ( 14.99999999999999822, 19.65000000000000924, 42.40000000000000568 ) ) ;
#660 = CIRCLE ( 'NONE', #67, 0.8499999999999965361 ) ;
#661 = ORIENTED_EDGE ( 'NONE', *, *, #819, .T. ) ;
#662 = DIRECTION ( 'NONE',  ( 1.000000000000000000, 0.000000000000000000, -0.000000000000000000 ) ) ;
#663 = DIRECTION ( 'NONE',  ( 1.000000000000000000, 1.387778780781445922E-16, -0.000000000000000000 ) ) ;
#664 = VERTEX_POINT ( 'NONE', #468 ) ;
#665 = AXIS2_PLACEMENT_3D ( 'NONE', #796, #312, #951 ) ;
#666 = DIRECTION ( 'NONE',  ( 1.530638361156006492E-16, -1.000000000000000000, 0.000000000000000000 ) ) ;
#667 = ORIENTED_EDGE ( 'NONE', *, *, #125, .F. ) ;
#668 = LINE ( 'NONE', #723, #531 ) ;
#669 = EDGE_LOOP ( 'NONE', ( #737, #317, #314, #354, #601 ) ) ;
#670 = FACE_OUTER_BOUND ( 'NONE', #297, .T. ) ;
#671 = VERTEX_POINT ( 'NONE', #559 ) ;
#672 = DIRECTION ( 'NONE',  ( -0.000000000000000000, -0.000000000000000000, -1.000000000000000000 ) ) ;
#673 = EDGE_CURVE ( 'NONE', #360, #512, #555, .T. ) ;
#674 = CARTESIAN_POINT ( 'NONE',  ( 8.999999999999996447, 0.000000000000000000, 4.250000000000003553 ) ) ;
#675 = ORIENTED_EDGE ( 'NONE', *, *, #732, .F. ) ;
#676 = EDGE_LOOP ( 'NONE', ( #961, #657, #93, #675 ) ) ;
#677 = LINE ( 'NONE', #129, #177 ) ;
#678 = CARTESIAN_POINT ( 'NONE',  ( 14.99999999999999822, 8.849999999999999645, 43.25000000000001421 ) ) ;
#679 = EDGE_CURVE ( 'NONE', #188, #345, #475, .T. ) ;
#680 = VERTEX_POINT ( 'NONE', #75 ) ;
#681 = AXIS2_PLACEMENT_3D ( 'NONE', #467, #888, #163 ) ;
#682 = VECTOR ( 'NONE', #902, 1000.000000000000000 ) ;
#683 = ORIENTED_EDGE ( 'NONE', *, *, #1040, .T. ) ;
#684 = CYLINDRICAL_SURFACE ( 'NONE', #424, 0.8499999999999965361 ) ;
#685 = CARTESIAN_POINT ( 'NONE',  ( 0.000000000000000000, 0.000000000000000000, 32.50000000000000000 ) ) ;
#686 = DIRECTION ( 'NONE',  ( 0.000000000000000000, -2.081668171172168513E-16, 1.000000000000000000 ) ) ;
#687 = ADVANCED_FACE ( 'NONE', ( #621 ), #780, .F. ) ;
#688 = ORIENTED_EDGE ( 'NONE', *, *, #299, .T. ) ;
#689 = CARTESIAN_POINT ( 'NONE',  ( -0.001000000000001000089, 8.849999999999999645, 52.10000000000000142 ) ) ;
#690 = FACE_OUTER_BOUND ( 'NONE', #85, .T. ) ;
#691 = LINE ( 'NONE', #598, #696 ) ;
#692 = ORIENTED_EDGE ( 'NONE', *, *, #590, .T. ) ;
#693 = DIRECTION ( 'NONE',  ( 1.530638361156006492E-16, -1.000000000000000000, -0.000000000000000000 ) ) ;
#694 = AXIS2_PLACEMENT_3D ( 'NONE', #783, #706, #154 ) ;
#695 = EDGE_LOOP ( 'NONE', ( #574, #523, #323, #556 ) ) ;
#696 = VECTOR ( 'NONE', #1012, 1000.000000000000000 ) ;
#697 = VECTOR ( 'NONE', #811, 1000.000000000000000 ) ;
#698 = EDGE_CURVE ( 'NONE', #838, #889, #462, .T. ) ;
#699 = CARTESIAN_POINT ( 'NONE',  ( 8.999999999999994671, 9.300537618869135770, 4.250000000000001776 ) ) ;
#700 = CARTESIAN_POINT ( 'NONE',  ( 14.99999999999999822, 19.65000000000000924, 43.25000000000001421 ) ) ;
#701 = EDGE_CURVE ( 'NONE', #889, #95, #415, .T. ) ;
#702 = DIRECTION ( 'NONE',  ( -0.000000000000000000, 1.000000000000000000, -0.000000000000000000 ) ) ;
#703 = CARTESIAN_POINT ( 'NONE',  ( 14.99999999999999822, 19.65000000000000924, 52.94999999999999574 ) ) ;
#704 = DIRECTION ( 'NONE',  ( -9.462128050782586841E-16, 0.000000000000000000, -1.000000000000000000 ) ) ;
#705 = AXIS2_PLACEMENT_3D ( 'NONE', #145, #952, #392 ) ;
#706 = DIRECTION ( 'NONE',  ( 0.000000000000000000, 0.000000000000000000, 1.000000000000000000 ) ) ;
#707 = VERTEX_POINT ( 'NONE', #253 ) ;
#708 = CARTESIAN_POINT ( 'NONE',  ( 11.75000000000000000, 0.000000000000000000, 7.000000000000000888 ) ) ;
#709 = CARTESIAN_POINT ( 'NONE',  ( 16.99999999999999645, 5.000000000000007105, 32.50000000000000000 ) ) ;
#710 = ORIENTED_EDGE ( 'NONE', *, *, #972, .T. ) ;
#711 = EDGE_CURVE ( 'NONE', #209, #122, #104, .T. ) ;
#712 = CARTESIAN_POINT ( 'NONE',  ( 9.000000000000001776, -1.999999999999996225, 7.000000000000000888 ) ) ;
#713 = EDGE_LOOP ( 'NONE', ( #246, #989, #518, #359 ) ) ;
#714 = CARTESIAN_POINT ( 'NONE',  ( 16.99999999999999645, 8.850000000000001421, 41.55000000000000426 ) ) ;
#715 = LINE ( 'NONE', #709, #1003 ) ;
#716 = VERTEX_POINT ( 'NONE', #329 ) ;
#717 = LINE ( 'NONE', #394, #600 ) ;
#718 = ORIENTED_EDGE ( 'NONE', *, *, #839, .T. ) ;
#719 = LINE ( 'NONE', #411, #788 ) ;
#720 = ORIENTED_EDGE ( 'NONE', *, *, #147, .F. ) ;
#721 = CARTESIAN_POINT ( 'NONE',  ( 14.99999999999999822, 8.850000000000001421, 52.10000000000000142 ) ) ;
#722 = DIRECTION ( 'NONE',  ( -1.000000000000000000, -2.168404344971008868E-16, -0.000000000000000000 ) ) ;
#723 = CARTESIAN_POINT ( 'NONE',  ( -0.001000000000001000089, 5.000000000000004441, 32.50000000000000000 ) ) ;
#724 = EDGE_CURVE ( 'NONE', #414, #671, #110, .T. ) ;
#725 = AXIS2_PLACEMENT_3D ( 'NONE', #685, #520, #197 ) ;
#726 = CIRCLE ( 'NONE', #463, 2.749999999999999112 ) ;
#727 = ORIENTED_EDGE ( 'NONE', *, *, #898, .F. ) ;
#728 = DIRECTION ( 'NONE',  ( 1.000000000000000000, 1.387778780781445922E-16, 0.000000000000000000 ) ) ;
#729 = CARTESIAN_POINT ( 'NONE',  ( 16.99999999999999289, 23.00000000000000355, 22.50000000000000000 ) ) ;
#730 = FACE_BOUND ( 'NONE', #58, .T. ) ;
#731 = AXIS2_PLACEMENT_3D ( 'NONE', #41, #367, #612 ) ;
#732 = EDGE_CURVE ( 'NONE', #293, #40, #247, .T. ) ;
#733 = ORIENTED_EDGE ( 'NONE', *, *, #311, .F. ) ;
#734 = UNCERTAINTY_MEASURE_WITH_UNIT (LENGTH_MEASURE( 1.000000000000000082E-05 ), #873, 'distance_accuracy_value', 'NONE');
#735 = DIRECTION ( 'NONE',  ( 1.530638361156006492E-16, -1.000000000000000000, -0.000000000000000000 ) ) ;
#736 = CARTESIAN_POINT ( 'NONE',  ( 14.99999999999999822, 8.849999999999999645, 51.25000000000000711 ) ) ;
#737 = ORIENTED_EDGE ( 'NONE', *, *, #522, .F. ) ;
#738 = ADVANCED_FACE ( 'NONE', ( #428 ), #891, .F. ) ;
#739 = DIRECTION ( 'NONE',  ( -1.000000000000000000, 0.000000000000000000, 0.000000000000000000 ) ) ;
#740 = CIRCLE ( 'NONE', #47, 2.749999999999999112 ) ;
#741 = ORIENTED_EDGE ( 'NONE', *, *, #964, .F. ) ;
#742 = AXIS2_PLACEMENT_3D ( 'NONE', #634, #558, #946 ) ;
#743 = ORIENTED_EDGE ( 'NONE', *, *, #311, .T. ) ;
#744 = CARTESIAN_POINT ( 'NONE',  ( 16.99999999999999289, 20.50000000000000355, 52.10000000000000142 ) ) ;
#745 = EDGE_CURVE ( 'NONE', #615, #337, #24, .T. ) ;
#746 = ORIENTED_EDGE ( 'NONE', *, *, #724, .F. ) ;
#747 = DIRECTION ( 'NONE',  ( 0.000000000000000000, 0.000000000000000000, -1.000000000000000000 ) ) ;
#748 = DIRECTION ( 'NONE',  ( 1.000000000000000000, 1.387778780781445922E-16, 0.000000000000000000 ) ) ;
#749 = VECTOR ( 'NONE', #437, 1000.000000000000000 ) ;
#750 = EDGE_LOOP ( 'NONE', ( #521, #131, #592, #134 ) ) ;
#751 = DIRECTION ( 'NONE',  ( 1.530638361156006492E-16, -1.000000000000000000, -0.000000000000000000 ) ) ;
#752 = ORIENTED_EDGE ( 'NONE', *, *, #385, .T. ) ;
#753 = CYLINDRICAL_SURFACE ( 'NONE', #1039, 0.8500000000000035305 ) ;
#754 = DIRECTION ( 'NONE',  ( 1.530638361156006492E-16, -1.000000000000000000, -0.000000000000000000 ) ) ;
#755 = VERTEX_POINT ( 'NONE', #572 ) ;
#756 = ORIENTED_EDGE ( 'NONE', *, *, #771, .T. ) ;
#757 = PLANE ( 'NONE',  #585 ) ;
#758 = STYLED_ITEM ( 'NONE', ( #1020 ), #814 ) ;
#759 = DIRECTION ( 'NONE',  ( -1.000000000000000000, 0.000000000000000000, 0.000000000000000000 ) ) ;
#760 = EDGE_CURVE ( 'NONE', #122, #40, #165, .T. ) ;
#761 = VERTEX_POINT ( 'NONE', #492 ) ;
#762 = VECTOR ( 'NONE', #294, 1000.000000000000000 ) ;
#763 = ORIENTED_EDGE ( 'NONE', *, *, #331, .F. ) ;
#764 = CARTESIAN_POINT ( 'NONE',  ( 7.000000000000001776, -1.999999999999996669, 27.74999999999999645 ) ) ;
#765 = LINE ( 'NONE', #124, #429 ) ;
#766 = DIRECTION ( 'NONE',  ( -1.387778780781445922E-16, 1.000000000000000000, 2.081668171172168513E-16 ) ) ;
#767 = VERTEX_POINT ( 'NONE', #744 ) ;
#768 = CARTESIAN_POINT ( 'NONE',  ( 0.000000000000000000, 0.000000000000000000, 32.50000000000000000 ) ) ;
#769 = CARTESIAN_POINT ( 'NONE',  ( 14.99999999999999822, 8.849999999999999645, 52.94999999999999574 ) ) ;
#770 = ORIENTED_EDGE ( 'NONE', *, *, #142, .T. ) ;
#771 = EDGE_CURVE ( 'NONE', #398, #664, #897, .T. ) ;
#772 = DIRECTION ( 'NONE',  ( 1.000000000000000000, 0.000000000000000000, 0.000000000000000000 ) ) ;
#773 = APPLICATION_CONTEXT ( 'automotive_design' ) ;
#774 = CLOSED_SHELL ( 'NONE', ( #687, #1024, #639, #738, #442, #37, #826, #274, #1038, #215, #343, #63, #51, #547, #537, #199, #56, #864, #111, #781, #245, #808, #377, #938, #136, #786, #890, #627, #652, #504, #2 ) ) ;
#775 = ORIENTED_EDGE ( 'NONE', *, *, #1013, .F. ) ;
#776 = DIRECTION ( 'NONE',  ( 1.530638361156006492E-16, -1.000000000000000000, 0.000000000000000000 ) ) ;
#777 = EDGE_CURVE ( 'NONE', #229, #395, #494, .T. ) ;
#778 = CIRCLE ( 'NONE', #665, 2.749999999999999112 ) ;
#779 = CARTESIAN_POINT ( 'NONE',  ( 0.000000000000000000, 0.000000000000000000, 0.000000000000000000 ) ) ;
#780 = CYLINDRICAL_SURFACE ( 'NONE', #358, 0.8499999999999965361 ) ;
#781 = ADVANCED_FACE ( 'NONE', ( #170 ), #815, .F. ) ;
#782 = DIRECTION ( 'NONE',  ( 1.530638361156006492E-16, -1.000000000000000000, -0.000000000000000000 ) ) ;
#783 = CARTESIAN_POINT ( 'NONE',  ( -0.001000000000001000089, 8.849999999999999645, 52.94999999999999574 ) ) ;
#784 = ORIENTED_EDGE ( 'NONE', *, *, #60, .F. ) ;
#785 = SURFACE_STYLE_FILL_AREA ( #143 ) ;
#786 = ADVANCED_FACE ( 'NONE', ( #178 ), #506, .F. ) ;
#787 = PLANE ( 'NONE',  #742 ) ;
#788 = VECTOR ( 'NONE', #335, 1000.000000000000000 ) ;
#789 = CARTESIAN_POINT ( 'NONE',  ( 7.000000000000000000, 0.000000000000000000, 27.74999999999999645 ) ) ;
#790 = EDGE_LOOP ( 'NONE', ( #28, #1014, #581, #505, #476, #532 ) ) ;
#791 = CIRCLE ( 'NONE', #949, 2.749999999999999112 ) ;
#792 = CARTESIAN_POINT ( 'NONE',  ( 9.000000000000000000, -1.999999999999996225, 22.25000000000000000 ) ) ;
#793 = CARTESIAN_POINT ( 'NONE',  ( 16.99999999999999645, 8.850000000000001421, 42.40000000000000568 ) ) ;
#794 = EDGE_LOOP ( 'NONE', ( #423, #369, #371, #910 ) ) ;
#795 = DIRECTION ( 'NONE',  ( 1.000000000000000000, 1.577021341797097807E-16, 0.000000000000000000 ) ) ;
#796 = CARTESIAN_POINT ( 'NONE',  ( 9.000000000000001776, 0.000000000000000000, 7.000000000000000888 ) ) ;
#797 = ORIENTED_EDGE ( 'NONE', *, *, #325, .F. ) ;
#798 = EDGE_CURVE ( 'NONE', #210, #127, #83, .T. ) ;
#799 = DIRECTION ( 'NONE',  ( 0.000000000000000000, -1.000000000000000000, 0.000000000000000000 ) ) ;
#800 = ORIENTED_EDGE ( 'NONE', *, *, #30, .F. ) ;
#801 = CARTESIAN_POINT ( 'NONE',  ( 14.99999999999999822, 19.65000000000000924, 41.55000000000000426 ) ) ;
#802 =( NAMED_UNIT ( * ) SI_UNIT ( $, .STERADIAN. ) SOLID_ANGLE_UNIT ( ) );
#803 = DIRECTION ( 'NONE',  ( 0.000000000000000000, -1.000000000000000000, 0.000000000000000000 ) ) ;
#804 = ORIENTED_EDGE ( 'NONE', *, *, #231, .T. ) ;
#805 = VECTOR ( 'NONE', #228, 1000.000000000000000 ) ;
#806 = DIRECTION ( 'NONE',  ( 0.000000000000000000, 0.000000000000000000, -1.000000000000000000 ) ) ;
#807 = DIRECTION ( 'NONE',  ( 1.000000000000000000, 0.000000000000000000, 0.000000000000000000 ) ) ;
#808 = ADVANCED_FACE ( 'NONE', ( #670 ), #587, .T. ) ;
#809 = ORIENTED_EDGE ( 'NONE', *, *, #516, .T. ) ;
#810 = AXIS2_PLACEMENT_3D ( 'NONE', #218, #625, #881 ) ;
#811 = DIRECTION ( 'NONE',  ( -0.000000000000000000, -1.000000000000000000, -0.000000000000000000 ) ) ;
#812 = CIRCLE ( 'NONE', #501, 2.749999999999999112 ) ;
#813 = ORIENTED_EDGE ( 'NONE', *, *, #868, .F. ) ;
#814 = MANIFOLD_SOLID_BREP ( 'Cut-Extrude4', #774 ) ;
#815 = PLANE ( 'NONE',  #236 ) ;
#816 = ORIENTED_EDGE ( 'NONE', *, *, #701, .F. ) ;
#817 = VECTOR ( 'NONE', #271, 1000.000000000000000 ) ;
#818 = CARTESIAN_POINT ( 'NONE',  ( 16.99999999999999645, 8.850000000000001421, 52.94999999999999574 ) ) ;
#819 = EDGE_CURVE ( 'NONE', #262, #854, #987, .T. ) ;
#820 = ORIENTED_EDGE ( 'NONE', *, *, #1030, .T. ) ;
#821 = CARTESIAN_POINT ( 'NONE',  ( 8.999999999999998224, 9.300537618869135770, 22.25000000000000000 ) ) ;
#822 = ORIENTED_EDGE ( 'NONE', *, *, #420, .T. ) ;
#823 = CARTESIAN_POINT ( 'NONE',  ( 14.99999999999999822, -1.999999999999995337, 57.50000000000000000 ) ) ;
#824 = DIRECTION ( 'NONE',  ( 1.530638361156006492E-16, -1.000000000000000000, -0.000000000000000000 ) ) ;
#825 = CARTESIAN_POINT ( 'NONE',  ( 7.000000000000000000, 9.300537618869135770, 4.250000000000001776 ) ) ;
#826 = ADVANCED_FACE ( 'NONE', ( #894, #730, #82 ), #324, .F. ) ;
#827 = ORIENTED_EDGE ( 'NONE', *, *, #370, .T. ) ;
#828 = AXIS2_PLACEMENT_3D ( 'NONE', #550, #383, #65 ) ;
#829 = EDGE_LOOP ( 'NONE', ( #832, #44, #132, #120 ) ) ;
#830 = CARTESIAN_POINT ( 'NONE',  ( 14.99999999999999822, 19.65000000000000924, 52.10000000000000142 ) ) ;
#831 = PLANE ( 'NONE',  #645 ) ;
#832 = ORIENTED_EDGE ( 'NONE', *, *, #30, .T. ) ;
#833 = CIRCLE ( 'NONE', #681, 0.8500000000000035305 ) ;
#834 = DIRECTION ( 'NONE',  ( 1.000000000000000000, 1.387778780781445922E-16, -0.000000000000000000 ) ) ;
#835 = EDGE_LOOP ( 'NONE', ( #591, #986, #451, #733, #205 ) ) ;
#836 = DIRECTION ( 'NONE',  ( -1.387639269472480416E-16, 1.000000000000000000, 0.000000000000000000 ) ) ;
#837 = DIRECTION ( 'NONE',  ( 1.000000000000000000, 1.387778780781445922E-16, 0.000000000000000000 ) ) ;
#838 = VERTEX_POINT ( 'NONE', #346 ) ;
#839 = EDGE_CURVE ( 'NONE', #755, #257, #668, .T. ) ;
#840 = ORIENTED_EDGE ( 'NONE', *, *, #186, .T. ) ;
#841 = PLANE ( 'NONE',  #94 ) ;
#842 = CARTESIAN_POINT ( 'NONE',  ( 7.000000000000000888, 0.000000000000000000, 22.25000000000000000 ) ) ;
#843 = VERTEX_POINT ( 'NONE', #569 ) ;
#844 = VERTEX_POINT ( 'NONE', #736 ) ;
#845 = CARTESIAN_POINT ( 'NONE',  ( 9.000000000000003553, -1.999999999999996225, 24.99999999999999645 ) ) ;
#846 = EDGE_CURVE ( 'NONE', #905, #648, #660, .T. ) ;
#847 = LINE ( 'NONE', #842, #479 ) ;
#848 = ORIENTED_EDGE ( 'NONE', *, *, #777, .T. ) ;
#849 = EDGE_LOOP ( 'NONE', ( #194, #896, #985, #328 ) ) ;
#850 = DIRECTION ( 'NONE',  ( -1.387639269472491756E-16, 1.000000000000000000, 0.000000000000000000 ) ) ;
#851 = CARTESIAN_POINT ( 'NONE',  ( 14.99999999999999822, 23.00000000000000355, 32.50000000000000000 ) ) ;
#852 = EDGE_CURVE ( 'NONE', #337, #716, #12, .T. ) ;
#853 = CARTESIAN_POINT ( 'NONE',  ( 8.999999999999996447, -1.999999999999996225, 4.250000000000001776 ) ) ;
#854 = VERTEX_POINT ( 'NONE', #509 ) ;
#855 = LINE ( 'NONE', #372, #349 ) ;
#856 = ORIENTED_EDGE ( 'NONE', *, *, #1040, .F. ) ;
#857 = EDGE_CURVE ( 'NONE', #414, #838, #719, .T. ) ;
#858 = CARTESIAN_POINT ( 'NONE',  ( -0.001000000000004469536, 19.65000000000000568, 52.10000000000000142 ) ) ;
#859 = VECTOR ( 'NONE', #577, 1000.000000000000000 ) ;
#860 = CIRCLE ( 'NONE', #546, 2.749999999999999112 ) ;
#861 = CARTESIAN_POINT ( 'NONE',  ( 7.000000000000001776, -1.999999999999996669, 4.250000000000001776 ) ) ;
#862 = CARTESIAN_POINT ( 'NONE',  ( 9.000000000000001776, 9.300537618869135770, 24.99999999999999645 ) ) ;
#863 = VECTOR ( 'NONE', #722, 1000.000000000000000 ) ;
#864 = ADVANCED_FACE ( 'NONE', ( #656 ), #903, .F. ) ;
#865 = VECTOR ( 'NONE', #628, 1000.000000000000000 ) ;
#866 = FACE_OUTER_BOUND ( 'NONE', #849, .T. ) ;
#867 = CARTESIAN_POINT ( 'NONE',  ( 14.99999999999999822, 5.000000000000000888, 57.50000000000000000 ) ) ;
#868 = EDGE_CURVE ( 'NONE', #345, #539, #644, .T. ) ;
#869 = FACE_BOUND ( 'NONE', #34, .T. ) ;
#870 = DIRECTION ( 'NONE',  ( -0.000000000000000000, 1.000000000000000000, -0.000000000000000000 ) ) ;
#871 = EDGE_LOOP ( 'NONE', ( #939, #856, #254, #956, #800 ) ) ;
#872 = PRODUCT ( 'X Limit Switch Mount', 'X Limit Switch Mount', '', ( #137 ) ) ;
#873 =( LENGTH_UNIT ( ) NAMED_UNIT ( * ) SI_UNIT ( .MILLI., .METRE. ) );
#874 = CARTESIAN_POINT ( 'NONE',  ( 0.000000000000000000, 0.000000000000000000, 32.50000000000000000 ) ) ;
#875 = AXIS2_PLACEMENT_3D ( 'NONE', #434, #751, #269 ) ;
#876 = DIRECTION ( 'NONE',  ( 0.000000000000000000, 1.000000000000000000, 0.000000000000000000 ) ) ;
#877 = VECTOR ( 'NONE', #478, 1000.000000000000000 ) ;
#878 = VERTEX_POINT ( 'NONE', #162 ) ;
#879 = CARTESIAN_POINT ( 'NONE',  ( -0.001000000000001000089, 8.849999999999999645, 51.25000000000000711 ) ) ;
#880 = VECTOR ( 'NONE', #18, 1000.000000000000000 ) ;
#881 = DIRECTION ( 'NONE',  ( -1.387639269472480416E-16, 1.000000000000000000, 0.000000000000000000 ) ) ;
#882 = EDGE_CURVE ( 'NONE', #251, #229, #260, .T. ) ;
#883 = ORIENTED_EDGE ( 'NONE', *, *, #972, .F. ) ;
#884 = CARTESIAN_POINT ( 'NONE',  ( 6.999999999999999112, 0.000000000000000000, 9.750000000000000000 ) ) ;
#885 = PRODUCT_DEFINITION_FORMATION_WITH_SPECIFIED_SOURCE ( 'ANY', '', #872, .NOT_KNOWN. ) ;
#886 = VECTOR ( 'NONE', #36, 1000.000000000000000 ) ;
#887 = FACE_OUTER_BOUND ( 'NONE', #128, .T. ) ;
#888 = DIRECTION ( 'NONE',  ( -1.000000000000000000, -0.000000000000000000, -0.000000000000000000 ) ) ;
#889 = VERTEX_POINT ( 'NONE', #102 ) ;
#890 = ADVANCED_FACE ( 'NONE', ( #887 ), #684, .F. ) ;
#891 = CYLINDRICAL_SURFACE ( 'NONE', #875, 2.749999999999999112 ) ;
#892 = DIRECTION ( 'NONE',  ( -1.000000000000000000, -0.000000000000000000, -0.000000000000000000 ) ) ;
#893 = CARTESIAN_POINT ( 'NONE',  ( 6.999999999999999112, 9.300537618869135770, 9.750000000000000000 ) ) ;
#894 = FACE_BOUND ( 'NONE', #835, .T. ) ;
#895 = FACE_BOUND ( 'NONE', #669, .T. ) ;
#896 = ORIENTED_EDGE ( 'NONE', *, *, #405, .T. ) ;
#897 = LINE ( 'NONE', #973, #404 ) ;
#898 = EDGE_CURVE ( 'NONE', #40, #843, #740, .T. ) ;
#899 = DIRECTION ( 'NONE',  ( -0.000000000000000000, 1.000000000000000000, -0.000000000000000000 ) ) ;
#900 = ORIENTED_EDGE ( 'NONE', *, *, #732, .T. ) ;
#901 = DIRECTION ( 'NONE',  ( 0.000000000000000000, 0.000000000000000000, -1.000000000000000000 ) ) ;
#902 = DIRECTION ( 'NONE',  ( 1.387778780781445922E-16, -1.000000000000000000, -0.000000000000000000 ) ) ;
#903 = PLANE ( 'NONE',  #339 ) ;
#904 = EDGE_CURVE ( 'NONE', #588, #843, #1005, .T. ) ;
#905 = VERTEX_POINT ( 'NONE', #936 ) ;
#906 = CARTESIAN_POINT ( 'NONE',  ( 14.99999999999999822, -1.999999999999995337, 57.50000000000000000 ) ) ;
#907 = ORIENTED_EDGE ( 'NONE', *, *, #964, .T. ) ;
#908 = DIRECTION ( 'NONE',  ( 0.000000000000000000, -0.000000000000000000, 1.000000000000000000 ) ) ;
#909 = DIRECTION ( 'NONE',  ( -0.000000000000000000, -2.081668171172168513E-16, 1.000000000000000000 ) ) ;
#910 = ORIENTED_EDGE ( 'NONE', *, *, #252, .F. ) ;
#911 = DIRECTION ( 'NONE',  ( 1.000000000000000000, 1.387778780781445922E-16, 0.000000000000000000 ) ) ;
#912 = AXIS2_PLACEMENT_3D ( 'NONE', #313, #220, #387 ) ;
#913 = ORIENTED_EDGE ( 'NONE', *, *, #125, .T. ) ;
#914 = DIRECTION ( 'NONE',  ( 1.000000000000000000, 1.387778780781445922E-16, -0.000000000000000000 ) ) ;
#915 = AXIS2_PLACEMENT_3D ( 'NONE', #482, #161, #489 ) ;
#916 = DIRECTION ( 'NONE',  ( 0.000000000000000000, 1.000000000000000000, 0.000000000000000000 ) ) ;
#917 = CARTESIAN_POINT ( 'NONE',  ( 0.000000000000000000, 0.000000000000000000, 0.000000000000000000 ) ) ;
#918 = ORIENTED_EDGE ( 'NONE', *, *, #846, .T. ) ;
#919 = FACE_BOUND ( 'NONE', #528, .T. ) ;
#920 = CARTESIAN_POINT ( 'NONE',  ( -0.001000000000004469536, 19.65000000000000568, 43.25000000000001421 ) ) ;
#921 = ORIENTED_EDGE ( 'NONE', *, *, #839, .F. ) ;
#922 = EDGE_CURVE ( 'NONE', #998, #229, #677, .T. ) ;
#923 = EDGE_LOOP ( 'NONE', ( #1018, #460, #913, #31 ) ) ;
#924 = DIRECTION ( 'NONE',  ( 0.000000000000000000, 0.000000000000000000, -1.000000000000000000 ) ) ;
#925 = DIRECTION ( 'NONE',  ( 0.000000000000000000, -0.7148340255851473035, -0.6992941554637310819 ) ) ;
#926 = ORIENTED_EDGE ( 'NONE', *, *, #413, .F. ) ;
#927 = EDGE_LOOP ( 'NONE', ( #100, #1032, #980, #720, #515 ) ) ;
#928 = CARTESIAN_POINT ( 'NONE',  ( -0.001000000000004469536, 19.65000000000000568, 42.40000000000000568 ) ) ;
#929 = VECTOR ( 'NONE', #963, 1000.000000000000000 ) ;
#930 = EDGE_CURVE ( 'NONE', #707, #127, #1010, .T. ) ;
#931 = FACE_OUTER_BOUND ( 'NONE', #26, .T. ) ;
#932 = EDGE_LOOP ( 'NONE', ( #445, #918, #809, #502 ) ) ;
#933 = AXIS2_PLACEMENT_3D ( 'NONE', #851, #281, #937 ) ;
#934 = ORIENTED_EDGE ( 'NONE', *, *, #283, .T. ) ;
#935 = FACE_OUTER_BOUND ( 'NONE', #750, .T. ) ;
#936 = CARTESIAN_POINT ( 'NONE',  ( 14.99999999999999822, 20.50000000000000355, 52.10000000000000142 ) ) ;
#937 = DIRECTION ( 'NONE',  ( 0.000000000000000000, -0.000000000000000000, -1.000000000000000000 ) ) ;
#938 = ADVANCED_FACE ( 'NONE', ( #278 ), #757, .F. ) ;
#939 = ORIENTED_EDGE ( 'NONE', *, *, #701, .T. ) ;
#940 = DIRECTION ( 'NONE',  ( 2.523234146875356491E-15, 0.000000000000000000, -1.000000000000000000 ) ) ;
#941 = DIRECTION ( 'NONE',  ( -1.387778780781445922E-16, 1.000000000000000000, -0.000000000000000000 ) ) ;
#942 = PRODUCT_RELATED_PRODUCT_CATEGORY ( 'part', '', ( #872 ) ) ;
#943 = DIRECTION ( 'NONE',  ( 0.000000000000000000, 0.000000000000000000, -1.000000000000000000 ) ) ;
#944 = CARTESIAN_POINT ( 'NONE',  ( 14.99999999999999467, 23.00000000000000355, 22.50000000000000000 ) ) ;
#945 = VECTOR ( 'NONE', #654, 1000.000000000000000 ) ;
#946 = DIRECTION ( 'NONE',  ( -1.000000000000000000, -1.530638361156006492E-16, 0.000000000000000000 ) ) ;
#947 = CARTESIAN_POINT ( 'NONE',  ( 0.000000000000000000, 0.000000000000000000, 32.50000000000000000 ) ) ;
#948 = EDGE_CURVE ( 'NONE', #671, #183, #290, .T. ) ;
#949 = AXIS2_PLACEMENT_3D ( 'NONE', #580, #899, #174 ) ;
#950 = CIRCLE ( 'NONE', #8, 0.8499999999999965361 ) ;
#951 = DIRECTION ( 'NONE',  ( 5.046468293750712982E-15, 0.000000000000000000, -1.000000000000000000 ) ) ;
#952 = DIRECTION ( 'NONE',  ( 1.000000000000000000, 1.387778780781445922E-16, -0.000000000000000000 ) ) ;
#953 = ORIENTED_EDGE ( 'NONE', *, *, #882, .T. ) ;
#954 = DIRECTION ( 'NONE',  ( 1.530638361156006492E-16, -1.000000000000000000, -0.000000000000000000 ) ) ;
#955 = CARTESIAN_POINT ( 'NONE',  ( 14.99999999999999822, 19.65000000000000924, 51.25000000000000711 ) ) ;
#956 = ORIENTED_EDGE ( 'NONE', *, *, #219, .F. ) ;
#957 = CARTESIAN_POINT ( 'NONE',  ( -0.001000000000004469536, 19.65000000000000568, 51.25000000000000711 ) ) ;
#958 = EDGE_CURVE ( 'NONE', #633, #905, #214, .T. ) ;
#959 = DIRECTION ( 'NONE',  ( 1.530638361156006492E-16, -1.000000000000000000, -0.000000000000000000 ) ) ;
#960 = AXIS2_PLACEMENT_3D ( 'NONE', #382, #782, #158 ) ;
#961 = ORIENTED_EDGE ( 'NONE', *, *, #357, .T. ) ;
#962 = DIRECTION ( 'NONE',  ( 0.000000000000000000, 0.000000000000000000, -1.000000000000000000 ) ) ;
#963 = DIRECTION ( 'NONE',  ( 3.212450881438529775E-16, -1.000000000000000000, -0.000000000000000000 ) ) ;
#964 = EDGE_CURVE ( 'NONE', #539, #974, #534, .T. ) ;
#965 = CARTESIAN_POINT ( 'NONE',  ( 0.000000000000000000, 0.000000000000000000, 32.50000000000000000 ) ) ;
#966 = ORIENTED_EDGE ( 'NONE', *, *, #91, .T. ) ;
#967 = CARTESIAN_POINT ( 'NONE',  ( 7.000000000000000888, 9.300537618869135770, 22.25000000000000000 ) ) ;
#968 = DIRECTION ( 'NONE',  ( 1.000000000000000000, 0.000000000000000000, 0.000000000000000000 ) ) ;
#969 = ORIENTED_EDGE ( 'NONE', *, *, #857, .F. ) ;
#970 = DIRECTION ( 'NONE',  ( 0.000000000000000000, 0.000000000000000000, -1.000000000000000000 ) ) ;
#971 = ORIENTED_EDGE ( 'NONE', *, *, #578, .T. ) ;
#972 = EDGE_CURVE ( 'NONE', #345, #588, #486, .T. ) ;
#973 = CARTESIAN_POINT ( 'NONE',  ( -0.001000000000001000089, 4.999999999999999112, 57.50000000000000000 ) ) ;
#974 = VERTEX_POINT ( 'NONE', #764 ) ;
#975 = DIRECTION ( 'NONE',  ( 0.000000000000000000, 0.000000000000000000, -1.000000000000000000 ) ) ;
#976 = ORIENTED_EDGE ( 'NONE', *, *, #60, .T. ) ;
#977 = AXIS2_PLACEMENT_3D ( 'NONE', #513, #27, #89 ) ;
#978 = DIRECTION ( 'NONE',  ( 1.000000000000000000, 1.387778780781445922E-16, -0.000000000000000000 ) ) ;
#979 = EDGE_CURVE ( 'NONE', #108, #436, #48, .T. ) ;
#980 = ORIENTED_EDGE ( 'NONE', *, *, #435, .F. ) ;
#981 = CARTESIAN_POINT ( 'NONE',  ( 16.99999999999999645, 8.850000000000001421, 51.25000000000000711 ) ) ;
#982 = CARTESIAN_POINT ( 'NONE',  ( 9.000000000000003553, 9.300537618869135770, 27.74999999999999645 ) ) ;
#983 = AXIS2_PLACEMENT_3D ( 'NONE', #352, #455, #536 ) ;
#984 = LINE ( 'NONE', #14, #880 ) ;
#985 = ORIENTED_EDGE ( 'NONE', *, *, #798, .T. ) ;
#986 = ORIENTED_EDGE ( 'NONE', *, *, #777, .F. ) ;
#987 = LINE ( 'NONE', #584, #322 ) ;
#988 = DIRECTION ( 'NONE',  ( -0.000000000000000000, 1.000000000000000000, -0.000000000000000000 ) ) ;
#989 = ORIENTED_EDGE ( 'NONE', *, *, #305, .T. ) ;
#990 = UNCERTAINTY_MEASURE_WITH_UNIT (LENGTH_MEASURE( 1.000000000000000082E-05 ), #106, 'distance_accuracy_value', 'NONE');
#991 = FILL_AREA_STYLE_COLOUR ( '', #167 ) ;
#992 = ORIENTED_EDGE ( 'NONE', *, *, #495, .F. ) ;
#993 = CARTESIAN_POINT ( 'NONE',  ( 11.75000000000000000, 9.300537618869135770, 24.99999999999999645 ) ) ;
#994 = CARTESIAN_POINT ( 'NONE',  ( 16.99999999999999289, 19.65000000000000924, 52.10000000000000142 ) ) ;
#995 = EDGE_CURVE ( 'NONE', #641, #46, #212, .T. ) ;
#996 = ORIENTED_EDGE ( 'NONE', *, *, #1001, .T. ) ;
#997 = VECTOR ( 'NONE', #911, 1000.000000000000000 ) ;
#998 = VERTEX_POINT ( 'NONE', #53 ) ;
#999 = DIRECTION ( 'NONE',  ( 1.530638361156006492E-16, -1.000000000000000000, -0.000000000000000000 ) ) ;
#1000 = LINE ( 'NONE', #207, #449 ) ;
#1001 = EDGE_CURVE ( 'NONE', #188, #974, #855, .T. ) ;
#1002 = ORIENTED_EDGE ( 'NONE', *, *, #563, .T. ) ;
#1003 = VECTOR ( 'NONE', #870, 1000.000000000000000 ) ;
#1004 = ORIENTED_EDGE ( 'NONE', *, *, #142, .F. ) ;
#1005 = LINE ( 'NONE', #993, #109 ) ;
#1006 = FACE_OUTER_BOUND ( 'NONE', #242, .T. ) ;
#1007 = ORIENTED_EDGE ( 'NONE', *, *, #420, .F. ) ;
#1008 = EDGE_CURVE ( 'NONE', #878, #767, #195, .T. ) ;
#1009 = ORIENTED_EDGE ( 'NONE', *, *, #331, .T. ) ;
#1010 = LINE ( 'NONE', #123, #193 ) ;
#1011 = FACE_OUTER_BOUND ( 'NONE', #15, .T. ) ;
#1012 = DIRECTION ( 'NONE',  ( 1.530638361156006492E-16, -1.000000000000000000, -0.000000000000000000 ) ) ;
#1013 = EDGE_CURVE ( 'NONE', #641, #360, #441, .T. ) ;
#1014 = ORIENTED_EDGE ( 'NONE', *, *, #658, .F. ) ;
#1015 = LINE ( 'NONE', #361, #886 ) ;
#1016 = AXIS2_PLACEMENT_3D ( 'NONE', #659, #583, #806 ) ;
#1017 = CARTESIAN_POINT ( 'NONE',  ( 14.99999999999999822, 8.850000000000001421, 43.25000000000001421 ) ) ;
#1018 = ORIENTED_EDGE ( 'NONE', *, *, #19, .F. ) ;
#1019 = VECTOR ( 'NONE', #579, 1000.000000000000000 ) ;
#1020 = PRESENTATION_STYLE_ASSIGNMENT (( #484 ) ) ;
#1021 = CARTESIAN_POINT ( 'NONE',  ( 7.000000000000000888, -1.999999999999996669, 4.250000000000003553 ) ) ;
#1022 = FACE_OUTER_BOUND ( 'NONE', #268, .T. ) ;
#1023 = SURFACE_SIDE_STYLE ('',( #785 ) ) ;
#1024 = ADVANCED_FACE ( 'NONE', ( #355 ), #753, .F. ) ;
#1025 = LINE ( 'NONE', #307, #599 ) ;
#1026 = DIRECTION ( 'NONE',  ( 1.078295100530052735E-16, -0.7148340255851473035, -0.6992941554637310819 ) ) ;
#1027 = DIRECTION ( 'NONE',  ( 1.000000000000000000, 0.000000000000000000, 0.000000000000000000 ) ) ;
#1028 = AXIS2_PLACEMENT_3D ( 'NONE', #380, #62, #940 ) ;
#1029 = CARTESIAN_POINT ( 'NONE',  ( 7.000000000000000888, 9.300537618869135770, 24.99999999999999645 ) ) ;
#1030 = EDGE_CURVE ( 'NONE', #108, #641, #1015, .T. ) ;
#1031 = FACE_OUTER_BOUND ( 'NONE', #287, .T. ) ;
#1032 = ORIENTED_EDGE ( 'NONE', *, *, #596, .F. ) ;
#1033 = VECTOR ( 'NONE', #138, 1000.000000000000000 ) ;
#1034 = DIRECTION ( 'NONE',  ( 1.000000000000000000, 0.000000000000000000, 0.000000000000000000 ) ) ;
#1035 = CARTESIAN_POINT ( 'NONE',  ( 14.99999999999999467, 23.00000000000000355, 22.50000000000000000 ) ) ;
#1036 = CARTESIAN_POINT ( 'NONE',  ( 11.75000000000000178, 0.000000000000000000, 24.99999999999999645 ) ) ;
#1037 = VERTEX_POINT ( 'NONE', #602 ) ;
#1038 = ADVANCED_FACE ( 'NONE', ( #919, #196, #524 ), #841, .F. ) ;
#1039 = AXIS2_PLACEMENT_3D ( 'NONE', #928, #519, #836 ) ;
#1040 = EDGE_CURVE ( 'NONE', #512, #95, #469, .T. ) ;
#1041 = DIRECTION ( 'NONE',  ( 0.000000000000000000, 0.000000000000000000, -1.000000000000000000 ) ) ;
#1042 = CARTESIAN_POINT ( 'NONE',  ( 16.99999999999999645, -1.999999999999994893, 0.000000000000000000 ) ) ;
#1043 = ORIENTED_EDGE ( 'NONE', *, *, #698, .F. ) ;
ENDSEC;
END-ISO-10303-21;
