ISO-10303-21;
HEADER;
FILE_DESCRIPTION (( 'STEP AP214' ),
    '1' );
FILE_NAME ('Y Limit Switch Mount.STEP',
    '2026-04-03T20:50:49',
    ( '' ),
    ( '' ),
    'SwSTEP 2.0',
    'SolidWorks 2025',
    '' );
FILE_SCHEMA (( 'AUTOMOTIVE_DESIGN' ));
ENDSEC;

DATA;
#1 = ORIENTED_EDGE ( 'NONE', *, *, #723, .T. ) ;
#2 = ORIENTED_EDGE ( 'NONE', *, *, #811, .T. ) ;
#3 = ADVANCED_FACE ( 'NONE', ( #348 ), #1025, .T. ) ;
#4 = COLOUR_RGB ( '',0.7921568627450980005, 0.8196078431372548767, 0.9333333333333333481 ) ;
#5 = DIRECTION ( 'NONE',  ( -0.000000000000000000, 1.000000000000000000, 0.000000000000000000 ) ) ;
#6 = VECTOR ( 'NONE', #294, 1000.000000000000000 ) ;
#7 = CYLINDRICAL_SURFACE ( 'NONE', #779, 2.500000000000002220 ) ;
#8 = EDGE_LOOP ( 'NONE', ( #707, #30 ) ) ;
#9 = EDGE_LOOP ( 'NONE', ( #284, #444, #365, #235 ) ) ;
#10 = EDGE_CURVE ( 'NONE', #597, #137, #947, .T. ) ;
#11 = CARTESIAN_POINT ( 'NONE',  ( 4.000000000000000000, 3.250000000000000000, 4.749999999999999112 ) ) ;
#12 = CARTESIAN_POINT ( 'NONE',  ( 4.000000000000000000, 27.25000000000000355, -17.81185254740412915 ) ) ;
#13 = VERTEX_POINT ( 'NONE', #103 ) ;
#14 = ORIENTED_EDGE ( 'NONE', *, *, #1040, .T. ) ;
#15 = LINE ( 'NONE', #345, #656 ) ;
#16 = EDGE_CURVE ( 'NONE', #73, #423, #24, .T. ) ;
#17 = DIRECTION ( 'NONE',  ( 0.000000000000000000, 0.000000000000000000, -1.000000000000000000 ) ) ;
#18 = ORIENTED_EDGE ( 'NONE', *, *, #964, .F. ) ;
#19 = ORIENTED_EDGE ( 'NONE', *, *, #596, .F. ) ;
#20 = CARTESIAN_POINT ( 'NONE',  ( 4.000000000000000000, -14.50000000000000178, -17.81185254740412915 ) ) ;
#21 = AXIS2_PLACEMENT_3D ( 'NONE', #133, #32, #381 ) ;
#22 = CARTESIAN_POINT ( 'NONE',  ( 0.000000000000000000, 23.00000000000001421, -7.483396654233271938 ) ) ;
#23 = VECTOR ( 'NONE', #357, 1000.000000000000000 ) ;
#24 = LINE ( 'NONE', #680, #409 ) ;
#25 = ORIENTED_EDGE ( 'NONE', *, *, #1024, .F. ) ;
#26 = DIRECTION ( 'NONE',  ( 0.000000000000000000, 0.000000000000000000, 1.000000000000000000 ) ) ;
#27 = DIRECTION ( 'NONE',  ( 0.000000000000000000, 1.000000000000000000, 0.000000000000000000 ) ) ;
#28 = LINE ( 'NONE', #217, #725 ) ;
#29 = ADVANCED_FACE ( 'NONE', ( #935 ), #426, .F. ) ;
#30 = ORIENTED_EDGE ( 'NONE', *, *, #36, .F. ) ;
#31 = CARTESIAN_POINT ( 'NONE',  ( 4.000000000000000000, 0.000000000000000000, 24.75000000000000000 ) ) ;
#32 = DIRECTION ( 'NONE',  ( 1.000000000000000000, 0.000000000000000000, -0.000000000000000000 ) ) ;
#33 = DIRECTION ( 'NONE',  ( 0.000000000000000000, 0.000000000000000000, 1.000000000000000000 ) ) ;
#34 = ORIENTED_EDGE ( 'NONE', *, *, #915, .T. ) ;
#35 = DIRECTION ( 'NONE',  ( 0.000000000000000000, 1.000000000000000000, 0.000000000000000000 ) ) ;
#36 = EDGE_CURVE ( 'NONE', #919, #976, #849, .T. ) ;
#37 = FACE_OUTER_BOUND ( 'NONE', #762, .T. ) ;
#38 = VECTOR ( 'NONE', #1038, 1000.000000000000000 ) ;
#39 = VECTOR ( 'NONE', #125, 1000.000000000000000 ) ;
#40 = DIRECTION ( 'NONE',  ( 0.000000000000000000, 0.000000000000000000, 1.000000000000000000 ) ) ;
#41 = VECTOR ( 'NONE', #843, 1000.000000000000000 ) ;
#42 = AXIS2_PLACEMENT_3D ( 'NONE', #810, #480, #152 ) ;
#43 = VERTEX_POINT ( 'NONE', #602 ) ;
#44 = CYLINDRICAL_SURFACE ( 'NONE', #59, 2.500000000000009326 ) ;
#45 = EDGE_CURVE ( 'NONE', #900, #312, #318, .T. ) ;
#46 = CARTESIAN_POINT ( 'NONE',  ( 0.000000000000000000, 0.000000000000000000, 0.000000000000000000 ) ) ;
#47 = ORIENTED_EDGE ( 'NONE', *, *, #601, .T. ) ;
#48 = EDGE_LOOP ( 'NONE', ( #720, #343, #224, #880 ) ) ;
#49 = CARTESIAN_POINT ( 'NONE',  ( 4.000000000000000000, -14.49999999999999822, 2.388535419194534749E-15 ) ) ;
#50 = PRODUCT_RELATED_PRODUCT_CATEGORY ( 'part', '', ( #563 ) ) ;
#51 = ORIENTED_EDGE ( 'NONE', *, *, #632, .F. ) ;
#52 = ORIENTED_EDGE ( 'NONE', *, *, #573, .F. ) ;
#53 = DIRECTION ( 'NONE',  ( -1.000000000000000000, -0.000000000000000000, -0.000000000000000000 ) ) ;
#54 = CARTESIAN_POINT ( 'NONE',  ( 4.000000000000000000, 19.25000000000000000, 6.328421076814860889E-16 ) ) ;
#55 = AXIS2_PLACEMENT_3D ( 'NONE', #393, #730, #909 ) ;
#56 = ADVANCED_FACE ( 'NONE', ( #184 ), #94, .T. ) ;
#57 = ORIENTED_EDGE ( 'NONE', *, *, #1070, .T. ) ;
#58 = CIRCLE ( 'NONE', #673, 3.249999999999999556 ) ;
#59 = AXIS2_PLACEMENT_3D ( 'NONE', #380, #362, #26 ) ;
#60 = CYLINDRICAL_SURFACE ( 'NONE', #692, 2.500000000000001332 ) ;
#61 = DIRECTION ( 'NONE',  ( 1.000000000000000000, 0.000000000000000000, -0.000000000000000000 ) ) ;
#62 = ORIENTED_EDGE ( 'NONE', *, *, #491, .F. ) ;
#63 = EDGE_CURVE ( 'NONE', #554, #1090, #99, .T. ) ;
#64 = DIRECTION ( 'NONE',  ( 0.000000000000000000, 0.000000000000000000, 1.000000000000000000 ) ) ;
#65 = CYLINDRICAL_SURFACE ( 'NONE', #1028, 3.250000000000000000 ) ;
#66 = ORIENTED_EDGE ( 'NONE', *, *, #840, .F. ) ;
#67 = CARTESIAN_POINT ( 'NONE',  ( 4.000000000000000000, 0.000000000000000000, 24.75000000000000000 ) ) ;
#68 = DIRECTION ( 'NONE',  ( 0.000000000000000000, 0.000000000000000000, 1.000000000000000000 ) ) ;
#69 = DIRECTION ( 'NONE',  ( -1.000000000000000000, 0.000000000000000000, 0.000000000000000000 ) ) ;
#70 = VERTEX_POINT ( 'NONE', #772 ) ;
#71 = AXIS2_PLACEMENT_3D ( 'NONE', #228, #61, #77 ) ;
#72 = AXIS2_PLACEMENT_3D ( 'NONE', #476, #242, #303 ) ;
#73 = VERTEX_POINT ( 'NONE', #697 ) ;
#74 = VECTOR ( 'NONE', #742, 1000.000000000000000 ) ;
#75 = DIRECTION ( 'NONE',  ( 0.000000000000000000, 0.000000000000000000, -1.000000000000000000 ) ) ;
#76 = EDGE_CURVE ( 'NONE', #202, #370, #1020, .T. ) ;
#77 = DIRECTION ( 'NONE',  ( 0.000000000000000000, 0.000000000000000000, -1.000000000000000000 ) ) ;
#78 = EDGE_LOOP ( 'NONE', ( #609, #360, #47, #244 ) ) ;
#79 = ORIENTED_EDGE ( 'NONE', *, *, #260, .T. ) ;
#80 = CARTESIAN_POINT ( 'NONE',  ( 0.000000000000000000, -14.49999999999999822, 2.388535419194534749E-15 ) ) ;
#81 = DIRECTION ( 'NONE',  ( 1.000000000000000000, -0.000000000000000000, 0.000000000000000000 ) ) ;
#82 = ORIENTED_EDGE ( 'NONE', *, *, #717, .T. ) ;
#83 = VERTEX_POINT ( 'NONE', #846 ) ;
#84 = DIRECTION ( 'NONE',  ( 1.000000000000000000, -0.000000000000000000, 0.000000000000000000 ) ) ;
#85 = LINE ( 'NONE', #420, #709 ) ;
#86 = DIRECTION ( 'NONE',  ( 0.000000000000000000, -1.000000000000000000, 0.000000000000000000 ) ) ;
#87 = EDGE_CURVE ( 'NONE', #528, #1008, #634, .T. ) ;
#88 = ORIENTED_EDGE ( 'NONE', *, *, #435, .F. ) ;
#89 = STYLED_ITEM ( 'NONE', ( #533 ), #90 ) ;
#90 = MANIFOLD_SOLID_BREP ( 'Fillet1', #147 ) ;
#91 = VECTOR ( 'NONE', #622, 1000.000000000000000 ) ;
#92 = VECTOR ( 'NONE', #35, 1000.000000000000000 ) ;
#93 = CARTESIAN_POINT ( 'NONE',  ( 4.000000000000000000, -7.000000000000002665, -7.483396654233268386 ) ) ;
#94 = PLANE ( 'NONE',  #215 ) ;
#95 = ORIENTED_EDGE ( 'NONE', *, *, #1075, .F. ) ;
#96 = EDGE_CURVE ( 'NONE', #118, #829, #126, .T. ) ;
#97 = CARTESIAN_POINT ( 'NONE',  ( 4.000000000000000000, 16.00000000000000000, 24.75000000000000000 ) ) ;
#98 = CARTESIAN_POINT ( 'NONE',  ( 0.000000000000000000, -7.000000000000002665, 0.000000000000000000 ) ) ;
#99 = LINE ( 'NONE', #1016, #481 ) ;
#100 = VERTEX_POINT ( 'NONE', #201 ) ;
#101 = DIRECTION ( 'NONE',  ( -0.000000000000000000, 0.000000000000000000, 1.000000000000000000 ) ) ;
#102 = DIRECTION ( 'NONE',  ( 0.000000000000000000, 0.000000000000000000, -1.000000000000000000 ) ) ;
#103 = CARTESIAN_POINT ( 'NONE',  ( 4.000000000000000000, -7.000000000000002665, -12.48339665423326572 ) ) ;
#104 = ORIENTED_EDGE ( 'NONE', *, *, #711, .T. ) ;
#105 = DIRECTION ( 'NONE',  ( -1.000000000000000000, -0.000000000000000000, -0.000000000000000000 ) ) ;
#106 = AXIS2_PLACEMENT_3D ( 'NONE', #467, #963, #199 ) ;
#107 = CYLINDRICAL_SURFACE ( 'NONE', #411, 3.249999999999999556 ) ;
#108 = EDGE_CURVE ( 'NONE', #137, #417, #1066, .T. ) ;
#109 = AXIS2_PLACEMENT_3D ( 'NONE', #470, #569, #397 ) ;
#110 = FACE_BOUND ( 'NONE', #914, .T. ) ;
#111 = ORIENTED_EDGE ( 'NONE', *, *, #87, .F. ) ;
#112 = DIRECTION ( 'NONE',  ( 0.000000000000000000, 0.000000000000000000, -1.000000000000000000 ) ) ;
#113 = ORIENTED_EDGE ( 'NONE', *, *, #811, .F. ) ;
#114 = DIRECTION ( 'NONE',  ( 0.000000000000000000, 0.000000000000000000, -1.000000000000000000 ) ) ;
#115 = CYLINDRICAL_SURFACE ( 'NONE', #867, 2.500000000000009326 ) ;
#116 = ORIENTED_EDGE ( 'NONE', *, *, #287, .T. ) ;
#117 = CARTESIAN_POINT ( 'NONE',  ( 4.000000000000000000, 30.50000000000000355, -17.81185254740412915 ) ) ;
#118 = VERTEX_POINT ( 'NONE', #387 ) ;
#119 = FACE_BOUND ( 'NONE', #685, .T. ) ;
#120 = CARTESIAN_POINT ( 'NONE',  ( 4.000000000000000000, -1.999999999999999556, -7.483396654233268386 ) ) ;
#121 = ORIENTED_EDGE ( 'NONE', *, *, #723, .F. ) ;
#122 = EDGE_CURVE ( 'NONE', #597, #985, #28, .T. ) ;
#123 = CARTESIAN_POINT ( 'NONE',  ( 0.000000000000000000, 0.000000000000000000, -21.06185254740412915 ) ) ;
#124 = ORIENTED_EDGE ( 'NONE', *, *, #407, .T. ) ;
#125 = DIRECTION ( 'NONE',  ( 0.000000000000000000, 1.647265806341058617E-16, -1.000000000000000000 ) ) ;
#126 = CIRCLE ( 'NONE', #850, 2.500000000000009326 ) ;
#127 = DIRECTION ( 'NONE',  ( -1.000000000000000000, -0.000000000000000000, -0.000000000000000000 ) ) ;
#128 = VECTOR ( 'NONE', #105, 1000.000000000000000 ) ;
#129 = ORIENTED_EDGE ( 'NONE', *, *, #845, .T. ) ;
#130 = ADVANCED_FACE ( 'NONE', ( #1060 ), #556, .F. ) ;
#131 =( NAMED_UNIT ( * ) PLANE_ANGLE_UNIT ( ) SI_UNIT ( $, .RADIAN. ) );
#132 = EDGE_LOOP ( 'NONE', ( #258, #163, #960, #669 ) ) ;
#133 = CARTESIAN_POINT ( 'NONE',  ( 4.000000000000000000, -3.250000000000000000, 3.250000000000000444 ) ) ;
#134 = FACE_OUTER_BOUND ( 'NONE', #802, .T. ) ;
#135 = ORIENTED_EDGE ( 'NONE', *, *, #497, .F. ) ;
#136 = APPLICATION_PROTOCOL_DEFINITION ( 'draft international standard', 'automotive_design', 1998, #898 ) ;
#137 = VERTEX_POINT ( 'NONE', #300 ) ;
#138 = DIRECTION ( 'NONE',  ( -1.000000000000000000, -0.000000000000000000, -0.000000000000000000 ) ) ;
#139 = EDGE_CURVE ( 'NONE', #1090, #559, #1065, .T. ) ;
#140 = DIRECTION ( 'NONE',  ( -1.000000000000000000, 0.000000000000000000, -0.000000000000000000 ) ) ;
#141 = EDGE_LOOP ( 'NONE', ( #639, #173, #301, #292 ) ) ;
#142 = APPLICATION_PROTOCOL_DEFINITION ( 'draft international standard', 'automotive_design', 1998, #918 ) ;
#143 = ORIENTED_EDGE ( 'NONE', *, *, #1070, .F. ) ;
#144 = DIRECTION ( 'NONE',  ( 0.000000000000000000, 0.000000000000000000, 1.000000000000000000 ) ) ;
#145 = EDGE_CURVE ( 'NONE', #207, #597, #830, .T. ) ;
#146 = CARTESIAN_POINT ( 'NONE',  ( 4.000000000000000000, 17.99999999999999645, -12.48339665423326217 ) ) ;
#147 = CLOSED_SHELL ( 'NONE', ( #130, #648, #325, #627, #372, #859, #233, #954, #813, #158, #56, #990, #254, #517, #3, #1093, #765, #663, #1032, #744, #698, #943, #211, #545, #566, #29, #295, #386, #825, #246, #551, #266 ) ) ;
#148 = ORIENTED_EDGE ( 'NONE', *, *, #10, .T. ) ;
#149 = AXIS2_PLACEMENT_3D ( 'NONE', #767, #170, #688 ) ;
#150 =( GEOMETRIC_REPRESENTATION_CONTEXT ( 3 ) GLOBAL_UNCERTAINTY_ASSIGNED_CONTEXT ( ( #530 ) ) GLOBAL_UNIT_ASSIGNED_CONTEXT ( ( #994, #131, #230 ) ) REPRESENTATION_CONTEXT ( 'NONE', 'WORKASPACE' ) );
#151 = DIRECTION ( 'NONE',  ( 0.000000000000000000, 0.000000000000000000, 1.000000000000000000 ) ) ;
#152 = DIRECTION ( 'NONE',  ( 0.000000000000000000, 0.000000000000000000, -1.000000000000000000 ) ) ;
#153 = FACE_OUTER_BOUND ( 'NONE', #644, .T. ) ;
#154 = ORIENTED_EDGE ( 'NONE', *, *, #643, .T. ) ;
#155 = CARTESIAN_POINT ( 'NONE',  ( 4.000000000000000000, 3.250000000000000000, 28.00000000000000000 ) ) ;
#156 = CARTESIAN_POINT ( 'NONE',  ( 4.000000000000000000, -4.500000000000003553, -4.983396654233268386 ) ) ;
#157 = ORIENTED_EDGE ( 'NONE', *, *, #677, .T. ) ;
#158 = ADVANCED_FACE ( 'NONE', ( #134 ), #115, .F. ) ;
#159 = DIRECTION ( 'NONE',  ( 0.000000000000000000, 0.000000000000000000, -1.000000000000000000 ) ) ;
#160 = CYLINDRICAL_SURFACE ( 'NONE', #179, 3.249999999999999556 ) ;
#161 = ORIENTED_EDGE ( 'NONE', *, *, #16, .T. ) ;
#162 = VECTOR ( 'NONE', #555, 1000.000000000000000 ) ;
#163 = ORIENTED_EDGE ( 'NONE', *, *, #441, .T. ) ;
#164 = VECTOR ( 'NONE', #590, 1000.000000000000000 ) ;
#165 = CARTESIAN_POINT ( 'NONE',  ( 0.000000000000000000, 20.49999999999999645, -12.48339665423326394 ) ) ;
#166 = CARTESIAN_POINT ( 'NONE',  ( 4.000000000000000000, 3.250000000000000000, 1.750000000000000666 ) ) ;
#167 = ORIENTED_EDGE ( 'NONE', *, *, #910, .T. ) ;
#168 = ORIENTED_EDGE ( 'NONE', *, *, #798, .F. ) ;
#169 = DIRECTION ( 'NONE',  ( 0.000000000000000000, -0.000000000000000000, 1.000000000000000000 ) ) ;
#170 = DIRECTION ( 'NONE',  ( 1.000000000000000000, -0.000000000000000000, 0.000000000000000000 ) ) ;
#171 = EDGE_CURVE ( 'NONE', #633, #297, #382, .T. ) ;
#172 = CARTESIAN_POINT ( 'NONE',  ( 4.000000000000000000, 30.50000000000000000, -3.249999999999999112 ) ) ;
#173 = ORIENTED_EDGE ( 'NONE', *, *, #171, .F. ) ;
#174 = CARTESIAN_POINT ( 'NONE',  ( 0.000000000000000000, -0.000000000000000000, 28.00000000000000000 ) ) ;
#175 = DIRECTION ( 'NONE',  ( -1.000000000000000000, -0.000000000000000000, -0.000000000000000000 ) ) ;
#176 = EDGE_CURVE ( 'NONE', #43, #13, #378, .T. ) ;
#177 = SURFACE_STYLE_USAGE ( .BOTH. , #592 ) ;
#178 = VERTEX_POINT ( 'NONE', #193 ) ;
#179 = AXIS2_PLACEMENT_3D ( 'NONE', #319, #311, #650 ) ;
#180 = VECTOR ( 'NONE', #175, 1000.000000000000000 ) ;
#181 = PLANE ( 'NONE',  #253 ) ;
#182 = VECTOR ( 'NONE', #101, 1000.000000000000000 ) ;
#183 = DIRECTION ( 'NONE',  ( -1.000000000000000000, -0.000000000000000000, -0.000000000000000000 ) ) ;
#184 = FACE_OUTER_BOUND ( 'NONE', #48, .T. ) ;
#185 = ORIENTED_EDGE ( 'NONE', *, *, #352, .T. ) ;
#186 = DIRECTION ( 'NONE',  ( 1.000000000000000000, -0.000000000000000000, 0.000000000000000000 ) ) ;
#187 = DIRECTION ( 'NONE',  ( -1.000000000000000000, -0.000000000000000000, -0.000000000000000000 ) ) ;
#188 = DIRECTION ( 'NONE',  ( -1.000000000000000000, 0.000000000000000000, 0.000000000000000000 ) ) ;
#189 = ORIENTED_EDGE ( 'NONE', *, *, #840, .T. ) ;
#190 = EDGE_CURVE ( 'NONE', #202, #618, #965, .T. ) ;
#191 = LINE ( 'NONE', #529, #128 ) ;
#192 = CARTESIAN_POINT ( 'NONE',  ( 4.000000000000000000, 17.99999999999999645, 0.000000000000000000 ) ) ;
#193 = CARTESIAN_POINT ( 'NONE',  ( 4.000000000000000000, -14.49999999999999822, -3.249999999999999112 ) ) ;
#194 = ORIENTED_EDGE ( 'NONE', *, *, #122, .T. ) ;
#195 = DIRECTION ( 'NONE',  ( 1.000000000000000000, -0.000000000000000000, 0.000000000000000000 ) ) ;
#196 = VECTOR ( 'NONE', #1055, 1000.000000000000000 ) ;
#197 = CIRCLE ( 'NONE', #106, 3.249999999999999556 ) ;
#198 = VERTEX_POINT ( 'NONE', #549 ) ;
#199 = DIRECTION ( 'NONE',  ( 0.000000000000000000, 0.000000000000000000, -1.000000000000000000 ) ) ;
#200 = CIRCLE ( 'NONE', #1069, 3.249999999999999556 ) ;
#201 = CARTESIAN_POINT ( 'NONE',  ( 4.000000000000000000, 23.00000000000001421, -7.483396654233271938 ) ) ;
#202 = VERTEX_POINT ( 'NONE', #120 ) ;
#203 = LINE ( 'NONE', #967, #502 ) ;
#204 = PLANE ( 'NONE',  #743 ) ;
#205 = EDGE_CURVE ( 'NONE', #333, #681, #1011, .T. ) ;
#206 = DIRECTION ( 'NONE',  ( 0.000000000000000000, 0.000000000000000000, -1.000000000000000000 ) ) ;
#207 = VERTEX_POINT ( 'NONE', #210 ) ;
#208 = CARTESIAN_POINT ( 'NONE',  ( 4.000000000000000000, 3.250000000000000000, 1.750000000000000666 ) ) ;
#209 = DIRECTION ( 'NONE',  ( 0.000000000000000000, 0.000000000000000000, -1.000000000000000000 ) ) ;
#210 = CARTESIAN_POINT ( 'NONE',  ( 0.000000000000000000, 27.25000000000000000, 6.328421076814860889E-16 ) ) ;
#211 = ADVANCED_FACE ( 'NONE', ( #878, #110, #883, #1043, #283 ), #617, .T. ) ;
#212 = ORIENTED_EDGE ( 'NONE', *, *, #873, .F. ) ;
#213 = ORIENTED_EDGE ( 'NONE', *, *, #16, .F. ) ;
#214 = CARTESIAN_POINT ( 'NONE',  ( 4.000000000000000000, 3.250000000000000000, 24.75000000000000000 ) ) ;
#215 = AXIS2_PLACEMENT_3D ( 'NONE', #443, #86, #522 ) ;
#216 = AXIS2_PLACEMENT_3D ( 'NONE', #579, #498, #989 ) ;
#217 = CARTESIAN_POINT ( 'NONE',  ( 0.000000000000000000, 30.50000000000000000, 5.024160709340228931E-15 ) ) ;
#218 = CIRCLE ( 'NONE', #290, 2.500000000000009326 ) ;
#219 = ORIENTED_EDGE ( 'NONE', *, *, #1004, .T. ) ;
#220 = DIRECTION ( 'NONE',  ( -0.000000000000000000, 0.000000000000000000, 1.000000000000000000 ) ) ;
#221 = EDGE_LOOP ( 'NONE', ( #458, #124 ) ) ;
#222 = CARTESIAN_POINT ( 'NONE',  ( 0.000000000000000000, 0.000000000000000000, 3.250000000000000444 ) ) ;
#223 = CARTESIAN_POINT ( 'NONE',  ( 4.000000000000000000, 0.000000000000000000, 3.250000000000000444 ) ) ;
#224 = ORIENTED_EDGE ( 'NONE', *, *, #998, .F. ) ;
#225 = EDGE_CURVE ( 'NONE', #100, #681, #1077, .T. ) ;
#226 = ORIENTED_EDGE ( 'NONE', *, *, #1010, .F. ) ;
#227 = FACE_OUTER_BOUND ( 'NONE', #479, .T. ) ;
#228 = CARTESIAN_POINT ( 'NONE',  ( 4.000000000000000000, 12.75000000000000178, 24.75000000000000000 ) ) ;
#229 = ORIENTED_EDGE ( 'NONE', *, *, #87, .T. ) ;
#230 =( NAMED_UNIT ( * ) SI_UNIT ( $, .STERADIAN. ) SOLID_ANGLE_UNIT ( ) );
#231 = CARTESIAN_POINT ( 'NONE',  ( 0.000000000000000000, -11.25000000000000000, -3.249999999999999556 ) ) ;
#232 = DIRECTION ( 'NONE',  ( 0.000000000000000000, 1.000000000000000000, 0.000000000000000000 ) ) ;
#233 = ADVANCED_FACE ( 'NONE', ( #314 ), #477, .F. ) ;
#234 = AXIS2_PLACEMENT_3D ( 'NONE', #874, #456, #206 ) ;
#235 = ORIENTED_EDGE ( 'NONE', *, *, #978, .F. ) ;
#236 = AXIS2_PLACEMENT_3D ( 'NONE', #1042, #616, #114 ) ;
#237 = VECTOR ( 'NONE', #138, 1000.000000000000000 ) ;
#238 = LINE ( 'NONE', #729, #1085 ) ;
#239 = DIRECTION ( 'NONE',  ( 0.000000000000000000, 0.000000000000000000, -1.000000000000000000 ) ) ;
#240 = EDGE_CURVE ( 'NONE', #276, #73, #815, .T. ) ;
#241 = ORIENTED_EDGE ( 'NONE', *, *, #96, .T. ) ;
#242 = DIRECTION ( 'NONE',  ( -1.000000000000000000, -0.000000000000000000, -0.000000000000000000 ) ) ;
#243 = CARTESIAN_POINT ( 'NONE',  ( 4.000000000000000000, 23.00000000000001421, 0.000000000000000000 ) ) ;
#244 = ORIENTED_EDGE ( 'NONE', *, *, #451, .T. ) ;
#245 = ORIENTED_EDGE ( 'NONE', *, *, #465, .F. ) ;
#246 = ADVANCED_FACE ( 'NONE', ( #1092 ), #160, .T. ) ;
#247 = LINE ( 'NONE', #11, #164 ) ;
#248 = DIRECTION ( 'NONE',  ( 1.000000000000000000, -0.000000000000000000, -0.000000000000000000 ) ) ;
#249 = ORIENTED_EDGE ( 'NONE', *, *, #190, .T. ) ;
#250 = VECTOR ( 'NONE', #623, 1000.000000000000000 ) ;
#251 = AXIS2_PLACEMENT_3D ( 'NONE', #701, #950, #299 ) ;
#252 = ORIENTED_EDGE ( 'NONE', *, *, #677, .F. ) ;
#253 = AXIS2_PLACEMENT_3D ( 'NONE', #928, #5, #169 ) ;
#254 = ADVANCED_FACE ( 'NONE', ( #499 ), #580, .F. ) ;
#255 = LINE ( 'NONE', #509, #41 ) ;
#256 = DIRECTION ( 'NONE',  ( 1.000000000000000000, -0.000000000000000000, 0.000000000000000000 ) ) ;
#257 = DIRECTION ( 'NONE',  ( 1.000000000000000000, -0.000000000000000000, 0.000000000000000000 ) ) ;
#258 = ORIENTED_EDGE ( 'NONE', *, *, #339, .F. ) ;
#259 = DIRECTION ( 'NONE',  ( 0.000000000000000000, -1.000000000000000000, 0.000000000000000000 ) ) ;
#260 = EDGE_CURVE ( 'NONE', #966, #985, #1082, .T. ) ;
#261 = LINE ( 'NONE', #166, #180 ) ;
#262 = CARTESIAN_POINT ( 'NONE',  ( 0.000000000000000000, -4.500000000000002665, -12.48339665423326572 ) ) ;
#263 = VERTEX_POINT ( 'NONE', #835 ) ;
#264 = DIRECTION ( 'NONE',  ( 0.000000000000000000, 0.000000000000000000, -1.000000000000000000 ) ) ;
#265 = CARTESIAN_POINT ( 'NONE',  ( 4.000000000000000000, 17.99999999999999645, -12.48339665423326217 ) ) ;
#266 = ADVANCED_FACE ( 'NONE', ( #750 ), #991, .T. ) ;
#267 = DIRECTION ( 'NONE',  ( -0.000000000000000000, 1.000000000000000000, 1.647265806341058617E-16 ) ) ;
#268 = ORIENTED_EDGE ( 'NONE', *, *, #225, .T. ) ;
#269 = PRESENTATION_LAYER_ASSIGNMENT (  '', '', ( #89 ) ) ;
#270 = CIRCLE ( 'NONE', #337, 3.250000000000000000 ) ;
#271 = CARTESIAN_POINT ( 'NONE',  ( 4.000000000000000000, 12.75000000000000178, 24.75000000000000000 ) ) ;
#272 = VECTOR ( 'NONE', #424, 1000.000000000000000 ) ;
#273 = DIRECTION ( 'NONE',  ( 0.000000000000000000, 0.000000000000000000, -1.000000000000000000 ) ) ;
#274 = CARTESIAN_POINT ( 'NONE',  ( 4.000000000000000000, 3.250000000000000000, 3.250000000000000000 ) ) ;
#275 = EDGE_CURVE ( 'NONE', #1067, #1036, #355, .T. ) ;
#276 = VERTEX_POINT ( 'NONE', #54 ) ;
#277 = LINE ( 'NONE', #881, #182 ) ;
#278 = PLANE ( 'NONE',  #636 ) ;
#279 = DIRECTION ( 'NONE',  ( 0.000000000000000000, 0.000000000000000000, -1.000000000000000000 ) ) ;
#280 = ORIENTED_EDGE ( 'NONE', *, *, #45, .F. ) ;
#281 = DIRECTION ( 'NONE',  ( 0.000000000000000000, -0.000000000000000000, 1.000000000000000000 ) ) ;
#282 = DIRECTION ( 'NONE',  ( -1.000000000000000000, 0.000000000000000000, -0.000000000000000000 ) ) ;
#283 = FACE_BOUND ( 'NONE', #724, .T. ) ;
#284 = ORIENTED_EDGE ( 'NONE', *, *, #396, .F. ) ;
#285 = FACE_OUTER_BOUND ( 'NONE', #887, .T. ) ;
#286 = AXIS2_PLACEMENT_3D ( 'NONE', #296, #127, #33 ) ;
#287 = EDGE_CURVE ( 'NONE', #276, #417, #746, .T. ) ;
#288 = VECTOR ( 'NONE', #1097, 1000.000000000000000 ) ;
#289 = FACE_BOUND ( 'NONE', #503, .T. ) ;
#290 = AXIS2_PLACEMENT_3D ( 'NONE', #165, #753, #504 ) ;
#291 =( NAMED_UNIT ( * ) SI_UNIT ( $, .STERADIAN. ) SOLID_ANGLE_UNIT ( ) );
#292 = ORIENTED_EDGE ( 'NONE', *, *, #139, .F. ) ;
#293 = CARTESIAN_POINT ( 'NONE',  ( 4.000000000000000000, 12.75000000000000178, 24.75000000000000000 ) ) ;
#294 = DIRECTION ( 'NONE',  ( -1.000000000000000000, -0.000000000000000000, -0.000000000000000000 ) ) ;
#295 = ADVANCED_FACE ( 'NONE', ( #153 ), #65, .T. ) ;
#296 = CARTESIAN_POINT ( 'NONE',  ( 4.000000000000000000, 3.250000000000000000, 3.250000000000000000 ) ) ;
#297 = VERTEX_POINT ( 'NONE', #223 ) ;
#298 = LINE ( 'NONE', #629, #924 ) ;
#299 = DIRECTION ( 'NONE',  ( 0.000000000000000000, 0.000000000000000000, -1.000000000000000000 ) ) ;
#300 = CARTESIAN_POINT ( 'NONE',  ( 4.000000000000000000, 30.50000000000000000, -3.249999999999999112 ) ) ;
#301 = ORIENTED_EDGE ( 'NONE', *, *, #366, .F. ) ;
#302 = ORIENTED_EDGE ( 'NONE', *, *, #451, .F. ) ;
#303 = DIRECTION ( 'NONE',  ( 0.000000000000000000, 0.000000000000000000, 1.000000000000000000 ) ) ;
#304 = CIRCLE ( 'NONE', #374, 1.499999999999999112 ) ;
#305 = DIRECTION ( 'NONE',  ( 0.000000000000000000, 0.000000000000000000, -1.000000000000000000 ) ) ;
#306 = AXIS2_PLACEMENT_3D ( 'NONE', #293, #195, #112 ) ;
#307 = ORIENTED_EDGE ( 'NONE', *, *, #176, .F. ) ;
#308 = EDGE_CURVE ( 'NONE', #389, #932, #561, .T. ) ;
#309 = ORIENTED_EDGE ( 'NONE', *, *, #176, .T. ) ;
#310 = CARTESIAN_POINT ( 'NONE',  ( 4.000000000000000000, -4.500000000000003553, -7.483396654233270162 ) ) ;
#311 = DIRECTION ( 'NONE',  ( 1.000000000000000000, -0.000000000000000000, 0.000000000000000000 ) ) ;
#312 = VERTEX_POINT ( 'NONE', #896 ) ;
#313 = LINE ( 'NONE', #49, #74 ) ;
#314 = FACE_OUTER_BOUND ( 'NONE', #132, .T. ) ;
#315 = ORIENTED_EDGE ( 'NONE', *, *, #240, .T. ) ;
#316 = DIRECTION ( 'NONE',  ( 0.000000000000000000, 0.000000000000000000, -1.000000000000000000 ) ) ;
#317 = EDGE_CURVE ( 'NONE', #13, #370, #689, .T. ) ;
#318 = CIRCLE ( 'NONE', #777, 1.500000000000001332 ) ;
#319 = CARTESIAN_POINT ( 'NONE',  ( 4.000000000000000000, -11.25000000000000000, -3.249999999999999556 ) ) ;
#320 = VECTOR ( 'NONE', #248, 1000.000000000000000 ) ;
#321 = ORIENTED_EDGE ( 'NONE', *, *, #366, .T. ) ;
#322 = VECTOR ( 'NONE', #855, 1000.000000000000000 ) ;
#323 = AXIS2_PLACEMENT_3D ( 'NONE', #660, #151, #486 ) ;
#324 = CARTESIAN_POINT ( 'NONE',  ( 4.000000000000000000, 23.00000000000001421, -12.48339665423326217 ) ) ;
#325 = ADVANCED_FACE ( 'NONE', ( #1088 ), #326, .F. ) ;
#326 = CYLINDRICAL_SURFACE ( 'NONE', #868, 2.500000000000009326 ) ;
#327 = ORIENTED_EDGE ( 'NONE', *, *, #596, .T. ) ;
#328 = ORIENTED_EDGE ( 'NONE', *, *, #893, .T. ) ;
#329 = DIRECTION ( 'NONE',  ( 1.000000000000000000, -0.000000000000000000, 0.000000000000000000 ) ) ;
#330 = CARTESIAN_POINT ( 'NONE',  ( 4.000000000000000000, 27.25000000000000000, -3.249999999999999556 ) ) ;
#331 = ORIENTED_EDGE ( 'NONE', *, *, #287, .F. ) ;
#332 = EDGE_CURVE ( 'NONE', #100, #83, #939, .T. ) ;
#333 = VERTEX_POINT ( 'NONE', #146 ) ;
#334 = LINE ( 'NONE', #1012, #979 ) ;
#335 = CARTESIAN_POINT ( 'NONE',  ( 4.000000000000000000, 17.99999999999999645, -7.483396654233271938 ) ) ;
#336 = FILL_AREA_STYLE ('',( #755 ) ) ;
#337 = AXIS2_PLACEMENT_3D ( 'NONE', #1015, #754, #17 ) ;
#338 = ORIENTED_EDGE ( 'NONE', *, *, #791, .F. ) ;
#339 = EDGE_CURVE ( 'NONE', #903, #1074, #577, .T. ) ;
#340 = VECTOR ( 'NONE', #892, 1000.000000000000000 ) ;
#341 = DIRECTION ( 'NONE',  ( -1.000000000000000000, 0.000000000000000000, 0.000000000000000000 ) ) ;
#342 = DIRECTION ( 'NONE',  ( 0.000000000000000000, 0.000000000000000000, -1.000000000000000000 ) ) ;
#343 = ORIENTED_EDGE ( 'NONE', *, *, #1010, .T. ) ;
#344 = ORIENTED_EDGE ( 'NONE', *, *, #798, .T. ) ;
#345 = CARTESIAN_POINT ( 'NONE',  ( 0.000000000000000000, 17.99999999999999645, 0.000000000000000000 ) ) ;
#346 = EDGE_CURVE ( 'NONE', #651, #276, #902, .T. ) ;
#347 = CARTESIAN_POINT ( 'NONE',  ( 4.000000000000000000, -11.25000000000000000, -3.249999999999999556 ) ) ;
#348 = FACE_OUTER_BOUND ( 'NONE', #699, .T. ) ;
#349 = ORIENTED_EDGE ( 'NONE', *, *, #308, .F. ) ;
#350 = LINE ( 'NONE', #1006, #996 ) ;
#351 = CARTESIAN_POINT ( 'NONE',  ( 0.000000000000000000, 12.75000000000000178, 24.75000000000000000 ) ) ;
#352 = EDGE_CURVE ( 'NONE', #764, #575, #977, .T. ) ;
#353 = CARTESIAN_POINT ( 'NONE',  ( 4.000000000000000000, 19.25000000000000000, 3.250000000000000444 ) ) ;
#354 = ORIENTED_EDGE ( 'NONE', *, *, #240, .F. ) ;
#355 = CIRCLE ( 'NONE', #975, 1.499999999999999112 ) ;
#356 = CIRCLE ( 'NONE', #834, 3.249999999999999556 ) ;
#357 = DIRECTION ( 'NONE',  ( -1.000000000000000000, -0.000000000000000000, -0.000000000000000000 ) ) ;
#358 = CIRCLE ( 'NONE', #538, 1.500000000000001332 ) ;
#359 = LINE ( 'NONE', #626, #797 ) ;
#360 = ORIENTED_EDGE ( 'NONE', *, *, #915, .F. ) ;
#361 = VERTEX_POINT ( 'NONE', #22 ) ;
#362 = DIRECTION ( 'NONE',  ( -1.000000000000000000, -0.000000000000000000, -0.000000000000000000 ) ) ;
#363 = FACE_OUTER_BOUND ( 'NONE', #141, .T. ) ;
#364 = CARTESIAN_POINT ( 'NONE',  ( 4.000000000000000000, -1.999999999999999556, -7.483396654233268386 ) ) ;
#365 = ORIENTED_EDGE ( 'NONE', *, *, #683, .F. ) ;
#366 = EDGE_CURVE ( 'NONE', #559, #633, #270, .T. ) ;
#367 = CARTESIAN_POINT ( 'NONE',  ( 0.000000000000000000, 3.250000000000000000, 4.749999999999999112 ) ) ;
#368 = LINE ( 'NONE', #548, #6 ) ;
#369 = DIRECTION ( 'NONE',  ( 0.000000000000000000, 0.000000000000000000, -1.000000000000000000 ) ) ;
#370 = VERTEX_POINT ( 'NONE', #771 ) ;
#371 = AXIS2_PLACEMENT_3D ( 'NONE', #274, #778, #433 ) ;
#372 = ADVANCED_FACE ( 'NONE', ( #591 ), #7, .F. ) ;
#373 = CARTESIAN_POINT ( 'NONE',  ( 0.000000000000000000, -1.999999999999999556, -12.48339665423326572 ) ) ;
#374 = AXIS2_PLACEMENT_3D ( 'NONE', #940, #81, #514 ) ;
#375 = VECTOR ( 'NONE', #567, 1000.000000000000000 ) ;
#376 = DIRECTION ( 'NONE',  ( 1.000000000000000000, -0.000000000000000000, 0.000000000000000000 ) ) ;
#377 = AXIS2_PLACEMENT_3D ( 'NONE', #945, #329, #832 ) ;
#378 = LINE ( 'NONE', #957, #250 ) ;
#379 = ORIENTED_EDGE ( 'NONE', *, *, #96, .F. ) ;
#380 = CARTESIAN_POINT ( 'NONE',  ( 4.000000000000000000, 20.49999999999999645, -12.48339665423326394 ) ) ;
#381 = DIRECTION ( 'NONE',  ( 0.000000000000000000, 0.000000000000000000, -1.000000000000000000 ) ) ;
#382 = LINE ( 'NONE', #641, #196 ) ;
#383 = ORIENTED_EDGE ( 'NONE', *, *, #308, .T. ) ;
#384 = ORIENTED_EDGE ( 'NONE', *, *, #929, .T. ) ;
#385 = CARTESIAN_POINT ( 'NONE',  ( 4.000000000000000000, 27.25000000000000355, -21.06185254740412915 ) ) ;
#386 = ADVANCED_FACE ( 'NONE', ( #946 ), #934, .T. ) ;
#387 = CARTESIAN_POINT ( 'NONE',  ( 0.000000000000000000, 20.49999999999999645, -4.983396654233258616 ) ) ;
#388 = ORIENTED_EDGE ( 'NONE', *, *, #683, .T. ) ;
#389 = VERTEX_POINT ( 'NONE', #667 ) ;
#390 = CARTESIAN_POINT ( 'NONE',  ( 0.000000000000000000, -11.25000000000000000, 6.328421076814860889E-16 ) ) ;
#391 = VECTOR ( 'NONE', #702, 1000.000000000000000 ) ;
#392 = VECTOR ( 'NONE', #102, 1000.000000000000000 ) ;
#393 = CARTESIAN_POINT ( 'NONE',  ( 4.000000000000000000, -4.500000000000002665, -12.48339665423326572 ) ) ;
#394 = CIRCLE ( 'NONE', #42, 3.249999999999999556 ) ;
#395 = ORIENTED_EDGE ( 'NONE', *, *, #524, .T. ) ;
#396 = EDGE_CURVE ( 'NONE', #554, #178, #500, .T. ) ;
#397 = DIRECTION ( 'NONE',  ( 0.000000000000000000, 0.000000000000000000, -1.000000000000000000 ) ) ;
#398 = LINE ( 'NONE', #997, #466 ) ;
#399 = DIRECTION ( 'NONE',  ( 1.000000000000000000, -0.000000000000000000, -0.000000000000000000 ) ) ;
#400 = VERTEX_POINT ( 'NONE', #679 ) ;
#401 = EDGE_CURVE ( 'NONE', #361, #198, #1007, .T. ) ;
#402 = DIRECTION ( 'NONE',  ( 0.000000000000000000, 0.000000000000000000, -1.000000000000000000 ) ) ;
#403 = CARTESIAN_POINT ( 'NONE',  ( 4.000000000000000000, 27.25000000000000355, -21.06185254740412915 ) ) ;
#404 = DIRECTION ( 'NONE',  ( 0.000000000000000000, 0.000000000000000000, -1.000000000000000000 ) ) ;
#405 = ORIENTED_EDGE ( 'NONE', *, *, #352, .F. ) ;
#406 = FACE_OUTER_BOUND ( 'NONE', #508, .T. ) ;
#407 = EDGE_CURVE ( 'NONE', #312, #900, #516, .T. ) ;
#408 = CARTESIAN_POINT ( 'NONE',  ( 4.000000000000000000, 12.75000000000000178, 23.25000000000000000 ) ) ;
#409 = VECTOR ( 'NONE', #857, 1000.000000000000000 ) ;
#410 = CARTESIAN_POINT ( 'NONE',  ( 0.000000000000000000, 3.250000000000000000, 3.250000000000000000 ) ) ;
#411 = AXIS2_PLACEMENT_3D ( 'NONE', #214, #888, #968 ) ;
#412 = ORIENTED_EDGE ( 'NONE', *, *, #317, .T. ) ;
#413 = VECTOR ( 'NONE', #570, 1000.000000000000000 ) ;
#414 = ORIENTED_EDGE ( 'NONE', *, *, #496, .F. ) ;
#415 = CARTESIAN_POINT ( 'NONE',  ( 0.000000000000000000, -14.49999999999999822, -3.249999999999999112 ) ) ;
#416 = DIRECTION ( 'NONE',  ( 0.000000000000000000, 0.000000000000000000, -1.000000000000000000 ) ) ;
#417 = VERTEX_POINT ( 'NONE', #861 ) ;
#418 = ORIENTED_EDGE ( 'NONE', *, *, #190, .F. ) ;
#419 = CARTESIAN_POINT ( 'NONE',  ( 4.000000000000000000, -4.500000000000003553, -4.983396654233268386 ) ) ;
#420 = CARTESIAN_POINT ( 'NONE',  ( 4.000000000000000000, 16.00000000000000000, 0.000000000000000000 ) ) ;
#421 = EDGE_CURVE ( 'NONE', #1089, #528, #684, .T. ) ;
#422 = DIRECTION ( 'NONE',  ( 0.000000000000000000, 0.000000000000000000, 1.000000000000000000 ) ) ;
#423 = VERTEX_POINT ( 'NONE', #442 ) ;
#424 = DIRECTION ( 'NONE',  ( 0.000000000000000000, 1.000000000000000000, 0.000000000000000000 ) ) ;
#425 = CARTESIAN_POINT ( 'NONE',  ( 4.000000000000000000, 16.00000000000000000, 24.75000000000000000 ) ) ;
#426 = CYLINDRICAL_SURFACE ( 'NONE', #708, 3.250000000000000444 ) ;
#427 = AXIS2_PLACEMENT_3D ( 'NONE', #461, #974, #369 ) ;
#428 = CIRCLE ( 'NONE', #251, 3.249999999999999556 ) ;
#429 = ORIENTED_EDGE ( 'NONE', *, *, #732, .T. ) ;
#430 = AXIS2_PLACEMENT_3D ( 'NONE', #922, #520, #666 ) ;
#431 = CYLINDRICAL_SURFACE ( 'NONE', #727, 3.249999999999999556 ) ;
#432 = CARTESIAN_POINT ( 'NONE',  ( 0.000000000000000000, 0.000000000000000000, 24.75000000000000000 ) ) ;
#433 = DIRECTION ( 'NONE',  ( 0.000000000000000000, 0.000000000000000000, -1.000000000000000000 ) ) ;
#434 = ORIENTED_EDGE ( 'NONE', *, *, #63, .T. ) ;
#435 = EDGE_CURVE ( 'NONE', #400, #647, #930, .T. ) ;
#436 = CARTESIAN_POINT ( 'NONE',  ( 0.000000000000000000, 17.99999999999999645, -7.483396654233271938 ) ) ;
#437 = DIRECTION ( 'NONE',  ( 0.000000000000000000, 0.000000000000000000, -1.000000000000000000 ) ) ;
#438 = DIRECTION ( 'NONE',  ( 0.000000000000000000, 1.000000000000000000, 0.000000000000000000 ) ) ;
#439 = EDGE_LOOP ( 'NONE', ( #948, #659, #628, #418 ) ) ;
#440 = LINE ( 'NONE', #123, #92 ) ;
#441 = EDGE_CURVE ( 'NONE', #903, #43, #1050, .T. ) ;
#442 = CARTESIAN_POINT ( 'NONE',  ( 0.000000000000000000, 16.00000000000000000, 3.250000000000000444 ) ) ;
#443 = CARTESIAN_POINT ( 'NONE',  ( 4.000000000000000000, 0.000000000000000000, 0.000000000000000000 ) ) ;
#444 = ORIENTED_EDGE ( 'NONE', *, *, #505, .F. ) ;
#445 =( GEOMETRIC_REPRESENTATION_CONTEXT ( 3 ) GLOBAL_UNCERTAINTY_ASSIGNED_CONTEXT ( ( #487 ) ) GLOBAL_UNIT_ASSIGNED_CONTEXT ( ( #722, #452, #291 ) ) REPRESENTATION_CONTEXT ( 'NONE', 'WORKASPACE' ) );
#446 = CIRCLE ( 'NONE', #603, 3.250000000000000000 ) ;
#447 = CARTESIAN_POINT ( 'NONE',  ( 4.000000000000000000, 3.250000000000000000, 3.250000000000000000 ) ) ;
#448 = AXIS2_PLACEMENT_3D ( 'NONE', #447, #733, #402 ) ;
#449 = PRODUCT_DEFINITION_FORMATION_WITH_SPECIFIED_SOURCE ( 'ANY', '', #563, .NOT_KNOWN. ) ;
#450 = DIRECTION ( 'NONE',  ( 0.000000000000000000, 0.000000000000000000, -1.000000000000000000 ) ) ;
#451 = EDGE_CURVE ( 'NONE', #333, #858, #925, .T. ) ;
#452 =( NAMED_UNIT ( * ) PLANE_ANGLE_UNIT ( ) SI_UNIT ( $, .RADIAN. ) );
#453 = ORIENTED_EDGE ( 'NONE', *, *, #145, .T. ) ;
#454 = DIRECTION ( 'NONE',  ( -1.000000000000000000, 0.000000000000000000, 0.000000000000000000 ) ) ;
#455 = CARTESIAN_POINT ( 'NONE',  ( 0.000000000000000000, 27.25000000000000355, -17.81185254740412915 ) ) ;
#456 = DIRECTION ( 'NONE',  ( 1.000000000000000000, -0.000000000000000000, 0.000000000000000000 ) ) ;
#457 = EDGE_CURVE ( 'NONE', #919, #1067, #261, .T. ) ;
#458 = ORIENTED_EDGE ( 'NONE', *, *, #45, .T. ) ;
#459 = PLANE ( 'NONE',  #1086 ) ;
#460 = FACE_OUTER_BOUND ( 'NONE', #1003, .T. ) ;
#461 = CARTESIAN_POINT ( 'NONE',  ( 0.000000000000000000, 27.25000000000000000, -3.249999999999999556 ) ) ;
#462 = ORIENTED_EDGE ( 'NONE', *, *, #929, .F. ) ;
#463 = EDGE_CURVE ( 'NONE', #618, #1074, #906, .T. ) ;
#464 = CARTESIAN_POINT ( 'NONE',  ( 4.000000000000000000, 23.00000000000001421, -7.483396654233271938 ) ) ;
#465 = EDGE_CURVE ( 'NONE', #1036, #1067, #304, .T. ) ;
#466 = VECTOR ( 'NONE', #734, 1000.000000000000000 ) ;
#467 = CARTESIAN_POINT ( 'NONE',  ( 4.000000000000000000, 27.25000000000000355, -17.81185254740412915 ) ) ;
#468 = CARTESIAN_POINT ( 'NONE',  ( 4.000000000000000000, 0.000000000000000000, 0.000000000000000000 ) ) ;
#469 = EDGE_LOOP ( 'NONE', ( #414, #88, #25, #226 ) ) ;
#470 = CARTESIAN_POINT ( 'NONE',  ( 0.000000000000000000, -11.25000000000000355, -17.81185254740412915 ) ) ;
#471 = EDGE_CURVE ( 'NONE', #73, #837, #85, .T. ) ;
#472 = ORIENTED_EDGE ( 'NONE', *, *, #806, .F. ) ;
#473 = CARTESIAN_POINT ( 'NONE',  ( 4.000000000000000000, -11.25000000000000000, 6.328421076814860889E-16 ) ) ;
#474 = EDGE_LOOP ( 'NONE', ( #1009, #1017, #52, #769, #268 ) ) ;
#475 = ORIENTED_EDGE ( 'NONE', *, *, #63, .F. ) ;
#476 = CARTESIAN_POINT ( 'NONE',  ( 4.000000000000000000, 12.75000000000000178, 24.75000000000000000 ) ) ;
#477 = CYLINDRICAL_SURFACE ( 'NONE', #1048, 2.500000000000001332 ) ;
#478 = EDGE_LOOP ( 'NONE', ( #665, #854, #189, #1095 ) ) ;
#479 = EDGE_LOOP ( 'NONE', ( #952, #550, #718, #1044 ) ) ;
#480 = DIRECTION ( 'NONE',  ( -1.000000000000000000, 0.000000000000000000, -0.000000000000000000 ) ) ;
#481 = VECTOR ( 'NONE', #438, 1000.000000000000000 ) ;
#482 = DIRECTION ( 'NONE',  ( -1.000000000000000000, -0.000000000000000000, -0.000000000000000000 ) ) ;
#483 = AXIS2_PLACEMENT_3D ( 'NONE', #726, #826, #652 ) ;
#484 = EDGE_CURVE ( 'NONE', #70, #837, #851, .T. ) ;
#485 = VERTEX_POINT ( 'NONE', #335 ) ;
#486 = DIRECTION ( 'NONE',  ( 1.000000000000000000, 0.000000000000000000, 0.000000000000000000 ) ) ;
#487 = UNCERTAINTY_MEASURE_WITH_UNIT (LENGTH_MEASURE( 1.000000000000000082E-05 ), #722, 'distance_accuracy_value', 'NONE');
#488 = DIRECTION ( 'NONE',  ( -1.000000000000000000, -0.000000000000000000, -0.000000000000000000 ) ) ;
#489 = DIRECTION ( 'NONE',  ( 0.000000000000000000, 0.000000000000000000, 1.000000000000000000 ) ) ;
#490 = VERTEX_POINT ( 'NONE', #432 ) ;
#491 = EDGE_CURVE ( 'NONE', #43, #1089, #672, .T. ) ;
#492 = CARTESIAN_POINT ( 'NONE',  ( 4.000000000000000000, -3.250000000000000000, 6.328421076814860889E-16 ) ) ;
#493 = CARTESIAN_POINT ( 'NONE',  ( 0.000000000000000000, 16.00000000000000000, 0.000000000000000000 ) ) ;
#494 = CARTESIAN_POINT ( 'NONE',  ( 4.000000000000000000, -14.49999999999999822, 2.388535419194534749E-15 ) ) ;
#495 = EDGE_LOOP ( 'NONE', ( #818, #185, #598, #686 ) ) ;
#496 = EDGE_CURVE ( 'NONE', #647, #1071, #428, .T. ) ;
#497 = EDGE_CURVE ( 'NONE', #202, #903, #536, .T. ) ;
#498 = DIRECTION ( 'NONE',  ( -0.000000000000000000, 1.000000000000000000, 0.000000000000000000 ) ) ;
#499 = FACE_OUTER_BOUND ( 'NONE', #740, .T. ) ;
#500 = CIRCLE ( 'NONE', #761, 3.249999999999999556 ) ;
#501 = ORIENTED_EDGE ( 'NONE', *, *, #1045, .T. ) ;
#502 = VECTOR ( 'NONE', #695, 1000.000000000000000 ) ;
#503 = EDGE_LOOP ( 'NONE', ( #328, #605, #1078, #241, #129 ) ) ;
#504 = DIRECTION ( 'NONE',  ( 0.000000000000000000, 0.000000000000000000, -1.000000000000000000 ) ) ;
#505 = EDGE_CURVE ( 'NONE', #630, #554, #705, .T. ) ;
#506 = DIRECTION ( 'NONE',  ( 1.000000000000000000, -0.000000000000000000, 0.000000000000000000 ) ) ;
#507 = CARTESIAN_POINT ( 'NONE',  ( 4.000000000000000000, 19.25000000000000000, 3.250000000000000444 ) ) ;
#508 = EDGE_LOOP ( 'NONE', ( #988, #885, #116, #564 ) ) ;
#509 = CARTESIAN_POINT ( 'NONE',  ( 4.000000000000000000, 0.000000000000000000, -21.06185254740412915 ) ) ;
#510 = DIRECTION ( 'NONE',  ( 1.000000000000000000, -0.000000000000000000, 0.000000000000000000 ) ) ;
#511 = CARTESIAN_POINT ( 'NONE',  ( 0.000000000000000000, 20.49999999999999645, -7.483396654233268386 ) ) ;
#512 = ORIENTED_EDGE ( 'NONE', *, *, #1059, .T. ) ;
#513 = CARTESIAN_POINT ( 'NONE',  ( 4.000000000000000000, 17.99999999999999645, 0.000000000000000000 ) ) ;
#514 = DIRECTION ( 'NONE',  ( 0.000000000000000000, 0.000000000000000000, -1.000000000000000000 ) ) ;
#515 = ORIENTED_EDGE ( 'NONE', *, *, #531, .F. ) ;
#516 = CIRCLE ( 'NONE', #958, 1.500000000000001332 ) ;
#517 = ADVANCED_FACE ( 'NONE', ( #460 ), #278, .F. ) ;
#518 = ORIENTED_EDGE ( 'NONE', *, *, #776, .T. ) ;
#519 = AXIS2_PLACEMENT_3D ( 'NONE', #864, #782, #281 ) ;
#520 = DIRECTION ( 'NONE',  ( 1.000000000000000000, -0.000000000000000000, 0.000000000000000000 ) ) ;
#521 = DIRECTION ( 'NONE',  ( 1.000000000000000000, -0.000000000000000000, -0.000000000000000000 ) ) ;
#522 = DIRECTION ( 'NONE',  ( 0.000000000000000000, -0.000000000000000000, -1.000000000000000000 ) ) ;
#523 = ORIENTED_EDGE ( 'NONE', *, *, #978, .T. ) ;
#524 = EDGE_CURVE ( 'NONE', #985, #1056, #58, .T. ) ;
#525 = DIRECTION ( 'NONE',  ( 1.000000000000000000, 0.000000000000000000, -0.000000000000000000 ) ) ;
#526 = CARTESIAN_POINT ( 'NONE',  ( 0.000000000000000000, 23.00000000000001421, 0.000000000000000000 ) ) ;
#527 = ORIENTED_EDGE ( 'NONE', *, *, #145, .F. ) ;
#528 = VERTEX_POINT ( 'NONE', #805 ) ;
#529 = CARTESIAN_POINT ( 'NONE',  ( 4.000000000000000000, -1.999999999999999556, -12.48339665423326572 ) ) ;
#530 = UNCERTAINTY_MEASURE_WITH_UNIT (LENGTH_MEASURE( 1.000000000000000082E-05 ), #994, 'distance_accuracy_value', 'NONE');
#531 = EDGE_CURVE ( 'NONE', #137, #966, #877, .T. ) ;
#532 = FACE_OUTER_BOUND ( 'NONE', #469, .T. ) ;
#533 = PRESENTATION_STYLE_ASSIGNMENT (( #177 ) ) ;
#534 = ORIENTED_EDGE ( 'NONE', *, *, #573, .T. ) ;
#535 = AXIS2_PLACEMENT_3D ( 'NONE', #353, #140, #404 ) ;
#536 = CIRCLE ( 'NONE', #236, 2.500000000000000444 ) ;
#537 = DIRECTION ( 'NONE',  ( -1.000000000000000000, 0.000000000000000000, 0.000000000000000000 ) ) ;
#538 = AXIS2_PLACEMENT_3D ( 'NONE', #271, #186, #678 ) ;
#539 = ORIENTED_EDGE ( 'NONE', *, *, #879, .T. ) ;
#540 = CARTESIAN_POINT ( 'NONE',  ( 4.000000000000000000, 12.75000000000000178, 26.25000000000000355 ) ) ;
#541 = EDGE_CURVE ( 'NONE', #747, #966, #197, .T. ) ;
#542 = ORIENTED_EDGE ( 'NONE', *, *, #614, .F. ) ;
#543 = LINE ( 'NONE', #464, #23 ) ;
#544 = CARTESIAN_POINT ( 'NONE',  ( 4.000000000000000000, 20.49999999999999645, -7.483396654233268386 ) ) ;
#545 = ADVANCED_FACE ( 'NONE', ( #955, #788, #37, #289, #119 ), #204, .F. ) ;
#546 = EDGE_LOOP ( 'NONE', ( #2, #104, #280, #557 ) ) ;
#547 = FACE_OUTER_BOUND ( 'NONE', #808, .T. ) ;
#548 = CARTESIAN_POINT ( 'NONE',  ( 4.000000000000000000, 12.75000000000000178, 26.25000000000000355 ) ) ;
#549 = CARTESIAN_POINT ( 'NONE',  ( 0.000000000000000000, 23.00000000000001421, -12.48339665423326217 ) ) ;
#550 = ORIENTED_EDGE ( 'NONE', *, *, #732, .F. ) ;
#551 = ADVANCED_FACE ( 'NONE', ( #363 ), #872, .F. ) ;
#552 = CARTESIAN_POINT ( 'NONE',  ( 0.000000000000000000, -4.500000000000003553, -4.983396654233268386 ) ) ;
#553 = VECTOR ( 'NONE', #640, 1000.000000000000000 ) ;
#554 = VERTEX_POINT ( 'NONE', #473 ) ;
#555 = DIRECTION ( 'NONE',  ( 0.000000000000000000, 0.000000000000000000, -1.000000000000000000 ) ) ;
#556 = CYLINDRICAL_SURFACE ( 'NONE', #286, 1.499999999999999112 ) ;
#557 = ORIENTED_EDGE ( 'NONE', *, *, #583, .F. ) ;
#558 = CARTESIAN_POINT ( 'NONE',  ( 4.000000000000000000, 0.000000000000000000, 0.000000000000000000 ) ) ;
#559 = VERTEX_POINT ( 'NONE', #712 ) ;
#560 = CYLINDRICAL_SURFACE ( 'NONE', #604, 1.499999999999999112 ) ;
#561 = LINE ( 'NONE', #823, #884 ) ;
#562 = ORIENTED_EDGE ( 'NONE', *, *, #776, .F. ) ;
#563 = PRODUCT ( 'Y Limit Switch Mount', 'Y Limit Switch Mount', '', ( #984 ) ) ;
#564 = ORIENTED_EDGE ( 'NONE', *, *, #1075, .T. ) ;
#565 = CARTESIAN_POINT ( 'NONE',  ( 0.000000000000000000, 19.25000000000000000, 6.328421076814860889E-16 ) ) ;
#566 = ADVANCED_FACE ( 'NONE', ( #532 ), #107, .T. ) ;
#567 = DIRECTION ( 'NONE',  ( -1.000000000000000000, -0.000000000000000000, -0.000000000000000000 ) ) ;
#568 = ORIENTED_EDGE ( 'NONE', *, *, #10, .F. ) ;
#569 = DIRECTION ( 'NONE',  ( -1.000000000000000000, 0.000000000000000000, -0.000000000000000000 ) ) ;
#570 = DIRECTION ( 'NONE',  ( 1.000000000000000000, -0.000000000000000000, -0.000000000000000000 ) ) ;
#571 = AXIS2_PLACEMENT_3D ( 'NONE', #494, #739, #987 ) ;
#572 = VECTOR ( 'NONE', #844, 1000.000000000000000 ) ;
#573 = EDGE_CURVE ( 'NONE', #83, #485, #923, .T. ) ;
#574 = DIRECTION ( 'NONE',  ( 0.000000000000000000, 0.000000000000000000, 1.000000000000000000 ) ) ;
#575 = VERTEX_POINT ( 'NONE', #540 ) ;
#576 = CYLINDRICAL_SURFACE ( 'NONE', #72, 1.500000000000001332 ) ;
#577 = LINE ( 'NONE', #156, #375 ) ;
#578 = ORIENTED_EDGE ( 'NONE', *, *, #471, .T. ) ;
#579 = CARTESIAN_POINT ( 'NONE',  ( 4.000000000000000000, 23.00000000000001421, 0.000000000000000000 ) ) ;
#580 = PLANE ( 'NONE',  #571 ) ;
#581 = ORIENTED_EDGE ( 'NONE', *, *, #791, .T. ) ;
#582 = ORIENTED_EDGE ( 'NONE', *, *, #643, .F. ) ;
#583 = EDGE_CURVE ( 'NONE', #575, #900, #368, .T. ) ;
#584 = CARTESIAN_POINT ( 'NONE',  ( 4.000000000000000000, -11.25000000000000355, -21.06185254740412915 ) ) ;
#585 = DIRECTION ( 'NONE',  ( 0.000000000000000000, 0.000000000000000000, -1.000000000000000000 ) ) ;
#586 = VECTOR ( 'NONE', #183, 1000.000000000000000 ) ;
#587 = EDGE_LOOP ( 'NONE', ( #694, #327, #664, #814 ) ) ;
#588 = CIRCLE ( 'NONE', #109, 3.249999999999999556 ) ;
#589 = ORIENTED_EDGE ( 'NONE', *, *, #614, .T. ) ;
#590 = DIRECTION ( 'NONE',  ( -1.000000000000000000, -0.000000000000000000, -0.000000000000000000 ) ) ;
#591 = FACE_OUTER_BOUND ( 'NONE', #785, .T. ) ;
#592 = SURFACE_SIDE_STYLE ('',( #674 ) ) ;
#593 = ORIENTED_EDGE ( 'NONE', *, *, #496, .T. ) ;
#594 = FACE_OUTER_BOUND ( 'NONE', #78, .T. ) ;
#595 = CARTESIAN_POINT ( 'NONE',  ( 4.000000000000000000, -4.500000000000003553, -7.483396654233270162 ) ) ;
#596 = EDGE_CURVE ( 'NONE', #83, #118, #1058, .T. ) ;
#597 = VERTEX_POINT ( 'NONE', #611 ) ;
#598 = ORIENTED_EDGE ( 'NONE', *, *, #583, .T. ) ;
#599 = CARTESIAN_POINT ( 'NONE',  ( 0.000000000000000000, 17.99999999999999645, -12.48339665423326217 ) ) ;
#600 = CARTESIAN_POINT ( 'NONE',  ( 0.000000000000000000, -4.500000000000003553, -7.483396654233270162 ) ) ;
#601 = EDGE_CURVE ( 'NONE', #485, #333, #696, .T. ) ;
#602 = CARTESIAN_POINT ( 'NONE',  ( 4.000000000000000000, -7.000000000000002665, -7.483396654233268386 ) ) ;
#603 = AXIS2_PLACEMENT_3D ( 'NONE', #661, #1087, #986 ) ;
#604 = AXIS2_PLACEMENT_3D ( 'NONE', #649, #645, #68 ) ;
#605 = ORIENTED_EDGE ( 'NONE', *, *, #401, .F. ) ;
#606 = LINE ( 'NONE', #174, #272 ) ;
#607 = DIRECTION ( 'NONE',  ( 0.000000000000000000, 0.000000000000000000, 1.000000000000000000 ) ) ;
#608 = DIRECTION ( 'NONE',  ( 1.000000000000000000, 0.000000000000000000, -0.000000000000000000 ) ) ;
#609 = ORIENTED_EDGE ( 'NONE', *, *, #845, .F. ) ;
#610 = LINE ( 'NONE', #949, #638 ) ;
#611 = CARTESIAN_POINT ( 'NONE',  ( 0.000000000000000000, 30.50000000000000000, -3.249999999999999112 ) ) ;
#612 = DIRECTION ( 'NONE',  ( 0.000000000000000000, -1.647265806341058617E-16, 1.000000000000000000 ) ) ;
#613 = ORIENTED_EDGE ( 'NONE', *, *, #457, .T. ) ;
#614 = EDGE_CURVE ( 'NONE', #647, #927, #359, .T. ) ;
#615 = DIRECTION ( 'NONE',  ( -1.000000000000000000, 0.000000000000000000, 0.000000000000000000 ) ) ;
#616 = DIRECTION ( 'NONE',  ( 1.000000000000000000, -0.000000000000000000, 0.000000000000000000 ) ) ;
#617 = PLANE ( 'NONE',  #741 ) ;
#618 = VERTEX_POINT ( 'NONE', #882 ) ;
#619 = MECHANICAL_DESIGN_GEOMETRIC_PRESENTATION_REPRESENTATION (  '', ( #89 ), #445 ) ;
#620 = VECTOR ( 'NONE', #1047, 1000.000000000000000 ) ;
#621 = CARTESIAN_POINT ( 'NONE',  ( 4.000000000000000000, 0.000000000000000000, 28.00000000000000000 ) ) ;
#622 = DIRECTION ( 'NONE',  ( 1.000000000000000000, -0.000000000000000000, -0.000000000000000000 ) ) ;
#623 = DIRECTION ( 'NONE',  ( 0.000000000000000000, 0.000000000000000000, -1.000000000000000000 ) ) ;
#624 = ORIENTED_EDGE ( 'NONE', *, *, #421, .F. ) ;
#625 = CARTESIAN_POINT ( 'NONE',  ( 0.000000000000000000, 30.50000000000000355, -17.81185254740412915 ) ) ;
#626 = CARTESIAN_POINT ( 'NONE',  ( 4.000000000000000000, 0.000000000000000000, 28.00000000000000000 ) ) ;
#627 = ADVANCED_FACE ( 'NONE', ( #865 ), #60, .F. ) ;
#628 = ORIENTED_EDGE ( 'NONE', *, *, #463, .F. ) ;
#629 = CARTESIAN_POINT ( 'NONE',  ( 0.000000000000000000, -14.49999999999999822, -3.249999999999999112 ) ) ;
#630 = VERTEX_POINT ( 'NONE', #390 ) ;
#631 = CARTESIAN_POINT ( 'NONE',  ( 4.000000000000000000, -11.25000000000000000, 6.328421076814860889E-16 ) ) ;
#632 = EDGE_CURVE ( 'NONE', #630, #559, #398, .T. ) ;
#633 = VERTEX_POINT ( 'NONE', #222 ) ;
#634 = CIRCLE ( 'NONE', #921, 2.500000000000002220 ) ;
#635 = CARTESIAN_POINT ( 'NONE',  ( 0.000000000000000000, 3.250000000000000000, 1.750000000000000666 ) ) ;
#636 = AXIS2_PLACEMENT_3D ( 'NONE', #973, #716, #1037 ) ;
#637 = PRODUCT_DEFINITION_CONTEXT ( 'detailed design', #918, 'design' ) ;
#638 = VECTOR ( 'NONE', #961, 1000.000000000000000 ) ;
#639 = ORIENTED_EDGE ( 'NONE', *, *, #658, .F. ) ;
#640 = DIRECTION ( 'NONE',  ( -1.000000000000000000, -0.000000000000000000, -0.000000000000000000 ) ) ;
#641 = CARTESIAN_POINT ( 'NONE',  ( 4.000000000000000000, 0.000000000000000000, 3.250000000000000444 ) ) ;
#642 = EDGE_LOOP ( 'NONE', ( #354, #911, #168, #213 ) ) ;
#643 = EDGE_CURVE ( 'NONE', #13, #528, #238, .T. ) ;
#644 = EDGE_LOOP ( 'NONE', ( #1005, #568, #527, #95 ) ) ;
#645 = DIRECTION ( 'NONE',  ( -1.000000000000000000, -0.000000000000000000, -0.000000000000000000 ) ) ;
#646 = CARTESIAN_POINT ( 'NONE',  ( 4.000000000000000000, 20.49999999999999645, -7.483396654233268386 ) ) ;
#647 = VERTEX_POINT ( 'NONE', #155 ) ;
#648 = ADVANCED_FACE ( 'NONE', ( #1072 ), #576, .F. ) ;
#649 = CARTESIAN_POINT ( 'NONE',  ( 4.000000000000000000, 3.250000000000000000, 3.250000000000000000 ) ) ;
#650 = DIRECTION ( 'NONE',  ( 0.000000000000000000, 0.000000000000000000, -1.000000000000000000 ) ) ;
#651 = VERTEX_POINT ( 'NONE', #565 ) ;
#652 = DIRECTION ( 'NONE',  ( 1.000000000000000000, 0.000000000000000000, -0.000000000000000000 ) ) ;
#653 = VECTOR ( 'NONE', #662, 1000.000000000000000 ) ;
#654 = CARTESIAN_POINT ( 'NONE',  ( 4.000000000000000000, 12.75000000000000178, 23.25000000000000000 ) ) ;
#655 = VECTOR ( 'NONE', #437, 1000.000000000000000 ) ;
#656 = VECTOR ( 'NONE', #264, 1000.000000000000000 ) ;
#657 = CARTESIAN_POINT ( 'NONE',  ( 4.000000000000000000, 0.000000000000000000, 6.328421076814860889E-16 ) ) ;
#658 = EDGE_CURVE ( 'NONE', #297, #1090, #446, .T. ) ;
#659 = ORIENTED_EDGE ( 'NONE', *, *, #339, .T. ) ;
#660 = CARTESIAN_POINT ( 'NONE',  ( 0.000000000000000000, 0.000000000000000000, 0.000000000000000000 ) ) ;
#661 = CARTESIAN_POINT ( 'NONE',  ( 4.000000000000000000, -3.250000000000000000, 3.250000000000000444 ) ) ;
#662 = DIRECTION ( 'NONE',  ( 0.000000000000000000, 0.000000000000000000, -1.000000000000000000 ) ) ;
#663 = ADVANCED_FACE ( 'NONE', ( #227 ), #901, .F. ) ;
#664 = ORIENTED_EDGE ( 'NONE', *, *, #831, .F. ) ;
#665 = ORIENTED_EDGE ( 'NONE', *, *, #457, .F. ) ;
#666 = DIRECTION ( 'NONE',  ( 0.000000000000000000, 0.000000000000000000, -1.000000000000000000 ) ) ;
#667 = CARTESIAN_POINT ( 'NONE',  ( 0.000000000000000000, -14.50000000000000178, -17.81185254740412915 ) ) ;
#668 = ORIENTED_EDGE ( 'NONE', *, *, #465, .T. ) ;
#669 = ORIENTED_EDGE ( 'NONE', *, *, #756, .F. ) ;
#670 = DIRECTION ( 'NONE',  ( 0.000000000000000000, 0.000000000000000000, 1.000000000000000000 ) ) ;
#671 = AXIS2_PLACEMENT_3D ( 'NONE', #969, #784, #305 ) ;
#672 = LINE ( 'NONE', #93, #586 ) ;
#673 = AXIS2_PLACEMENT_3D ( 'NONE', #455, #282, #450 ) ;
#674 = SURFACE_STYLE_FILL_AREA ( #336 ) ;
#675 = CIRCLE ( 'NONE', #306, 3.249999999999999556 ) ;
#676 = ORIENTED_EDGE ( 'NONE', *, *, #632, .T. ) ;
#677 = EDGE_CURVE ( 'NONE', #423, #70, #1001, .T. ) ;
#678 = DIRECTION ( 'NONE',  ( 0.000000000000000000, 0.000000000000000000, -1.000000000000000000 ) ) ;
#679 = CARTESIAN_POINT ( 'NONE',  ( 0.000000000000000000, 3.250000000000000000, 28.00000000000000000 ) ) ;
#680 = CARTESIAN_POINT ( 'NONE',  ( 4.000000000000000000, 16.00000000000000000, 3.250000000000000444 ) ) ;
#681 = VERTEX_POINT ( 'NONE', #324 ) ;
#682 = PLANE ( 'NONE',  #763 ) ;
#683 = EDGE_CURVE ( 'NONE', #863, #630, #356, .T. ) ;
#684 = LINE ( 'NONE', #98, #655 ) ;
#685 = EDGE_LOOP ( 'NONE', ( #229, #836, #920, #842, #951 ) ) ;
#686 = ORIENTED_EDGE ( 'NONE', *, *, #407, .F. ) ;
#687 = DIRECTION ( 'NONE',  ( 0.000000000000000000, 0.000000000000000000, -1.000000000000000000 ) ) ;
#688 = DIRECTION ( 'NONE',  ( 0.000000000000000000, 0.000000000000000000, -1.000000000000000000 ) ) ;
#689 = CIRCLE ( 'NONE', #55, 2.500000000000002220 ) ;
#690 = DIRECTION ( 'NONE',  ( 0.000000000000000000, 0.000000000000000000, -1.000000000000000000 ) ) ;
#691 = EDGE_CURVE ( 'NONE', #809, #70, #394, .T. ) ;
#692 = AXIS2_PLACEMENT_3D ( 'NONE', #310, #488, #144 ) ;
#693 = AXIS2_PLACEMENT_3D ( 'NONE', #1022, #84, #75 ) ;
#694 = ORIENTED_EDGE ( 'NONE', *, *, #332, .T. ) ;
#695 = DIRECTION ( 'NONE',  ( -1.000000000000000000, -0.000000000000000000, -0.000000000000000000 ) ) ;
#696 = LINE ( 'NONE', #192, #162 ) ;
#697 = CARTESIAN_POINT ( 'NONE',  ( 4.000000000000000000, 16.00000000000000000, 3.250000000000000444 ) ) ;
#698 = ADVANCED_FACE ( 'NONE', ( #912 ), #560, .F. ) ;
#699 = EDGE_LOOP ( 'NONE', ( #703, #148, #862, #79 ) ) ;
#700 = CARTESIAN_POINT ( 'NONE',  ( 0.000000000000000000, 3.250000000000000000, 24.75000000000000000 ) ) ;
#701 = CARTESIAN_POINT ( 'NONE',  ( 4.000000000000000000, 3.250000000000000000, 24.75000000000000000 ) ) ;
#702 = DIRECTION ( 'NONE',  ( -1.000000000000000000, -0.000000000000000000, -0.000000000000000000 ) ) ;
#703 = ORIENTED_EDGE ( 'NONE', *, *, #122, .F. ) ;
#704 = DIRECTION ( 'NONE',  ( -1.000000000000000000, 0.000000000000000000, -0.000000000000000000 ) ) ;
#705 = LINE ( 'NONE', #631, #91 ) ;
#706 = DIRECTION ( 'NONE',  ( -1.000000000000000000, 0.000000000000000000, 0.000000000000000000 ) ) ;
#707 = ORIENTED_EDGE ( 'NONE', *, *, #1059, .F. ) ;
#708 = AXIS2_PLACEMENT_3D ( 'NONE', #507, #188, #422 ) ;
#709 = VECTOR ( 'NONE', #760, 1000.000000000000000 ) ;
#710 = DIRECTION ( 'NONE',  ( 0.000000000000000000, 0.000000000000000000, 1.000000000000000000 ) ) ;
#711 = EDGE_CURVE ( 'NONE', #764, #312, #819, .T. ) ;
#712 = CARTESIAN_POINT ( 'NONE',  ( 0.000000000000000000, -3.250000000000000000, 6.328421076814860889E-16 ) ) ;
#713 = DIRECTION ( 'NONE',  ( -1.000000000000000000, -0.000000000000000000, -0.000000000000000000 ) ) ;
#714 = ORIENTED_EDGE ( 'NONE', *, *, #484, .F. ) ;
#715 = LINE ( 'NONE', #1057, #941 ) ;
#716 = DIRECTION ( 'NONE',  ( 0.000000000000000000, 0.000000000000000000, 1.000000000000000000 ) ) ;
#717 = EDGE_CURVE ( 'NONE', #178, #932, #313, .T. ) ;
#718 = ORIENTED_EDGE ( 'NONE', *, *, #225, .F. ) ;
#719 = PLANE ( 'NONE',  #483 ) ;
#720 = ORIENTED_EDGE ( 'NONE', *, *, #1080, .T. ) ;
#721 = LINE ( 'NONE', #1064, #553 ) ;
#722 =( LENGTH_UNIT ( ) NAMED_UNIT ( * ) SI_UNIT ( .MILLI., .METRE. ) );
#723 = EDGE_CURVE ( 'NONE', #1056, #747, #1076, .T. ) ;
#724 = EDGE_LOOP ( 'NONE', ( #972, #307, #1026, #135, #983 ) ) ;
#725 = VECTOR ( 'NONE', #789, 1000.000000000000000 ) ;
#726 = CARTESIAN_POINT ( 'NONE',  ( 4.000000000000000000, 0.000000000000000000, 6.328421076814860889E-16 ) ) ;
#727 = AXIS2_PLACEMENT_3D ( 'NONE', #938, #341, #670 ) ;
#728 = ORIENTED_EDGE ( 'NONE', *, *, #873, .T. ) ;
#729 = CARTESIAN_POINT ( 'NONE',  ( 4.000000000000000000, -7.000000000000002665, -12.48339665423326572 ) ) ;
#730 = DIRECTION ( 'NONE',  ( 1.000000000000000000, -0.000000000000000000, 0.000000000000000000 ) ) ;
#731 = ORIENTED_EDGE ( 'NONE', *, *, #471, .F. ) ;
#732 = EDGE_CURVE ( 'NONE', #681, #198, #721, .T. ) ;
#733 = DIRECTION ( 'NONE',  ( 1.000000000000000000, -0.000000000000000000, 0.000000000000000000 ) ) ;
#734 = DIRECTION ( 'NONE',  ( 0.000000000000000000, 1.000000000000000000, 0.000000000000000000 ) ) ;
#735 = DIRECTION ( 'NONE',  ( 1.000000000000000000, -0.000000000000000000, 0.000000000000000000 ) ) ;
#736 = ORIENTED_EDGE ( 'NONE', *, *, #1080, .F. ) ;
#737 = LINE ( 'NONE', #558, #959 ) ;
#738 = CARTESIAN_POINT ( 'NONE',  ( 0.000000000000000000, -4.500000000000003553, -7.483396654233270162 ) ) ;
#739 = DIRECTION ( 'NONE',  ( 0.000000000000000000, 1.000000000000000000, -1.647265806341058617E-16 ) ) ;
#740 = EDGE_LOOP ( 'NONE', ( #581, #383, #1063, #523 ) ) ;
#741 = AXIS2_PLACEMENT_3D ( 'NONE', #468, #801, #1002 ) ;
#742 = DIRECTION ( 'NONE',  ( 0.000000000000000000, -1.647265806341058617E-16, -1.000000000000000000 ) ) ;
#743 = AXIS2_PLACEMENT_3D ( 'NONE', #46, #376, #800 ) ;
#744 = ADVANCED_FACE ( 'NONE', ( #908 ), #981, .F. ) ;
#745 = CIRCLE ( 'NONE', #1014, 2.500000000000000444 ) ;
#746 = LINE ( 'NONE', #657, #1084 ) ;
#747 = VERTEX_POINT ( 'NONE', #403 ) ;
#748 = EDGE_LOOP ( 'NONE', ( #731, #161, #157, #751 ) ) ;
#749 = DIRECTION ( 'NONE',  ( 0.000000000000000000, -0.000000000000000000, -1.000000000000000000 ) ) ;
#750 = FACE_OUTER_BOUND ( 'NONE', #897, .T. ) ;
#751 = ORIENTED_EDGE ( 'NONE', *, *, #484, .T. ) ;
#752 = ORIENTED_EDGE ( 'NONE', *, *, #541, .T. ) ;
#753 = DIRECTION ( 'NONE',  ( 1.000000000000000000, -0.000000000000000000, 0.000000000000000000 ) ) ;
#754 = DIRECTION ( 'NONE',  ( 1.000000000000000000, -0.000000000000000000, 0.000000000000000000 ) ) ;
#755 = FILL_AREA_STYLE_COLOUR ( '', #4 ) ;
#756 = EDGE_CURVE ( 'NONE', #1074, #1089, #745, .T. ) ;
#757 = EDGE_LOOP ( 'NONE', ( #944, #121, #787, #875 ) ) ;
#758 = DIRECTION ( 'NONE',  ( -0.000000000000000000, 1.000000000000000000, 0.000000000000000000 ) ) ;
#759 = VECTOR ( 'NONE', #608, 1000.000000000000000 ) ;
#760 = DIRECTION ( 'NONE',  ( -0.000000000000000000, 0.000000000000000000, 1.000000000000000000 ) ) ;
#761 = AXIS2_PLACEMENT_3D ( 'NONE', #347, #510, #1030 ) ;
#762 = EDGE_LOOP ( 'NONE', ( #790, #937, #821, #962, #252, #344, #167, #453, #194, #395, #773, #57, #338, #388, #676, #321 ) ) ;
#763 = AXIS2_PLACEMENT_3D ( 'NONE', #1091, #259, #749 ) ;
#764 = VERTEX_POINT ( 'NONE', #654 ) ;
#765 = ADVANCED_FACE ( 'NONE', ( #1096 ), #682, .F. ) ;
#766 = DIRECTION ( 'NONE',  ( 0.000000000000000000, -0.000000000000000000, 1.000000000000000000 ) ) ;
#767 = CARTESIAN_POINT ( 'NONE',  ( 4.000000000000000000, 12.75000000000000178, 24.75000000000000000 ) ) ;
#768 = CARTESIAN_POINT ( 'NONE',  ( 0.000000000000000000, 12.75000000000000178, 24.75000000000000000 ) ) ;
#769 = ORIENTED_EDGE ( 'NONE', *, *, #332, .F. ) ;
#770 = FACE_OUTER_BOUND ( 'NONE', #847, .T. ) ;
#771 = CARTESIAN_POINT ( 'NONE',  ( 4.000000000000000000, -1.999999999999999556, -12.48339665423326572 ) ) ;
#772 = CARTESIAN_POINT ( 'NONE',  ( 0.000000000000000000, 16.00000000000000000, 24.75000000000000000 ) ) ;
#773 = ORIENTED_EDGE ( 'NONE', *, *, #1004, .F. ) ;
#774 = DIRECTION ( 'NONE',  ( 0.000000000000000000, 1.000000000000000000, 0.000000000000000000 ) ) ;
#775 = CARTESIAN_POINT ( 'NONE',  ( 4.000000000000000000, 3.250000000000000000, 28.00000000000000000 ) ) ;
#776 = EDGE_CURVE ( 'NONE', #890, #747, #255, .T. ) ;
#777 = AXIS2_PLACEMENT_3D ( 'NONE', #768, #942, #279 ) ;
#778 = DIRECTION ( 'NONE',  ( 1.000000000000000000, -0.000000000000000000, 0.000000000000000000 ) ) ;
#779 = AXIS2_PLACEMENT_3D ( 'NONE', #1019, #187, #607 ) ;
#780 = CIRCLE ( 'NONE', #448, 1.499999999999999112 ) ;
#781 = EDGE_LOOP ( 'NONE', ( #51, #1034, #434, #970 ) ) ;
#782 = DIRECTION ( 'NONE',  ( -0.000000000000000000, 1.000000000000000000, 0.000000000000000000 ) ) ;
#783 = CARTESIAN_POINT ( 'NONE',  ( 4.000000000000000000, 20.49999999999999645, -4.983396654233258616 ) ) ;
#784 = DIRECTION ( 'NONE',  ( 1.000000000000000000, -0.000000000000000000, 0.000000000000000000 ) ) ;
#785 = EDGE_LOOP ( 'NONE', ( #111, #582, #412, #501 ) ) ;
#786 = CARTESIAN_POINT ( 'NONE',  ( 4.000000000000000000, 0.000000000000000000, 6.328421076814860889E-16 ) ) ;
#787 = ORIENTED_EDGE ( 'NONE', *, *, #524, .F. ) ;
#788 = FACE_BOUND ( 'NONE', #221, .T. ) ;
#789 = DIRECTION ( 'NONE',  ( 0.000000000000000000, 1.647265806341058617E-16, -1.000000000000000000 ) ) ;
#790 = ORIENTED_EDGE ( 'NONE', *, *, #998, .T. ) ;
#791 = EDGE_CURVE ( 'NONE', #863, #389, #933, .T. ) ;
#792 = DIRECTION ( 'NONE',  ( 0.000000000000000000, 0.000000000000000000, 1.000000000000000000 ) ) ;
#793 = CARTESIAN_POINT ( 'NONE',  ( 4.000000000000000000, 30.50000000000000000, 5.024160709340228931E-15 ) ) ;
#794 = CARTESIAN_POINT ( 'NONE',  ( 0.000000000000000000, -3.250000000000000000, 6.328421076814860889E-16 ) ) ;
#795 = VECTOR ( 'NONE', #69, 1000.000000000000000 ) ;
#796 = ORIENTED_EDGE ( 'NONE', *, *, #76, .F. ) ;
#797 = VECTOR ( 'NONE', #27, 1000.000000000000000 ) ;
#798 = EDGE_CURVE ( 'NONE', #423, #651, #869, .T. ) ;
#799 = FACE_OUTER_BOUND ( 'NONE', #1021, .T. ) ;
#800 = DIRECTION ( 'NONE',  ( 0.000000000000000000, 0.000000000000000000, -1.000000000000000000 ) ) ;
#801 = DIRECTION ( 'NONE',  ( 1.000000000000000000, -0.000000000000000000, 0.000000000000000000 ) ) ;
#802 = EDGE_LOOP ( 'NONE', ( #19, #534, #34, #379 ) ) ;
#803 = SHAPE_DEFINITION_REPRESENTATION ( #1079, #891 ) ;
#804 = ORIENTED_EDGE ( 'NONE', *, *, #275, .T. ) ;
#805 = CARTESIAN_POINT ( 'NONE',  ( 0.000000000000000000, -7.000000000000002665, -12.48339665423326572 ) ) ;
#806 = EDGE_CURVE ( 'NONE', #400, #809, #606, .T. ) ;
#807 = DIRECTION ( 'NONE',  ( 0.000000000000000000, 0.000000000000000000, -1.000000000000000000 ) ) ;
#808 = EDGE_LOOP ( 'NONE', ( #539, #894, #796, #249 ) ) ;
#809 = VERTEX_POINT ( 'NONE', #1018 ) ;
#810 = CARTESIAN_POINT ( 'NONE',  ( 0.000000000000000000, 12.75000000000000178, 24.75000000000000000 ) ) ;
#811 = EDGE_CURVE ( 'NONE', #575, #764, #358, .T. ) ;
#812 = DIRECTION ( 'NONE',  ( 1.000000000000000000, -0.000000000000000000, 0.000000000000000000 ) ) ;
#813 = ADVANCED_FACE ( 'NONE', ( #594 ), #1027, .T. ) ;
#814 = ORIENTED_EDGE ( 'NONE', *, *, #936, .F. ) ;
#815 = CIRCLE ( 'NONE', #535, 3.250000000000000000 ) ;
#816 = AXIS2_PLACEMENT_3D ( 'NONE', #600, #506, #839 ) ;
#817 = AXIS2_PLACEMENT_3D ( 'NONE', #621, #710, #525 ) ;
#818 = ORIENTED_EDGE ( 'NONE', *, *, #711, .F. ) ;
#819 = LINE ( 'NONE', #408, #237 ) ;
#820 = CARTESIAN_POINT ( 'NONE',  ( 4.000000000000000000, 19.25000000000000000, 6.328421076814860889E-16 ) ) ;
#821 = ORIENTED_EDGE ( 'NONE', *, *, #806, .T. ) ;
#822 = DIRECTION ( 'NONE',  ( -1.000000000000000000, -0.000000000000000000, -0.000000000000000000 ) ) ;
#823 = CARTESIAN_POINT ( 'NONE',  ( 4.000000000000000000, -14.50000000000000178, -17.81185254740412915 ) ) ;
#824 = ORIENTED_EDGE ( 'NONE', *, *, #893, .F. ) ;
#825 = ADVANCED_FACE ( 'NONE', ( #848 ), #431, .T. ) ;
#826 = DIRECTION ( 'NONE',  ( 0.000000000000000000, 0.000000000000000000, 1.000000000000000000 ) ) ;
#827 = DIRECTION ( 'NONE',  ( -0.000000000000000000, 0.000000000000000000, 1.000000000000000000 ) ) ;
#828 = CARTESIAN_POINT ( 'NONE',  ( 0.000000000000000000, 30.50000000000000355, -17.81185254740412915 ) ) ;
#829 = VERTEX_POINT ( 'NONE', #436 ) ;
#830 = CIRCLE ( 'NONE', #427, 3.249999999999999556 ) ;
#831 = EDGE_CURVE ( 'NONE', #361, #118, #886, .T. ) ;
#832 = DIRECTION ( 'NONE',  ( 0.000000000000000000, 0.000000000000000000, -1.000000000000000000 ) ) ;
#833 = VECTOR ( 'NONE', #827, 1000.000000000000000 ) ;
#834 = AXIS2_PLACEMENT_3D ( 'NONE', #231, #916, #159 ) ;
#835 = CARTESIAN_POINT ( 'NONE',  ( 0.000000000000000000, -11.25000000000000355, -21.06185254740412915 ) ) ;
#836 = ORIENTED_EDGE ( 'NONE', *, *, #879, .F. ) ;
#837 = VERTEX_POINT ( 'NONE', #97 ) ;
#838 = CARTESIAN_POINT ( 'NONE',  ( 0.000000000000000000, 12.75000000000000178, 26.25000000000000355 ) ) ;
#839 = DIRECTION ( 'NONE',  ( 0.000000000000000000, 0.000000000000000000, -1.000000000000000000 ) ) ;
#840 = EDGE_CURVE ( 'NONE', #976, #1036, #247, .T. ) ;
#841 = CARTESIAN_POINT ( 'NONE',  ( 4.000000000000000000, -1.999999999999999556, 0.000000000000000000 ) ) ;
#842 = ORIENTED_EDGE ( 'NONE', *, *, #756, .T. ) ;
#843 = DIRECTION ( 'NONE',  ( 0.000000000000000000, 1.000000000000000000, 0.000000000000000000 ) ) ;
#844 = DIRECTION ( 'NONE',  ( -1.000000000000000000, -0.000000000000000000, -0.000000000000000000 ) ) ;
#845 = EDGE_CURVE ( 'NONE', #829, #858, #15, .T. ) ;
#846 = CARTESIAN_POINT ( 'NONE',  ( 4.000000000000000000, 20.49999999999999645, -4.983396654233258616 ) ) ;
#847 = EDGE_LOOP ( 'NONE', ( #624, #62, #309, #154 ) ) ;
#848 = FACE_OUTER_BOUND ( 'NONE', #1039, .T. ) ;
#849 = CIRCLE ( 'NONE', #371, 1.499999999999999112 ) ;
#850 = AXIS2_PLACEMENT_3D ( 'NONE', #511, #1049, #807 ) ;
#851 = LINE ( 'NONE', #425, #288 ) ;
#852 = EDGE_LOOP ( 'NONE', ( #542, #593, #736, #980, #475, #870, #82, #728, #518, #752, #515, #926, #331, #315, #578, #1000 ) ) ;
#853 = AXIS2_PLACEMENT_3D ( 'NONE', #513, #758, #766 ) ;
#854 = ORIENTED_EDGE ( 'NONE', *, *, #36, .T. ) ;
#855 = DIRECTION ( 'NONE',  ( 0.000000000000000000, -1.647265806341058617E-16, -1.000000000000000000 ) ) ;
#856 = DIRECTION ( 'NONE',  ( 1.000000000000000000, 0.000000000000000000, -0.000000000000000000 ) ) ;
#857 = DIRECTION ( 'NONE',  ( -1.000000000000000000, 0.000000000000000000, 0.000000000000000000 ) ) ;
#858 = VERTEX_POINT ( 'NONE', #599 ) ;
#859 = ADVANCED_FACE ( 'NONE', ( #770 ), #181, .T. ) ;
#860 = LINE ( 'NONE', #31, #1051 ) ;
#861 = CARTESIAN_POINT ( 'NONE',  ( 4.000000000000000000, 27.25000000000000000, 6.328421076814860889E-16 ) ) ;
#862 = ORIENTED_EDGE ( 'NONE', *, *, #531, .T. ) ;
#863 = VERTEX_POINT ( 'NONE', #415 ) ;
#864 = CARTESIAN_POINT ( 'NONE',  ( 4.000000000000000000, -1.999999999999999556, 0.000000000000000000 ) ) ;
#865 = FACE_OUTER_BOUND ( 'NONE', #439, .T. ) ;
#866 = PRODUCT_DEFINITION ( 'UNKNOWN', '', #449, #637 ) ;
#867 = AXIS2_PLACEMENT_3D ( 'NONE', #889, #713, #40 ) ;
#868 = AXIS2_PLACEMENT_3D ( 'NONE', #1073, #999, #913 ) ;
#869 = CIRCLE ( 'NONE', #693, 3.250000000000000000 ) ;
#870 = ORIENTED_EDGE ( 'NONE', *, *, #396, .T. ) ;
#871 = CARTESIAN_POINT ( 'NONE',  ( 4.000000000000000000, 12.75000000000000178, 28.00000000000000000 ) ) ;
#872 = CYLINDRICAL_SURFACE ( 'NONE', #21, 3.250000000000000000 ) ;
#873 = EDGE_CURVE ( 'NONE', #932, #890, #1031, .T. ) ;
#874 = CARTESIAN_POINT ( 'NONE',  ( 4.000000000000000000, 20.49999999999999645, -12.48339665423326394 ) ) ;
#875 = ORIENTED_EDGE ( 'NONE', *, *, #260, .F. ) ;
#876 = PLANE ( 'NONE',  #519 ) ;
#877 = LINE ( 'NONE', #793, #39 ) ;
#878 = FACE_BOUND ( 'NONE', #8, .T. ) ;
#879 = EDGE_CURVE ( 'NONE', #618, #1008, #350, .T. ) ;
#880 = ORIENTED_EDGE ( 'NONE', *, *, #171, .T. ) ;
#881 = CARTESIAN_POINT ( 'NONE',  ( 0.000000000000000000, 0.000000000000000000, 0.000000000000000000 ) ) ;
#882 = CARTESIAN_POINT ( 'NONE',  ( 0.000000000000000000, -1.999999999999999556, -7.483396654233268386 ) ) ;
#883 = FACE_OUTER_BOUND ( 'NONE', #852, .T. ) ;
#884 = VECTOR ( 'NONE', #399, 1000.000000000000000 ) ;
#885 = ORIENTED_EDGE ( 'NONE', *, *, #346, .T. ) ;
#886 = CIRCLE ( 'NONE', #377, 2.500000000000009326 ) ;
#887 = EDGE_LOOP ( 'NONE', ( #472, #1061, #589, #14 ) ) ;
#888 = DIRECTION ( 'NONE',  ( -1.000000000000000000, 0.000000000000000000, 0.000000000000000000 ) ) ;
#889 = CARTESIAN_POINT ( 'NONE',  ( 4.000000000000000000, 20.49999999999999645, -7.483396654233268386 ) ) ;
#890 = VERTEX_POINT ( 'NONE', #584 ) ;
#891 = ADVANCED_BREP_SHAPE_REPRESENTATION ( 'Y Limit Switch Mount', ( #90, #323 ), #150 ) ;
#892 = DIRECTION ( 'NONE',  ( -1.000000000000000000, -0.000000000000000000, 0.000000000000000000 ) ) ;
#893 = EDGE_CURVE ( 'NONE', #858, #198, #218, .T. ) ;
#894 = ORIENTED_EDGE ( 'NONE', *, *, #1045, .F. ) ;
#895 = CARTESIAN_POINT ( 'NONE',  ( 4.000000000000000000, 12.75000000000000178, 24.75000000000000000 ) ) ;
#896 = CARTESIAN_POINT ( 'NONE',  ( 0.000000000000000000, 12.75000000000000178, 23.25000000000000000 ) ) ;
#897 = EDGE_LOOP ( 'NONE', ( #18, #714, #1052, #992 ) ) ;
#898 = APPLICATION_CONTEXT ( 'automotive_design' ) ;
#899 = CARTESIAN_POINT ( 'NONE',  ( 4.000000000000000000, 27.25000000000000000, 6.328421076814860889E-16 ) ) ;
#900 = VERTEX_POINT ( 'NONE', #838 ) ;
#901 = PLANE ( 'NONE',  #216 ) ;
#902 = LINE ( 'NONE', #820, #1029 ) ;
#903 = VERTEX_POINT ( 'NONE', #419 ) ;
#904 = VECTOR ( 'NONE', #706, 1000.000000000000000 ) ;
#905 = CARTESIAN_POINT ( 'NONE',  ( 0.000000000000000000, -7.000000000000002665, -7.483396654233268386 ) ) ;
#906 = CIRCLE ( 'NONE', #816, 2.500000000000000444 ) ;
#907 = AXIS2_PLACEMENT_3D ( 'NONE', #895, #822, #64 ) ;
#908 = FACE_OUTER_BOUND ( 'NONE', #495, .T. ) ;
#909 = DIRECTION ( 'NONE',  ( 0.000000000000000000, 0.000000000000000000, -1.000000000000000000 ) ) ;
#910 = EDGE_CURVE ( 'NONE', #651, #207, #334, .T. ) ;
#911 = ORIENTED_EDGE ( 'NONE', *, *, #346, .F. ) ;
#912 = FACE_OUTER_BOUND ( 'NONE', #478, .T. ) ;
#913 = DIRECTION ( 'NONE',  ( 0.000000000000000000, 0.000000000000000000, 1.000000000000000000 ) ) ;
#914 = EDGE_LOOP ( 'NONE', ( #113, #405 ) ) ;
#915 = EDGE_CURVE ( 'NONE', #485, #829, #203, .T. ) ;
#916 = DIRECTION ( 'NONE',  ( -1.000000000000000000, 0.000000000000000000, -0.000000000000000000 ) ) ;
#917 = CARTESIAN_POINT ( 'NONE',  ( 4.000000000000000000, -4.500000000000003553, -7.483396654233270162 ) ) ;
#918 = APPLICATION_CONTEXT ( 'automotive_design' ) ;
#919 = VERTEX_POINT ( 'NONE', #208 ) ;
#920 = ORIENTED_EDGE ( 'NONE', *, *, #463, .T. ) ;
#921 = AXIS2_PLACEMENT_3D ( 'NONE', #262, #257, #690 ) ;
#922 = CARTESIAN_POINT ( 'NONE',  ( 4.000000000000000000, -11.25000000000000355, -17.81185254740412915 ) ) ;
#923 = CIRCLE ( 'NONE', #993, 2.500000000000009326 ) ;
#924 = VECTOR ( 'NONE', #454, 1000.000000000000000 ) ;
#925 = LINE ( 'NONE', #265, #572 ) ;
#926 = ORIENTED_EDGE ( 'NONE', *, *, #108, .T. ) ;
#927 = VERTEX_POINT ( 'NONE', #871 ) ;
#928 = CARTESIAN_POINT ( 'NONE',  ( 4.000000000000000000, -7.000000000000002665, 0.000000000000000000 ) ) ;
#929 = EDGE_CURVE ( 'NONE', #890, #263, #715, .T. ) ;
#930 = LINE ( 'NONE', #775, #320 ) ;
#931 = CARTESIAN_POINT ( 'NONE',  ( 4.000000000000000000, 30.50000000000000000, 5.024160709340228931E-15 ) ) ;
#932 = VERTEX_POINT ( 'NONE', #20 ) ;
#933 = LINE ( 'NONE', #80, #322 ) ;
#934 = CYLINDRICAL_SURFACE ( 'NONE', #995, 3.249999999999999556 ) ;
#935 = FACE_OUTER_BOUND ( 'NONE', #642, .T. ) ;
#936 = EDGE_CURVE ( 'NONE', #100, #361, #543, .T. ) ;
#937 = ORIENTED_EDGE ( 'NONE', *, *, #1024, .T. ) ;
#938 = CARTESIAN_POINT ( 'NONE',  ( 4.000000000000000000, -11.25000000000000355, -17.81185254740412915 ) ) ;
#939 = CIRCLE ( 'NONE', #1068, 2.500000000000009326 ) ;
#940 = CARTESIAN_POINT ( 'NONE',  ( 0.000000000000000000, 3.250000000000000000, 3.250000000000000000 ) ) ;
#941 = VECTOR ( 'NONE', #537, 1000.000000000000000 ) ;
#942 = DIRECTION ( 'NONE',  ( 1.000000000000000000, -0.000000000000000000, 0.000000000000000000 ) ) ;
#943 = ADVANCED_FACE ( 'NONE', ( #547 ), #876, .F. ) ;
#944 = ORIENTED_EDGE ( 'NONE', *, *, #541, .F. ) ;
#945 = CARTESIAN_POINT ( 'NONE',  ( 0.000000000000000000, 20.49999999999999645, -7.483396654233268386 ) ) ;
#946 = FACE_OUTER_BOUND ( 'NONE', #757, .T. ) ;
#947 = LINE ( 'NONE', #172, #759 ) ;
#948 = ORIENTED_EDGE ( 'NONE', *, *, #497, .T. ) ;
#949 = CARTESIAN_POINT ( 'NONE',  ( 0.000000000000000000, 12.75000000000000178, 28.00000000000000000 ) ) ;
#950 = DIRECTION ( 'NONE',  ( 1.000000000000000000, -0.000000000000000000, 0.000000000000000000 ) ) ;
#951 = ORIENTED_EDGE ( 'NONE', *, *, #421, .T. ) ;
#952 = ORIENTED_EDGE ( 'NONE', *, *, #401, .T. ) ;
#953 = DIRECTION ( 'NONE',  ( 0.000000000000000000, 0.000000000000000000, -1.000000000000000000 ) ) ;
#954 = ADVANCED_FACE ( 'NONE', ( #799 ), #44, .F. ) ;
#955 = FACE_BOUND ( 'NONE', #1083, .T. ) ;
#956 = AXIS2_PLACEMENT_3D ( 'NONE', #931, #267, #612 ) ;
#957 = CARTESIAN_POINT ( 'NONE',  ( 4.000000000000000000, -7.000000000000002665, 0.000000000000000000 ) ) ;
#958 = AXIS2_PLACEMENT_3D ( 'NONE', #351, #256, #273 ) ;
#959 = VECTOR ( 'NONE', #220, 1000.000000000000000 ) ;
#960 = ORIENTED_EDGE ( 'NONE', *, *, #491, .T. ) ;
#961 = DIRECTION ( 'NONE',  ( -1.000000000000000000, 0.000000000000000000, 0.000000000000000000 ) ) ;
#962 = ORIENTED_EDGE ( 'NONE', *, *, #691, .T. ) ;
#963 = DIRECTION ( 'NONE',  ( 1.000000000000000000, -0.000000000000000000, 0.000000000000000000 ) ) ;
#964 = EDGE_CURVE ( 'NONE', #837, #927, #675, .T. ) ;
#965 = LINE ( 'NONE', #364, #391 ) ;
#966 = VERTEX_POINT ( 'NONE', #117 ) ;
#967 = CARTESIAN_POINT ( 'NONE',  ( 4.000000000000000000, 17.99999999999999645, -7.483396654233271938 ) ) ;
#968 = DIRECTION ( 'NONE',  ( 0.000000000000000000, 0.000000000000000000, 1.000000000000000000 ) ) ;
#969 = CARTESIAN_POINT ( 'NONE',  ( 4.000000000000000000, 27.25000000000000000, -3.249999999999999556 ) ) ;
#970 = ORIENTED_EDGE ( 'NONE', *, *, #139, .T. ) ;
#971 = FACE_OUTER_BOUND ( 'NONE', #781, .T. ) ;
#972 = ORIENTED_EDGE ( 'NONE', *, *, #317, .F. ) ;
#973 = CARTESIAN_POINT ( 'NONE',  ( 4.000000000000000000, 0.000000000000000000, -21.06185254740412915 ) ) ;
#974 = DIRECTION ( 'NONE',  ( -1.000000000000000000, 0.000000000000000000, -0.000000000000000000 ) ) ;
#975 = AXIS2_PLACEMENT_3D ( 'NONE', #410, #812, #416 ) ;
#976 = VERTEX_POINT ( 'NONE', #1046 ) ;
#977 = CIRCLE ( 'NONE', #149, 1.500000000000001332 ) ;
#978 = EDGE_CURVE ( 'NONE', #178, #863, #298, .T. ) ;
#979 = VECTOR ( 'NONE', #774, 1000.000000000000000 ) ;
#980 = ORIENTED_EDGE ( 'NONE', *, *, #658, .T. ) ;
#981 = CYLINDRICAL_SURFACE ( 'NONE', #907, 1.500000000000001332 ) ;
#982 = DIRECTION ( 'NONE',  ( -1.000000000000000000, -0.000000000000000000, 0.000000000000000000 ) ) ;
#983 = ORIENTED_EDGE ( 'NONE', *, *, #76, .T. ) ;
#984 = PRODUCT_CONTEXT ( 'NONE', #898, 'mechanical' ) ;
#985 = VERTEX_POINT ( 'NONE', #625 ) ;
#986 = DIRECTION ( 'NONE',  ( 0.000000000000000000, 0.000000000000000000, -1.000000000000000000 ) ) ;
#987 = DIRECTION ( 'NONE',  ( 0.000000000000000000, 1.647265806341058617E-16, 1.000000000000000000 ) ) ;
#988 = ORIENTED_EDGE ( 'NONE', *, *, #910, .F. ) ;
#989 = DIRECTION ( 'NONE',  ( 0.000000000000000000, -0.000000000000000000, 1.000000000000000000 ) ) ;
#990 = ADVANCED_FACE ( 'NONE', ( #971 ), #459, .T. ) ;
#991 = CYLINDRICAL_SURFACE ( 'NONE', #71, 3.249999999999999556 ) ;
#992 = ORIENTED_EDGE ( 'NONE', *, *, #1040, .F. ) ;
#993 = AXIS2_PLACEMENT_3D ( 'NONE', #544, #1054, #209 ) ;
#994 =( LENGTH_UNIT ( ) NAMED_UNIT ( * ) SI_UNIT ( .MILLI., .METRE. ) );
#995 = AXIS2_PLACEMENT_3D ( 'NONE', #12, #856, #342 ) ;
#996 = VECTOR ( 'NONE', #687, 1000.000000000000000 ) ;
#997 = CARTESIAN_POINT ( 'NONE',  ( 0.000000000000000000, -0.000000000000000000, 6.328421076814860889E-16 ) ) ;
#998 = EDGE_CURVE ( 'NONE', #633, #490, #277, .T. ) ;
#999 = DIRECTION ( 'NONE',  ( -1.000000000000000000, -0.000000000000000000, -0.000000000000000000 ) ) ;
#1000 = ORIENTED_EDGE ( 'NONE', *, *, #964, .T. ) ;
#1001 = LINE ( 'NONE', #493, #833 ) ;
#1002 = DIRECTION ( 'NONE',  ( 0.000000000000000000, 0.000000000000000000, -1.000000000000000000 ) ) ;
#1003 = EDGE_LOOP ( 'NONE', ( #219, #1, #562, #384 ) ) ;
#1004 = EDGE_CURVE ( 'NONE', #263, #1056, #440, .T. ) ;
#1005 = ORIENTED_EDGE ( 'NONE', *, *, #108, .F. ) ;
#1006 = CARTESIAN_POINT ( 'NONE',  ( 0.000000000000000000, -1.999999999999999556, 0.000000000000000000 ) ) ;
#1007 = LINE ( 'NONE', #526, #392 ) ;
#1008 = VERTEX_POINT ( 'NONE', #373 ) ;
#1009 = ORIENTED_EDGE ( 'NONE', *, *, #205, .F. ) ;
#1010 = EDGE_CURVE ( 'NONE', #1071, #490, #860, .T. ) ;
#1011 = CIRCLE ( 'NONE', #234, 2.500000000000009326 ) ;
#1012 = CARTESIAN_POINT ( 'NONE',  ( 0.000000000000000000, -0.000000000000000000, 6.328421076814860889E-16 ) ) ;
#1013 = AXIS2_PLACEMENT_3D ( 'NONE', #595, #1023, #585 ) ;
#1014 = AXIS2_PLACEMENT_3D ( 'NONE', #738, #1081, #316 ) ;
#1015 = CARTESIAN_POINT ( 'NONE',  ( 0.000000000000000000, -3.250000000000000000, 3.250000000000000444 ) ) ;
#1016 = CARTESIAN_POINT ( 'NONE',  ( 4.000000000000000000, 0.000000000000000000, 6.328421076814860889E-16 ) ) ;
#1017 = ORIENTED_EDGE ( 'NONE', *, *, #601, .F. ) ;
#1018 = CARTESIAN_POINT ( 'NONE',  ( 0.000000000000000000, 12.75000000000000178, 28.00000000000000000 ) ) ;
#1019 = CARTESIAN_POINT ( 'NONE',  ( 4.000000000000000000, -4.500000000000002665, -12.48339665423326572 ) ) ;
#1020 = LINE ( 'NONE', #841, #38 ) ;
#1021 = EDGE_LOOP ( 'NONE', ( #824, #302, #1033, #429 ) ) ;
#1022 = CARTESIAN_POINT ( 'NONE',  ( 0.000000000000000000, 19.25000000000000000, 3.250000000000000444 ) ) ;
#1023 = DIRECTION ( 'NONE',  ( 1.000000000000000000, -0.000000000000000000, 0.000000000000000000 ) ) ;
#1024 = EDGE_CURVE ( 'NONE', #490, #400, #200, .T. ) ;
#1025 = PLANE ( 'NONE',  #956 ) ;
#1026 = ORIENTED_EDGE ( 'NONE', *, *, #441, .F. ) ;
#1027 = PLANE ( 'NONE',  #853 ) ;
#1028 = AXIS2_PLACEMENT_3D ( 'NONE', #330, #982, #574 ) ;
#1029 = VECTOR ( 'NONE', #521, 1000.000000000000000 ) ;
#1030 = DIRECTION ( 'NONE',  ( 0.000000000000000000, 0.000000000000000000, -1.000000000000000000 ) ) ;
#1031 = CIRCLE ( 'NONE', #430, 3.249999999999999556 ) ;
#1032 = ADVANCED_FACE ( 'NONE', ( #285 ), #1053, .T. ) ;
#1033 = ORIENTED_EDGE ( 'NONE', *, *, #205, .T. ) ;
#1034 = ORIENTED_EDGE ( 'NONE', *, *, #505, .T. ) ;
#1035 = DIRECTION ( 'NONE',  ( 1.000000000000000000, 0.000000000000000000, -0.000000000000000000 ) ) ;
#1036 = VERTEX_POINT ( 'NONE', #367 ) ;
#1037 = DIRECTION ( 'NONE',  ( 1.000000000000000000, 0.000000000000000000, -0.000000000000000000 ) ) ;
#1038 = DIRECTION ( 'NONE',  ( 0.000000000000000000, 0.000000000000000000, -1.000000000000000000 ) ) ;
#1039 = EDGE_LOOP ( 'NONE', ( #212, #349, #143, #462 ) ) ;
#1040 = EDGE_CURVE ( 'NONE', #927, #809, #610, .T. ) ;
#1041 = CARTESIAN_POINT ( 'NONE',  ( 0.000000000000000000, 27.25000000000000355, -21.06185254740412915 ) ) ;
#1042 = CARTESIAN_POINT ( 'NONE',  ( 4.000000000000000000, -4.500000000000003553, -7.483396654233270162 ) ) ;
#1043 = FACE_BOUND ( 'NONE', #474, .T. ) ;
#1044 = ORIENTED_EDGE ( 'NONE', *, *, #936, .T. ) ;
#1045 = EDGE_CURVE ( 'NONE', #370, #1008, #191, .T. ) ;
#1046 = CARTESIAN_POINT ( 'NONE',  ( 4.000000000000000000, 3.250000000000000000, 4.749999999999999112 ) ) ;
#1047 = DIRECTION ( 'NONE',  ( -1.000000000000000000, -0.000000000000000000, -0.000000000000000000 ) ) ;
#1048 = AXIS2_PLACEMENT_3D ( 'NONE', #917, #482, #489 ) ;
#1049 = DIRECTION ( 'NONE',  ( 1.000000000000000000, -0.000000000000000000, 0.000000000000000000 ) ) ;
#1050 = CIRCLE ( 'NONE', #1013, 2.500000000000000444 ) ;
#1051 = VECTOR ( 'NONE', #615, 1000.000000000000000 ) ;
#1052 = ORIENTED_EDGE ( 'NONE', *, *, #691, .F. ) ;
#1053 = PLANE ( 'NONE',  #817 ) ;
#1054 = DIRECTION ( 'NONE',  ( 1.000000000000000000, -0.000000000000000000, 0.000000000000000000 ) ) ;
#1055 = DIRECTION ( 'NONE',  ( 1.000000000000000000, -0.000000000000000000, -0.000000000000000000 ) ) ;
#1056 = VERTEX_POINT ( 'NONE', #1041 ) ;
#1057 = CARTESIAN_POINT ( 'NONE',  ( 4.000000000000000000, -11.25000000000000355, -21.06185254740412915 ) ) ;
#1058 = LINE ( 'NONE', #783, #620 ) ;
#1059 = EDGE_CURVE ( 'NONE', #976, #919, #780, .T. ) ;
#1060 = FACE_OUTER_BOUND ( 'NONE', #1094, .T. ) ;
#1061 = ORIENTED_EDGE ( 'NONE', *, *, #435, .T. ) ;
#1062 = LINE ( 'NONE', #899, #340 ) ;
#1063 = ORIENTED_EDGE ( 'NONE', *, *, #717, .F. ) ;
#1064 = CARTESIAN_POINT ( 'NONE',  ( 4.000000000000000000, 23.00000000000001421, -12.48339665423326217 ) ) ;
#1065 = LINE ( 'NONE', #794, #904 ) ;
#1066 = CIRCLE ( 'NONE', #671, 3.249999999999999556 ) ;
#1067 = VERTEX_POINT ( 'NONE', #635 ) ;
#1068 = AXIS2_PLACEMENT_3D ( 'NONE', #646, #735, #239 ) ;
#1069 = AXIS2_PLACEMENT_3D ( 'NONE', #700, #704, #953 ) ;
#1070 = EDGE_CURVE ( 'NONE', #263, #389, #588, .T. ) ;
#1071 = VERTEX_POINT ( 'NONE', #67 ) ;
#1072 = FACE_OUTER_BOUND ( 'NONE', #546, .T. ) ;
#1073 = CARTESIAN_POINT ( 'NONE',  ( 4.000000000000000000, 20.49999999999999645, -7.483396654233268386 ) ) ;
#1074 = VERTEX_POINT ( 'NONE', #552 ) ;
#1075 = EDGE_CURVE ( 'NONE', #417, #207, #1062, .T. ) ;
#1076 = LINE ( 'NONE', #385, #413 ) ;
#1077 = LINE ( 'NONE', #243, #653 ) ;
#1078 = ORIENTED_EDGE ( 'NONE', *, *, #831, .T. ) ;
#1079 = PRODUCT_DEFINITION_SHAPE ( 'NONE', 'NONE',  #866 ) ;
#1080 = EDGE_CURVE ( 'NONE', #297, #1071, #737, .T. ) ;
#1081 = DIRECTION ( 'NONE',  ( 1.000000000000000000, -0.000000000000000000, 0.000000000000000000 ) ) ;
#1082 = LINE ( 'NONE', #828, #795 ) ;
#1083 = EDGE_LOOP ( 'NONE', ( #668, #804 ) ) ;
#1084 = VECTOR ( 'NONE', #232, 1000.000000000000000 ) ;
#1085 = VECTOR ( 'NONE', #53, 1000.000000000000000 ) ;
#1086 = AXIS2_PLACEMENT_3D ( 'NONE', #786, #792, #1035 ) ;
#1087 = DIRECTION ( 'NONE',  ( -1.000000000000000000, 0.000000000000000000, -0.000000000000000000 ) ) ;
#1088 = FACE_OUTER_BOUND ( 'NONE', #587, .T. ) ;
#1089 = VERTEX_POINT ( 'NONE', #905 ) ;
#1090 = VERTEX_POINT ( 'NONE', #492 ) ;
#1091 = CARTESIAN_POINT ( 'NONE',  ( 4.000000000000000000, 16.00000000000000000, 0.000000000000000000 ) ) ;
#1092 = FACE_OUTER_BOUND ( 'NONE', #9, .T. ) ;
#1093 = ADVANCED_FACE ( 'NONE', ( #406 ), #719, .T. ) ;
#1094 = EDGE_LOOP ( 'NONE', ( #512, #613, #245, #66 ) ) ;
#1095 = ORIENTED_EDGE ( 'NONE', *, *, #275, .F. ) ;
#1096 = FACE_OUTER_BOUND ( 'NONE', #748, .T. ) ;
#1097 = DIRECTION ( 'NONE',  ( 1.000000000000000000, -0.000000000000000000, -0.000000000000000000 ) ) ;
ENDSEC;
END-ISO-10303-21;
