ISO-10303-21;
HEADER;
FILE_DESCRIPTION (( 'STEP AP214' ),
    '1' );
FILE_NAME ('Y motor brace.STEP',
    '2026-04-11T03:07:08',
    ( '' ),
    ( '' ),
    'SwSTEP 2.0',
    'SolidWorks 2025',
    '' );
FILE_SCHEMA (( 'AUTOMOTIVE_DESIGN' ));
ENDSEC;

DATA;
#1 = DIRECTION ( 'NONE',  ( 1.000000000000000000, 0.000000000000000000, 0.000000000000000000 ) ) ;
#2 = STYLED_ITEM ( 'NONE', ( #66 ), #189 ) ;
#3 = EDGE_CURVE ( 'NONE', #228, #52, #43, .T. ) ;
#4 = DIRECTION ( 'NONE',  ( 0.000000000000000000, 0.000000000000000000, 1.000000000000000000 ) ) ;
#5 = CARTESIAN_POINT ( 'NONE',  ( 0.000000000000000000, 16.69999999999999929, -1.000000000000000888 ) ) ;
#6 = DIRECTION ( 'NONE',  ( 0.000000000000000000, -1.000000000000000000, 0.000000000000000000 ) ) ;
#7 = FACE_OUTER_BOUND ( 'NONE', #279, .T. ) ;
#8 = UNCERTAINTY_MEASURE_WITH_UNIT (LENGTH_MEASURE( 1.000000000000000082E-05 ), #232, 'distance_accuracy_value', 'NONE');
#9 = CARTESIAN_POINT ( 'NONE',  ( 4.900000000000000355, 15.69999999999999574, 0.000000000000000000 ) ) ;
#10 = LINE ( 'NONE', #271, #82 ) ;
#11 = VECTOR ( 'NONE', #200, 1000.000000000000000 ) ;
#12 = ADVANCED_FACE ( 'NONE', ( #142 ), #214, .T. ) ;
#13 = PLANE ( 'NONE',  #250 ) ;
#14 = ORIENTED_EDGE ( 'NONE', *, *, #278, .T. ) ;
#15 = DIRECTION ( 'NONE',  ( 0.000000000000000000, 0.000000000000000000, 1.000000000000000000 ) ) ;
#16 = VERTEX_POINT ( 'NONE', #146 ) ;
#17 = ADVANCED_FACE ( 'NONE', ( #148 ), #122, .F. ) ;
#18 = VECTOR ( 'NONE', #168, 1000.000000000000000 ) ;
#19 = CARTESIAN_POINT ( 'NONE',  ( 3.899999999999999911, 16.69999999999999929, -1.000000000000000888 ) ) ;
#20 = CARTESIAN_POINT ( 'NONE',  ( 1.000000000000000888, 16.69999999999999929, -3.999999999999999112 ) ) ;
#21 = LINE ( 'NONE', #215, #109 ) ;
#22 = LINE ( 'NONE', #260, #220 ) ;
#23 = LINE ( 'NONE', #212, #18 ) ;
#24 = CARTESIAN_POINT ( 'NONE',  ( 0.000000000000000000, 15.69999999999999574, -5.000000000000000000 ) ) ;
#25 = DIRECTION ( 'NONE',  ( -0.7071067811865487940, -0.7071067811865463515, -0.000000000000000000 ) ) ;
#26 = PLANE ( 'NONE',  #125 ) ;
#27 = VECTOR ( 'NONE', #154, 1000.000000000000000 ) ;
#28 = CARTESIAN_POINT ( 'NONE',  ( 0.000000000000000000, 16.69999999999999929, 0.000000000000000000 ) ) ;
#29 = CARTESIAN_POINT ( 'NONE',  ( 4.900000000000000355, -16.69999999999999929, -5.000000000000000000 ) ) ;
#30 = EDGE_LOOP ( 'NONE', ( #144, #206, #230, #255 ) ) ;
#31 = EDGE_CURVE ( 'NONE', #242, #101, #259, .T. ) ;
#32 =( NAMED_UNIT ( * ) PLANE_ANGLE_UNIT ( ) SI_UNIT ( $, .RADIAN. ) );
#33 = ORIENTED_EDGE ( 'NONE', *, *, #44, .F. ) ;
#34 = ORIENTED_EDGE ( 'NONE', *, *, #191, .F. ) ;
#35 = DIRECTION ( 'NONE',  ( -0.000000000000000000, -1.000000000000000000, -0.000000000000000000 ) ) ;
#36 = ORIENTED_EDGE ( 'NONE', *, *, #222, .F. ) ;
#37 = PRODUCT_DEFINITION_SHAPE ( 'NONE', 'NONE',  #105 ) ;
#38 = ORIENTED_EDGE ( 'NONE', *, *, #80, .T. ) ;
#39 = EDGE_CURVE ( 'NONE', #181, #158, #127, .T. ) ;
#40 = EDGE_LOOP ( 'NONE', ( #36, #272, #208, #143 ) ) ;
#41 = VECTOR ( 'NONE', #68, 1000.000000000000000 ) ;
#42 = DIRECTION ( 'NONE',  ( -0.000000000000000000, -0.000000000000000000, 1.000000000000000000 ) ) ;
#43 = LINE ( 'NONE', #188, #121 ) ;
#44 = EDGE_CURVE ( 'NONE', #242, #228, #217, .T. ) ;
#45 = LINE ( 'NONE', #5, #194 ) ;
#46 = AXIS2_PLACEMENT_3D ( 'NONE', #198, #25, #50 ) ;
#47 = APPLICATION_CONTEXT ( 'automotive_design' ) ;
#48 = CARTESIAN_POINT ( 'NONE',  ( 0.000000000000000000, -16.69999999999999929, 0.000000000000000000 ) ) ;
#49 = PRODUCT ( 'Y motor brace', 'Y motor brace', '', ( #93 ) ) ;
#50 = DIRECTION ( 'NONE',  ( 0.000000000000000000, 0.000000000000000000, -1.000000000000000000 ) ) ;
#51 = CARTESIAN_POINT ( 'NONE',  ( 3.899999999999999911, 16.69999999999999929, 0.000000000000000000 ) ) ;
#52 = VERTEX_POINT ( 'NONE', #20 ) ;
#53 = ADVANCED_FACE ( 'NONE', ( #86 ), #126, .F. ) ;
#54 = ADVANCED_BREP_SHAPE_REPRESENTATION ( 'Y motor brace', ( #189, #160 ), #234 ) ;
#55 = APPLICATION_PROTOCOL_DEFINITION ( 'draft international standard', 'automotive_design', 1998, #47 ) ;
#56 = ORIENTED_EDGE ( 'NONE', *, *, #31, .T. ) ;
#57 = COLOUR_RGB ( '',0.7921568627450980005, 0.8196078431372548767, 0.9333333333333333481 ) ;
#58 = EDGE_LOOP ( 'NONE', ( #252, #65, #96, #60 ) ) ;
#59 = DIRECTION ( 'NONE',  ( 0.000000000000000000, -1.000000000000000000, 0.000000000000000000 ) ) ;
#60 = ORIENTED_EDGE ( 'NONE', *, *, #177, .T. ) ;
#61 = DIRECTION ( 'NONE',  ( 0.5773502691896251759, -0.5773502691896270633, 0.5773502691896251759 ) ) ;
#62 = LINE ( 'NONE', #240, #171 ) ;
#63 = EDGE_CURVE ( 'NONE', #158, #239, #21, .T. ) ;
#64 = VECTOR ( 'NONE', #118, 1000.000000000000000 ) ;
#65 = ORIENTED_EDGE ( 'NONE', *, *, #161, .T. ) ;
#66 = PRESENTATION_STYLE_ASSIGNMENT (( #247 ) ) ;
#67 = PLANE ( 'NONE',  #46 ) ;
#68 = DIRECTION ( 'NONE',  ( 0.000000000000000000, 0.000000000000000000, 1.000000000000000000 ) ) ;
#69 = FILL_AREA_STYLE_COLOUR ( '', #57 ) ;
#70 =( NAMED_UNIT ( * ) SI_UNIT ( $, .STERADIAN. ) SOLID_ANGLE_UNIT ( ) );
#71 = PLANE ( 'NONE',  #211 ) ;
#72 = CARTESIAN_POINT ( 'NONE',  ( 4.900000000000000355, 16.69999999999999929, -5.000000000000000000 ) ) ;
#73 = ORIENTED_EDGE ( 'NONE', *, *, #264, .F. ) ;
#74 = CARTESIAN_POINT ( 'NONE',  ( 0.000000000000000000, 15.69999999999999574, 0.000000000000000000 ) ) ;
#75 = ORIENTED_EDGE ( 'NONE', *, *, #63, .T. ) ;
#76 = ORIENTED_EDGE ( 'NONE', *, *, #3, .T. ) ;
#77 = VECTOR ( 'NONE', #256, 1000.000000000000000 ) ;
#78 = LINE ( 'NONE', #51, #185 ) ;
#79 = ORIENTED_EDGE ( 'NONE', *, *, #141, .T. ) ;
#80 = EDGE_CURVE ( 'NONE', #16, #159, #23, .T. ) ;
#81 = ORIENTED_EDGE ( 'NONE', *, *, #161, .F. ) ;
#82 = VECTOR ( 'NONE', #91, 1000.000000000000000 ) ;
#83 = AXIS2_PLACEMENT_3D ( 'NONE', #262, #151, #4 ) ;
#84 = LINE ( 'NONE', #166, #236 ) ;
#85 = EDGE_LOOP ( 'NONE', ( #94, #38, #14, #75 ) ) ;
#86 = FACE_OUTER_BOUND ( 'NONE', #40, .T. ) ;
#87 = VECTOR ( 'NONE', #243, 1000.000000000000000 ) ;
#88 = VERTEX_POINT ( 'NONE', #19 ) ;
#89 = PLANE ( 'NONE',  #83 ) ;
#90 = CARTESIAN_POINT ( 'NONE',  ( 0.000000000000000000, 16.69999999999999929, 0.000000000000000000 ) ) ;
#91 = DIRECTION ( 'NONE',  ( 0.5773502691896251759, -0.5773502691896270633, -0.5773502691896251759 ) ) ;
#92 = AXIS2_PLACEMENT_3D ( 'NONE', #238, #124, #123 ) ;
#93 = PRODUCT_CONTEXT ( 'NONE', #47, 'mechanical' ) ;
#94 = ORIENTED_EDGE ( 'NONE', *, *, #273, .F. ) ;
#95 = APPLICATION_PROTOCOL_DEFINITION ( 'draft international standard', 'automotive_design', 1998, #169 ) ;
#96 = ORIENTED_EDGE ( 'NONE', *, *, #191, .T. ) ;
#97 = EDGE_LOOP ( 'NONE', ( #56, #34, #182, #33 ) ) ;
#98 = EDGE_LOOP ( 'NONE', ( #164, #210, #100, #140 ) ) ;
#99 = DIRECTION ( 'NONE',  ( 1.000000000000000000, 0.000000000000000000, -0.000000000000000000 ) ) ;
#100 = ORIENTED_EDGE ( 'NONE', *, *, #115, .F. ) ;
#101 = VERTEX_POINT ( 'NONE', #281 ) ;
#102 = ORIENTED_EDGE ( 'NONE', *, *, #138, .F. ) ;
#103 = MECHANICAL_DESIGN_GEOMETRIC_PRESENTATION_REPRESENTATION (  '', ( #2 ), #216 ) ;
#104 = DIRECTION ( 'NONE',  ( -1.000000000000000000, 0.000000000000000000, 0.000000000000000000 ) ) ;
#105 = PRODUCT_DEFINITION ( 'UNKNOWN', '', #179, #196 ) ;
#106 = CARTESIAN_POINT ( 'NONE',  ( 0.000000000000000000, 16.69999999999999929, -3.999999999999999112 ) ) ;
#107 = PLANE ( 'NONE',  #253 ) ;
#108 = LINE ( 'NONE', #199, #41 ) ;
#109 = VECTOR ( 'NONE', #187, 1000.000000000000000 ) ;
#110 = EDGE_CURVE ( 'NONE', #159, #242, #22, .T. ) ;
#111 = DIRECTION ( 'NONE',  ( 0.000000000000000000, -0.7071067811865463515, -0.7071067811865487940 ) ) ;
#112 = FACE_OUTER_BOUND ( 'NONE', #170, .T. ) ;
#113 = ORIENTED_EDGE ( 'NONE', *, *, #278, .F. ) ;
#114 = ORIENTED_EDGE ( 'NONE', *, *, #226, .F. ) ;
#115 = EDGE_CURVE ( 'NONE', #88, #159, #84, .T. ) ;
#116 = DIRECTION ( 'NONE',  ( 0.000000000000000000, -0.7071067811865463515, 0.7071067811865487940 ) ) ;
#117 = ORIENTED_EDGE ( 'NONE', *, *, #39, .F. ) ;
#118 = DIRECTION ( 'NONE',  ( -1.000000000000000000, -0.000000000000000000, -0.000000000000000000 ) ) ;
#119 = ORIENTED_EDGE ( 'NONE', *, *, #80, .F. ) ;
#120 = LINE ( 'NONE', #231, #193 ) ;
#121 = VECTOR ( 'NONE', #165, 1000.000000000000000 ) ;
#122 = PLANE ( 'NONE',  #92 ) ;
#123 = DIRECTION ( 'NONE',  ( 0.000000000000000000, 0.000000000000000000, -1.000000000000000000 ) ) ;
#124 = DIRECTION ( 'NONE',  ( 1.000000000000000000, -0.000000000000000000, 0.000000000000000000 ) ) ;
#125 = AXIS2_PLACEMENT_3D ( 'NONE', #90, #266, #175 ) ;
#126 = PLANE ( 'NONE',  #130 ) ;
#127 = LINE ( 'NONE', #192, #258 ) ;
#128 = FACE_OUTER_BOUND ( 'NONE', #58, .T. ) ;
#129 = EDGE_CURVE ( 'NONE', #203, #181, #62, .T. ) ;
#130 = AXIS2_PLACEMENT_3D ( 'NONE', #282, #235, #99 ) ;
#131 = CARTESIAN_POINT ( 'NONE',  ( 4.900000000000000355, -16.69999999999999929, 0.000000000000000000 ) ) ;
#132 = DIRECTION ( 'NONE',  ( 1.000000000000000000, 0.000000000000000000, 0.000000000000000000 ) ) ;
#133 =( LENGTH_UNIT ( ) NAMED_UNIT ( * ) SI_UNIT ( .MILLI., .METRE. ) );
#134 = LINE ( 'NONE', #106, #275 ) ;
#135 = LINE ( 'NONE', #137, #64 ) ;
#136 = EDGE_LOOP ( 'NONE', ( #233, #119, #73, #114 ) ) ;
#137 = CARTESIAN_POINT ( 'NONE',  ( 0.000000000000000000, -16.69999999999999929, -5.000000000000000000 ) ) ;
#138 = EDGE_CURVE ( 'NONE', #228, #16, #221, .T. ) ;
#139 = SHAPE_DEFINITION_REPRESENTATION ( #37, #54 ) ;
#140 = ORIENTED_EDGE ( 'NONE', *, *, #177, .F. ) ;
#141 = EDGE_CURVE ( 'NONE', #242, #181, #263, .T. ) ;
#142 = FACE_OUTER_BOUND ( 'NONE', #183, .T. ) ;
#143 = ORIENTED_EDGE ( 'NONE', *, *, #237, .T. ) ;
#144 = ORIENTED_EDGE ( 'NONE', *, *, #141, .F. ) ;
#145 = ADVANCED_FACE ( 'NONE', ( #150 ), #67, .F. ) ;
#146 = CARTESIAN_POINT ( 'NONE',  ( 4.900000000000000355, 15.69999999999999574, -5.000000000000000000 ) ) ;
#147 = PRESENTATION_LAYER_ASSIGNMENT (  '', '', ( #2 ) ) ;
#148 = FACE_OUTER_BOUND ( 'NONE', #30, .T. ) ;
#149 = ADVANCED_FACE ( 'NONE', ( #128 ), #107, .F. ) ;
#150 = FACE_OUTER_BOUND ( 'NONE', #136, .T. ) ;
#151 = DIRECTION ( 'NONE',  ( -1.000000000000000000, 0.000000000000000000, 0.000000000000000000 ) ) ;
#152 = FILL_AREA_STYLE ('',( #69 ) ) ;
#153 = SURFACE_SIDE_STYLE ('',( #223 ) ) ;
#154 = DIRECTION ( 'NONE',  ( -0.000000000000000000, -1.000000000000000000, -0.000000000000000000 ) ) ;
#155 = VERTEX_POINT ( 'NONE', #265 ) ;
#156 = ADVANCED_FACE ( 'NONE', ( #172 ), #173, .F. ) ;
#157 = DIRECTION ( 'NONE',  ( -0.000000000000000000, -1.000000000000000000, -0.000000000000000000 ) ) ;
#158 = VERTEX_POINT ( 'NONE', #131 ) ;
#159 = VERTEX_POINT ( 'NONE', #9 ) ;
#160 = AXIS2_PLACEMENT_3D ( 'NONE', #268, #204, #176 ) ;
#161 = EDGE_CURVE ( 'NONE', #155, #52, #134, .T. ) ;
#162 = CARTESIAN_POINT ( 'NONE',  ( 1.000000000000000888, 16.69999999999999929, 0.000000000000000000 ) ) ;
#163 = ORIENTED_EDGE ( 'NONE', *, *, #110, .T. ) ;
#164 = ORIENTED_EDGE ( 'NONE', *, *, #31, .F. ) ;
#165 = DIRECTION ( 'NONE',  ( 0.5773502691896251759, 0.5773502691896270633, 0.5773502691896251759 ) ) ;
#166 = CARTESIAN_POINT ( 'NONE',  ( 2.600000000000002309, 18.00000000000000355, -2.299999999999997602 ) ) ;
#167 = ADVANCED_FACE ( 'NONE', ( #195 ), #89, .F. ) ;
#168 = DIRECTION ( 'NONE',  ( 0.000000000000000000, 0.000000000000000000, 1.000000000000000000 ) ) ;
#169 = APPLICATION_CONTEXT ( 'automotive_design' ) ;
#170 = EDGE_LOOP ( 'NONE', ( #270, #102, #76, #81 ) ) ;
#171 = VECTOR ( 'NONE', #42, 1000.000000000000000 ) ;
#172 = FACE_OUTER_BOUND ( 'NONE', #98, .T. ) ;
#173 = PLANE ( 'NONE',  #205 ) ;
#174 = CARTESIAN_POINT ( 'NONE',  ( 0.000000000000000000, 16.69999999999999929, 0.000000000000000000 ) ) ;
#175 = DIRECTION ( 'NONE',  ( -1.000000000000000000, 0.000000000000000000, -0.000000000000000000 ) ) ;
#176 = DIRECTION ( 'NONE',  ( 1.000000000000000000, 0.000000000000000000, 0.000000000000000000 ) ) ;
#177 = EDGE_CURVE ( 'NONE', #101, #88, #45, .T. ) ;
#178 = LINE ( 'NONE', #72, #245 ) ;
#179 = PRODUCT_DEFINITION_FORMATION_WITH_SPECIFIED_SOURCE ( 'ANY', '', #49, .NOT_KNOWN. ) ;
#180 = CLOSED_SHELL ( 'NONE', ( #17, #213, #167, #53, #149, #12, #156, #145, #248, #244 ) ) ;
#181 = VERTEX_POINT ( 'NONE', #48 ) ;
#182 = ORIENTED_EDGE ( 'NONE', *, *, #3, .F. ) ;
#183 = EDGE_LOOP ( 'NONE', ( #274, #277, #254, #117 ) ) ;
#184 = CARTESIAN_POINT ( 'NONE',  ( 0.000000000000000000, 15.69999999999999574, -5.000000000000000000 ) ) ;
#185 = VECTOR ( 'NONE', #227, 1000.000000000000000 ) ;
#186 = ORIENTED_EDGE ( 'NONE', *, *, #39, .T. ) ;
#187 = DIRECTION ( 'NONE',  ( 0.000000000000000000, 0.000000000000000000, -1.000000000000000000 ) ) ;
#188 = CARTESIAN_POINT ( 'NONE',  ( 2.333333333333330817, 18.03333333333333499, -2.666666666666669183 ) ) ;
#189 = MANIFOLD_SOLID_BREP ( 'Chamfer1', #180 ) ;
#190 = CARTESIAN_POINT ( 'NONE',  ( 0.000000000000000000, -16.69999999999999929, 0.000000000000000000 ) ) ;
#191 = EDGE_CURVE ( 'NONE', #52, #101, #108, .T. ) ;
#192 = CARTESIAN_POINT ( 'NONE',  ( 0.000000000000000000, -16.69999999999999929, 0.000000000000000000 ) ) ;
#193 = VECTOR ( 'NONE', #35, 1000.000000000000000 ) ;
#194 = VECTOR ( 'NONE', #197, 1000.000000000000000 ) ;
#195 = FACE_OUTER_BOUND ( 'NONE', #85, .T. ) ;
#196 = PRODUCT_DEFINITION_CONTEXT ( 'detailed design', #169, 'design' ) ;
#197 = DIRECTION ( 'NONE',  ( 1.000000000000000000, 0.000000000000000000, 0.000000000000000000 ) ) ;
#198 = CARTESIAN_POINT ( 'NONE',  ( 3.899999999999999911, 16.69999999999999929, 0.000000000000000000 ) ) ;
#199 = CARTESIAN_POINT ( 'NONE',  ( 1.000000000000000888, 16.69999999999999929, 0.000000000000000000 ) ) ;
#200 = DIRECTION ( 'NONE',  ( 1.000000000000000000, 0.000000000000000000, 0.000000000000000000 ) ) ;
#201 = PRODUCT_RELATED_PRODUCT_CATEGORY ( 'part', '', ( #49 ) ) ;
#202 = DIRECTION ( 'NONE',  ( 0.7071067811865487940, -0.7071067811865463515, 0.000000000000000000 ) ) ;
#203 = VERTEX_POINT ( 'NONE', #246 ) ;
#204 = DIRECTION ( 'NONE',  ( 0.000000000000000000, 0.000000000000000000, 1.000000000000000000 ) ) ;
#205 = AXIS2_PLACEMENT_3D ( 'NONE', #219, #111, #132 ) ;
#206 = ORIENTED_EDGE ( 'NONE', *, *, #44, .T. ) ;
#207 = UNCERTAINTY_MEASURE_WITH_UNIT (LENGTH_MEASURE( 1.000000000000000082E-05 ), #133, 'distance_accuracy_value', 'NONE');
#208 = ORIENTED_EDGE ( 'NONE', *, *, #273, .T. ) ;
#209 = FACE_OUTER_BOUND ( 'NONE', #97, .T. ) ;
#210 = ORIENTED_EDGE ( 'NONE', *, *, #110, .F. ) ;
#211 = AXIS2_PLACEMENT_3D ( 'NONE', #269, #116, #229 ) ;
#212 = CARTESIAN_POINT ( 'NONE',  ( 4.900000000000000355, 15.69999999999999574, 0.000000000000000000 ) ) ;
#213 = ADVANCED_FACE ( 'NONE', ( #7 ), #26, .F. ) ;
#214 = PLANE ( 'NONE',  #241 ) ;
#215 = CARTESIAN_POINT ( 'NONE',  ( 4.900000000000000355, -16.69999999999999929, 0.000000000000000000 ) ) ;
#216 =( GEOMETRIC_REPRESENTATION_CONTEXT ( 3 ) GLOBAL_UNCERTAINTY_ASSIGNED_CONTEXT ( ( #207 ) ) GLOBAL_UNIT_ASSIGNED_CONTEXT ( ( #133, #225, #70 ) ) REPRESENTATION_CONTEXT ( 'NONE', 'WORKASPACE' ) );
#217 = LINE ( 'NONE', #218, #77 ) ;
#218 = CARTESIAN_POINT ( 'NONE',  ( 0.000000000000000000, 15.69999999999999574, 0.000000000000000000 ) ) ;
#219 = CARTESIAN_POINT ( 'NONE',  ( 0.000000000000000000, 16.69999999999999929, -1.000000000000000888 ) ) ;
#220 = VECTOR ( 'NONE', #261, 1000.000000000000000 ) ;
#221 = LINE ( 'NONE', #24, #11 ) ;
#222 = EDGE_CURVE ( 'NONE', #228, #203, #267, .T. ) ;
#223 = SURFACE_STYLE_FILL_AREA ( #152 ) ;
#224 = VECTOR ( 'NONE', #280, 1000.000000000000000 ) ;
#225 =( NAMED_UNIT ( * ) PLANE_ANGLE_UNIT ( ) SI_UNIT ( $, .RADIAN. ) );
#226 = EDGE_CURVE ( 'NONE', #88, #155, #78, .T. ) ;
#227 = DIRECTION ( 'NONE',  ( 0.000000000000000000, 0.000000000000000000, -1.000000000000000000 ) ) ;
#228 = VERTEX_POINT ( 'NONE', #184 ) ;
#229 = DIRECTION ( 'NONE',  ( -1.000000000000000000, 0.000000000000000000, 0.000000000000000000 ) ) ;
#230 = ORIENTED_EDGE ( 'NONE', *, *, #222, .T. ) ;
#231 = CARTESIAN_POINT ( 'NONE',  ( 4.900000000000000355, 16.69999999999999929, 0.000000000000000000 ) ) ;
#232 =( LENGTH_UNIT ( ) NAMED_UNIT ( * ) SI_UNIT ( .MILLI., .METRE. ) );
#233 = ORIENTED_EDGE ( 'NONE', *, *, #115, .T. ) ;
#234 =( GEOMETRIC_REPRESENTATION_CONTEXT ( 3 ) GLOBAL_UNCERTAINTY_ASSIGNED_CONTEXT ( ( #8 ) ) GLOBAL_UNIT_ASSIGNED_CONTEXT ( ( #232, #32, #251 ) ) REPRESENTATION_CONTEXT ( 'NONE', 'WORKASPACE' ) );
#235 = DIRECTION ( 'NONE',  ( 0.000000000000000000, 0.000000000000000000, 1.000000000000000000 ) ) ;
#236 = VECTOR ( 'NONE', #61, 1000.000000000000000 ) ;
#237 = EDGE_CURVE ( 'NONE', #239, #203, #135, .T. ) ;
#238 = CARTESIAN_POINT ( 'NONE',  ( 0.000000000000000000, 16.69999999999999929, 0.000000000000000000 ) ) ;
#239 = VERTEX_POINT ( 'NONE', #29 ) ;
#240 = CARTESIAN_POINT ( 'NONE',  ( 0.000000000000000000, -16.69999999999999929, 0.000000000000000000 ) ) ;
#241 = AXIS2_PLACEMENT_3D ( 'NONE', #190, #59, #257 ) ;
#242 = VERTEX_POINT ( 'NONE', #74 ) ;
#243 = DIRECTION ( 'NONE',  ( -0.000000000000000000, -1.000000000000000000, -0.000000000000000000 ) ) ;
#244 = ADVANCED_FACE ( 'NONE', ( #112 ), #71, .F. ) ;
#245 = VECTOR ( 'NONE', #157, 1000.000000000000000 ) ;
#246 = CARTESIAN_POINT ( 'NONE',  ( 0.000000000000000000, -16.69999999999999929, -5.000000000000000000 ) ) ;
#247 = SURFACE_STYLE_USAGE ( .BOTH. , #153 ) ;
#248 = ADVANCED_FACE ( 'NONE', ( #209 ), #13, .F. ) ;
#249 = DIRECTION ( 'NONE',  ( 0.000000000000000000, -0.000000000000000000, -1.000000000000000000 ) ) ;
#250 = AXIS2_PLACEMENT_3D ( 'NONE', #162, #202, #15 ) ;
#251 =( NAMED_UNIT ( * ) SI_UNIT ( $, .STERADIAN. ) SOLID_ANGLE_UNIT ( ) );
#252 = ORIENTED_EDGE ( 'NONE', *, *, #226, .T. ) ;
#253 = AXIS2_PLACEMENT_3D ( 'NONE', #174, #6, #249 ) ;
#254 = ORIENTED_EDGE ( 'NONE', *, *, #63, .F. ) ;
#255 = ORIENTED_EDGE ( 'NONE', *, *, #129, .T. ) ;
#256 = DIRECTION ( 'NONE',  ( 0.000000000000000000, 0.000000000000000000, -1.000000000000000000 ) ) ;
#257 = DIRECTION ( 'NONE',  ( 0.000000000000000000, -0.000000000000000000, -1.000000000000000000 ) ) ;
#258 = VECTOR ( 'NONE', #1, 1000.000000000000000 ) ;
#259 = LINE ( 'NONE', #283, #224 ) ;
#260 = CARTESIAN_POINT ( 'NONE',  ( 0.000000000000000000, 15.69999999999999574, 0.000000000000000000 ) ) ;
#261 = DIRECTION ( 'NONE',  ( -1.000000000000000000, 0.000000000000000000, 0.000000000000000000 ) ) ;
#262 = CARTESIAN_POINT ( 'NONE',  ( 4.900000000000000355, 16.69999999999999929, 0.000000000000000000 ) ) ;
#263 = LINE ( 'NONE', #28, #87 ) ;
#264 = EDGE_CURVE ( 'NONE', #155, #16, #10, .T. ) ;
#265 = CARTESIAN_POINT ( 'NONE',  ( 3.899999999999999911, 16.69999999999999929, -3.999999999999999112 ) ) ;
#266 = DIRECTION ( 'NONE',  ( 0.000000000000000000, 0.000000000000000000, -1.000000000000000000 ) ) ;
#267 = LINE ( 'NONE', #276, #27 ) ;
#268 = CARTESIAN_POINT ( 'NONE',  ( 0.000000000000000000, 0.000000000000000000, 0.000000000000000000 ) ) ;
#269 = CARTESIAN_POINT ( 'NONE',  ( 0.000000000000000000, 16.69999999999999929, -3.999999999999999112 ) ) ;
#270 = ORIENTED_EDGE ( 'NONE', *, *, #264, .T. ) ;
#271 = CARTESIAN_POINT ( 'NONE',  ( 2.566666666666669983, 18.03333333333333499, -2.666666666666669183 ) ) ;
#272 = ORIENTED_EDGE ( 'NONE', *, *, #138, .T. ) ;
#273 = EDGE_CURVE ( 'NONE', #16, #239, #178, .T. ) ;
#274 = ORIENTED_EDGE ( 'NONE', *, *, #129, .F. ) ;
#275 = VECTOR ( 'NONE', #104, 1000.000000000000000 ) ;
#276 = CARTESIAN_POINT ( 'NONE',  ( 0.000000000000000000, 16.69999999999999929, -5.000000000000000000 ) ) ;
#277 = ORIENTED_EDGE ( 'NONE', *, *, #237, .F. ) ;
#278 = EDGE_CURVE ( 'NONE', #159, #158, #120, .T. ) ;
#279 = EDGE_LOOP ( 'NONE', ( #113, #163, #79, #186 ) ) ;
#280 = DIRECTION ( 'NONE',  ( 0.5773502691896251759, 0.5773502691896270633, -0.5773502691896251759 ) ) ;
#281 = CARTESIAN_POINT ( 'NONE',  ( 1.000000000000000888, 16.69999999999999929, -1.000000000000000888 ) ) ;
#282 = CARTESIAN_POINT ( 'NONE',  ( 0.000000000000000000, 16.69999999999999929, -5.000000000000000000 ) ) ;
#283 = CARTESIAN_POINT ( 'NONE',  ( 0.6666666666666680729, 16.36666666666666359, -0.6666666666666680729 ) ) ;
ENDSEC;
END-ISO-10303-21;
