ISO-10303-21;
HEADER;
FILE_DESCRIPTION (( 'STEP AP214' ),
    '1' );
FILE_NAME ('CM Mirrored Carriage Bearing Block.STEP',
    '2026-03-23T16:16:23',
    ( '' ),
    ( '' ),
    'SwSTEP 2.0',
    'SolidWorks 2025',
    '' );
FILE_SCHEMA (( 'AUTOMOTIVE_DESIGN' ));
ENDSEC;

DATA;
#1 = LINE ( 'NONE', #171, #556 ) ;
#2 = ORIENTED_EDGE ( 'NONE', *, *, #158, .F. ) ;
#3 = APPLICATION_CONTEXT ( 'automotive_design' ) ;
#4 = CIRCLE ( 'NONE', #32, 0.06889763779527557919 ) ;
#5 = CARTESIAN_POINT ( 'NONE',  ( 0.2999999999999999889, 0.2500000000000000555, -0.3125000000000000000 ) ) ;
#6 = CARTESIAN_POINT ( 'NONE',  ( 0.2212598425196850016, 0.1000000000000000194, -0.1875000000000000278 ) ) ;
#7 = LENGTH_MEASURE_WITH_UNIT ( LENGTH_MEASURE( 0.02539999999999999897 ), #463 );
#8 = FACE_BOUND ( 'NONE', #237, .T. ) ;
#9 = ORIENTED_EDGE ( 'NONE', *, *, #304, .F. ) ;
#10 = CARTESIAN_POINT ( 'NONE',  ( 0.2999999999999999889, 0.2500000000000000555, -0.3125000000000000000 ) ) ;
#11 = ADVANCED_FACE ( 'NONE', ( #122 ), #298, .F. ) ;
#12 = EDGE_LOOP ( 'NONE', ( #234, #57 ) ) ;
#13 = DIRECTION ( 'NONE',  ( 1.000000000000000000, -0.000000000000000000, -0.000000000000000000 ) ) ;
#14 = CIRCLE ( 'NONE', #517, 0.1181102362204724532 ) ;
#15 = CARTESIAN_POINT ( 'NONE',  ( 0.2999999999999999889, -0.2500000000000000000, -0.3125000000000001665 ) ) ;
#16 = AXIS2_PLACEMENT_3D ( 'NONE', #406, #509, #55 ) ;
#17 = ORIENTED_EDGE ( 'NONE', *, *, #447, .T. ) ;
#18 = CARTESIAN_POINT ( 'NONE',  ( 0.2212598425196850571, -0.1000000000000000056, 0.2563976377952756347 ) ) ;
#19 = ORIENTED_EDGE ( 'NONE', *, *, #185, .T. ) ;
#20 = CARTESIAN_POINT ( 'NONE',  ( 0.1718996062992126372, 0.6275000000000000577, -0.06889763779527559306 ) ) ;
#21 = DIRECTION ( 'NONE',  ( -1.000000000000000000, -0.000000000000000000, -0.000000000000000000 ) ) ;
#22 = ORIENTED_EDGE ( 'NONE', *, *, #281, .T. ) ;
#23 = FACE_BOUND ( 'NONE', #230, .T. ) ;
#24 = CIRCLE ( 'NONE', #431, 0.1181102362204724532 ) ;
#25 = VERTEX_POINT ( 'NONE', #491 ) ;
#26 = DIRECTION ( 'NONE',  ( -0.000000000000000000, 1.000000000000000000, 2.731847993664263218E-16 ) ) ;
#27 = ORIENTED_EDGE ( 'NONE', *, *, #506, .F. ) ;
#28 = DIRECTION ( 'NONE',  ( 1.000000000000000000, -0.000000000000000000, -0.000000000000000000 ) ) ;
#29 = ORIENTED_EDGE ( 'NONE', *, *, #246, .T. ) ;
#30 = ADVANCED_FACE ( 'NONE', ( #394, #8 ), #215, .T. ) ;
#31 = DIRECTION ( 'NONE',  ( 0.000000000000000000, 0.000000000000000000, -1.000000000000000000 ) ) ;
#32 = AXIS2_PLACEMENT_3D ( 'NONE', #344, #444, #228 ) ;
#33 = FACE_OUTER_BOUND ( 'NONE', #414, .T. ) ;
#34 = ORIENTED_EDGE ( 'NONE', *, *, #360, .T. ) ;
#35 = CARTESIAN_POINT ( 'NONE',  ( 0.000000000000000000, 0.000000000000000000, 0.000000000000000000 ) ) ;
#36 = ADVANCED_FACE ( 'NONE', ( #392 ), #72, .F. ) ;
#37 = DIRECTION ( 'NONE',  ( -1.000000000000000000, -0.000000000000000000, -0.000000000000000000 ) ) ;
#38 = DIRECTION ( 'NONE',  ( 0.000000000000000000, 0.000000000000000000, -1.000000000000000000 ) ) ;
#39 = PRODUCT_RELATED_PRODUCT_CATEGORY ( 'part', '', ( #92 ) ) ;
#40 = AXIS2_PLACEMENT_3D ( 'NONE', #436, #533, #274 ) ;
#41 = LINE ( 'NONE', #358, #75 ) ;
#42 = FACE_BOUND ( 'NONE', #336, .T. ) ;
#43 = ORIENTED_EDGE ( 'NONE', *, *, #288, .F. ) ;
#44 = CARTESIAN_POINT ( 'NONE',  ( 0.1718996062992126372, 0.2500000000000000555, 0.000000000000000000 ) ) ;
#45 = ORIENTED_EDGE ( 'NONE', *, *, #220, .T. ) ;
#46 = AXIS2_PLACEMENT_3D ( 'NONE', #6, #523, #359 ) ;
#47 = FACE_OUTER_BOUND ( 'NONE', #366, .T. ) ;
#48 = PRODUCT_DEFINITION_FORMATION_WITH_SPECIFIED_SOURCE ( 'ANY', '', #92, .NOT_KNOWN. ) ;
#49 = VERTEX_POINT ( 'NONE', #181 ) ;
#50 = ORIENTED_EDGE ( 'NONE', *, *, #485, .T. ) ;
#51 = LINE ( 'NONE', #101, #303 ) ;
#52 = EDGE_CURVE ( 'NONE', #492, #189, #165, .T. ) ;
#53 = EDGE_CURVE ( 'NONE', #357, #400, #337, .T. ) ;
#54 = ORIENTED_EDGE ( 'NONE', *, *, #391, .T. ) ;
#55 = DIRECTION ( 'NONE',  ( 0.000000000000000000, 0.000000000000000000, -1.000000000000000000 ) ) ;
#56 = CARTESIAN_POINT ( 'NONE',  ( 0.1718996062992126372, -0.2500000000000000000, -0.06889763779527559306 ) ) ;
#57 = ORIENTED_EDGE ( 'NONE', *, *, #451, .T. ) ;
#58 = LINE ( 'NONE', #20, #231 ) ;
#59 = COLOUR_RGB ( '',0.7921568627450980005, 0.8196078431372548767, 0.9333333333333333481 ) ;
#60 = EDGE_LOOP ( 'NONE', ( #426, #547, #383, #465 ) ) ;
#61 = DIRECTION ( 'NONE',  ( -0.000000000000000000, 0.000000000000000000, -1.000000000000000000 ) ) ;
#62 = ORIENTED_EDGE ( 'NONE', *, *, #339, .T. ) ;
#63 = DIRECTION ( 'NONE',  ( 0.000000000000000000, 0.000000000000000000, -1.000000000000000000 ) ) ;
#64 = ORIENTED_EDGE ( 'NONE', *, *, #121, .T. ) ;
#65 = CARTESIAN_POINT ( 'NONE',  ( 0.2999999999999999889, 0.2500000000000000000, 0.3125000000000000000 ) ) ;
#66 = VECTOR ( 'NONE', #26, 39.37007874015748143 ) ;
#67 = EDGE_LOOP ( 'NONE', ( #251, #9, #460, #207 ) ) ;
#68 = FACE_OUTER_BOUND ( 'NONE', #488, .T. ) ;
#69 = EDGE_CURVE ( 'NONE', #111, #468, #409, .T. ) ;
#70 = ORIENTED_EDGE ( 'NONE', *, *, #466, .T. ) ;
#71 = DIRECTION ( 'NONE',  ( 1.000000000000000000, -0.000000000000000000, -0.000000000000000000 ) ) ;
#72 = PLANE ( 'NONE',  #368 ) ;
#73 = CARTESIAN_POINT ( 'NONE',  ( 0.2999999999999999889, -0.2500000000000000000, -0.3125000000000001665 ) ) ;
#74 = CIRCLE ( 'NONE', #169, 0.1181102362204724532 ) ;
#75 = VECTOR ( 'NONE', #490, 39.37007874015748143 ) ;
#76 = EDGE_CURVE ( 'NONE', #49, #284, #351, .T. ) ;
#77 = CARTESIAN_POINT ( 'NONE',  ( 0.1718996062992126372, 0.6275000000000000577, 0.000000000000000000 ) ) ;
#78 = EDGE_CURVE ( 'NONE', #400, #357, #4, .T. ) ;
#79 = CARTESIAN_POINT ( 'NONE',  ( -0.5775000000000002354, -0.1000000000000000056, 0.1875000000000000278 ) ) ;
#80 = DIRECTION ( 'NONE',  ( 0.000000000000000000, -1.000000000000000000, -5.463695987328527053E-17 ) ) ;
#81 = STYLED_ITEM ( 'NONE', ( #277 ), #180 ) ;
#82 = PLANE ( 'NONE',  #526 ) ;
#83 = EDGE_CURVE ( 'NONE', #320, #157, #437, .T. ) ;
#84 = CYLINDRICAL_SURFACE ( 'NONE', #470, 0.06889763779527557919 ) ;
#85 = CARTESIAN_POINT ( 'NONE',  ( 0.2212598425196850016, -0.1000000000000000056, 0.1875000000000000278 ) ) ;
#86 = ORIENTED_EDGE ( 'NONE', *, *, #451, .F. ) ;
#87 = CARTESIAN_POINT ( 'NONE',  ( 0.2212598425196850016, 0.1000000000000000194, -0.1875000000000000278 ) ) ;
#88 = ORIENTED_EDGE ( 'NONE', *, *, #297, .F. ) ;
#89 = EDGE_LOOP ( 'NONE', ( #17, #2, #405, #424 ) ) ;
#90 = CYLINDRICAL_SURFACE ( 'NONE', #153, 0.1181102362204724532 ) ;
#91 = EDGE_CURVE ( 'NONE', #125, #316, #539, .T. ) ;
#92 = PRODUCT ( 'CM Mirrored Carriage Bearing Block', 'CM Mirrored Carriage Bearing Block', '', ( #427 ) ) ;
#93 = FILL_AREA_STYLE ('',( #280 ) ) ;
#94 = ORIENTED_EDGE ( 'NONE', *, *, #493, .F. ) ;
#95 = DIRECTION ( 'NONE',  ( 0.000000000000000000, -1.000000000000000000, 0.000000000000000000 ) ) ;
#96 = LINE ( 'NONE', #243, #379 ) ;
#97 = ORIENTED_EDGE ( 'NONE', *, *, #52, .F. ) ;
#98 =( NAMED_UNIT ( * ) SI_UNIT ( $, .STERADIAN. ) SOLID_ANGLE_UNIT ( ) );
#99 = PLANE ( 'NONE',  #190 ) ;
#100 = ORIENTED_EDGE ( 'NONE', *, *, #304, .T. ) ;
#101 = CARTESIAN_POINT ( 'NONE',  ( 0.2212598425196850016, -0.1000000000000000056, 0.06938976377952757457 ) ) ;
#102 = CLOSED_SHELL ( 'NONE', ( #531, #195, #263, #512, #549, #440, #459, #172, #364, #398, #36, #112, #265, #227, #404, #11, #30, #422 ) ) ;
#103 = AXIS2_PLACEMENT_3D ( 'NONE', #264, #128, #224 ) ;
#104 = LENGTH_MEASURE_WITH_UNIT ( LENGTH_MEASURE( 0.02539999999999999897 ), #283 );
#105 = AXIS2_PLACEMENT_3D ( 'NONE', #127, #354, #438 ) ;
#106 = ORIENTED_EDGE ( 'NONE', *, *, #346, .T. ) ;
#107 = LINE ( 'NONE', #330, #527 ) ;
#108 = LINE ( 'NONE', #146, #275 ) ;
#109 = ORIENTED_EDGE ( 'NONE', *, *, #566, .T. ) ;
#110 = CARTESIAN_POINT ( 'NONE',  ( 0.000000000000000000, 0.2500000000000000555, -0.3125000000000000000 ) ) ;
#111 = VERTEX_POINT ( 'NONE', #18 ) ;
#112 = ADVANCED_FACE ( 'NONE', ( #289, #23, #188 ), #464, .T. ) ;
#113 = CARTESIAN_POINT ( 'NONE',  ( 0.000000000000000000, 0.1000000000000000194, -0.1186023622047244347 ) ) ;
#114 = APPLICATION_CONTEXT ( 'automotive_design' ) ;
#115 = CIRCLE ( 'NONE', #293, 0.06889763779527559306 ) ;
#116 = AXIS2_PLACEMENT_3D ( 'NONE', #174, #131, #312 ) ;
#117 = VERTEX_POINT ( 'NONE', #139 ) ;
#118 = FACE_OUTER_BOUND ( 'NONE', #149, .T. ) ;
#119 = ORIENTED_EDGE ( 'NONE', *, *, #185, .F. ) ;
#120 = CARTESIAN_POINT ( 'NONE',  ( 0.2999999999999999889, -0.1000000000000000056, 0.1875000000000000278 ) ) ;
#121 = EDGE_CURVE ( 'NONE', #341, #147, #328, .T. ) ;
#122 = FACE_OUTER_BOUND ( 'NONE', #67, .T. ) ;
#123 = CARTESIAN_POINT ( 'NONE',  ( 0.2999999999999999889, -0.09999999999999999167, 0.3056102362204724532 ) ) ;
#124 = AXIS2_PLACEMENT_3D ( 'NONE', #473, #343, #31 ) ;
#125 = VERTEX_POINT ( 'NONE', #314 ) ;
#126 = CARTESIAN_POINT ( 'NONE',  ( 0.2212598425196850571, -0.1000000000000000056, 0.1875000000000000278 ) ) ;
#127 = CARTESIAN_POINT ( 'NONE',  ( 0.2212598425196850016, 0.1000000000000000194, -0.1875000000000000278 ) ) ;
#128 = DIRECTION ( 'NONE',  ( 0.000000000000000000, -1.000000000000000000, 0.000000000000000000 ) ) ;
#129 = EDGE_CURVE ( 'NONE', #186, #311, #74, .T. ) ;
#130 = VECTOR ( 'NONE', #291, 39.37007874015748143 ) ;
#131 = DIRECTION ( 'NONE',  ( 1.000000000000000000, 0.000000000000000000, 0.000000000000000000 ) ) ;
#132 = CARTESIAN_POINT ( 'NONE',  ( 0.000000000000000000, -0.1000000000000000056, 0.1875000000000000278 ) ) ;
#133 = ORIENTED_EDGE ( 'NONE', *, *, #129, .T. ) ;
#134 = PLANE ( 'NONE',  #116 ) ;
#135 = VERTEX_POINT ( 'NONE', #56 ) ;
#136 = EDGE_CURVE ( 'NONE', #357, #111, #96, .T. ) ;
#137 = EDGE_LOOP ( 'NONE', ( #45, #64 ) ) ;
#138 =( CONVERSION_BASED_UNIT ( 'INCH', #7 ) LENGTH_UNIT ( ) NAMED_UNIT ( #481 ) );
#139 = CARTESIAN_POINT ( 'NONE',  ( 0.2212598425196850571, 0.1000000000000000194, -0.1186023622047244347 ) ) ;
#140 = ORIENTED_EDGE ( 'NONE', *, *, #557, .F. ) ;
#141 = CARTESIAN_POINT ( 'NONE',  ( 0.2999999999999999889, -0.2500000000000000000, 0.3124999999999998890 ) ) ;
#142 = VECTOR ( 'NONE', #374, 39.37007874015748143 ) ;
#143 = FACE_BOUND ( 'NONE', #452, .T. ) ;
#144 = ORIENTED_EDGE ( 'NONE', *, *, #76, .F. ) ;
#145 = CARTESIAN_POINT ( 'NONE',  ( 0.2212598425196850571, -0.1000000000000000056, 0.1186023622047244347 ) ) ;
#146 = CARTESIAN_POINT ( 'NONE',  ( 0.2212598425196850016, 0.1000000000000000194, -0.3056102362204724532 ) ) ;
#147 = VERTEX_POINT ( 'NONE', #416 ) ;
#148 = SURFACE_STYLE_FILL_AREA ( #93 ) ;
#149 = EDGE_LOOP ( 'NONE', ( #144, #554, #177, #34 ) ) ;
#150 = CARTESIAN_POINT ( 'NONE',  ( 0.2212598425196850571, 0.1000000000000000194, -0.1875000000000000278 ) ) ;
#151 = VECTOR ( 'NONE', #28, 39.37007874015748143 ) ;
#152 = LINE ( 'NONE', #331, #151 ) ;
#153 = AXIS2_PLACEMENT_3D ( 'NONE', #321, #279, #552 ) ;
#154 = VERTEX_POINT ( 'NONE', #200 ) ;
#155 = DIRECTION ( 'NONE',  ( -0.000000000000000000, 0.000000000000000000, -1.000000000000000000 ) ) ;
#156 = EDGE_CURVE ( 'NONE', #320, #311, #108, .T. ) ;
#157 = VERTEX_POINT ( 'NONE', #500 ) ;
#158 = EDGE_CURVE ( 'NONE', #511, #403, #239, .T. ) ;
#159 = CARTESIAN_POINT ( 'NONE',  ( 0.2999999999999999889, -0.1000000000000000056, 0.1875000000000000278 ) ) ;
#160 = VERTEX_POINT ( 'NONE', #418 ) ;
#161 = DIRECTION ( 'NONE',  ( 0.000000000000000000, 0.000000000000000000, -1.000000000000000000 ) ) ;
#162 = AXIS2_PLACEMENT_3D ( 'NONE', #503, #319, #63 ) ;
#163 = VERTEX_POINT ( 'NONE', #408 ) ;
#164 = CARTESIAN_POINT ( 'NONE',  ( 0.2212598425196850016, -0.1000000000000000056, 0.1875000000000000278 ) ) ;
#165 = LINE ( 'NONE', #435, #430 ) ;
#166 = DIRECTION ( 'NONE',  ( 0.000000000000000000, 0.000000000000000000, -1.000000000000000000 ) ) ;
#167 = DIRECTION ( 'NONE',  ( 0.000000000000000000, 0.000000000000000000, -1.000000000000000000 ) ) ;
#168 = CYLINDRICAL_SURFACE ( 'NONE', #432, 0.06889763779527557919 ) ;
#169 = AXIS2_PLACEMENT_3D ( 'NONE', #457, #196, #247 ) ;
#170 = DIRECTION ( 'NONE',  ( 1.000000000000000000, 0.000000000000000000, -0.000000000000000000 ) ) ;
#171 = CARTESIAN_POINT ( 'NONE',  ( -0.5775000000000002354, 0.1000000000000000194, -0.2563976377952755792 ) ) ;
#172 = ADVANCED_FACE ( 'NONE', ( #143, #380 ), #99, .F. ) ;
#173 = CARTESIAN_POINT ( 'NONE',  ( -0.5775000000000002354, 0.1000000000000000194, -0.1186023622047244347 ) ) ;
#174 = CARTESIAN_POINT ( 'NONE',  ( 0.2212598425196850016, -0.1000000000000000056, 0.1875000000000000278 ) ) ;
#175 = AXIS2_PLACEMENT_3D ( 'NONE', #132, #170, #255 ) ;
#176 = VECTOR ( 'NONE', #550, 39.37007874015748143 ) ;
#177 = ORIENTED_EDGE ( 'NONE', *, *, #504, .T. ) ;
#178 = CIRCLE ( 'NONE', #449, 0.06889763779527559306 ) ;
#179 = DIRECTION ( 'NONE',  ( 0.000000000000000000, 0.000000000000000000, -1.000000000000000000 ) ) ;
#180 = MANIFOLD_SOLID_BREP ( 'Cut-Extrude3', #102 ) ;
#181 = CARTESIAN_POINT ( 'NONE',  ( 0.1718996062992126372, 0.2500000000000000555, 0.06889763779527559306 ) ) ;
#182 = EDGE_CURVE ( 'NONE', #400, #468, #152, .T. ) ;
#183 = DIRECTION ( 'NONE',  ( -1.000000000000000000, -0.000000000000000000, -0.000000000000000000 ) ) ;
#184 = DIRECTION ( 'NONE',  ( 0.000000000000000000, 0.000000000000000000, -1.000000000000000000 ) ) ;
#185 = EDGE_CURVE ( 'NONE', #117, #163, #564, .T. ) ;
#186 = VERTEX_POINT ( 'NONE', #570 ) ;
#187 = DIRECTION ( 'NONE',  ( 0.000000000000000000, -1.000000000000000000, -2.731847993664263218E-16 ) ) ;
#188 = FACE_OUTER_BOUND ( 'NONE', #476, .T. ) ;
#189 = VERTEX_POINT ( 'NONE', #296 ) ;
#190 = AXIS2_PLACEMENT_3D ( 'NONE', #15, #375, #510 ) ;
#191 = CARTESIAN_POINT ( 'NONE',  ( 0.1718996062992126372, -0.2500000000000000000, 0.000000000000000000 ) ) ;
#192 = CARTESIAN_POINT ( 'NONE',  ( 0.2999999999999999889, 0.2500000000000000555, -0.3125000000000000000 ) ) ;
#193 = EDGE_LOOP ( 'NONE', ( #489, #480, #551, #119 ) ) ;
#194 = CYLINDRICAL_SURFACE ( 'NONE', #497, 0.06889763779527557919 ) ;
#195 = ADVANCED_FACE ( 'NONE', ( #389 ), #294, .F. ) ;
#196 = DIRECTION ( 'NONE',  ( 1.000000000000000000, 0.000000000000000000, 0.000000000000000000 ) ) ;
#197 = ORIENTED_EDGE ( 'NONE', *, *, #69, .T. ) ;
#198 = CARTESIAN_POINT ( 'NONE',  ( 0.000000000000000000, 0.2500000000000000555, -0.3125000000000000000 ) ) ;
#199 = ADVANCED_BREP_SHAPE_REPRESENTATION ( 'CM Mirrored Carriage Bearing Block', ( #180, #546 ), #536 ) ;
#200 = CARTESIAN_POINT ( 'NONE',  ( 0.000000000000000000, 0.2500000000000000555, -0.3125000000000000000 ) ) ;
#201 = ORIENTED_EDGE ( 'NONE', *, *, #53, .T. ) ;
#202 = CIRCLE ( 'NONE', #369, 0.06889763779527559306 ) ;
#203 = DIRECTION ( 'NONE',  ( 1.000000000000000000, -0.000000000000000000, -0.000000000000000000 ) ) ;
#204 = EDGE_CURVE ( 'NONE', #209, #25, #14, .T. ) ;
#205 = ORIENTED_EDGE ( 'NONE', *, *, #572, .F. ) ;
#206 = DIRECTION ( 'NONE',  ( 0.000000000000000000, -1.000000000000000000, -5.463695987328527669E-17 ) ) ;
#207 = ORIENTED_EDGE ( 'NONE', *, *, #318, .T. ) ;
#208 = CARTESIAN_POINT ( 'NONE',  ( 0.2212598425196850016, -0.1000000000000000056, 0.1875000000000000278 ) ) ;
#209 = VERTEX_POINT ( 'NONE', #123 ) ;
#210 = LINE ( 'NONE', #333, #388 ) ;
#211 = PRESENTATION_LAYER_ASSIGNMENT (  '', '', ( #81 ) ) ;
#212 = VECTOR ( 'NONE', #242, 39.37007874015748143 ) ;
#213 = CARTESIAN_POINT ( 'NONE',  ( 0.2212598425196850571, -0.1000000000000000056, 0.1875000000000000278 ) ) ;
#214 = CARTESIAN_POINT ( 'NONE',  ( 0.2212598425196850016, -0.09999999999999999167, 0.3056102362204724532 ) ) ;
#215 = PLANE ( 'NONE',  #268 ) ;
#216 = CARTESIAN_POINT ( 'NONE',  ( 0.1718996062992126372, -0.2500000000000000000, 0.06889763779527559306 ) ) ;
#217 = ORIENTED_EDGE ( 'NONE', *, *, #204, .F. ) ;
#218 = DIRECTION ( 'NONE',  ( 1.000000000000000000, -0.000000000000000000, -0.000000000000000000 ) ) ;
#219 = CIRCLE ( 'NONE', #124, 0.1181102362204724532 ) ;
#220 = EDGE_CURVE ( 'NONE', #147, #341, #477, .T. ) ;
#221 = ORIENTED_EDGE ( 'NONE', *, *, #121, .F. ) ;
#222 = DIRECTION ( 'NONE',  ( 1.000000000000000000, 0.000000000000000000, 0.000000000000000000 ) ) ;
#223 = PRODUCT_DEFINITION ( 'UNKNOWN', '', #48, #308 ) ;
#224 = DIRECTION ( 'NONE',  ( 0.000000000000000000, 0.000000000000000000, -1.000000000000000000 ) ) ;
#225 = EDGE_LOOP ( 'NONE', ( #445, #201 ) ) ;
#226 = DIRECTION ( 'NONE',  ( -1.000000000000000000, -0.000000000000000000, -0.000000000000000000 ) ) ;
#227 = ADVANCED_FACE ( 'NONE', ( #118 ), #301, .F. ) ;
#228 = DIRECTION ( 'NONE',  ( 0.000000000000000000, 0.000000000000000000, -1.000000000000000000 ) ) ;
#229 = CIRCLE ( 'NONE', #458, 0.1181102362204724532 ) ;
#230 = EDGE_LOOP ( 'NONE', ( #300, #378 ) ) ;
#231 = VECTOR ( 'NONE', #362, 39.37007874015748143 ) ;
#232 = CARTESIAN_POINT ( 'NONE',  ( -0.5775000000000002354, 0.1000000000000000194, -0.1875000000000000278 ) ) ;
#233 = ORIENTED_EDGE ( 'NONE', *, *, #136, .F. ) ;
#234 = ORIENTED_EDGE ( 'NONE', *, *, #83, .T. ) ;
#235 =( CONVERSION_BASED_UNIT ( 'INCH', #104 ) LENGTH_UNIT ( ) NAMED_UNIT ( #441 ) );
#236 = PRODUCT_DEFINITION_SHAPE ( 'NONE', 'NONE',  #223 ) ;
#237 = EDGE_LOOP ( 'NONE', ( #50, #19 ) ) ;
#238 = DIRECTION ( 'NONE',  ( 1.000000000000000000, -0.000000000000000000, -0.000000000000000000 ) ) ;
#239 = LINE ( 'NONE', #553, #259 ) ;
#240 = ORIENTED_EDGE ( 'NONE', *, *, #384, .T. ) ;
#241 = ORIENTED_EDGE ( 'NONE', *, *, #53, .F. ) ;
#242 = DIRECTION ( 'NONE',  ( -1.000000000000000000, -0.000000000000000000, -0.000000000000000000 ) ) ;
#243 = CARTESIAN_POINT ( 'NONE',  ( -0.5775000000000002354, -0.1000000000000000056, 0.2563976377952755792 ) ) ;
#244 = EDGE_LOOP ( 'NONE', ( #373, #217 ) ) ;
#245 = DIRECTION ( 'NONE',  ( 1.000000000000000000, 0.000000000000000000, 0.000000000000000000 ) ) ;
#246 = EDGE_CURVE ( 'NONE', #511, #125, #471, .T. ) ;
#247 = DIRECTION ( 'NONE',  ( 0.000000000000000000, 0.000000000000000000, -1.000000000000000000 ) ) ;
#248 = ORIENTED_EDGE ( 'NONE', *, *, #326, .T. ) ;
#249 = DIRECTION ( 'NONE',  ( 1.000000000000000000, 0.000000000000000000, 0.000000000000000000 ) ) ;
#250 = CIRCLE ( 'NONE', #478, 0.06889763779527557919 ) ;
#251 = ORIENTED_EDGE ( 'NONE', *, *, #355, .F. ) ;
#252 = DIRECTION ( 'NONE',  ( 1.000000000000000000, 0.000000000000000000, -0.000000000000000000 ) ) ;
#253 = EDGE_LOOP ( 'NONE', ( #241, #562, #543, #472 ) ) ;
#254 = FACE_BOUND ( 'NONE', #225, .T. ) ;
#255 = DIRECTION ( 'NONE',  ( 0.000000000000000000, 0.000000000000000000, -1.000000000000000000 ) ) ;
#256 = DIRECTION ( 'NONE',  ( 0.000000000000000000, 0.000000000000000000, 1.000000000000000000 ) ) ;
#257 = AXIS2_PLACEMENT_3D ( 'NONE', #213, #542, #568 ) ;
#258 = DIRECTION ( 'NONE',  ( 0.000000000000000000, 0.000000000000000000, -1.000000000000000000 ) ) ;
#259 = VECTOR ( 'NONE', #21, 39.37007874015748143 ) ;
#260 = CARTESIAN_POINT ( 'NONE',  ( 0.2999999999999999889, 0.2500000000000000000, 0.3125000000000000000 ) ) ;
#261 = DIRECTION ( 'NONE',  ( 1.000000000000000000, 0.000000000000000000, 0.000000000000000000 ) ) ;
#262 = DIRECTION ( 'NONE',  ( 1.000000000000000000, -0.000000000000000000, -0.000000000000000000 ) ) ;
#263 = ADVANCED_FACE ( 'NONE', ( #33 ), #428, .F. ) ;
#264 = CARTESIAN_POINT ( 'NONE',  ( 0.1718996062992126372, -0.2500000000000000000, 0.000000000000000000 ) ) ;
#265 = ADVANCED_FACE ( 'NONE', ( #254, #559, #68 ), #561, .F. ) ;
#266 = DIRECTION ( 'NONE',  ( 1.000000000000000000, -0.000000000000000000, -0.000000000000000000 ) ) ;
#267 = UNCERTAINTY_MEASURE_WITH_UNIT (LENGTH_MEASURE( 1.000000000000000082E-05 ), #138, 'distance_accuracy_value', 'NONE');
#268 = AXIS2_PLACEMENT_3D ( 'NONE', #347, #573, #184 ) ;
#269 = AXIS2_PLACEMENT_3D ( 'NONE', #208, #71, #166 ) ;
#270 = FACE_OUTER_BOUND ( 'NONE', #292, .T. ) ;
#271 = DIRECTION ( 'NONE',  ( 0.000000000000000000, 0.000000000000000000, -1.000000000000000000 ) ) ;
#272 = DIRECTION ( 'NONE',  ( -0.000000000000000000, -1.000000000000000000, -0.000000000000000000 ) ) ;
#273 = ORIENTED_EDGE ( 'NONE', *, *, #365, .F. ) ;
#274 = DIRECTION ( 'NONE',  ( 0.000000000000000000, -1.000000000000000000, -2.731847993664263711E-16 ) ) ;
#275 = VECTOR ( 'NONE', #372, 39.37007874015748143 ) ;
#276 = FACE_OUTER_BOUND ( 'NONE', #253, .T. ) ;
#277 = PRESENTATION_STYLE_ASSIGNMENT (( #367 ) ) ;
#278 = ORIENTED_EDGE ( 'NONE', *, *, #78, .F. ) ;
#279 = DIRECTION ( 'NONE',  ( 1.000000000000000000, -0.000000000000000000, -0.000000000000000000 ) ) ;
#280 = FILL_AREA_STYLE_COLOUR ( '', #59 ) ;
#281 = EDGE_CURVE ( 'NONE', #334, #455, #219, .T. ) ;
#282 = ORIENTED_EDGE ( 'NONE', *, *, #297, .T. ) ;
#283 =( LENGTH_UNIT ( ) NAMED_UNIT ( * ) SI_UNIT ( $, .METRE. ) );
#284 = VERTEX_POINT ( 'NONE', #216 ) ;
#285 = VECTOR ( 'NONE', #266, 39.37007874015748143 ) ;
#286 = FACE_OUTER_BOUND ( 'NONE', #361, .T. ) ;
#287 = EDGE_LOOP ( 'NONE', ( #100, #22 ) ) ;
#288 = EDGE_CURVE ( 'NONE', #316, #492, #210, .T. ) ;
#289 = FACE_BOUND ( 'NONE', #244, .T. ) ;
#290 = EDGE_LOOP ( 'NONE', ( #282, #94, #332, #70 ) ) ;
#291 = DIRECTION ( 'NONE',  ( 0.000000000000000000, -5.463695987328526437E-17, 1.000000000000000000 ) ) ;
#292 = EDGE_LOOP ( 'NONE', ( #501, #412, #520, #518 ) ) ;
#293 = AXIS2_PLACEMENT_3D ( 'NONE', #390, #206, #382 ) ;
#294 = CYLINDRICAL_SURFACE ( 'NONE', #269, 0.1181102362204724532 ) ;
#295 = ORIENTED_EDGE ( 'NONE', *, *, #557, .T. ) ;
#296 = CARTESIAN_POINT ( 'NONE',  ( 0.000000000000000000, -0.2500000000000000000, 0.3124999999999998890 ) ) ;
#297 = EDGE_CURVE ( 'NONE', #154, #540, #513, .T. ) ;
#298 = CYLINDRICAL_SURFACE ( 'NONE', #516, 0.1181102362204724532 ) ;
#299 = DIRECTION ( 'NONE',  ( 0.000000000000000000, 0.000000000000000000, -1.000000000000000000 ) ) ;
#300 = ORIENTED_EDGE ( 'NONE', *, *, #384, .F. ) ;
#301 = CYLINDRICAL_SURFACE ( 'NONE', #315, 0.06889763779527559306 ) ;
#302 = CIRCLE ( 'NONE', #448, 0.1181102362204724532 ) ;
#303 = VECTOR ( 'NONE', #450, 39.37007874015748143 ) ;
#304 = EDGE_CURVE ( 'NONE', #455, #334, #24, .T. ) ;
#305 = FACE_OUTER_BOUND ( 'NONE', #483, .T. ) ;
#306 = CARTESIAN_POINT ( 'NONE',  ( 0.000000000000000000, -0.1000000000000000056, 0.2563976377952756347 ) ) ;
#307 = DIRECTION ( 'NONE',  ( 1.000000000000000000, -0.000000000000000000, -0.000000000000000000 ) ) ;
#308 = PRODUCT_DEFINITION_CONTEXT ( 'detailed design', #3, 'design' ) ;
#309 = DIRECTION ( 'NONE',  ( 0.000000000000000000, 0.000000000000000000, -1.000000000000000000 ) ) ;
#310 = CARTESIAN_POINT ( 'NONE',  ( 0.1718996062992126372, 0.6275000000000000577, 0.06889763779527559306 ) ) ;
#311 = VERTEX_POINT ( 'NONE', #421 ) ;
#312 = DIRECTION ( 'NONE',  ( 0.000000000000000000, 0.000000000000000000, -1.000000000000000000 ) ) ;
#313 = CARTESIAN_POINT ( 'NONE',  ( 0.2999999999999999889, -0.2500000000000000000, -0.3125000000000001665 ) ) ;
#314 = CARTESIAN_POINT ( 'NONE',  ( 0.2999999999999999889, 0.2500000000000000555, -0.3125000000000000000 ) ) ;
#315 = AXIS2_PLACEMENT_3D ( 'NONE', #425, #479, #161 ) ;
#316 = VERTEX_POINT ( 'NONE', #65 ) ;
#317 = CARTESIAN_POINT ( 'NONE',  ( 0.2999999999999999889, 0.2500000000000000000, 0.3125000000000000000 ) ) ;
#318 = EDGE_CURVE ( 'NONE', #25, #209, #229, .T. ) ;
#319 = DIRECTION ( 'NONE',  ( 1.000000000000000000, 0.000000000000000000, -0.000000000000000000 ) ) ;
#320 = VERTEX_POINT ( 'NONE', #335 ) ;
#321 = CARTESIAN_POINT ( 'NONE',  ( 0.2212598425196850016, 0.1000000000000000194, -0.1875000000000000278 ) ) ;
#322 = SURFACE_SIDE_STYLE ('',( #148 ) ) ;
#323 = EDGE_LOOP ( 'NONE', ( #565, #97, #43, #381 ) ) ;
#324 = UNCERTAINTY_MEASURE_WITH_UNIT (LENGTH_MEASURE( 1.000000000000000082E-05 ), #235, 'distance_accuracy_value', 'NONE');
#325 = DIRECTION ( 'NONE',  ( 1.000000000000000000, 0.000000000000000000, -0.000000000000000000 ) ) ;
#326 = EDGE_CURVE ( 'NONE', #492, #511, #475, .T. ) ;
#327 = ORIENTED_EDGE ( 'NONE', *, *, #76, .T. ) ;
#328 = CIRCLE ( 'NONE', #162, 0.06889763779527557919 ) ;
#329 = VECTOR ( 'NONE', #183, 39.37007874015748143 ) ;
#330 = CARTESIAN_POINT ( 'NONE',  ( 0.2212598425196850016, 0.1000000000000000472, -0.06938976377952754682 ) ) ;
#331 = CARTESIAN_POINT ( 'NONE',  ( -0.5775000000000002354, -0.1000000000000000056, 0.1186023622047244347 ) ) ;
#332 = ORIENTED_EDGE ( 'NONE', *, *, #91, .F. ) ;
#333 = CARTESIAN_POINT ( 'NONE',  ( 0.2999999999999999889, 0.2500000000000000000, 0.3125000000000000000 ) ) ;
#334 = VERTEX_POINT ( 'NONE', #214 ) ;
#335 = CARTESIAN_POINT ( 'NONE',  ( 0.2212598425196850016, 0.1000000000000000194, -0.3056102362204724532 ) ) ;
#336 = EDGE_LOOP ( 'NONE', ( #508, #197 ) ) ;
#337 = CIRCLE ( 'NONE', #175, 0.06889763779527557919 ) ;
#338 = AXIS2_PLACEMENT_3D ( 'NONE', #454, #325, #61 ) ;
#339 = EDGE_CURVE ( 'NONE', #160, #49, #115, .T. ) ;
#340 = DIRECTION ( 'NONE',  ( -0.000000000000000000, -1.000000000000000000, -0.000000000000000000 ) ) ;
#341 = VERTEX_POINT ( 'NONE', #113 ) ;
#342 = APPLICATION_PROTOCOL_DEFINITION ( 'draft international standard', 'automotive_design', 1998, #114 ) ;
#343 = DIRECTION ( 'NONE',  ( 1.000000000000000000, 0.000000000000000000, 0.000000000000000000 ) ) ;
#344 = CARTESIAN_POINT ( 'NONE',  ( 0.000000000000000000, -0.1000000000000000056, 0.1875000000000000278 ) ) ;
#345 = CARTESIAN_POINT ( 'NONE',  ( 0.000000000000000000, 0.1000000000000000194, -0.1875000000000000278 ) ) ;
#346 = EDGE_CURVE ( 'NONE', #341, #117, #353, .T. ) ;
#347 = CARTESIAN_POINT ( 'NONE',  ( 0.2212598425196850016, 0.1000000000000000194, -0.1875000000000000278 ) ) ;
#348 = DIRECTION ( 'NONE',  ( 1.000000000000000000, -0.000000000000000000, -0.000000000000000000 ) ) ;
#349 = MECHANICAL_DESIGN_GEOMETRIC_PRESENTATION_REPRESENTATION (  '', ( #81 ), #402 ) ;
#350 = CIRCLE ( 'NONE', #507, 0.06889763779527557919 ) ;
#351 = LINE ( 'NONE', #310, #419 ) ;
#352 = PLANE ( 'NONE',  #40 ) ;
#353 = LINE ( 'NONE', #173, #534 ) ;
#354 = DIRECTION ( 'NONE',  ( 1.000000000000000000, -0.000000000000000000, -0.000000000000000000 ) ) ;
#355 = EDGE_CURVE ( 'NONE', #334, #209, #397, .T. ) ;
#356 = CIRCLE ( 'NONE', #103, 0.06889763779527559306 ) ;
#357 = VERTEX_POINT ( 'NONE', #306 ) ;
#358 = CARTESIAN_POINT ( 'NONE',  ( 0.000000000000000000, -0.2500000000000000000, -0.3125000000000001665 ) ) ;
#359 = DIRECTION ( 'NONE',  ( 0.000000000000000000, 0.000000000000000000, -1.000000000000000000 ) ) ;
#360 = EDGE_CURVE ( 'NONE', #135, #284, #356, .T. ) ;
#361 = EDGE_LOOP ( 'NONE', ( #221, #106, #558, #273 ) ) ;
#362 = DIRECTION ( 'NONE',  ( -0.000000000000000000, -1.000000000000000000, -0.000000000000000000 ) ) ;
#363 = DIRECTION ( 'NONE',  ( 0.000000000000000000, 2.731847993664263711E-16, -1.000000000000000000 ) ) ;
#364 = ADVANCED_FACE ( 'NONE', ( #270 ), #352, .F. ) ;
#365 = EDGE_CURVE ( 'NONE', #147, #163, #1, .T. ) ;
#366 = EDGE_LOOP ( 'NONE', ( #233, #278, #474, #407 ) ) ;
#367 = SURFACE_STYLE_USAGE ( .BOTH. , #322 ) ;
#368 = AXIS2_PLACEMENT_3D ( 'NONE', #260, #363, #525 ) ;
#369 = AXIS2_PLACEMENT_3D ( 'NONE', #44, #535, #271 ) ;
#370 = ORIENTED_EDGE ( 'NONE', *, *, #504, .F. ) ;
#371 = DIRECTION ( 'NONE',  ( 0.000000000000000000, 0.000000000000000000, -1.000000000000000000 ) ) ;
#372 = DIRECTION ( 'NONE',  ( 1.000000000000000000, -0.000000000000000000, -0.000000000000000000 ) ) ;
#373 = ORIENTED_EDGE ( 'NONE', *, *, #318, .F. ) ;
#374 = DIRECTION ( 'NONE',  ( -0.000000000000000000, 1.000000000000000000, 2.731847993664263218E-16 ) ) ;
#375 = DIRECTION ( 'NONE',  ( 0.000000000000000000, 1.000000000000000000, 0.000000000000000000 ) ) ;
#376 = ORIENTED_EDGE ( 'NONE', *, *, #156, .T. ) ;
#377 = DIRECTION ( 'NONE',  ( 0.000000000000000000, 0.000000000000000000, -1.000000000000000000 ) ) ;
#378 = ORIENTED_EDGE ( 'NONE', *, *, #129, .F. ) ;
#379 = VECTOR ( 'NONE', #203, 39.37007874015748143 ) ;
#380 = FACE_OUTER_BOUND ( 'NONE', #89, .T. ) ;
#381 = ORIENTED_EDGE ( 'NONE', *, *, #493, .T. ) ;
#382 = DIRECTION ( 'NONE',  ( 0.000000000000000000, 0.000000000000000000, -1.000000000000000000 ) ) ;
#383 = ORIENTED_EDGE ( 'NONE', *, *, #204, .T. ) ;
#384 = EDGE_CURVE ( 'NONE', #311, #186, #302, .T. ) ;
#385 = APPLICATION_PROTOCOL_DEFINITION ( 'draft international standard', 'automotive_design', 1998, #3 ) ;
#386 = DIRECTION ( 'NONE',  ( 0.000000000000000000, 0.000000000000000000, -1.000000000000000000 ) ) ;
#387 = ORIENTED_EDGE ( 'NONE', *, *, #288, .T. ) ;
#388 = VECTOR ( 'NONE', #567, 39.37007874015748143 ) ;
#389 = FACE_OUTER_BOUND ( 'NONE', #60, .T. ) ;
#390 = CARTESIAN_POINT ( 'NONE',  ( 0.1718996062992126372, 0.2500000000000000555, 0.000000000000000000 ) ) ;
#391 = EDGE_CURVE ( 'NONE', #49, #160, #202, .T. ) ;
#392 = FACE_OUTER_BOUND ( 'NONE', #323, .T. ) ;
#393 = CARTESIAN_POINT ( 'NONE',  ( 0.2999999999999999889, 0.1000000000000000194, -0.1875000000000000278 ) ) ;
#394 = FACE_OUTER_BOUND ( 'NONE', #12, .T. ) ;
#395 = DIRECTION ( 'NONE',  ( 0.000000000000000000, 0.000000000000000000, -1.000000000000000000 ) ) ;
#396 = AXIS2_PLACEMENT_3D ( 'NONE', #77, #340, #519 ) ;
#397 = LINE ( 'NONE', #575, #285 ) ;
#398 = ADVANCED_FACE ( 'NONE', ( #528, #486 ), #82, .F. ) ;
#399 = DIRECTION ( 'NONE',  ( 1.000000000000000000, 0.000000000000000000, 0.000000000000000000 ) ) ;
#400 = VERTEX_POINT ( 'NONE', #484 ) ;
#401 = CARTESIAN_POINT ( 'NONE',  ( -0.5775000000000002354, 0.1000000000000000194, -0.1875000000000000278 ) ) ;
#402 =( GEOMETRIC_REPRESENTATION_CONTEXT ( 3 ) GLOBAL_UNCERTAINTY_ASSIGNED_CONTEXT ( ( #324 ) ) GLOBAL_UNIT_ASSIGNED_CONTEXT ( ( #235, #544, #413 ) ) REPRESENTATION_CONTEXT ( 'NONE', 'WORKASPACE' ) );
#403 = VERTEX_POINT ( 'NONE', #532 ) ;
#404 = ADVANCED_FACE ( 'NONE', ( #571, #42 ), #134, .T. ) ;
#405 = ORIENTED_EDGE ( 'NONE', *, *, #326, .F. ) ;
#406 = CARTESIAN_POINT ( 'NONE',  ( -0.5775000000000002354, -0.1000000000000000056, 0.1875000000000000278 ) ) ;
#407 = ORIENTED_EDGE ( 'NONE', *, *, #69, .F. ) ;
#408 = CARTESIAN_POINT ( 'NONE',  ( 0.2212598425196850571, 0.1000000000000000194, -0.2563976377952755792 ) ) ;
#409 = CIRCLE ( 'NONE', #257, 0.06889763779527557919 ) ;
#410 = AXIS2_PLACEMENT_3D ( 'NONE', #345, #252, #563 ) ;
#411 = AXIS2_PLACEMENT_3D ( 'NONE', #87, #222, #482 ) ;
#412 = ORIENTED_EDGE ( 'NONE', *, *, #466, .F. ) ;
#413 =( NAMED_UNIT ( * ) SI_UNIT ( $, .STERADIAN. ) SOLID_ANGLE_UNIT ( ) );
#414 = EDGE_LOOP ( 'NONE', ( #498, #327, #109, #370 ) ) ;
#415 = FACE_OUTER_BOUND ( 'NONE', #560, .T. ) ;
#416 = CARTESIAN_POINT ( 'NONE',  ( 0.000000000000000000, 0.1000000000000000194, -0.2563976377952755792 ) ) ;
#417 = EDGE_LOOP ( 'NONE', ( #62, #54 ) ) ;
#418 = CARTESIAN_POINT ( 'NONE',  ( 0.1718996062992126372, 0.2500000000000000555, -0.06889763779527559306 ) ) ;
#419 = VECTOR ( 'NONE', #272, 39.37007874015748143 ) ;
#420 = CIRCLE ( 'NONE', #411, 0.1181102362204724532 ) ;
#421 = CARTESIAN_POINT ( 'NONE',  ( 0.2999999999999999889, 0.1000000000000000194, -0.3056102362204724532 ) ) ;
#422 = ADVANCED_FACE ( 'NONE', ( #305 ), #443, .F. ) ;
#423 = EDGE_CURVE ( 'NONE', #468, #111, #250, .T. ) ;
#424 = ORIENTED_EDGE ( 'NONE', *, *, #52, .T. ) ;
#425 = CARTESIAN_POINT ( 'NONE',  ( 0.1718996062992126372, 0.6275000000000000577, 0.000000000000000000 ) ) ;
#426 = ORIENTED_EDGE ( 'NONE', *, *, #281, .F. ) ;
#427 = PRODUCT_CONTEXT ( 'NONE', #114, 'mechanical' ) ;
#428 = CYLINDRICAL_SURFACE ( 'NONE', #396, 0.06889763779527559306 ) ;
#429 = ORIENTED_EDGE ( 'NONE', *, *, #447, .F. ) ;
#430 = VECTOR ( 'NONE', #37, 39.37007874015748143 ) ;
#431 = AXIS2_PLACEMENT_3D ( 'NONE', #164, #467, #522 ) ;
#432 = AXIS2_PLACEMENT_3D ( 'NONE', #79, #218, #395 ) ;
#433 = DIRECTION ( 'NONE',  ( -1.000000000000000000, -0.000000000000000000, -0.000000000000000000 ) ) ;
#434 = CARTESIAN_POINT ( 'NONE',  ( 0.2999999999999999889, 0.2500000000000000555, -0.3125000000000000000 ) ) ;
#435 = CARTESIAN_POINT ( 'NONE',  ( 0.2999999999999999889, -0.2500000000000000000, 0.3124999999999998890 ) ) ;
#436 = CARTESIAN_POINT ( 'NONE',  ( 0.2999999999999999889, 0.2500000000000000555, -0.3125000000000000000 ) ) ;
#437 = CIRCLE ( 'NONE', #46, 0.1181102362204724532 ) ;
#438 = DIRECTION ( 'NONE',  ( 0.000000000000000000, 0.000000000000000000, -1.000000000000000000 ) ) ;
#439 = VECTOR ( 'NONE', #187, 39.37007874015748143 ) ;
#440 = ADVANCED_FACE ( 'NONE', ( #487 ), #84, .F. ) ;
#441 = DIMENSIONAL_EXPONENTS ( 1.000000000000000000, 0.000000000000000000, 0.000000000000000000, 0.000000000000000000, 0.000000000000000000, 0.000000000000000000, 0.000000000000000000 ) ;
#442 = DIRECTION ( 'NONE',  ( 0.000000000000000000, 5.463695987328527053E-17, -1.000000000000000000 ) ) ;
#443 = CYLINDRICAL_SURFACE ( 'NONE', #105, 0.1181102362204724532 ) ;
#444 = DIRECTION ( 'NONE',  ( 1.000000000000000000, 0.000000000000000000, -0.000000000000000000 ) ) ;
#445 = ORIENTED_EDGE ( 'NONE', *, *, #78, .T. ) ;
#446 = CARTESIAN_POINT ( 'NONE',  ( 0.2212598425196850016, -0.1000000000000000056, 0.06938976377952757457 ) ) ;
#447 = EDGE_CURVE ( 'NONE', #189, #403, #41, .T. ) ;
#448 = AXIS2_PLACEMENT_3D ( 'NONE', #393, #399, #38 ) ;
#449 = AXIS2_PLACEMENT_3D ( 'NONE', #191, #95, #371 ) ;
#450 = DIRECTION ( 'NONE',  ( 1.000000000000000000, -0.000000000000000000, -0.000000000000000000 ) ) ;
#451 = EDGE_CURVE ( 'NONE', #157, #320, #420, .T. ) ;
#452 = EDGE_LOOP ( 'NONE', ( #530, #505 ) ) ;
#453 =( NAMED_UNIT ( * ) PLANE_ANGLE_UNIT ( ) SI_UNIT ( $, .RADIAN. ) );
#454 = CARTESIAN_POINT ( 'NONE',  ( 0.2999999999999999889, 0.000000000000000000, 0.000000000000000000 ) ) ;
#455 = VERTEX_POINT ( 'NONE', #446 ) ;
#456 = LINE ( 'NONE', #317, #212 ) ;
#457 = CARTESIAN_POINT ( 'NONE',  ( 0.2999999999999999889, 0.1000000000000000194, -0.1875000000000000278 ) ) ;
#458 = AXIS2_PLACEMENT_3D ( 'NONE', #120, #249, #299 ) ;
#459 = ADVANCED_FACE ( 'NONE', ( #47 ), #168, .F. ) ;
#460 = ORIENTED_EDGE ( 'NONE', *, *, #529, .T. ) ;
#461 = DIRECTION ( 'NONE',  ( 0.000000000000000000, 0.000000000000000000, -1.000000000000000000 ) ) ;
#462 = ORIENTED_EDGE ( 'NONE', *, *, #91, .T. ) ;
#463 =( LENGTH_UNIT ( ) NAMED_UNIT ( * ) SI_UNIT ( $, .METRE. ) );
#464 = PLANE ( 'NONE',  #338 ) ;
#465 = ORIENTED_EDGE ( 'NONE', *, *, #529, .F. ) ;
#466 = EDGE_CURVE ( 'NONE', #125, #154, #574, .T. ) ;
#467 = DIRECTION ( 'NONE',  ( 1.000000000000000000, 0.000000000000000000, 0.000000000000000000 ) ) ;
#468 = VERTEX_POINT ( 'NONE', #145 ) ;
#469 = AXIS2_PLACEMENT_3D ( 'NONE', #35, #524, #155 ) ;
#470 = AXIS2_PLACEMENT_3D ( 'NONE', #401, #348, #179 ) ;
#471 = LINE ( 'NONE', #434, #66 ) ;
#472 = ORIENTED_EDGE ( 'NONE', *, *, #182, .F. ) ;
#473 = CARTESIAN_POINT ( 'NONE',  ( 0.2212598425196850016, -0.1000000000000000056, 0.1875000000000000278 ) ) ;
#474 = ORIENTED_EDGE ( 'NONE', *, *, #182, .T. ) ;
#475 = LINE ( 'NONE', #73, #545 ) ;
#476 = EDGE_LOOP ( 'NONE', ( #248, #29, #462, #387 ) ) ;
#477 = CIRCLE ( 'NONE', #410, 0.06889763779527557919 ) ;
#478 = AXIS2_PLACEMENT_3D ( 'NONE', #126, #226, #309 ) ;
#479 = DIRECTION ( 'NONE',  ( -0.000000000000000000, -1.000000000000000000, -0.000000000000000000 ) ) ;
#480 = ORIENTED_EDGE ( 'NONE', *, *, #220, .F. ) ;
#481 = DIMENSIONAL_EXPONENTS ( 1.000000000000000000, 0.000000000000000000, 0.000000000000000000, 0.000000000000000000, 0.000000000000000000, 0.000000000000000000, 0.000000000000000000 ) ;
#482 = DIRECTION ( 'NONE',  ( 0.000000000000000000, 0.000000000000000000, -1.000000000000000000 ) ) ;
#483 = EDGE_LOOP ( 'NONE', ( #140, #514, #376, #240 ) ) ;
#484 = CARTESIAN_POINT ( 'NONE',  ( 0.000000000000000000, -0.1000000000000000056, 0.1186023622047244347 ) ) ;
#485 = EDGE_CURVE ( 'NONE', #163, #117, #350, .T. ) ;
#486 = FACE_OUTER_BOUND ( 'NONE', #290, .T. ) ;
#487 = FACE_OUTER_BOUND ( 'NONE', #193, .T. ) ;
#488 = EDGE_LOOP ( 'NONE', ( #429, #205, #88, #27 ) ) ;
#489 = ORIENTED_EDGE ( 'NONE', *, *, #346, .F. ) ;
#490 = DIRECTION ( 'NONE',  ( -0.000000000000000000, -0.000000000000000000, -1.000000000000000000 ) ) ;
#491 = CARTESIAN_POINT ( 'NONE',  ( 0.2999999999999999889, -0.1000000000000000056, 0.06938976377952757457 ) ) ;
#492 = VERTEX_POINT ( 'NONE', #141 ) ;
#493 = EDGE_CURVE ( 'NONE', #316, #540, #456, .T. ) ;
#494 = DIRECTION ( 'NONE',  ( -1.000000000000000000, -0.000000000000000000, -0.000000000000000000 ) ) ;
#495 = CARTESIAN_POINT ( 'NONE',  ( 0.2212598425196850571, 0.1000000000000000194, -0.1875000000000000278 ) ) ;
#496 = AXIS2_PLACEMENT_3D ( 'NONE', #495, #433, #258 ) ;
#497 = AXIS2_PLACEMENT_3D ( 'NONE', #232, #13, #377 ) ;
#498 = ORIENTED_EDGE ( 'NONE', *, *, #391, .F. ) ;
#499 = CARTESIAN_POINT ( 'NONE',  ( 0.000000000000000000, 0.2500000000000000000, 0.3125000000000000000 ) ) ;
#500 = CARTESIAN_POINT ( 'NONE',  ( 0.2212598425196850016, 0.1000000000000000472, -0.06938976377952754682 ) ) ;
#501 = ORIENTED_EDGE ( 'NONE', *, *, #506, .T. ) ;
#502 = CARTESIAN_POINT ( 'NONE',  ( 0.000000000000000000, 0.2500000000000000000, 0.3125000000000000000 ) ) ;
#503 = CARTESIAN_POINT ( 'NONE',  ( 0.000000000000000000, 0.1000000000000000194, -0.1875000000000000278 ) ) ;
#504 = EDGE_CURVE ( 'NONE', #160, #135, #58, .T. ) ;
#505 = ORIENTED_EDGE ( 'NONE', *, *, #566, .F. ) ;
#506 = EDGE_CURVE ( 'NONE', #403, #154, #555, .T. ) ;
#507 = AXIS2_PLACEMENT_3D ( 'NONE', #150, #494, #461 ) ;
#508 = ORIENTED_EDGE ( 'NONE', *, *, #423, .T. ) ;
#509 = DIRECTION ( 'NONE',  ( 1.000000000000000000, -0.000000000000000000, -0.000000000000000000 ) ) ;
#510 = DIRECTION ( 'NONE',  ( 0.000000000000000000, -0.000000000000000000, 1.000000000000000000 ) ) ;
#511 = VERTEX_POINT ( 'NONE', #313 ) ;
#512 = ADVANCED_FACE ( 'NONE', ( #276 ), #541, .F. ) ;
#513 = LINE ( 'NONE', #110, #130 ) ;
#514 = ORIENTED_EDGE ( 'NONE', *, *, #83, .F. ) ;
#515 = DIRECTION ( 'NONE',  ( -0.000000000000000000, -0.000000000000000000, -1.000000000000000000 ) ) ;
#516 = AXIS2_PLACEMENT_3D ( 'NONE', #85, #262, #167 ) ;
#517 = AXIS2_PLACEMENT_3D ( 'NONE', #159, #261, #386 ) ;
#518 = ORIENTED_EDGE ( 'NONE', *, *, #158, .T. ) ;
#519 = DIRECTION ( 'NONE',  ( 0.000000000000000000, 0.000000000000000000, -1.000000000000000000 ) ) ;
#520 = ORIENTED_EDGE ( 'NONE', *, *, #246, .F. ) ;
#521 = SHAPE_DEFINITION_REPRESENTATION ( #236, #199 ) ;
#522 = DIRECTION ( 'NONE',  ( 0.000000000000000000, 0.000000000000000000, -1.000000000000000000 ) ) ;
#523 = DIRECTION ( 'NONE',  ( 1.000000000000000000, 0.000000000000000000, 0.000000000000000000 ) ) ;
#524 = DIRECTION ( 'NONE',  ( 1.000000000000000000, 0.000000000000000000, -0.000000000000000000 ) ) ;
#525 = DIRECTION ( 'NONE',  ( 0.000000000000000000, 1.000000000000000000, 2.731847993664263711E-16 ) ) ;
#526 = AXIS2_PLACEMENT_3D ( 'NONE', #5, #80, #442 ) ;
#527 = VECTOR ( 'NONE', #238, 39.37007874015748143 ) ;
#528 = FACE_BOUND ( 'NONE', #417, .T. ) ;
#529 = EDGE_CURVE ( 'NONE', #455, #25, #51, .T. ) ;
#530 = ORIENTED_EDGE ( 'NONE', *, *, #360, .F. ) ;
#531 = ADVANCED_FACE ( 'NONE', ( #415 ), #90, .F. ) ;
#532 = CARTESIAN_POINT ( 'NONE',  ( 0.000000000000000000, -0.2500000000000000000, -0.3125000000000001665 ) ) ;
#533 = DIRECTION ( 'NONE',  ( 0.000000000000000000, -2.731847993664263711E-16, 1.000000000000000000 ) ) ;
#534 = VECTOR ( 'NONE', #307, 39.37007874015748143 ) ;
#535 = DIRECTION ( 'NONE',  ( 0.000000000000000000, -1.000000000000000000, -5.463695987328527669E-17 ) ) ;
#536 =( GEOMETRIC_REPRESENTATION_CONTEXT ( 3 ) GLOBAL_UNCERTAINTY_ASSIGNED_CONTEXT ( ( #267 ) ) GLOBAL_UNIT_ASSIGNED_CONTEXT ( ( #138, #453, #98 ) ) REPRESENTATION_CONTEXT ( 'NONE', 'WORKASPACE' ) );
#537 = ORIENTED_EDGE ( 'NONE', *, *, #156, .F. ) ;
#538 = DIRECTION ( 'NONE',  ( 1.000000000000000000, -0.000000000000000000, -0.000000000000000000 ) ) ;
#539 = LINE ( 'NONE', #192, #176 ) ;
#540 = VERTEX_POINT ( 'NONE', #499 ) ;
#541 = CYLINDRICAL_SURFACE ( 'NONE', #16, 0.06889763779527557919 ) ;
#542 = DIRECTION ( 'NONE',  ( -1.000000000000000000, -0.000000000000000000, -0.000000000000000000 ) ) ;
#543 = ORIENTED_EDGE ( 'NONE', *, *, #423, .F. ) ;
#544 =( NAMED_UNIT ( * ) PLANE_ANGLE_UNIT ( ) SI_UNIT ( $, .RADIAN. ) );
#545 = VECTOR ( 'NONE', #515, 39.37007874015748143 ) ;
#546 = AXIS2_PLACEMENT_3D ( 'NONE', #569, #256, #245 ) ;
#547 = ORIENTED_EDGE ( 'NONE', *, *, #355, .T. ) ;
#548 = LINE ( 'NONE', #502, #439 ) ;
#549 = ADVANCED_FACE ( 'NONE', ( #286 ), #194, .F. ) ;
#550 = DIRECTION ( 'NONE',  ( 0.000000000000000000, -5.463695987328526437E-17, 1.000000000000000000 ) ) ;
#551 = ORIENTED_EDGE ( 'NONE', *, *, #365, .T. ) ;
#552 = DIRECTION ( 'NONE',  ( 0.000000000000000000, 0.000000000000000000, -1.000000000000000000 ) ) ;
#553 = CARTESIAN_POINT ( 'NONE',  ( 0.2999999999999999889, -0.2500000000000000000, -0.3125000000000001665 ) ) ;
#554 = ORIENTED_EDGE ( 'NONE', *, *, #339, .F. ) ;
#555 = LINE ( 'NONE', #198, #142 ) ;
#556 = VECTOR ( 'NONE', #538, 39.37007874015748143 ) ;
#557 = EDGE_CURVE ( 'NONE', #157, #186, #107, .T. ) ;
#558 = ORIENTED_EDGE ( 'NONE', *, *, #485, .F. ) ;
#559 = FACE_BOUND ( 'NONE', #137, .T. ) ;
#560 = EDGE_LOOP ( 'NONE', ( #86, #295, #133, #537 ) ) ;
#561 = PLANE ( 'NONE',  #469 ) ;
#562 = ORIENTED_EDGE ( 'NONE', *, *, #136, .T. ) ;
#563 = DIRECTION ( 'NONE',  ( 0.000000000000000000, 0.000000000000000000, -1.000000000000000000 ) ) ;
#564 = CIRCLE ( 'NONE', #496, 0.06889763779527557919 ) ;
#565 = ORIENTED_EDGE ( 'NONE', *, *, #572, .T. ) ;
#566 = EDGE_CURVE ( 'NONE', #284, #135, #178, .T. ) ;
#567 = DIRECTION ( 'NONE',  ( 0.000000000000000000, -1.000000000000000000, -2.731847993664263218E-16 ) ) ;
#568 = DIRECTION ( 'NONE',  ( 0.000000000000000000, 0.000000000000000000, -1.000000000000000000 ) ) ;
#569 = CARTESIAN_POINT ( 'NONE',  ( 0.000000000000000000, 0.000000000000000000, 0.000000000000000000 ) ) ;
#570 = CARTESIAN_POINT ( 'NONE',  ( 0.2999999999999999889, 0.1000000000000000472, -0.06938976377952754682 ) ) ;
#571 = FACE_OUTER_BOUND ( 'NONE', #287, .T. ) ;
#572 = EDGE_CURVE ( 'NONE', #540, #189, #548, .T. ) ;
#573 = DIRECTION ( 'NONE',  ( 1.000000000000000000, 0.000000000000000000, 0.000000000000000000 ) ) ;
#574 = LINE ( 'NONE', #10, #329 ) ;
#575 = CARTESIAN_POINT ( 'NONE',  ( 0.2212598425196850016, -0.09999999999999999167, 0.3056102362204724532 ) ) ;
ENDSEC;
END-ISO-10303-21;
